<?xml version="1.0" standalone="no"?>
<!DOCTYPE svg PUBLIC "-//W3C//DTD SVG 1.1//EN" "http://www.w3.org/Graphics/SVG/1.1/DTD/svg11.dtd" >
<svg xmlns="http://www.w3.org/2000/svg" xmlns:xlink="http://www.w3.org/1999/xlink" version="1.1">
<metadata></metadata>
<defs>
<font id="basic_sansregular" horiz-adv-x="1466" >
<font-face units-per-em="2048" ascent="1536" descent="-512" />
<missing-glyph horiz-adv-x="464" />
<glyph unicode="&#xfb01;" horiz-adv-x="1222" d="M74 821v146h143v118q0 167 99 270t262 103q71 0 131 -18t86 -33l-64 -143q-3 1 -15.5 8.5t-22 12t-25 10.5t-34.5 9t-40 3q-94 0 -145.5 -58.5t-51.5 -158.5v-123h469l183 6v-973h-183v821h-469v-821h-180v821h-143zM838 1280q0 52 36 87.5t89 35.5t90 -35.5t37 -87.5 t-37 -86.5t-90 -34.5t-89 34.5t-36 86.5z" />
<glyph unicode="&#xfb02;" horiz-adv-x="1224" d="M74 821v146h143v118q0 167 99 270t262 103q71 0 131 -18t86 -33l-64 -143q-3 1 -15.5 8.5t-22 12t-25 10.5t-34.5 9t-40 3q-94 0 -145.5 -58.5t-51.5 -158.5v-123h330v-146h-330v-821h-180v821h-143zM899 0v1446h180v-1446h-180z" />
<glyph horiz-adv-x="0" />
<glyph horiz-adv-x="682" />
<glyph unicode=" "  horiz-adv-x="464" />
<glyph unicode="&#x09;" horiz-adv-x="464" />
<glyph unicode="&#xa0;" horiz-adv-x="464" />
<glyph unicode="!" horiz-adv-x="507" d="M137 88q0 46 34.5 79.5t80.5 33.5q47 0 81 -33.5t34 -79.5q0 -47 -34 -81t-81 -34q-46 0 -80.5 34t-34.5 81zM156 1368h202l-26 -965l-156 -6z" />
<glyph unicode="&#x22;" horiz-adv-x="604" d="M119 1446h131l-8 -369h-117zM356 1446h131l-8 -369h-117z" />
<glyph unicode="#" horiz-adv-x="1343" d="M68 270l28 123h271l49 228h-273l29 122h270l58 263h155l-57 -263h238l57 263h158l-58 -263h283l-29 -122h-280l-49 -228h282l-29 -123h-280l-60 -270h-157l59 270h-237l-58 -270h-157l59 270h-272zM522 393h238l49 228h-238z" />
<glyph unicode="$" horiz-adv-x="1118" d="M59 147l117 146q158 -141 381 -141q139 0 218 52.5t79 143.5q0 73 -41 124.5t-106.5 81t-145 53.5t-158.5 52.5t-144.5 66.5t-106.5 106t-41 161q0 150 103.5 250t274.5 117v194h138v-192q326 -29 403 -328l-174 -43q-5 31 -22.5 63.5t-50.5 67t-91.5 56.5t-132.5 22 q-120 0 -190 -54.5t-70 -150.5q0 -58 41 -99t106 -67t143.5 -49.5t157.5 -55.5t144 -76t106 -120.5t41 -179.5q0 -149 -110.5 -245t-300.5 -113v-203h-138v203q-141 10 -252.5 55.5t-177.5 101.5z" />
<glyph unicode="%" horiz-adv-x="1785" d="M61 969q0 173 97.5 279t255.5 106q161 0 258.5 -105.5t97.5 -279.5q0 -169 -97.5 -272t-258.5 -103q-158 0 -255.5 103t-97.5 272zM236 969q0 -98 49.5 -157.5t128.5 -59.5q83 0 132.5 59.5t49.5 157.5q0 102 -49.5 164.5t-132.5 62.5q-78 0 -128 -63t-50 -164zM502 0 l618 1364h174l-616 -1364h-176zM1016 367q0 173 97 279t255 106q161 0 258.5 -105.5t97.5 -279.5q0 -169 -97.5 -272t-258.5 -103q-158 0 -255 103t-97 272zM1190 367q0 -98 49.5 -157.5t128.5 -59.5q83 0 132.5 59.5t49.5 157.5q0 102 -49.5 164.5t-132.5 62.5 q-78 0 -128 -63t-50 -164z" />
<glyph unicode="&#x26;" horiz-adv-x="1239" d="M88 369q0 244 272 346q-124 142 -124 293q0 146 102 240.5t256 94.5q153 0 246.5 -87t93.5 -218q0 -236 -313 -362l301 -348q79 119 79 325l164 -53q0 -240 -133 -401l125 -144l-139 -98l-113 131q-151 -96 -356 -96q-206 0 -333.5 105t-127.5 272zM281 389 q0 -101 74 -165t194 -64q145 0 248 53l-344 399q-172 -67 -172 -223zM414 1018q0 -69 32.5 -126t85.5 -116q136 53 185 107.5t49 134.5q0 79 -47.5 128.5t-124.5 49.5q-81 0 -130.5 -49t-49.5 -129z" />
<glyph unicode="'" horiz-adv-x="366" d="M119 1446h131l-8 -369h-117z" />
<glyph unicode="(" horiz-adv-x="591" d="M96 494q0 132 17 257.5t43.5 222t59 182t65.5 144.5t59.5 102.5t43.5 63.5l17 21l154 -72q-11 -13 -30 -38t-67.5 -112t-85.5 -185.5t-67.5 -257.5t-30.5 -328q0 -123 15.5 -240.5t40.5 -207t54.5 -168.5t59.5 -133.5t55 -94.5t41 -59l15 -19l-154 -72q-12 14 -33 41.5 t-73.5 122.5t-92.5 201.5t-73 277t-33 351.5z" />
<glyph unicode=")" horiz-adv-x="589" d="M37 -428q11 13 30 38t67 112.5t84.5 186t66.5 257.5t30 328t-28.5 326t-69.5 260.5t-82 182.5t-69 115l-29 37l153 72q12 -14 33 -41.5t73.5 -122t93 -201t73.5 -277t33 -351.5q0 -132 -17 -258t-44 -222t-59.5 -181.5t-65 -145t-59.5 -103t-44 -64.5l-17 -20z" />
<glyph unicode="*" horiz-adv-x="864" d="M84 1073l12 105l271 -60l-113 248l96 43l94 -262l166 233l86 -65l-190 -215l278 -29l-12 -104l-278 55l118 -250l-98 -45l-96 260l-160 -219l-88 63l190 211z" />
<glyph unicode="+" horiz-adv-x="948" d="M82 436v133h324v310h137v-310h323v-133h-323v-354h-137v354h-324z" />
<glyph unicode="," horiz-adv-x="485" d="M90 -225q6 4 15 11t32.5 30t41.5 46.5t33 58t15 67.5q-51 0 -86 31t-35 81q0 53 35 84t95 31q63 0 102 -43.5t39 -114.5t-21.5 -136.5t-51.5 -108t-60.5 -75t-51.5 -47.5l-22 -14z" />
<glyph unicode="-" horiz-adv-x="794" d="M127 598v135h541v-135h-541z" />
<glyph unicode="." horiz-adv-x="452" d="M106 106q0 50 35 85.5t86 35.5q49 0 84 -35.5t35 -85.5q0 -49 -34.5 -83.5t-84.5 -34.5q-51 0 -86 34t-35 84z" />
<glyph unicode="/" horiz-adv-x="847" d="M49 -418l572 1864h178l-570 -1864h-180z" />
<glyph unicode="0" horiz-adv-x="1277" d="M106 674q0 331 137.5 510.5t391.5 179.5q258 0 397 -179t139 -511q0 -329 -139 -507.5t-397 -178.5q-253 0 -391 178.5t-138 507.5zM295 674q0 -251 88.5 -386.5t251.5 -135.5q166 0 257 135.5t91 386.5q0 253 -91 389.5t-257 136.5q-163 0 -251.5 -136.5t-88.5 -389.5z " />
<glyph unicode="1" horiz-adv-x="757" d="M47 1057v178l512 117h25v-1352h-187v1151z" />
<glyph unicode="2" horiz-adv-x="1138" d="M96 987q0 168 126 272.5t327 104.5q210 0 335.5 -116.5t125.5 -309.5q0 -106 -41 -207.5t-116.5 -191t-160 -162.5t-192.5 -148q-71 -50 -117 -69l4 -8q48 6 119 6h549v-158h-944v150q47 34 121 84.5t125.5 85t117.5 84t111.5 90t93 94t76 104t47 112t18.5 126.5 q0 124 -74 197t-196 73t-196 -60.5t-74 -160.5q0 -41 10 -64l-182 -28q-13 26 -13 100z" />
<glyph unicode="3" horiz-adv-x="1155" d="M74 242l149 88q4 -7 13 -19t40 -43t67.5 -54.5t95.5 -42.5t124 -19q145 0 224 59.5t81 163.5q3 199 -336 217l-73 4v166l76 4q133 8 208.5 58t75.5 143q0 102 -72 167.5t-188 65.5q-115 0 -185.5 -53.5t-70.5 -136.5q0 -41 10 -64l-182 -28q-12 24 -12 100 q0 152 121.5 249t318.5 97q203 0 326 -105.5t123 -277.5q0 -123 -86.5 -209t-190.5 -86v-4q53 0 109 -21t105 -59.5t80.5 -102.5t31.5 -141q0 -162 -132 -266t-362 -104q-78 0 -147 14t-117 36.5t-88 49.5t-64.5 54t-41.5 49.5t-24 36.5z" />
<glyph unicode="4" horiz-adv-x="1210" d="M51 319v158l627 875h264v-875h209v-158h-209v-319h-184v319h-707zM246 481l4 -6q23 2 131 2h375v594q0 95 4 111l-6 4q-10 -25 -70 -109l-338 -456q-12 -17 -35.5 -50.5t-40.5 -58t-24 -31.5z" />
<glyph unicode="5" horiz-adv-x="1144" d="M68 233l153 99q4 -7 12.5 -19.5t39 -43.5t65.5 -54.5t92 -43t119 -19.5q141 0 233 81t92 213q0 129 -84 209t-219 80q-45 0 -87 -10.5t-69 -25.5t-47.5 -30t-29.5 -25l-10 -11h-185l58 719h772v-158h-611l-36 -385l6 -4q40 41 111.5 68.5t158.5 27.5q206 0 333.5 -126.5 t127.5 -328.5q0 -204 -143.5 -331t-370.5 -127q-96 0 -180.5 25t-137 61t-91.5 72.5t-56 61.5z" />
<glyph unicode="6" horiz-adv-x="1193" d="M104 664q0 315 155.5 507.5t410.5 192.5q253 0 395 -158l-102 -119q-96 113 -281 113q-174 0 -281.5 -145.5t-107.5 -382.5v-43l8 -2q3 21 16 48t42 61t69 61t104.5 46t141.5 19q187 0 309.5 -119t122.5 -309q0 -201 -129.5 -323.5t-339.5 -122.5q-241 0 -387 174.5 t-146 501.5zM319 414q66 -262 316 -262q125 0 204 77.5t79 204.5q0 118 -77.5 190t-205.5 72q-141 0 -227.5 -78t-88.5 -204z" />
<glyph unicode="7" horiz-adv-x="1026" d="M66 1008v344h911v-158l-520 -1194h-193l488 1087q44 98 51 105l-4 6q-36 -4 -121 -4h-447v-186h-165z" />
<glyph unicode="8" horiz-adv-x="1228" d="M94 383q0 117 67 205t179 127v4q-76 28 -124 105.5t-48 176.5q0 160 123.5 261.5t322.5 101.5q200 0 323.5 -102t123.5 -261q0 -99 -48 -176.5t-124 -105.5v-4q112 -39 179 -127t67 -205q0 -178 -143.5 -286.5t-377.5 -108.5t-377 108.5t-143 286.5zM285 403 q0 -114 90 -183.5t239 -69.5t239.5 69.5t90.5 183.5q0 104 -90 165t-240 61t-239.5 -61t-89.5 -165zM360 999q0 -89 69.5 -146.5t184.5 -57.5t184.5 57.5t69.5 146.5q0 95 -69 149t-185 54t-185 -54t-69 -149z" />
<glyph unicode="9" horiz-adv-x="1191" d="M88 918q0 201 129.5 323.5t339.5 122.5q242 0 386 -174t144 -502q0 -316 -153.5 -508t-407.5 -192q-261 0 -397 157l104 117q93 -110 279 -110q173 0 280 146t107 382v39l-8 2q-4 -20 -16 -46t-41 -60t-68.5 -61t-104 -46t-141.5 -19q-187 0 -309.5 119.5t-122.5 309.5z M276 918q0 -117 78.5 -191t204.5 -74q139 0 225 79t88 206q-33 130 -109 196t-204 66q-124 0 -203.5 -78.5t-79.5 -203.5z" />
<glyph unicode=":" horiz-adv-x="497" d="M129 106q0 50 35 85.5t86 35.5q49 0 84 -35.5t35 -85.5q0 -49 -34.5 -83.5t-84.5 -34.5q-51 0 -86 34t-35 84zM129 858q0 50 35 85.5t86 35.5q49 0 84 -35.5t35 -85.5t-34.5 -84.5t-84.5 -34.5q-51 0 -86 34.5t-35 84.5z" />
<glyph unicode=";" horiz-adv-x="542" d="M119 -225q6 4 15 11t32.5 30t41.5 46.5t33 58t15 67.5q-51 0 -86 31t-35 81q0 53 34.5 84t94.5 31q63 0 102.5 -44t39.5 -114q0 -71 -21.5 -136.5t-52 -108t-60.5 -75t-52 -47.5l-21 -14zM158 858q0 50 35 85.5t86 35.5q49 0 83.5 -35.5t34.5 -85.5t-34.5 -84.5 t-83.5 -34.5q-51 0 -86 34.5t-35 84.5z" />
<glyph unicode="&#x3c;" horiz-adv-x="835" d="M63 487v146l662 405v-159l-504 -320l504 -317v-160z" />
<glyph unicode="=" horiz-adv-x="1046" d="M135 240v131h776v-131h-776zM135 643v133h776v-133h-776z" />
<glyph unicode="&#x3e;" horiz-adv-x="835" d="M111 82v160l501 317l-501 320v159l661 -405v-146z" />
<glyph unicode="?" horiz-adv-x="954" d="M59 1061q0 157 111.5 252.5t294.5 95.5q191 0 309.5 -105t118.5 -270q0 -62 -20.5 -116t-54 -93t-73.5 -75.5t-79.5 -72t-73 -72.5t-54 -86.5t-20.5 -106.5v-29l-170 -6v37q-1 74 18.5 135.5t51 104t69.5 78.5t76.5 67.5t70 63t51.5 72.5t20 89q0 96 -67.5 159.5 t-172.5 63.5q-98 0 -158.5 -53t-60.5 -139q0 -26 10 -49l-184 -29q-13 37 -13 84zM313 86q0 47 33.5 81t79.5 34q47 0 81 -34t34 -81q0 -46 -34 -79.5t-81 -33.5q-46 0 -79.5 33.5t-33.5 79.5z" />
<glyph unicode="@" horiz-adv-x="1781" d="M94 485q0 243 104.5 428.5t292.5 286t431 100.5q168 0 310 -52.5t240 -145t152.5 -223t54.5 -283.5q0 -123 -31 -222.5t-83 -161t-117 -94t-137 -32.5q-92 0 -148.5 50t-56.5 132v6h-2q-34 -87 -107 -138.5t-182 -51.5q-165 0 -267 115.5t-102 300.5q0 190 105.5 304 t273.5 114q175 0 260 -132v119h179v-616q0 -45 28 -73t74 -28q96 0 169 112.5t73 295.5q0 284 -189.5 462.5t-496.5 178.5q-221 0 -393 -92.5t-267.5 -264t-95.5 -395.5q0 -155 53.5 -288t149 -227t232.5 -147.5t298 -53.5q64 0 123.5 7t106.5 18.5t89.5 26.5t74.5 31.5 t58.5 33t45 32t31 27t19.5 19.5l7 7l43 -49l-37 -37q-148 -128 -383 -166q-85 -14 -178 -14q-177 0 -327.5 58t-255 161t-163.5 247.5t-59 313.5zM631 500q0 -119 61.5 -191.5t163.5 -72.5q105 0 167 75.5t62 169.5v39q0 44 -14.5 86.5t-42.5 78.5t-75 58.5t-105 22.5 q-98 0 -157.5 -73t-59.5 -193z" />
<glyph unicode="A" horiz-adv-x="1259" d="M29 0l508 1352h186l508 -1352h-193l-125 336h-567l-125 -336h-192zM403 489h453l-182 490q-22 61 -43 141h-4q-21 -80 -43 -141z" />
<glyph unicode="B" horiz-adv-x="1245" d="M174 0v1352h455q216 0 335 -92t119 -269q0 -68 -21.5 -121.5t-55.5 -84.5t-66.5 -47.5t-65.5 -22.5v-4q32 -6 65 -19t72.5 -40.5t70 -63.5t51 -93.5t20.5 -125.5q0 -174 -118.5 -271.5t-340.5 -97.5h-520zM360 158h312q133 0 214 57.5t81 171.5q0 121 -88.5 181.5 t-231.5 60.5h-287v-471zM360 768h271q127 0 195.5 59.5t68.5 153.5q0 107 -70.5 160t-220.5 53h-244v-426z" />
<glyph unicode="C" horiz-adv-x="1304" d="M100 676q0 309 171 498.5t440 189.5q109 0 198 -31t146 -79t95.5 -110t55 -121.5t17.5 -115.5l-176 -28q0 52 -18.5 105t-56 103t-105 81.5t-154.5 31.5q-88 0 -164.5 -35.5t-134.5 -101t-91.5 -165.5t-33.5 -222q0 -135 37.5 -238.5t102 -164.5t144.5 -91t172 -30 q121 0 217.5 59t159.5 145l113 -114q-18 -25 -38.5 -49t-67 -64t-97.5 -68.5t-128.5 -50.5t-162.5 -22q-290 0 -465.5 183.5t-175.5 504.5z" />
<glyph unicode="D" horiz-adv-x="1376" d="M174 0v1352h410q330 0 511 -178.5t181 -497.5q0 -341 -166 -508.5t-457 -167.5h-479zM360 158h291q199 0 317.5 129t118.5 389q0 257 -130 387.5t-375 130.5h-222v-1036z" />
<glyph unicode="E" horiz-adv-x="1118" d="M174 0v1352h838v-158h-652v-414h580v-157h-580v-465h652v-158h-838z" />
<glyph unicode="F" horiz-adv-x="1048" d="M174 0v1352h817v-158h-631v-430h539v-162h-539v-602h-186z" />
<glyph unicode="G" horiz-adv-x="1361" d="M100 676q0 309 170.5 498.5t438.5 189.5q109 0 198.5 -29t146 -74.5t95.5 -104t55.5 -116t16.5 -112.5l-172 -29q0 51 -19 102t-57.5 96.5t-106.5 74t-155 28.5t-163.5 -35t-134 -100.5t-91 -165.5t-33.5 -223q0 -237 116.5 -380.5t317.5 -143.5q176 0 272.5 95.5 t96.5 235.5v29h-433v156h586v-668h-112q-18 60 -29 190q-56 -102 -161 -152t-247 -50q-267 0 -431.5 189t-164.5 499z" />
<glyph unicode="H" horiz-adv-x="1447" d="M174 0v1352h186v-572h727v572h187v-1352h-187v623h-727v-623h-186z" />
<glyph unicode="I" horiz-adv-x="534" d="M174 0v1352h186v-1352h-186z" />
<glyph unicode="J" horiz-adv-x="950" d="M10 129l115 137q114 -114 240 -114q118 0 176.5 55.5t58.5 179.5v965h186v-955q0 -201 -113 -305t-308 -104q-197 0 -355 141z" />
<glyph unicode="K" horiz-adv-x="1198" d="M174 0v1352h186v-613h152l467 613h199l-533 -693l539 -657h-205l-467 580h-152v-582h-186z" />
<glyph unicode="L" horiz-adv-x="1060" d="M174 0v1352h186v-1194h674v-158h-860z" />
<glyph unicode="M" horiz-adv-x="1720" d="M174 0v1352h203l409 -897q46 -100 76 -189h4q13 47 78 189l410 897h192v-1352h-186l4 831q0 40 3 104t5 73l-8 2q-26 -99 -51 -154l-391 -860h-115l-406 874q-30 63 -45 140l-8 -2q2 -9 5 -73t3 -104l4 -831h-186z" />
<glyph unicode="N" horiz-adv-x="1411" d="M174 0v1352h207l537 -856q80 -129 137 -246l12 6q-12 174 -12 244l-4 852h186v-1352h-203l-536 848q-120 195 -144 250l-10 -6q12 -36 12 -242l4 -850h-186z" />
<glyph unicode="O" d="M98 676q0 156 47.5 285.5t131.5 217.5t201 136.5t255 48.5t255.5 -48.5t201.5 -137t131 -217.5t47 -285t-47 -285t-131 -217.5t-201.5 -137t-255.5 -48.5t-255 48.5t-201 136.5t-131.5 217.5t-47.5 285.5zM287 676q0 -239 124 -381.5t322 -142.5q199 0 323 142.5 t124 381.5t-124 381.5t-323 142.5q-198 0 -322 -142.5t-124 -381.5z" />
<glyph unicode="P" horiz-adv-x="1196" d="M174 0v1352h426q254 0 392 -119t138 -338q0 -220 -132 -339.5t-375 -119.5h-263v-436h-186zM360 594h234q167 0 257.5 78t90.5 223q0 143 -92 221t-262 78h-228v-600z" />
<glyph unicode="Q" d="M98 676q0 156 47.5 285.5t131.5 217.5t201 136.5t255 48.5t255.5 -48.5t201.5 -137t131 -217.5t47 -285q0 -247 -113 -419.5t-307 -236.5q194 -41 379 -51l-35 -145q-344 28 -624 166q-255 24 -412.5 208.5t-157.5 477.5zM287 676q0 -239 124 -381.5t322 -142.5 q199 0 323 142.5t124 381.5t-124 381.5t-323 142.5q-198 0 -322 -142.5t-124 -381.5z" />
<glyph unicode="R" horiz-adv-x="1226" d="M174 0v1352h408q495 0 495 -420q0 -137 -82.5 -235t-220.5 -144q47 -27 85.5 -80.5t65 -109t54.5 -108t69 -85.5t95 -33l41 4l14 -143q-52 -10 -111 -10q-77 0 -134.5 29.5t-92.5 76.5t-63.5 103.5t-56 113t-60.5 103.5t-86.5 76.5t-124.5 29.5h-109v-520h-186zM360 666 h195q147 0 240.5 70.5t93.5 195.5q0 130 -80.5 196t-235.5 66h-213v-528z" />
<glyph unicode="S" horiz-adv-x="1138" d="M66 147l116 146q158 -141 381 -141q139 0 218 52.5t79 143.5q0 73 -41 124.5t-106.5 81t-145 53.5t-158.5 52.5t-144.5 66.5t-106.5 106t-41 161q0 165 124.5 268t323.5 103q385 0 471 -330l-174 -43q-5 31 -22.5 63.5t-50.5 67t-91.5 56.5t-132.5 22q-120 0 -190 -54.5 t-70 -150.5q0 -58 41 -99t106 -67t143.5 -49.5t157.5 -55.5t144 -76t106 -120.5t41 -179.5q0 -163 -131.5 -261.5t-349.5 -98.5q-165 0 -294 47.5t-203 111.5z" />
<glyph unicode="T" horiz-adv-x="1107" d="M27 1194v158h1054v-158h-434v-1194h-186v1194h-434z" />
<glyph unicode="U" horiz-adv-x="1398" d="M162 522v830h186v-826q0 -176 96 -275t256 -99q158 0 254.5 99t96.5 271v830h186v-830q0 -241 -148.5 -387.5t-388.5 -146.5q-242 0 -390 146.5t-148 387.5z" />
<glyph unicode="V" horiz-adv-x="1243" d="M33 1352h196l349 -979q21 -58 43 -142h4q16 60 45 142l352 979h192l-503 -1352h-183z" />
<glyph unicode="W" horiz-adv-x="1851" d="M37 1352h192l254 -979l39 -162h4q29 126 39 162l277 979h174l276 -979q14 -52 39 -162h4l39 162l254 979h187l-388 -1352h-204l-250 895q-33 114 -43 195h-4q-9 -68 -45 -195l-263 -895h-196z" />
<glyph unicode="X" horiz-adv-x="1220" d="M31 0l452 666l-452 686h223l266 -420q68 -111 88 -160h4q8 19 37.5 72.5t52.5 87.5l275 420h215l-457 -684l457 -668h-213l-272 399q-60 89 -95 170h-4q-38 -88 -96 -170l-276 -399h-205z" />
<glyph unicode="Y" horiz-adv-x="1185" d="M29 1352h200l297 -535q57 -103 70 -170h4q8 62 68 170l295 535h192l-467 -856v-496h-186v485z" />
<glyph unicode="Z" horiz-adv-x="1161" d="M72 0v158l704 929q61 78 86 107l-4 6q-81 -6 -145 -6h-621v158h991v-158l-698 -930q-22 -29 -41 -51t-33.5 -37t-17.5 -18l4 -6q21 6 145 6h633v-158h-1003z" />
<glyph unicode="[" horiz-adv-x="659" d="M164 -418v1864h434v-158h-254v-1548h254v-158h-434z" />
<glyph unicode="\" horiz-adv-x="847" d="M49 1446h178l572 -1864h-181z" />
<glyph unicode="]" horiz-adv-x="659" d="M61 -260h254v1548h-254v158h435v-1864h-435v158z" />
<glyph unicode="^" horiz-adv-x="763" d="M84 1061l197 420h202l197 -420h-162l-137 282l-135 -282h-162z" />
<glyph unicode="_" horiz-adv-x="753" d="M0 -123h754v-133h-754v133z" />
<glyph unicode="`" horiz-adv-x="557" d="M121 1430h233l117 -308l-162 -10z" />
<glyph unicode="a" horiz-adv-x="1093" d="M88 256q0 156 151.5 225.5t475.5 69.5h28v61q0 101 -61 158t-178 57q-104 0 -162.5 -40.5t-58.5 -114.5q0 -26 10 -49l-170 -29q-12 37 -12 84q0 134 107.5 217.5t289.5 83.5q195 0 305.5 -98t110.5 -267v-391q0 -40 13 -56.5t46 -16.5q19 0 35 4l10 -152 q-47 -12 -98 -12q-79 0 -126.5 39.5t-47.5 120.5v2h-4q-13 -24 -33.5 -47t-59 -52.5t-101.5 -47t-142 -17.5q-156 0 -242 73.5t-86 194.5zM272 260q0 -121 181 -121q132 0 211 60.5t79 134.5v92h-28q-239 0 -341 -41.5t-102 -124.5z" />
<glyph unicode="b" horiz-adv-x="1210" d="M143 0v1446h181v-645q109 178 340 178q205 0 332.5 -137.5t127.5 -360.5t-129.5 -358t-341.5 -135q-137 0 -228 63.5t-130 167.5v-13q-1 -30 -7 -86q-8 -70 -18 -120h-127zM324 463q0 -57 19 -112.5t56 -103.5t100.5 -78t143.5 -30q135 0 216 94t81 248q0 156 -83.5 251 t-225.5 95q-73 0 -133.5 -30.5t-97.5 -79t-56.5 -104.5t-19.5 -111v-39z" />
<glyph unicode="c" horiz-adv-x="1064" d="M84 477q0 221 135.5 361.5t349.5 140.5q182 0 294 -94.5t112 -235.5q0 -18 -1.5 -34.5t-3.5 -23.5l-1 -7l-168 -13q4 20 4 52q0 91 -62.5 147.5t-169.5 56.5q-137 0 -221 -95t-84 -251t85 -249t237 -93q191 0 297 129l106 -114q-67 -81 -172.5 -123.5t-236.5 -42.5 q-225 0 -362.5 135t-137.5 354z" />
<glyph unicode="d" horiz-adv-x="1210" d="M86 485q0 223 129.5 358.5t341.5 135.5q113 0 196.5 -44.5t133.5 -119.5v631h180v-1446l-133 -6q-20 131 -20 202q0 12 1 23h-6q-44 -103 -136.5 -167t-225.5 -64q-205 0 -333 137t-128 360zM270 485q0 -156 84 -251t226 -95q73 0 133.5 30.5t97.5 79t56.5 105 t19.5 111.5v39q0 57 -19.5 112t-56.5 103.5t-100.5 78t-143.5 29.5q-135 0 -216 -94t-81 -248z" />
<glyph unicode="e" horiz-adv-x="1087" d="M86 481q0 220 131 359t348 139q207 0 324 -127.5t117 -325.5q0 -25 -2 -48t-4 -34l-3 -10h-725q14 -135 101.5 -215t230.5 -80q179 0 275 127l110 -100q-67 -88 -169.5 -133t-229.5 -45q-230 0 -367 135t-137 358zM276 563h545q-2 120 -71.5 192t-184.5 72t-191.5 -72.5 t-97.5 -191.5z" />
<glyph unicode="f" horiz-adv-x="753" d="M74 821v146h143v118q0 167 99 270t262 103q71 0 131 -18t86 -33l-64 -143q-3 1 -15.5 8.5t-22 12t-25 10.5t-34.5 9t-40 3q-94 0 -145.5 -58.5t-51.5 -158.5v-123h330v-146h-330v-821h-180v821h-143z" />
<glyph unicode="g" horiz-adv-x="1085" d="M35 -162q0 146 164 205q-95 55 -95 164q0 57 35.5 98.5t91.5 63.5q-114 94 -114 256q0 159 112.5 255.5t298.5 96.5q171 0 285 -84q100 47 100 231l154 -32q0 -65 -19.5 -117t-50 -82.5t-60 -47t-56.5 -20.5q63 -85 63 -200q0 -158 -114 -255.5t-300 -97.5q-88 0 -174 27 q-88 -13 -88 -70q0 -48 51.5 -66t159.5 -18h201q174 0 270.5 -70t96.5 -202q0 -135 -121.5 -218t-382.5 -83q-255 0 -381.5 70t-126.5 196zM213 -135q0 -74 77 -107.5t253 -33.5q174 0 249.5 35t75.5 114q0 70 -53 94.5t-170 24.5h-215q-217 0 -217 -127zM299 625 q0 -92 62.5 -147.5t166.5 -55.5q106 0 170 55.5t64 147.5t-63.5 147t-168.5 55t-168 -55t-63 -147z" />
<glyph unicode="h" horiz-adv-x="1157" d="M143 0v1446h179v-649h4q104 182 321 182q172 0 274.5 -106.5t102.5 -280.5v-592h-182v592q0 108 -59.5 171.5t-166.5 63.5q-72 0 -129.5 -29.5t-91.5 -78t-51.5 -103.5t-17.5 -112v-504h-183z" />
<glyph unicode="i" horiz-adv-x="473" d="M117 1280q0 52 36 87.5t89 35.5t90 -35.5t37 -87.5t-37 -86.5t-90 -34.5t-89 34.5t-36 86.5zM145 0v967l183 6v-973h-183z" />
<glyph unicode="j" horiz-adv-x="487" d="M-180 -369l55 125q41 -30 113 -30q90 0 131 47.5t41 142.5v1051l182 6v-1022q0 -183 -84.5 -280t-253.5 -97q-35 0 -67 6t-52.5 14t-35.5 16.5t-22 14.5zM129 1280q0 52 36 87.5t89 35.5t90 -35.5t37 -87.5t-37 -86.5t-90 -34.5t-89 34.5t-36 86.5z" />
<glyph unicode="k" horiz-adv-x="1034" d="M143 0v1446h181v-856h133l331 377h207l-409 -453l450 -514h-227l-381 444h-104v-444h-181z" />
<glyph unicode="l" horiz-adv-x="471" d="M145 0v1446h181v-1446h-181z" />
<glyph unicode="m" horiz-adv-x="1816" d="M143 0v967l127 6q25 -116 25 -225q40 101 124 164t208 63q128 0 218.5 -59.5t129.5 -165.5q42 100 125.5 162.5t206.5 62.5q172 0 274 -106.5t102 -280.5v-588h-182v588q0 108 -59 171.5t-166 63.5q-65 0 -118.5 -29.5t-86 -77t-50 -102t-17.5 -108.5v-506h-183v588 q0 108 -59 171.5t-166 63.5q-65 0 -118.5 -29.5t-86 -77t-50 -102t-17.5 -108.5v-506h-181z" />
<glyph unicode="n" horiz-adv-x="1155" d="M143 0v967l127 6q25 -116 25 -225h6q43 101 129 166t215 65q172 0 274.5 -106.5t102.5 -280.5v-592h-182v592q0 108 -59.5 171.5t-166.5 63.5q-72 0 -129.5 -30t-91.5 -78.5t-51.5 -103.5t-17.5 -109v-506h-181z" />
<glyph unicode="o" horiz-adv-x="1163" d="M84 479q0 221 137.5 360.5t360.5 139.5t360 -139.5t137 -360.5q0 -220 -136.5 -355.5t-360.5 -135.5t-361 135.5t-137 355.5zM268 479q0 -151 86.5 -245.5t227.5 -94.5q140 0 226.5 94.5t86.5 245.5q0 152 -86.5 250t-226.5 98t-227 -98t-87 -250z" />
<glyph unicode="p" horiz-adv-x="1210" d="M143 -418v1385l127 6q10 -49 18 -122q7 -59 7 -90v-13h2q44 103 135.5 167t231.5 64q205 0 332.5 -137.5t127.5 -360.5t-129.5 -358t-341.5 -135q-109 0 -193 46.5t-136 125.5v-578h-181zM324 463q0 -57 19 -112.5t56 -103.5t100.5 -78t143.5 -30q135 0 216 94t81 248 q0 156 -83.5 251t-225.5 95q-73 0 -133.5 -30.5t-97.5 -79t-56.5 -104.5t-19.5 -111v-39z" />
<glyph unicode="q" horiz-adv-x="1210" d="M86 485q0 223 129.5 358.5t341.5 135.5q132 0 224 -63.5t132 -167.5h2v13q0 29 7 87q8 70 18 119h127v-1385h-180v588q-50 -84 -136 -133t-204 -49q-205 0 -333 137t-128 360zM270 485q0 -156 84 -251t226 -95q73 0 133.5 30.5t97.5 79t56.5 105t19.5 111.5v39 q0 57 -19.5 112t-56.5 103.5t-100.5 78t-143.5 29.5q-135 0 -216 -94t-81 -248z" />
<glyph unicode="r" horiz-adv-x="706" d="M143 0v967l127 6q25 -116 25 -225h8q30 104 95.5 167.5t166.5 63.5q66 0 125 -16l-45 -183q-38 23 -90 23q-91 0 -161 -78t-70 -219v-506h-181z" />
<glyph unicode="s" horiz-adv-x="964" d="M59 133l111 123q42 -40 127 -78.5t182 -38.5q104 0 158.5 34t54.5 91q0 40 -32.5 67t-84.5 43t-114.5 29.5t-125 34t-114.5 49t-84.5 81.5t-32.5 126q0 122 105.5 203.5t273.5 81.5q169 0 274 -79t105 -200q0 -17 -2 -34t-4 -25l-2 -8l-166 -12q6 21 6 47q0 74 -59 116.5 t-156 42.5q-89 0 -139.5 -37t-50.5 -98q0 -46 32 -75.5t83.5 -45t114 -28t125 -30t114.5 -45t85 -79.5q34 -54 34 -129q0 -126 -109 -199q-110 -73 -291 -73q-83 0 -155 15t-125 42t-80 45t-58 43z" />
<glyph unicode="t" horiz-adv-x="827" d="M53 821v146h154v286l182 11v-297h375v-146h-375v-446q0 -119 44.5 -176.5t141.5 -57.5q50 0 95 14t64 28l20 14l57 -146q-11 -7 -31 -17.5t-86.5 -28t-136.5 -17.5q-183 0 -266.5 95t-83.5 286v452h-154z" />
<glyph unicode="u" horiz-adv-x="1132" d="M133 375v592h182v-592q0 -108 59.5 -172t166.5 -64q64 0 116.5 30.5t84.5 78.5t49.5 103.5t17.5 109.5v506h180v-967l-131 -6q-11 49 -17.5 114.5t-6.5 90.5h-3q-43 -95 -123.5 -153t-197.5 -58q-172 0 -274.5 106.5t-102.5 280.5z" />
<glyph unicode="v" horiz-adv-x="1060" d="M33 967h203l266 -676q23 -57 33 -107h4q9 51 30 107l271 676h184l-395 -967h-197z" />
<glyph unicode="w" horiz-adv-x="1566" d="M37 967h203l192 -676q8 -31 20 -66.5t13 -40.5h4q2 6 13 44t18 63l198 676h187l198 -670l11 -44t10.5 -44t5.5 -25h4q15 60 31 113l192 670h185l-297 -967h-215l-203 670q-11 41 -14 67h-5q-3 -26 -14 -67l-211 -670h-211z" />
<glyph unicode="x" horiz-adv-x="989" d="M31 967h213l202 -289q48 -75 50 -82h4q6 21 45 82l203 289h204l-352 -480l358 -487h-213l-217 303q-27 35 -30 57h-4q-5 -21 -33 -57l-217 -303h-205l354 477z" />
<glyph unicode="y" horiz-adv-x="1060" d="M39 967h203l266 -676q23 -57 33 -107h2q7 40 32 107l271 676h184l-459 -1139q-46 -120 -122.5 -188t-200.5 -68q-41 0 -78.5 8t-54.5 16l-17 7l33 149q46 -24 105 -24q69 0 108.5 38.5t67.5 112.5l37 96z" />
<glyph unicode="z" horiz-adv-x="946" d="M74 0v145l530 619q41 47 51 57l-2 4q-23 -4 -80 -4h-489v146h776v-146l-498 -588q-56 -67 -77 -88l2 -4q20 4 88 4h502v-145h-803z" />
<glyph unicode="{" horiz-adv-x="665" d="M72 420v147h20q52 0 91.5 35t39.5 103v391q0 83 21.5 147t57 103.5t85.5 64.5t102 35t113 10v-160q-100 0 -154.5 -57t-54.5 -172v-401q0 -45 -11 -79.5t-29 -52.5t-32 -27t-28 -13q10 -3 24.5 -13.5t32.5 -29.5t30.5 -53.5t12.5 -75.5v-363q0 -115 54.5 -172t154.5 -57 v-160q-60 0 -112.5 10t-102.5 35.5t-85.5 65t-57 103.5t-21.5 146v353q0 68 -39.5 102.5t-91.5 34.5h-20z" />
<glyph unicode="|" horiz-adv-x="483" d="M164 -418v1845h155v-1845h-155z" />
<glyph unicode="}" horiz-adv-x="663" d="M63 -270q100 0 154.5 57t54.5 172v363q0 125 95 170q3 1 4 2q-12 3 -25.5 11.5t-32 26.5t-30 53t-11.5 81v403q0 115 -54.5 172t-154.5 57v160q76 0 139.5 -17t119.5 -55.5t88 -112t32 -175.5v-393q0 -68 39.5 -103t91.5 -35h21v-147h-21q-52 0 -91.5 -34.5t-39.5 -102.5 v-353q0 -102 -32 -175t-88 -112t-119.5 -56t-139.5 -17v160z" />
<glyph unicode="~" horiz-adv-x="1163" d="M139 502v127q91 67 226 67q87 0 219 -41t219 -41q52 0 117.5 16t107.5 46v-127q-101 -68 -225 -68q-87 0 -219 41t-219 41q-53 0 -118.5 -15.5t-107.5 -45.5z" />
<glyph unicode="&#xa1;" horiz-adv-x="483" d="M129 864q0 47 34 81t81 34q46 0 80 -34t34 -81q0 -46 -34 -79t-80 -33q-47 0 -81 33t-34 79zM137 -416l27 959l155 6l21 -965h-203z" />
<glyph unicode="&#xa2;" horiz-adv-x="1079" d="M92 481q0 197 113 330t303 158v194h137v-190q113 -8 204.5 -50t151.5 -114l-106 -115q-106 129 -297 129q-152 0 -237 -93t-85 -249t85 -249t237 -93q191 0 297 129l106 -114q-60 -72 -151.5 -114t-204.5 -50v-203h-137v207q-190 25 -303 157.5t-113 329.5z" />
<glyph unicode="&#xa3;" horiz-adv-x="1208" d="M86 514v125h186q-27 44 -38 64t-30 60.5t-26.5 80.5t-7.5 86q0 188 137 311t357 123q76 0 143 -14.5t113.5 -38t85 -52t62 -57t39.5 -52t22 -38.5l6 -14l-162 -72q-3 7 -8.5 19t-29.5 42.5t-55.5 53.5t-89 42t-126.5 19q-135 0 -220.5 -76.5t-85.5 -193.5 q0 -32 5.5 -62.5t21 -65.5t23.5 -52t33 -60.5t30 -52.5h447v-125h-392q15 -58 15 -98q0 -42 -13.5 -84t-32 -71t-40 -54t-34.5 -36.5t-18 -14.5l5 -6q36 6 100 6h592v-156h-950v115q8 5 21.5 14t48.5 39t61.5 62.5t48.5 83t22 102.5q0 48 -16 98h-250z" />
<glyph unicode="&#xa4;" horiz-adv-x="1222" d="M111 350l174 172q-54 85 -54 191q0 107 54 192l-170 168l92 94l168 -166q104 91 239 91t236 -91l168 166l94 -94l-170 -168q57 -93 57 -192q0 -108 -57 -193l166 -162l-94 -94l-164 160q-94 -88 -236 -88q-140 0 -239 90l-170 -170zM373 713q0 -97 70 -166.5t171 -69.5 q100 0 171 69.5t71 166.5q0 99 -71 167t-171 68t-170.5 -68.5t-70.5 -166.5z" />
<glyph unicode="&#xa5;" horiz-adv-x="1234" d="M53 1352h201l297 -535q57 -103 70 -170h4q8 64 67 170l295 535h193l-396 -723h269v-131h-340v-136h340v-131h-340v-231h-187v231h-344v131h344v123l-6 13h-338v131h267z" />
<glyph unicode="&#xa6;" horiz-adv-x="479" d="M162 360h155v-778h-155v778zM162 649v778h155v-778h-155z" />
<glyph unicode="&#xa7;" horiz-adv-x="1161" d="M72 -270l118 145q147 -141 379 -141q135 0 215 50.5t80 137.5q0 53 -25 92t-67 62.5t-97 41.5t-115 32t-120.5 29.5t-115.5 39.5t-97 56.5t-67 85.5t-25 122q0 72 41 132t113 96q-159 95 -164 295q-4 163 120.5 260.5t327.5 97.5q76 0 140.5 -13.5t109.5 -34.5 t82.5 -51.5t60 -59t40.5 -63t26 -57.5t15 -49l-175 -47q-6 33 -24 66t-51 67.5t-91.5 56t-132.5 21.5q-118 0 -189 -51.5t-71 -140.5q0 -68 41 -115t106.5 -72.5t144.5 -46.5t158 -46.5t144.5 -62t106.5 -104t41 -162.5q0 -153 -121 -225q119 -88 119 -252q0 -162 -133 -257 t-351 -95q-166 0 -294 48t-203 112zM311 492q0 -47 26.5 -80.5t78.5 -55t103.5 -35.5t129 -33t127.5 -36q90 44 90 147q0 42 -18 75.5t-43 53.5t-72 38.5t-82.5 27.5t-98 24t-97.5 25q-66 -6 -105 -46.5t-39 -104.5z" />
<glyph unicode="&#xa8;" horiz-adv-x="735" d="M63 1282q0 45 32 77t77 32q44 0 75.5 -32.5t31.5 -76.5q0 -46 -31.5 -77t-75.5 -31q-46 0 -77.5 31t-31.5 77zM457 1282q0 44 32 76.5t76 32.5q45 0 77 -32t32 -77q0 -46 -31.5 -77t-77.5 -31q-45 0 -76.5 31.5t-31.5 76.5z" />
<glyph unicode="&#xa9;" horiz-adv-x="1572" d="M98 678q0 308 188.5 496t497.5 188q311 0 501 -188.5t190 -495.5q0 -310 -190 -499t-501 -189q-309 0 -497.5 189t-188.5 499zM166 678q0 -283 170 -456t448 -173q280 0 451.5 173t171.5 456q0 281 -171.5 453t-451.5 172q-278 0 -448 -172t-170 -453zM379 653 q0 209 112 336t297 127q155 0 250 -75.5t95 -198.5l-138 -23q0 7 -1.5 17.5t-13.5 38t-32 48.5t-62 38.5t-98 17.5q-112 0 -179.5 -87t-67.5 -230q0 -135 72.5 -217.5t191.5 -82.5q49 0 93 10.5t71.5 26t48 30.5t28.5 25l9 11l69 -105q-4 -5 -11.5 -14.5t-36.5 -32.5 t-64.5 -41t-96 -32.5t-129.5 -14.5q-183 0 -295 118t-112 310z" />
<glyph unicode="&#xaa;" horiz-adv-x="964" d="M100 786q0 129 124 184.5t372 55.5h18v43q0 71 -43.5 112.5t-126.5 41.5q-74 0 -115.5 -29.5t-41.5 -81.5q0 -17 8 -33l-164 -28q-10 30 -10 71q0 109 89 175.5t241 66.5q162 0 251 -79.5t89 -219.5v-287q0 -29 10 -41t35 -12q20 0 28 2l8 -143q-41 -11 -92 -11 q-146 0 -155 125h-2q-11 -20 -27.5 -38t-46 -40t-78.5 -35.5t-109 -13.5q-125 0 -193.5 58t-68.5 157zM279 801q0 -42 33.5 -65t95.5 -23q93 0 149.5 42t56.5 97v68h-18q-168 0 -242.5 -29t-74.5 -90z" />
<glyph unicode="&#xab;" horiz-adv-x="968" d="M86 467v147l301 279l92 -102l-274 -250l274 -248l-92 -105zM475 467v147l301 279l92 -102l-274 -250l274 -248l-92 -105z" />
<glyph unicode="&#xad;" horiz-adv-x="794" d="M127 598v135h541v-135h-541z" />
<glyph unicode="&#xae;" horiz-adv-x="907" d="M96 1004q0 159 100 259.5t257 100.5t257.5 -100.5t100.5 -259.5q0 -158 -100 -257.5t-258 -99.5q-157 0 -257 99.5t-100 257.5zM150 1004q0 -137 84.5 -222.5t218.5 -85.5q137 0 221 86t84 222q0 138 -84.5 224.5t-220.5 86.5q-137 0 -220 -85t-83 -226zM309 786v439h154 q61 0 98 -35t37 -94q0 -34 -13.5 -60t-32 -38.5t-32.5 -18.5t-20 -6q27 -10 45.5 -33.5t27 -45.5t22.5 -39t34 -17h8l4 -52q-11 -2 -25 -2q-28 0 -48 17t-32.5 41.5t-26 49t-37.5 41.5t-58 17h-43v-164h-62zM371 1006h82q37 0 62.5 26.5t25.5 63.5q0 34 -24 54.5t-62 20.5 h-84v-165z" />
<glyph unicode="&#xaf;" horiz-adv-x="790" d="M109 1212v134h573v-134h-573z" />
<glyph unicode="&#xb0;" horiz-adv-x="700" d="M90 1102q0 116 71.5 187t186.5 71q117 0 189.5 -70.5t72.5 -187.5q0 -115 -72.5 -185.5t-189.5 -70.5q-115 0 -186.5 70.5t-71.5 185.5zM195 1102q0 -70 42 -113t111 -43q71 0 114.5 43t43.5 113t-44 114t-114 44q-69 0 -111 -43.5t-42 -114.5z" />
<glyph unicode="&#xb1;" horiz-adv-x="1042" d="M129 82v133h784v-133h-784zM129 602v133h324v266h137v-266h323v-133h-323v-274h-137v274h-324z" />
<glyph unicode="&#xb4;" horiz-adv-x="557" d="M80 1112l117 318h233l-186 -308z" />
<glyph unicode="&#xb6;" horiz-adv-x="1167" d="M53 983q0 166 119.5 267.5t314.5 101.5h494v-1760h-115v1668h-184v-1668h-113v1029h-82q-195 0 -314.5 99.5t-119.5 262.5z" />
<glyph unicode="&#xb7;" horiz-adv-x="468" d="M115 729q0 50 35 85.5t86 35.5q49 0 83.5 -35.5t34.5 -85.5t-34.5 -84.5t-83.5 -34.5q-51 0 -86 34.5t-35 84.5z" />
<glyph unicode="&#xb8;" horiz-adv-x="559" d="M76 -330l51 103q6 -6 17 -15.5t47.5 -25t74.5 -15.5q40 0 64 16.5t24 45.5q0 34 -44 58t-144 24l74 170h125l-41 -90q63 -7 112 -49.5t49 -118.5q0 -85 -61.5 -133t-155.5 -48q-35 0 -67.5 8t-54 19.5t-38.5 23t-24 19.5z" />
<glyph unicode="&#xba;" horiz-adv-x="976" d="M86 967q0 176 110.5 286.5t290.5 110.5q181 0 292.5 -110.5t111.5 -286.5t-111.5 -286t-292.5 -110q-180 0 -290.5 110t-110.5 286zM268 967q0 -110 60 -178t159 -68t159.5 68.5t60.5 177.5q0 110 -60.5 180t-159.5 70t-159 -70t-60 -180z" />
<glyph unicode="&#xbb;" horiz-adv-x="968" d="M100 293l275 248l-275 250l93 102l301 -279v-147l-301 -279zM489 293l275 248l-275 250l93 102l301 -279v-147l-301 -279z" />
<glyph unicode="&#xbc;" horiz-adv-x="1712" d="M57 1118v162l398 70h28v-744h-174v561zM397 0l619 1364h174l-617 -1364h-176zM909 150l2 167l404 426h190v-448h146v-145h-146v-150h-178v150h-418zM1069 297l4 -4q14 2 88 2h172v213q0 57 4 65l-6 5q-4 -11 -43 -54l-160 -174q-28 -32 -59 -53z" />
<glyph unicode="&#xbd;" horiz-adv-x="1695" d="M57 1118v162l398 70h28v-744h-174v561zM397 0l619 1364h174l-617 -1364h-176zM967 500q0 107 83.5 179.5t231.5 72.5q146 0 231.5 -69t85.5 -194q0 -37 -10.5 -70.5t-33.5 -63t-44 -51.5t-58.5 -47t-59 -38.5t-62.5 -36.5q-43 -23 -82 -32l2 -5q8 2 74 2h299v-147h-651 v117q33 20 94 56.5t93 56.5t80 51t74 53t53 49t38.5 52t11.5 50q0 49 -37.5 80t-97.5 31q-62 0 -99.5 -28.5t-37.5 -73.5q0 -17 6 -23l-174 -33q-10 25 -10 62z" />
<glyph unicode="&#xbe;" horiz-adv-x="1900" d="M61 752l138 92q3 -4 9 -10t26.5 -21.5t44 -27.5t62.5 -21.5t81 -9.5q160 0 160 77q0 31 -42.5 50.5t-115.5 19.5h-92v137h63q84 0 123 17t39 55q0 41 -35.5 66.5t-101.5 25.5q-64 0 -104 -19t-40 -46q0 -11 5 -21l-177 -29l-1 3q-1 4 -2 10t-2 13.5t-2 17.5t-1 20 q0 92 90 149.5t238 57.5q142 0 228.5 -62.5t86.5 -162.5q0 -68 -46.5 -111t-119.5 -43v-2q77 0 135 -48.5t58 -121.5q0 -94 -90.5 -151.5t-249.5 -57.5q-80 0 -147.5 16t-106 38.5t-65 45t-36.5 38.5zM588 0l618 1364h174l-616 -1364h-176zM1100 150l2 167l403 426h191v-448 h145v-145h-145v-150h-178v150h-418zM1260 297l4 -4q14 2 88 2h172v213q0 57 4 65l-6 5q-4 -11 -43 -54l-160 -174q-28 -32 -59 -53z" />
<glyph unicode="&#xbf;" horiz-adv-x="944" d="M55 -82q0 62 20.5 116t54 93.5t73.5 76t79.5 71.5t73 72.5t54 87t20.5 106.5v28l170 6v-36q1 -74 -18.5 -135.5t-50.5 -104t-69 -79t-76.5 -67.5t-70 -63t-51.5 -73t-20 -89q0 -96 67 -159.5t172 -63.5q98 0 158.5 53.5t60.5 139.5q0 26 -10 49l185 28q12 -37 12 -84 q0 -157 -111.5 -252.5t-294.5 -95.5q-191 0 -309.5 105t-118.5 270zM408 866q0 46 33.5 79.5t80.5 33.5q46 0 79.5 -33.5t33.5 -79.5q0 -47 -33.5 -80.5t-79.5 -33.5q-47 0 -80.5 33.5t-33.5 80.5z" />
<glyph unicode="&#xc0;" horiz-adv-x="1259" d="M29 0l508 1352h186l508 -1352h-193l-125 336h-567l-125 -336h-192zM371 1671h233l117 -246l-162 -10zM403 489h453l-182 490q-22 61 -43 141h-4q-21 -80 -43 -141z" />
<glyph unicode="&#xc1;" horiz-adv-x="1259" d="M29 0l508 1352h186l508 -1352h-193l-125 336h-567l-125 -336h-192zM403 489h453l-182 490q-22 61 -43 141h-4q-21 -80 -43 -141zM541 1415l116 256h234l-189 -246z" />
<glyph unicode="&#xc2;" horiz-adv-x="1259" d="M29 0l508 1352h186l508 -1352h-193l-125 336h-567l-125 -336h-192zM330 1415l200 275h203l201 -275l-162 6l-141 131l-139 -131zM403 489h453l-182 490q-22 61 -43 141h-4q-21 -80 -43 -141z" />
<glyph unicode="&#xc3;" horiz-adv-x="1259" d="M29 0l508 1352h186l508 -1352h-193l-125 336h-567l-125 -336h-192zM270 1468q0 78 52 126t137 48q46 0 92 -17.5t76 -38.5t61 -38.5t51 -17.5q60 0 60 72q0 15 -2 29.5t-4 22.5l-2 7h143q8 -31 8 -84q0 -73 -46 -127.5t-132 -54.5q-56 0 -114 28t-103.5 56t-71.5 28 q-28 0 -44.5 -17t-16.5 -46q0 -12 2 -26t4 -22l2 -7h-141q-11 34 -11 79zM403 489h453l-182 490q-22 61 -43 141h-4q-21 -80 -43 -141z" />
<glyph unicode="&#xc4;" horiz-adv-x="1259" d="M29 0l508 1352h186l508 -1352h-193l-125 336h-567l-125 -336h-192zM336 1548q0 43 31 75t75 32q43 0 74 -32t31 -75q0 -44 -31 -75t-74 -31q-44 0 -75 31t-31 75zM403 489h453l-182 490q-22 61 -43 141h-4q-21 -80 -43 -141zM729 1548q0 43 32 75t75 32q44 0 75 -32 t31 -75q0 -44 -31 -75t-75 -31q-43 0 -75 31t-32 75z" />
<glyph unicode="&#xc5;" horiz-adv-x="1259" d="M29 0l508 1352h186l508 -1352h-193l-125 336h-567l-125 -336h-192zM403 489h453l-182 490q-22 61 -43 141h-4q-21 -80 -43 -141zM459 1552q0 70 49.5 119t120.5 49q69 0 118.5 -49t49.5 -119q0 -69 -49.5 -117.5t-118.5 -48.5q-71 0 -120.5 48.5t-49.5 117.5zM565 1552 q0 -26 19 -44.5t45 -18.5q25 0 44 18.5t19 44.5t-19 45t-44 19q-26 0 -45 -19t-19 -45z" />
<glyph unicode="&#xc6;" horiz-adv-x="1927" d="M-25 0l1000 1352h846v-158h-652v-414h580v-157h-580v-465h652v-158h-838v336h-567l-248 -336h-193zM530 489h453v613z" />
<glyph unicode="&#xc7;" horiz-adv-x="1304" d="M100 676q0 309 171 498.5t440 189.5q109 0 198 -31t146 -79t95.5 -110t55 -121.5t17.5 -115.5l-176 -28q0 52 -18.5 105t-56 103t-105 81.5t-154.5 31.5q-88 0 -164.5 -35.5t-134.5 -101t-91.5 -165.5t-33.5 -222q0 -135 37.5 -238.5t102 -164.5t144.5 -91t172 -30 q121 0 217.5 59t159.5 145l113 -114q-18 -24 -36 -45.5t-60.5 -59.5t-88 -65.5t-115 -51.5t-144.5 -30l-23 -49q64 -7 113 -49.5t49 -118.5q0 -85 -61.5 -133t-155.5 -48q-56 0 -104 19.5t-69 38.5l-20 20l51 103q6 -6 17.5 -15.5t48 -25t74.5 -15.5q40 0 64 16.5t24 45.5 q0 34 -44.5 58t-144.5 24l58 131q-260 24 -414 204t-154 480z" />
<glyph unicode="&#xc8;" horiz-adv-x="1118" d="M174 0v1352h838v-158h-652v-414h580v-157h-580v-465h652v-158h-838zM377 1671h233l117 -246l-162 -10z" />
<glyph unicode="&#xc9;" horiz-adv-x="1118" d="M174 0v1352h838v-158h-652v-414h580v-157h-580v-465h652v-158h-838zM547 1415l117 256h233l-188 -246z" />
<glyph unicode="&#xca;" horiz-adv-x="1118" d="M174 0v1352h838v-158h-652v-414h580v-157h-580v-465h652v-158h-838zM336 1415l201 275h202l201 -275l-162 6l-141 131l-139 -131z" />
<glyph unicode="&#xcb;" horiz-adv-x="1118" d="M174 0v1352h838v-158h-652v-414h580v-157h-580v-465h652v-158h-838zM342 1548q0 43 31.5 75t75.5 32q42 0 73 -32t31 -75q0 -44 -30.5 -75t-73.5 -31q-44 0 -75.5 31t-31.5 75zM735 1548q0 43 32 75t75 32q44 0 75 -32t31 -75q0 -44 -31 -75t-75 -31q-43 0 -75 31t-32 75 z" />
<glyph unicode="&#xcc;" horiz-adv-x="534" d="M10 1671h234l116 -246l-161 -10zM174 0v1352h186v-1352h-186z" />
<glyph unicode="&#xcd;" horiz-adv-x="534" d="M174 0v1352h186v-1352h-186zM180 1415l117 256h233l-188 -246z" />
<glyph unicode="&#xce;" horiz-adv-x="534" d="M-31 1415l201 275h203l200 -275l-161 6l-142 131l-139 -131zM174 0v1352h186v-1352h-186z" />
<glyph unicode="&#xcf;" horiz-adv-x="534" d="M-25 1548q0 43 31.5 75t75.5 32q42 0 73 -32t31 -75q0 -44 -30.5 -75t-73.5 -31q-44 0 -75.5 31t-31.5 75zM174 0v1352h186v-1352h-186zM369 1548q0 43 31.5 75t74.5 32q44 0 75.5 -32t31.5 -75q0 -44 -31.5 -75t-75.5 -31q-43 0 -74.5 31t-31.5 75z" />
<glyph unicode="&#xd0;" horiz-adv-x="1376" d="M-10 594v151h184v607h410q330 0 511 -178.5t181 -497.5q0 -341 -166 -508.5t-457 -167.5h-479v594h-184zM360 158h291q199 0 317.5 129t118.5 389q0 257 -130 387.5t-375 130.5h-222v-449h367v-151h-367v-436z" />
<glyph unicode="&#xd1;" horiz-adv-x="1411" d="M174 0v1352h207l537 -856q80 -129 137 -246l12 6q-12 174 -12 244l-4 852h186v-1352h-203l-536 848q-120 195 -144 250l-10 -6q12 -36 12 -242l4 -850h-186zM412 1468q0 78 51.5 126t136.5 48q46 0 92.5 -17.5t76 -38.5t61 -38.5t51.5 -17.5q59 0 59 72q0 15 -2 29.5 t-4 22.5l-2 7h143q8 -31 8 -84q0 -73 -46 -127.5t-132 -54.5q-56 0 -114 28t-103.5 56t-71.5 28q-28 0 -44.5 -17t-16.5 -46q0 -12 2 -25.5t4 -21.5l2 -8h-141q-10 34 -10 79z" />
<glyph unicode="&#xd2;" d="M98 676q0 156 47.5 285.5t131.5 217.5t201 136.5t255 48.5t255.5 -48.5t201.5 -137t131 -217.5t47 -285t-47 -285t-131 -217.5t-201.5 -137t-255.5 -48.5t-255 48.5t-201 136.5t-131.5 217.5t-47.5 285.5zM287 676q0 -239 124 -381.5t322 -142.5q199 0 323 142.5 t124 381.5t-124 381.5t-323 142.5q-198 0 -322 -142.5t-124 -381.5zM475 1671h234l116 -246l-161 -10z" />
<glyph unicode="&#xd3;" d="M98 676q0 156 47.5 285.5t131.5 217.5t201 136.5t255 48.5t255.5 -48.5t201.5 -137t131 -217.5t47 -285t-47 -285t-131 -217.5t-201.5 -137t-255.5 -48.5t-255 48.5t-201 136.5t-131.5 217.5t-47.5 285.5zM287 676q0 -239 124 -381.5t322 -142.5q199 0 323 142.5 t124 381.5t-124 381.5t-323 142.5q-198 0 -322 -142.5t-124 -381.5zM645 1415l117 256h233l-188 -246z" />
<glyph unicode="&#xd4;" d="M98 676q0 156 47.5 285.5t131.5 217.5t201 136.5t255 48.5t255.5 -48.5t201.5 -137t131 -217.5t47 -285t-47 -285t-131 -217.5t-201.5 -137t-255.5 -48.5t-255 48.5t-201 136.5t-131.5 217.5t-47.5 285.5zM287 676q0 -239 124 -381.5t322 -142.5q199 0 323 142.5 t124 381.5t-124 381.5t-323 142.5q-198 0 -322 -142.5t-124 -381.5zM434 1415l201 275h203l200 -275l-161 6l-142 131l-139 -131z" />
<glyph unicode="&#xd5;" d="M98 676q0 156 47.5 285.5t131.5 217.5t201 136.5t255 48.5t255.5 -48.5t201.5 -137t131 -217.5t47 -285t-47 -285t-131 -217.5t-201.5 -137t-255.5 -48.5t-255 48.5t-201 136.5t-131.5 217.5t-47.5 285.5zM287 676q0 -239 124 -381.5t322 -142.5q199 0 323 142.5 t124 381.5t-124 381.5t-323 142.5q-198 0 -322 -142.5t-124 -381.5zM375 1468q0 78 51.5 126t136.5 48q46 0 92.5 -17.5t76 -38.5t61 -38.5t51.5 -17.5q59 0 59 72q0 15 -2 29.5t-4 22.5l-2 7h143q9 -31 9 -84q0 -73 -46.5 -127.5t-132.5 -54.5q-56 0 -114 28t-103 56 t-71 28q-28 0 -45 -17t-17 -46q0 -12 2 -25.5t4 -21.5l2 -8h-141q-10 34 -10 79z" />
<glyph unicode="&#xd6;" d="M98 676q0 156 47.5 285.5t131.5 217.5t201 136.5t255 48.5t255.5 -48.5t201.5 -137t131 -217.5t47 -285t-47 -285t-131 -217.5t-201.5 -137t-255.5 -48.5t-255 48.5t-201 136.5t-131.5 217.5t-47.5 285.5zM287 676q0 -239 124 -381.5t322 -142.5q199 0 323 142.5 t124 381.5t-124 381.5t-323 142.5q-198 0 -322 -142.5t-124 -381.5zM440 1548q0 43 31.5 75t75.5 32q42 0 73 -32t31 -75q0 -44 -30.5 -75t-73.5 -31q-44 0 -75.5 31t-31.5 75zM834 1548q0 43 31.5 75t74.5 32q44 0 75.5 -32t31.5 -75q0 -44 -31.5 -75t-75.5 -31 q-43 0 -74.5 31t-31.5 75z" />
<glyph unicode="&#xd7;" horiz-adv-x="923" d="M113 233l254 254l-254 254l96 95l254 -252l252 252l96 -95l-254 -254l254 -254l-96 -94l-252 254l-254 -254z" />
<glyph unicode="&#xd8;" d="M98 676q0 156 47.5 285.5t131.5 217.5t201 136.5t255 48.5q174 0 314 -76l79 121h189l-141 -215q194 -188 194 -518q0 -156 -47 -285t-131 -217.5t-201.5 -137t-255.5 -48.5q-169 0 -309 73l-100 -151h-191l162 246q-94 91 -145.5 224t-51.5 296zM287 676 q0 -226 110 -367l553 836q-91 55 -217 55q-198 0 -322 -142.5t-124 -381.5zM518 205q95 -53 215 -53q199 0 323 142.5t124 381.5q0 220 -109 364z" />
<glyph unicode="&#xd9;" horiz-adv-x="1398" d="M162 522v830h186v-826q0 -176 96 -275t256 -99q158 0 254.5 99t96.5 271v830h186v-830q0 -241 -148.5 -387.5t-388.5 -146.5q-242 0 -390 146.5t-148 387.5zM442 1671h234l117 -246l-162 -10z" />
<glyph unicode="&#xda;" horiz-adv-x="1398" d="M162 522v830h186v-826q0 -176 96 -275t256 -99q158 0 254.5 99t96.5 271v830h186v-830q0 -241 -148.5 -387.5t-388.5 -146.5q-242 0 -390 146.5t-148 387.5zM612 1415l117 256h234l-189 -246z" />
<glyph unicode="&#xdb;" horiz-adv-x="1398" d="M162 522v830h186v-826q0 -176 96 -275t256 -99q158 0 254.5 99t96.5 271v830h186v-830q0 -241 -148.5 -387.5t-388.5 -146.5q-242 0 -390 146.5t-148 387.5zM401 1415l201 275h203l201 -275l-162 6l-142 131l-139 -131z" />
<glyph unicode="&#xdc;" horiz-adv-x="1398" d="M162 522v830h186v-826q0 -176 96 -275t256 -99q158 0 254.5 99t96.5 271v830h186v-830q0 -241 -148.5 -387.5t-388.5 -146.5q-242 0 -390 146.5t-148 387.5zM408 1548q0 43 31 75t75 32q42 0 73 -32t31 -75q0 -44 -30.5 -75t-73.5 -31q-44 0 -75 31t-31 75zM801 1548 q0 43 31.5 75t74.5 32q44 0 75.5 -32t31.5 -75q0 -44 -31.5 -75t-75.5 -31q-43 0 -74.5 31t-31.5 75z" />
<glyph unicode="&#xdd;" horiz-adv-x="1185" d="M29 1352h200l297 -535q57 -103 70 -170h4q8 62 68 170l295 535h192l-467 -856v-496h-186v485zM508 1415l117 256h233l-188 -246z" />
<glyph unicode="&#xde;" horiz-adv-x="1218" d="M174 0v1352h186v-209h250q257 0 396 -118.5t139 -338.5t-133 -339.5t-379 -119.5h-273v-227h-186zM360 385h244q167 0 257.5 78t90.5 223q0 143 -92 221t-262 78h-238v-600z" />
<glyph unicode="&#xdf;" horiz-adv-x="1146" d="M143 0v1085q0 168 107 270.5t289 102.5q181 0 296 -107.5t115 -279.5q0 -98 -46.5 -187.5t-127.5 -150.5q140 -38 214.5 -132.5t74.5 -231.5q0 -172 -109 -276.5t-321 -104.5q-58 0 -110.5 5t-75.5 10l-23 5l31 152q71 -21 182 -21q109 0 175.5 64t66.5 170 q0 126 -83 198t-253 72h-66v148h31q109 0 182.5 81.5t73.5 202.5q0 103 -63.5 167.5t-159.5 64.5q-105 0 -162 -63t-57 -189v-1055h-181z" />
<glyph unicode="&#xe0;" horiz-adv-x="1093" d="M88 256q0 156 151.5 225.5t475.5 69.5h28v61q0 101 -61 158t-178 57q-104 0 -162.5 -40.5t-58.5 -114.5q0 -26 10 -49l-170 -29q-12 37 -12 84q0 134 107.5 217.5t289.5 83.5q195 0 305.5 -98t110.5 -267v-391q0 -40 13 -56.5t46 -16.5q19 0 35 4l10 -152 q-47 -12 -98 -12q-79 0 -126.5 39.5t-47.5 120.5v2h-4q-13 -24 -33.5 -47t-59 -52.5t-101.5 -47t-142 -17.5q-156 0 -242 73.5t-86 194.5zM242 1430h233l117 -308l-162 -10zM272 260q0 -121 181 -121q132 0 211 60.5t79 134.5v92h-28q-239 0 -341 -41.5t-102 -124.5z" />
<glyph unicode="&#xe1;" horiz-adv-x="1093" d="M88 256q0 156 151.5 225.5t475.5 69.5h28v61q0 101 -61 158t-178 57q-104 0 -162.5 -40.5t-58.5 -114.5q0 -26 10 -49l-170 -29q-12 37 -12 84q0 134 107.5 217.5t289.5 83.5q195 0 305.5 -98t110.5 -267v-391q0 -40 13 -56.5t46 -16.5q19 0 35 4l10 -152 q-47 -12 -98 -12q-79 0 -126.5 39.5t-47.5 120.5v2h-4q-13 -24 -33.5 -47t-59 -52.5t-101.5 -47t-142 -17.5q-156 0 -242 73.5t-86 194.5zM272 260q0 -121 181 -121q132 0 211 60.5t79 134.5v92h-28q-239 0 -341 -41.5t-102 -124.5zM383 1112l117 318h233l-186 -308z" />
<glyph unicode="&#xe2;" horiz-adv-x="1093" d="M88 256q0 156 151.5 225.5t475.5 69.5h28v61q0 101 -61 158t-178 57q-104 0 -162.5 -40.5t-58.5 -114.5q0 -26 10 -49l-170 -29q-12 37 -12 84q0 134 107.5 217.5t289.5 83.5q195 0 305.5 -98t110.5 -267v-391q0 -40 13 -56.5t46 -16.5q19 0 35 4l10 -152 q-47 -12 -98 -12q-79 0 -126.5 39.5t-47.5 120.5v2h-4q-13 -24 -33.5 -47t-59 -52.5t-101.5 -47t-142 -17.5q-156 0 -242 73.5t-86 194.5zM209 1112l201 315h202l201 -315l-162 6l-141 172l-139 -172zM272 260q0 -121 181 -121q132 0 211 60.5t79 134.5v92h-28 q-239 0 -341 -41.5t-102 -124.5z" />
<glyph unicode="&#xe3;" horiz-adv-x="1093" d="M88 256q0 156 151.5 225.5t475.5 69.5h28v61q0 101 -61 158t-178 57q-104 0 -162.5 -40.5t-58.5 -114.5q0 -26 10 -49l-170 -29q-12 37 -12 84q0 134 107.5 217.5t289.5 83.5q195 0 305.5 -98t110.5 -267v-391q0 -40 13 -56.5t46 -16.5q19 0 35 4l10 -152 q-47 -12 -98 -12q-79 0 -126.5 39.5t-47.5 120.5v2h-4q-13 -24 -33.5 -47t-59 -52.5t-101.5 -47t-142 -17.5q-156 0 -242 73.5t-86 194.5zM152 1208q0 71 51.5 127t136.5 56q59 0 115.5 -28.5t99 -56.5t66.5 -28q59 0 59 72q0 15 -2 29.5t-4 22.5l-2 7h143q8 -31 8 -84 q0 -74 -47.5 -128t-140.5 -54q-52 0 -107.5 28t-99 56t-66.5 28q-28 0 -47.5 -17t-19.5 -54q0 -14 2 -29t4 -23l2 -8h-141q-10 35 -10 84zM272 260q0 -121 181 -121q132 0 211 60.5t79 134.5v92h-28q-239 0 -341 -41.5t-102 -124.5z" />
<glyph unicode="&#xe4;" horiz-adv-x="1093" d="M88 256q0 156 151.5 225.5t475.5 69.5h28v61q0 101 -61 158t-178 57q-104 0 -162.5 -40.5t-58.5 -114.5q0 -26 10 -49l-170 -29q-12 37 -12 84q0 134 107.5 217.5t289.5 83.5q195 0 305.5 -98t110.5 -267v-391q0 -40 13 -56.5t46 -16.5q19 0 35 4l10 -152 q-47 -12 -98 -12q-79 0 -126.5 39.5t-47.5 120.5v2h-4q-13 -24 -33.5 -47t-59 -52.5t-101.5 -47t-142 -17.5q-156 0 -242 73.5t-86 194.5zM215 1282q0 45 32 77t77 32q44 0 75 -32t31 -77q0 -46 -31 -77t-75 -31q-46 0 -77.5 31t-31.5 77zM272 260q0 -121 181 -121 q132 0 211 60.5t79 134.5v92h-28q-239 0 -341 -41.5t-102 -124.5zM608 1282q0 44 32.5 76.5t76.5 32.5q45 0 76.5 -32t31.5 -77q0 -46 -31 -77t-77 -31q-45 0 -77 31.5t-32 76.5z" />
<glyph unicode="&#xe5;" horiz-adv-x="1093" d="M88 256q0 156 151.5 225.5t475.5 69.5h28v61q0 101 -61 158t-178 57q-104 0 -162.5 -40.5t-58.5 -114.5q0 -26 10 -49l-170 -29q-12 37 -12 84q0 134 107.5 217.5t289.5 83.5q195 0 305.5 -98t110.5 -267v-391q0 -40 13 -56.5t46 -16.5q19 0 35 4l10 -152 q-47 -12 -98 -12q-79 0 -126.5 39.5t-47.5 120.5v2h-4q-13 -24 -33.5 -47t-59 -52.5t-101.5 -47t-142 -17.5q-156 0 -242 73.5t-86 194.5zM272 260q0 -121 181 -121q132 0 211 60.5t79 134.5v92h-28q-239 0 -341 -41.5t-102 -124.5zM322 1270q0 78 55 131t133 53 q77 0 131.5 -53.5t54.5 -130.5q0 -76 -54.5 -129.5t-131.5 -53.5q-78 0 -133 53.5t-55 129.5zM440 1270q0 -29 20.5 -49.5t49.5 -20.5q28 0 49 20.5t21 49.5t-21 49t-49 20q-29 0 -49.5 -20t-20.5 -49z" />
<glyph unicode="&#xe6;" horiz-adv-x="1742" d="M88 256q0 156 151.5 225.5t475.5 69.5h28v61q0 101 -61 158t-178 57q-104 0 -162.5 -40.5t-58.5 -114.5q0 -28 12 -56l-170 -28q-14 37 -14 90q0 134 107.5 217.5t289.5 83.5q115 0 204.5 -45t143.5 -119q138 164 365 164q207 0 323.5 -127.5t116.5 -325.5q0 -25 -2 -48 t-4 -34l-2 -10h-725q14 -135 101.5 -215t230.5 -80q178 0 274 127l111 -100q-66 -88 -169.5 -133t-230.5 -45q-145 0 -254.5 55t-173.5 156h-14q-14 -26 -24 -42t-44 -52t-71.5 -58t-103.5 -40.5t-144 -18.5q-156 0 -242 73.5t-86 194.5zM272 260q0 -121 181 -121 q132 0 211 60.5t79 134.5v92h-28q-239 0 -341 -41.5t-102 -124.5zM932 563h545q-2 120 -71.5 192t-184.5 72t-191.5 -72.5t-97.5 -191.5z" />
<glyph unicode="&#xe7;" horiz-adv-x="1064" d="M84 477q0 221 135.5 361.5t349.5 140.5q182 0 294 -94.5t112 -235.5q0 -18 -1.5 -34.5t-3.5 -23.5l-1 -7l-168 -13q4 20 4 52q0 91 -62.5 147.5t-169.5 56.5q-137 0 -221 -95t-84 -251t85 -249t237 -93q191 0 297 129l106 -114q-64 -76 -162.5 -118.5t-220.5 -47.5 l-22 -47q64 -7 113 -49.5t49 -118.5q0 -85 -62 -133t-156 -48q-35 0 -67.5 8t-54 19.5t-38.5 23t-24 19.5l-8 8l51 103q6 -6 17 -15.5t47.5 -25t74.5 -15.5q40 0 64 16.5t24 45.5q0 34 -44 58t-144 24l57 133q-185 29 -294 159.5t-109 323.5z" />
<glyph unicode="&#xe8;" horiz-adv-x="1087" d="M86 481q0 220 131 359t348 139q207 0 324 -127.5t117 -325.5q0 -25 -2 -48t-4 -34l-3 -10h-725q14 -135 101.5 -215t230.5 -80q179 0 275 127l110 -100q-67 -88 -169.5 -133t-229.5 -45q-230 0 -367 135t-137 358zM276 563h545q-2 120 -71.5 192t-184.5 72t-191.5 -72.5 t-97.5 -191.5zM293 1430h233l117 -308l-162 -10z" />
<glyph unicode="&#xe9;" horiz-adv-x="1087" d="M86 481q0 220 131 359t348 139q207 0 324 -127.5t117 -325.5q0 -25 -2 -48t-4 -34l-3 -10h-725q14 -135 101.5 -215t230.5 -80q179 0 275 127l110 -100q-67 -88 -169.5 -133t-229.5 -45q-230 0 -367 135t-137 358zM276 563h545q-2 120 -71.5 192t-184.5 72t-191.5 -72.5 t-97.5 -191.5zM434 1112l117 318h233l-186 -308z" />
<glyph unicode="&#xea;" horiz-adv-x="1087" d="M86 481q0 220 131 359t348 139q207 0 324 -127.5t117 -325.5q0 -25 -2 -48t-4 -34l-3 -10h-725q14 -135 101.5 -215t230.5 -80q179 0 275 127l110 -100q-67 -88 -169.5 -133t-229.5 -45q-230 0 -367 135t-137 358zM260 1112l201 315h203l200 -315l-162 6l-141 172 l-139 -172zM276 563h545q-2 120 -71.5 192t-184.5 72t-191.5 -72.5t-97.5 -191.5z" />
<glyph unicode="&#xeb;" horiz-adv-x="1087" d="M86 481q0 220 131 359t348 139q207 0 324 -127.5t117 -325.5q0 -25 -2 -48t-4 -34l-3 -10h-725q14 -135 101.5 -215t230.5 -80q179 0 275 127l110 -100q-67 -88 -169.5 -133t-229.5 -45q-230 0 -367 135t-137 358zM266 1282q0 45 32 77t77 32q44 0 75 -32t31 -77 q0 -46 -31 -77t-75 -31q-46 0 -77.5 31t-31.5 77zM276 563h545q-2 120 -71.5 192t-184.5 72t-191.5 -72.5t-97.5 -191.5zM659 1282q0 44 32.5 76.5t76.5 32.5q45 0 77 -32t32 -77q0 -46 -31.5 -77t-77.5 -31q-45 0 -77 31.5t-32 76.5z" />
<glyph unicode="&#xec;" horiz-adv-x="473" d="M-33 1430h234l116 -308l-161 -10zM145 0v967l183 6v-973h-183z" />
<glyph unicode="&#xed;" horiz-adv-x="473" d="M145 0v967l183 6v-973h-183zM145 1112l117 318h234l-187 -308z" />
<glyph unicode="&#xee;" horiz-adv-x="473" d="M-68 1112l201 315h203l201 -315l-162 6l-142 172l-139 -172zM145 0v967l183 6v-973h-183z" />
<glyph unicode="&#xef;" horiz-adv-x="473" d="M-61 1282q0 45 31.5 77t76.5 32q44 0 75.5 -32.5t31.5 -76.5q0 -46 -31 -77t-76 -31q-46 0 -77 31t-31 77zM145 0v967l183 6v-973h-183zM332 1282q0 44 32 76.5t76 32.5q45 0 77 -32t32 -77q0 -46 -31.5 -77t-77.5 -31q-45 0 -76.5 31.5t-31.5 76.5z" />
<glyph unicode="&#xf0;" horiz-adv-x="1159" d="M86 438q0 213 127.5 339t321.5 126q73 0 134.5 -17.5t101.5 -46.5t65 -57t38 -57q-13 105 -67.5 208t-136.5 185l-211 -123l-66 119l166 96q-107 69 -219 78l104 154q157 -40 281 -135l201 116l67 -116l-166 -97q232 -260 232 -698q0 -236 -138.5 -380t-365.5 -144 q-129 0 -235.5 54t-170 158t-63.5 238zM264 442q0 -135 87.5 -219t215.5 -84q143 0 228.5 87.5t85.5 219.5v9q-3 137 -91 217t-223 80q-132 0 -217.5 -87t-85.5 -223z" />
<glyph unicode="&#xf1;" horiz-adv-x="1155" d="M143 0v967l127 6q25 -116 25 -225h6q43 101 129 166t215 65q172 0 274.5 -106.5t102.5 -280.5v-592h-182v592q0 108 -59.5 171.5t-166.5 63.5q-72 0 -129.5 -30t-91.5 -78.5t-51.5 -103.5t-17.5 -109v-506h-181zM225 1208q0 71 52 127t137 56q46 0 92 -17.5t76 -39 t61 -39t51 -17.5q60 0 60 72q0 15 -2 29.5t-4 22.5l-3 7h144q8 -31 8 -84q0 -74 -47.5 -128t-140.5 -54q-52 0 -107.5 28t-99 56t-66.5 28q-28 0 -47.5 -17t-19.5 -54q0 -14 2 -29t4 -23l2 -8h-141q-11 35 -11 84z" />
<glyph unicode="&#xf2;" horiz-adv-x="1163" d="M84 479q0 221 137.5 360.5t360.5 139.5t360 -139.5t137 -360.5q0 -220 -136.5 -355.5t-360.5 -135.5t-361 135.5t-137 355.5zM268 479q0 -151 86.5 -245.5t227.5 -94.5q140 0 226.5 94.5t86.5 245.5q0 152 -86.5 250t-226.5 98t-227 -98t-87 -250zM313 1430h234l117 -308 l-162 -10z" />
<glyph unicode="&#xf3;" horiz-adv-x="1163" d="M84 479q0 221 137.5 360.5t360.5 139.5t360 -139.5t137 -360.5q0 -220 -136.5 -355.5t-360.5 -135.5t-361 135.5t-137 355.5zM268 479q0 -151 86.5 -245.5t227.5 -94.5q140 0 226.5 94.5t86.5 245.5q0 152 -86.5 250t-226.5 98t-227 -98t-87 -250zM455 1112l116 318h234 l-187 -308z" />
<glyph unicode="&#xf4;" horiz-adv-x="1163" d="M84 479q0 221 137.5 360.5t360.5 139.5t360 -139.5t137 -360.5q0 -220 -136.5 -355.5t-360.5 -135.5t-361 135.5t-137 355.5zM268 479q0 -151 86.5 -245.5t227.5 -94.5q140 0 226.5 94.5t86.5 245.5q0 152 -86.5 250t-226.5 98t-227 -98t-87 -250zM281 1112l200 315h203 l201 -315l-162 6l-141 172l-140 -172z" />
<glyph unicode="&#xf5;" horiz-adv-x="1163" d="M84 479q0 221 137.5 360.5t360.5 139.5t360 -139.5t137 -360.5q0 -220 -136.5 -355.5t-360.5 -135.5t-361 135.5t-137 355.5zM223 1208q0 71 52 127t137 56q46 0 92 -17.5t76 -39t61 -39t51 -17.5q60 0 60 72q0 15 -2 29.5t-4 22.5l-3 7h144q8 -31 8 -84 q0 -74 -47.5 -128t-140.5 -54q-52 0 -107.5 28t-99 56t-66.5 28q-28 0 -47.5 -17t-19.5 -54q0 -14 2 -29t4 -23l2 -8h-142q-10 35 -10 84zM268 479q0 -151 86.5 -245.5t227.5 -94.5q140 0 226.5 94.5t86.5 245.5q0 152 -86.5 250t-226.5 98t-227 -98t-87 -250z" />
<glyph unicode="&#xf6;" horiz-adv-x="1163" d="M84 479q0 221 137.5 360.5t360.5 139.5t360 -139.5t137 -360.5q0 -220 -136.5 -355.5t-360.5 -135.5t-361 135.5t-137 355.5zM268 479q0 -151 86.5 -245.5t227.5 -94.5q140 0 226.5 94.5t86.5 245.5q0 152 -86.5 250t-226.5 98t-227 -98t-87 -250zM287 1282q0 45 31.5 77 t76.5 32q44 0 75.5 -32.5t31.5 -76.5q0 -46 -31 -77t-76 -31q-46 0 -77 31t-31 77zM680 1282q0 44 32 76.5t76 32.5q45 0 77 -32t32 -77q0 -46 -31.5 -77t-77.5 -31q-45 0 -76.5 31.5t-31.5 76.5z" />
<glyph unicode="&#xf7;" horiz-adv-x="1001" d="M119 436v133h764v-133h-764zM406 82q0 39 27.5 67.5t68.5 28.5q38 0 66 -29t28 -67q0 -40 -28 -68t-66 -28q-41 0 -68.5 28t-27.5 68zM406 883q0 39 27.5 67.5t68.5 28.5q38 0 66 -29t28 -67q0 -40 -28 -68.5t-66 -28.5q-41 0 -68.5 28.5t-27.5 68.5z" />
<glyph unicode="&#xf8;" horiz-adv-x="1163" d="M84 479q0 221 137.5 360.5t360.5 139.5q121 0 223 -45l53 84h141l-94 -146q84 -66 129 -167.5t45 -225.5q0 -220 -136.5 -355.5t-360.5 -135.5q-124 0 -222 43l-53 -84h-145l94 145q-83 65 -127.5 164.5t-44.5 222.5zM268 479q0 -146 82 -241l365 561q-61 28 -133 28 q-140 0 -227 -98t-87 -250zM449 166q66 -27 133 -27q140 0 226.5 94.5t86.5 245.5q0 148 -84 248z" />
<glyph unicode="&#xf9;" horiz-adv-x="1132" d="M133 375v592h182v-592q0 -108 59.5 -172t166.5 -64q64 0 116.5 30.5t84.5 78.5t49.5 103.5t17.5 109.5v506h180v-967l-131 -6q-11 49 -17.5 114.5t-6.5 90.5h-3q-43 -95 -123.5 -153t-197.5 -58q-172 0 -274.5 106.5t-102.5 280.5zM293 1430h233l117 -308l-162 -10z" />
<glyph unicode="&#xfa;" horiz-adv-x="1132" d="M133 375v592h182v-592q0 -108 59.5 -172t166.5 -64q64 0 116.5 30.5t84.5 78.5t49.5 103.5t17.5 109.5v506h180v-967l-131 -6q-11 49 -17.5 114.5t-6.5 90.5h-3q-43 -95 -123.5 -153t-197.5 -58q-172 0 -274.5 106.5t-102.5 280.5zM434 1112l117 318h233l-186 -308z" />
<glyph unicode="&#xfb;" horiz-adv-x="1132" d="M133 375v592h182v-592q0 -108 59.5 -172t166.5 -64q64 0 116.5 30.5t84.5 78.5t49.5 103.5t17.5 109.5v506h180v-967l-131 -6q-11 49 -17.5 114.5t-6.5 90.5h-3q-43 -95 -123.5 -153t-197.5 -58q-172 0 -274.5 106.5t-102.5 280.5zM260 1112l201 315h203l200 -315l-162 6 l-141 172l-139 -172z" />
<glyph unicode="&#xfc;" horiz-adv-x="1132" d="M133 375v592h182v-592q0 -108 59.5 -172t166.5 -64q64 0 116.5 30.5t84.5 78.5t49.5 103.5t17.5 109.5v506h180v-967l-131 -6q-11 49 -17.5 114.5t-6.5 90.5h-3q-43 -95 -123.5 -153t-197.5 -58q-172 0 -274.5 106.5t-102.5 280.5zM266 1282q0 45 32 77t77 32 q44 0 75 -32t31 -77q0 -46 -31 -77t-75 -31q-46 0 -77.5 31t-31.5 77zM659 1282q0 44 32.5 76.5t76.5 32.5q45 0 77 -32t32 -77q0 -46 -31.5 -77t-77.5 -31q-45 0 -77 31.5t-32 76.5z" />
<glyph unicode="&#xfd;" horiz-adv-x="1060" d="M39 967h203l266 -676q23 -57 33 -107h2q7 40 32 107l271 676h184l-459 -1139q-46 -120 -122.5 -188t-200.5 -68q-41 0 -78.5 8t-54.5 16l-17 7l33 149q46 -24 105 -24q69 0 108.5 38.5t67.5 112.5l37 96zM395 1112l117 318h233l-186 -308z" />
<glyph unicode="&#xfe;" horiz-adv-x="1210" d="M143 -418v1845h176v-630h3q48 82 134 132t208 50q205 0 332.5 -137.5t127.5 -360.5t-129.5 -358t-341.5 -135q-109 0 -193 46.5t-136 125.5v-578h-181zM324 463q0 -57 19 -112.5t56 -103.5t100.5 -78t143.5 -30q135 0 216 94t81 248q0 156 -83.5 251t-225.5 95 q-73 0 -133.5 -30.5t-97.5 -79t-56.5 -104.5t-19.5 -111v-39z" />
<glyph unicode="&#xff;" horiz-adv-x="1060" d="M39 967h203l266 -676q23 -57 33 -107h2q7 40 32 107l271 676h184l-459 -1139q-46 -120 -122.5 -188t-200.5 -68q-41 0 -78.5 8t-54.5 16l-17 7l33 149q46 -24 105 -24q69 0 108.5 38.5t67.5 112.5l37 96zM227 1282q0 45 32 77t77 32q44 0 75 -32t31 -77q0 -46 -31 -77 t-75 -31q-46 0 -77.5 31t-31.5 77zM621 1282q0 44 32 76.5t76 32.5q45 0 77 -32t32 -77q0 -46 -31.5 -77t-77.5 -31q-45 0 -76.5 31.5t-31.5 76.5z" />
<glyph unicode="&#x152;" horiz-adv-x="2131" d="M98 676q0 156 47.5 285.5t131.5 217.5t201 136.5t255 48.5q280 0 455 -184v172h837v-158h-651v-414h580v-157h-580v-465h651v-158h-837v172q-175 -184 -455 -184q-138 0 -255 48.5t-201 136.5t-131.5 217.5t-47.5 285.5zM287 676q0 -239 124 -381.5t322 -142.5 q199 0 323 142.5t124 381.5t-124 381.5t-323 142.5q-198 0 -322 -142.5t-124 -381.5z" />
<glyph unicode="&#x153;" horiz-adv-x="1898" d="M84 479q0 221 137.5 360.5t360.5 139.5q130 0 233.5 -50t169.5 -141q64 91 164 141t227 50q207 0 324 -127.5t117 -325.5q0 -25 -2.5 -48t-4.5 -34l-2 -10h-725q14 -135 101.5 -215t230.5 -80q179 0 275 127l110 -100q-67 -88 -169.5 -133t-229.5 -45q-137 0 -243 49 t-171 139q-65 -90 -169 -139t-236 -49q-224 0 -361 135.5t-137 355.5zM268 479q0 -151 86.5 -245.5t227.5 -94.5q140 0 226.5 94.5t86.5 245.5q0 152 -86.5 250t-226.5 98t-227 -98t-87 -250zM1087 563h545q-2 120 -71.5 192t-184.5 72t-191.5 -72.5t-97.5 -191.5z" />
<glyph unicode="&#x178;" horiz-adv-x="1185" d="M29 1352h200l297 -535q57 -103 70 -170h4q8 62 68 170l295 535h192l-467 -856v-496h-186v485zM303 1548q0 43 31.5 75t75.5 32q42 0 73 -32t31 -75q0 -44 -30.5 -75t-73.5 -31q-44 0 -75.5 31t-31.5 75zM696 1548q0 43 32 75t75 32q44 0 75 -32t31 -75q0 -44 -31 -75 t-75 -31q-43 0 -75 31t-32 75z" />
<glyph unicode="&#x2c6;" horiz-adv-x="722" d="M57 1112l201 315h203l201 -315l-162 6l-142 172l-139 -172z" />
<glyph unicode="&#x2dc;" horiz-adv-x="831" d="M72 1208q0 71 51.5 127t136.5 56q59 0 115.5 -28.5t99 -56.5t66.5 -28q59 0 59 72q0 15 -2 29.5t-4 22.5l-2 7h143q8 -31 8 -84q0 -74 -47.5 -128t-140.5 -54q-41 0 -85 17.5t-74.5 38.5t-62 38.5t-50.5 17.5q-28 0 -48 -17t-20 -54q0 -14 2 -29t4 -23l2 -8h-141 q-10 35 -10 84z" />
<glyph unicode="&#x2000;" horiz-adv-x="860" />
<glyph unicode="&#x2001;" horiz-adv-x="1720" />
<glyph unicode="&#x2002;" horiz-adv-x="860" />
<glyph unicode="&#x2003;" horiz-adv-x="1720" />
<glyph unicode="&#x2004;" horiz-adv-x="573" />
<glyph unicode="&#x2005;" horiz-adv-x="430" />
<glyph unicode="&#x2006;" horiz-adv-x="286" />
<glyph unicode="&#x2007;" horiz-adv-x="286" />
<glyph unicode="&#x2008;" horiz-adv-x="215" />
<glyph unicode="&#x2009;" horiz-adv-x="344" />
<glyph unicode="&#x200a;" horiz-adv-x="95" />
<glyph unicode="&#x2010;" horiz-adv-x="794" d="M127 598v135h541v-135h-541z" />
<glyph unicode="&#x2011;" horiz-adv-x="794" d="M127 598v135h541v-135h-541z" />
<glyph unicode="&#x2012;" horiz-adv-x="794" d="M127 598v135h541v-135h-541z" />
<glyph unicode="&#x2013;" horiz-adv-x="946" d="M96 492v135h754v-135h-754z" />
<glyph unicode="&#x2014;" horiz-adv-x="1445" d="M96 492v135h1254v-135h-1254z" />
<glyph unicode="&#x2018;" horiz-adv-x="477" d="M94 985q0 71 21.5 136.5t52 108t60.5 75t52 47.5l21 14l80 -98q-6 -4 -15 -11t-32.5 -30t-41.5 -46.5t-33 -58t-15 -67.5q51 0 86 -31.5t35 -81.5q0 -53 -34.5 -84t-94.5 -31q-63 0 -102.5 44t-39.5 114z" />
<glyph unicode="&#x2019;" horiz-adv-x="471" d="M98 926q6 4 15 11t33 30t42 46.5t33 58t15 67.5q-51 0 -86 31t-35 81q0 53 34.5 84t94.5 31q63 0 102 -43.5t39 -114.5t-21.5 -136.5t-51.5 -108t-60.5 -75t-51.5 -46.5l-22 -15z" />
<glyph unicode="&#x201a;" horiz-adv-x="485" d="M90 -225q6 4 15 11t32.5 30t41.5 46.5t33 58t15 67.5q-51 0 -86 31t-35 81q0 53 35 84t95 31q63 0 102 -43.5t39 -114.5t-21.5 -136.5t-51.5 -108t-60.5 -75t-51.5 -47.5l-22 -14z" />
<glyph unicode="&#x201c;" horiz-adv-x="825" d="M94 985q0 71 21.5 136.5t52 108t60.5 75t52 47.5l21 14l80 -98q-6 -4 -15 -11t-32.5 -30t-41.5 -46.5t-33 -58t-15 -67.5q51 0 86 -31.5t35 -81.5q0 -53 -34.5 -84t-94.5 -31q-63 0 -102.5 44t-39.5 114zM442 985q0 71 21.5 136.5t52 108t60.5 75t52 47.5l21 14l80 -98 q-6 -4 -15 -11t-32.5 -30t-41.5 -46.5t-33 -58t-15 -67.5q51 0 86 -31.5t35 -81.5q0 -53 -34.5 -84t-94.5 -31q-63 0 -102.5 44t-39.5 114z" />
<glyph unicode="&#x201d;" horiz-adv-x="819" d="M98 926q6 4 15 11t33 30t42 46.5t33 58t15 67.5q-51 0 -86 31t-35 81q0 53 34.5 84t94.5 31q63 0 102 -43.5t39 -114.5t-21.5 -136.5t-51.5 -108t-60.5 -75t-51.5 -46.5l-22 -15zM446 926q6 4 15 11t33 30t42 46.5t33 58t15 67.5q-51 0 -86 31t-35 81q0 53 34.5 84 t94.5 31q63 0 102 -43.5t39 -114.5t-21.5 -136.5t-51.5 -108t-60.5 -75t-51.5 -46.5l-22 -15z" />
<glyph unicode="&#x201e;" horiz-adv-x="833" d="M90 -225q6 4 15 11t32.5 30t41.5 46.5t33 58t15 67.5q-51 0 -86 31t-35 81q0 53 35 84t95 31q63 0 102 -43.5t39 -114.5t-21.5 -136.5t-51.5 -108t-60.5 -75t-51.5 -47.5l-22 -14zM438 -225q6 4 15 11t32.5 30t41.5 46.5t33 58t15 67.5q-51 0 -85.5 31t-34.5 81 q0 53 34.5 84t94.5 31q63 0 102 -43.5t39 -114.5t-21.5 -136.5t-51.5 -108t-60.5 -75t-51.5 -47.5l-22 -14z" />
<glyph unicode="&#x2022;" horiz-adv-x="724" d="M154 592q0 88 60.5 149.5t147.5 61.5q86 0 147.5 -61.5t61.5 -149.5q0 -86 -61.5 -147.5t-147.5 -61.5q-87 0 -147.5 61t-60.5 148z" />
<glyph unicode="&#x2026;" horiz-adv-x="1193" d="M106 106q0 50 35 85.5t86 35.5q49 0 84 -35.5t35 -85.5q0 -49 -34.5 -83.5t-84.5 -34.5q-51 0 -86 34t-35 84zM477 106q0 50 35 85.5t86 35.5q49 0 84 -35.5t35 -85.5q0 -49 -34.5 -83.5t-84.5 -34.5q-51 0 -86 34t-35 84zM848 106q0 50 35 85.5t86 35.5q49 0 83.5 -35.5 t34.5 -85.5t-34.5 -84t-83.5 -34q-51 0 -86 34t-35 84z" />
<glyph unicode="&#x202f;" horiz-adv-x="344" />
<glyph unicode="&#x2039;" horiz-adv-x="579" d="M86 467v147l301 279l92 -102l-274 -250l274 -248l-92 -105z" />
<glyph unicode="&#x203a;" horiz-adv-x="579" d="M100 293l275 248l-275 250l93 102l301 -279v-147l-301 -279z" />
<glyph unicode="&#x205f;" horiz-adv-x="430" />
<glyph unicode="&#x20ac;" horiz-adv-x="1456" d="M72 463l30 131h170q-4 54 -4 82q0 32 4 90h-200l30 131h191q55 221 213 344t377 123q84 0 161.5 -20t129.5 -47.5t96.5 -63.5t67 -61.5t36.5 -47.5l-112 -114q-60 82 -156.5 136t-218.5 54q-84 0 -159.5 -30.5t-140.5 -100.5t-98 -172h564l-31 -131h-561q-4 -58 -4 -90 q0 -28 4 -82h530l-30 -131h-476q48 -155 159 -233t241 -78q125 0 221.5 50t155.5 130l112 -115q-14 -21 -36.5 -46t-67 -59t-97 -60.5t-130 -45t-162.5 -18.5q-221 0 -379 125t-211 350h-219z" />
<glyph unicode="&#x2122;" horiz-adv-x="1445" d="M70 1245v107h526v-107h-197v-461h-133v461h-196zM678 784v568h129l184 -387l191 387h118v-568h-112v326l-158 -326h-82l-153 326v-326h-117z" />
<glyph unicode="&#x25fc;" horiz-adv-x="962" d="M0 0v963h963v-963h-963z" />
</font>
</defs>
</svg>
