<?xml version="1.0" standalone="no"?>
<!DOCTYPE svg PUBLIC "-//W3C//DTD SVG 1.1//EN" "http://www.w3.org/Graphics/SVG/1.1/DTD/svg11.dtd" >
<svg xmlns="http://www.w3.org/2000/svg" xmlns:xlink="http://www.w3.org/1999/xlink" version="1.1">
<metadata></metadata>
<defs>
<font id="basic_sanslight" horiz-adv-x="1458" >
<font-face units-per-em="2048" ascent="1536" descent="-512" />
<missing-glyph horiz-adv-x="491" />
<glyph unicode="&#xfb01;" horiz-adv-x="1146" d="M82 856v102h143v152q0 157 89 251.5t235 94.5q53 0 104 -13.5t73.5 -25t35.5 -20.5l-47 -99q-1 0 -9.5 6.5t-14 10t-17 10t-23 10.5t-26 8.5t-31.5 6.5t-35 2q-96 0 -152.5 -65.5t-56.5 -174.5v-154h516l125 5v-963h-125v856h-516v-856h-125v856h-143zM836 1272 q0 41 28 68.5t68 27.5t69 -27.5t29 -68.5q0 -39 -29 -66.5t-69 -27.5t-68 27t-28 67z" />
<glyph unicode="&#xfb02;" horiz-adv-x="1181" d="M82 856v102h143v152q0 157 89 251.5t235 94.5q53 0 104 -13.5t73.5 -25t35.5 -20.5l-47 -99q-1 0 -9.5 6.5t-14 10t-17 10t-23 10.5t-26 8.5t-31.5 6.5t-35 2q-96 0 -152.5 -65.5t-56.5 -174.5v-154h352v-102h-352v-856h-125v856h-143zM895 0v1446h123v-1446h-123z" />
<glyph horiz-adv-x="0" />
<glyph horiz-adv-x="682" />
<glyph unicode=" "  horiz-adv-x="491" />
<glyph unicode="&#x09;" horiz-adv-x="491" />
<glyph unicode="&#xa0;" horiz-adv-x="491" />
<glyph unicode="!" horiz-adv-x="489" d="M152 70q0 36 27.5 62t64.5 26t63.5 -25.5t26.5 -62.5t-26.5 -63.5t-63.5 -26.5t-64.5 26.5t-27.5 63.5zM176 1364h139l-18 -979l-107 -4z" />
<glyph unicode="&#x22;" horiz-adv-x="563" d="M129 1446h98l-8 -334h-84zM338 1446h96l-6 -334h-84z" />
<glyph unicode="#" horiz-adv-x="1314" d="M80 289l20 90h275l55 252h-272l22 88h269l63 287h109l-64 -287h291l63 287h109l-64 -287h279l-21 -88h-276l-55 -252h274l-20 -90h-273l-63 -289h-111l64 289h-291l-64 -289h-108l63 289h-274zM483 379h291l55 252h-290z" />
<glyph unicode="$" horiz-adv-x="1110" d="M72 145l80 101q171 -144 407 -144q155 0 245.5 64.5t90.5 169.5q0 64 -26.5 113t-70.5 79.5t-102 54.5t-121.5 42.5t-127 38.5t-121.5 48t-102 64.5t-70.5 94.5t-26.5 133q0 148 106 243t279 107v190h98v-190q308 -21 400 -301l-123 -31q-6 24 -19 50t-39.5 57.5t-61 56 t-89 41t-119.5 16.5q-136 0 -219.5 -64.5t-83.5 -172.5q0 -55 26 -97.5t70.5 -69.5t102 -48.5t121 -40.5t127 -40.5t121 -52.5t102 -72t70.5 -104.5t26 -144.5q0 -146 -111 -239t-301 -105v-199h-98v199q-269 12 -440 153z" />
<glyph unicode="%" horiz-adv-x="1759" d="M74 967q0 174 91.5 278.5t244.5 104.5t245.5 -104.5t92.5 -278.5q0 -169 -93 -271t-245 -102t-244 102t-92 271zM195 967q0 -119 59.5 -190.5t155.5 -71.5q97 0 157 71.5t60 190.5q0 124 -60 198t-157 74q-96 0 -155.5 -74t-59.5 -198zM524 0l611 1356h120l-610 -1356 h-121zM1012 365q0 174 92.5 278.5t243.5 104.5q154 0 247 -104.5t93 -278.5q0 -169 -93 -271t-247 -102q-151 0 -243.5 102.5t-92.5 270.5zM1133 365q0 -119 59.5 -191t155.5 -72q98 0 157.5 71.5t59.5 191.5q0 124 -59 198t-158 74q-96 0 -155.5 -74t-59.5 -198z" />
<glyph unicode="&#x26;" horiz-adv-x="1230" d="M98 360q0 248 291 353q-137 149 -137 307q0 142 95.5 232.5t244.5 90.5q146 0 231.5 -83t85.5 -213q0 -125 -85.5 -210.5t-252.5 -150.5l361 -418q100 129 100 369l117 -37q0 -263 -141 -422l118 -137l-96 -68l-108 127q-151 -108 -379 -108q-199 0 -322 102.5 t-123 265.5zM229 373q0 -118 87 -192.5t227 -74.5q188 0 303 80l-389 453q0 2 -2 2q-109 -41 -167.5 -105t-58.5 -163zM375 1026q0 -126 133 -268q157 61 221 121.5t64 154.5q0 93 -54 150t-147 57q-98 0 -157.5 -59t-59.5 -156z" />
<glyph unicode="'" horiz-adv-x="354" d="M129 1446h98l-8 -334h-84z" />
<glyph unicode="(" horiz-adv-x="563" d="M109 502q0 128 17 251t43.5 216.5t59.5 177t65.5 141t59 100t43.5 62.5l17 20l104 -53q-6 -7 -16.5 -19.5t-40.5 -57t-57 -95t-60.5 -131.5t-57.5 -168t-40.5 -204.5t-16.5 -239.5q0 -121 16 -237.5t41.5 -206t56.5 -169t61.5 -135t56 -96.5t41.5 -60l16 -20l-104 -53 q-12 15 -33 42.5t-73.5 122.5t-92.5 200t-73 271.5t-33 340.5z" />
<glyph unicode=")" horiz-adv-x="563" d="M45 -422q6 7 16.5 20t40 59t57 97.5t60.5 134.5t56.5 170.5t40 204.5t16.5 238q0 122 -16 239t-41 205.5t-55.5 167t-61.5 132.5t-56 94t-41 58l-16 19l107 53q12 -14 33 -40.5t73.5 -119t92.5 -196t73 -270t33 -342.5q0 -127 -17 -249t-43.5 -216.5t-59.5 -179 t-65.5 -144t-59 -103t-43.5 -64.5l-17 -21z" />
<glyph unicode="*" horiz-adv-x="860" d="M98 1092l13 79l268 -55l-111 246l74 33l98 -258l170 233l66 -51l-191 -217l283 -35l-10 -78l-281 53l119 -251l-74 -35l-102 260l-166 -219l-66 49l187 211z" />
<glyph unicode="+" horiz-adv-x="919" d="M96 459v96h314v311h100v-311h313v-96h-313v-348h-100v348h-314z" />
<glyph unicode="," horiz-adv-x="458" d="M104 -213q5 4 13 10.5t28.5 28t36 44t28.5 55t13 63.5q-41 0 -69.5 24.5t-28.5 63.5q0 40 27 65t71 25q50 0 80.5 -34.5t30.5 -92.5q0 -60 -17.5 -115.5t-42 -92t-49 -64.5t-41.5 -41l-18 -13z" />
<glyph unicode="-" horiz-adv-x="804" d="M139 616v99h527v-99h-527z" />
<glyph unicode="." horiz-adv-x="438" d="M125 80q0 38 28 66t66 28t65 -28t27 -66t-27 -65t-65 -27t-66 27t-28 65z" />
<glyph unicode="/" horiz-adv-x="813" d="M59 -418l570 1864h125l-570 -1864h-125z" />
<glyph unicode="0" horiz-adv-x="1255" d="M119 666q0 338 132 514t374 176q246 0 379 -176t133 -514q0 -331 -133.5 -504.5t-378.5 -173.5q-242 0 -374 173.5t-132 504.5zM250 666q0 -279 97 -421.5t278 -142.5q183 0 282 142.5t99 421.5q0 284 -99.5 430.5t-281.5 146.5q-181 0 -278 -146.5t-97 -430.5z" />
<glyph unicode="1" horiz-adv-x="714" d="M49 1112v123l455 108h20v-1343h-129v1204z" />
<glyph unicode="2" horiz-adv-x="1107" d="M109 997q0 160 118.5 259.5t307.5 99.5q202 0 321 -113.5t119 -300.5q0 -96 -36.5 -192t-92 -173t-137 -156t-154.5 -135t-162 -116q-69 -44 -98 -59l4 -7q49 7 100 7h613v-111h-901v106q37 26 115.5 79t126 86t120 88.5t118.5 98.5t99.5 103.5t84 115.5t51 122.5 t20.5 136.5q0 140 -83.5 223.5t-227.5 83.5q-133 0 -216 -69.5t-83 -182.5q0 -43 10 -63l-125 -23q-12 36 -12 92z" />
<glyph unicode="3" horiz-adv-x="1140" d="M84 229l104 62q5 -8 14 -20.5t42.5 -45t72.5 -57.5t104 -45.5t136 -20.5q158 0 249 70t91 190q1 125 -97 187t-276 67l-69 2v117l71 2q150 5 239 66t89 172q0 119 -83 193.5t-216 74.5q-131 0 -211 -63t-80 -162q0 -44 10 -64l-124 -22q-13 19 -13 92q0 144 115.5 238 t302.5 94q193 0 310.5 -102.5t117.5 -268.5q0 -129 -92 -216t-205 -87v-4q44 0 90 -12t91 -38t80.5 -63t57 -92.5t21.5 -120.5q0 -161 -126 -261.5t-343 -100.5q-101 0 -187 24.5t-136.5 59.5t-86.5 70.5t-49 59.5z" />
<glyph unicode="4" horiz-adv-x="1167" d="M55 332v110l662 901h178v-901h207v-110h-207v-332h-127v332h-713zM193 446l2 -6q16 2 102 2h469v686q0 79 4 93l-4 2q-4 -9 -59 -88l-439 -586q-70 -98 -75 -103z" />
<glyph unicode="5" horiz-adv-x="1124" d="M86 211l104 72q5 -7 13.5 -19.5t41 -43.5t69.5 -55t98.5 -43.5t128.5 -19.5q160 0 260 90.5t100 239.5q0 148 -94 238t-246 90q-53 0 -101 -11.5t-79 -28t-55 -32.5t-34 -28l-11 -11h-129l59 694h733v-110h-620l-45 -463l6 -2q40 43 118.5 74.5t176.5 31.5 q202 0 326 -122.5t124 -319.5q0 -199 -135 -320.5t-354 -121.5q-89 0 -169 23t-130 55.5t-87 64.5t-53 55z" />
<glyph unicode="6" horiz-adv-x="1181" d="M117 655q0 324 151.5 512.5t401.5 188.5q229 0 372 -152l-73 -84q-12 15 -30.5 31t-54 39t-90.5 38t-118 15q-193 0 -311.5 -157t-118.5 -427q0 -57 2 -84l8 -2q6 46 33 93t73.5 89t122 68.5t166.5 26.5q189 0 309.5 -116t120.5 -302q0 -199 -126 -321.5t-330 -122.5 q-230 0 -369 174t-139 493zM272 408q75 -306 353 -306q147 0 237 90.5t90 239.5q0 137 -89 221t-236 84q-157 0 -255 -94t-100 -235z" />
<glyph unicode="7" horiz-adv-x="1011" d="M70 1038v305h893v-110l-539 -1233h-133l506 1137q35 82 47 94l-4 6q-46 -4 -119 -4h-535v-195h-116z" />
<glyph unicode="8" horiz-adv-x="1210" d="M106 375q0 129 71 217t202 123v4q-91 28 -145 106.5t-54 184.5q0 153 118 249.5t306 96.5q190 0 307 -96.5t117 -249.5q0 -106 -54 -184.5t-145 -106.5v-4q131 -35 202 -123t71 -217q0 -172 -137 -278.5t-361 -106.5q-223 0 -360.5 106.5t-137.5 278.5zM240 387 q0 -128 100 -206.5t264 -78.5q165 0 266 78.5t101 206.5q0 126 -98.5 197t-268.5 71t-267 -70.5t-97 -197.5zM313 1008q0 -106 80 -173.5t211 -64.5q131 -3 212 64.5t81 173.5q0 109 -80.5 173t-212.5 64q-131 0 -211 -64t-80 -173z" />
<glyph unicode="9" horiz-adv-x="1179" d="M98 911q0 199 126.5 322t330.5 123q232 0 370 -173.5t138 -494.5q0 -324 -147 -512t-396 -188q-82 0 -151.5 17.5t-114 45.5t-67.5 48.5t-40 41.5l74 82q11 -14 30 -30t54 -39t89.5 -37.5t117.5 -14.5q192 0 307 156.5t115 425.5q0 15 -1 43t-1 41l-10 2 q-6 -46 -32.5 -92.5t-72.5 -88.5t-121 -68.5t-166 -26.5q-190 0 -311 115.5t-121 301.5zM227 911q0 -135 90 -220t236 -85q155 0 252 93t102 235q-75 309 -352 309q-145 0 -236.5 -91.5t-91.5 -240.5z" />
<glyph unicode=":" horiz-adv-x="468" d="M141 80q0 38 28.5 66t66.5 28t65 -28t27 -66t-27 -65t-65 -27q-39 0 -67 27t-28 65zM141 874q0 38 28.5 66.5t66.5 28.5t65 -28t27 -67q0 -38 -27 -65t-65 -27q-39 0 -67 27t-28 65z" />
<glyph unicode=";" horiz-adv-x="518" d="M137 -213q5 4 13 10.5t28.5 28t36 44t28.5 55t13 63.5q-41 0 -69.5 24.5t-28.5 63.5q0 40 27 65t71 25q50 0 80.5 -34.5t30.5 -92.5q0 -60 -17.5 -115.5t-42 -92t-49 -64.5t-42.5 -41l-17 -13zM170 874q0 38 28 66.5t66 28.5t65 -28t27 -67q0 -38 -27 -65t-65 -27t-66 27 t-28 65z" />
<glyph unicode="&#x3c;" horiz-adv-x="821" d="M72 510v102l630 408v-113l-522 -346l522 -346v-113z" />
<glyph unicode="=" horiz-adv-x="1079" d="M147 270v95h785v-95h-785zM147 662v94h785v-94h-785z" />
<glyph unicode="&#x3e;" horiz-adv-x="821" d="M119 102v113l522 346l-522 346v113l633 -408v-102z" />
<glyph unicode="?" horiz-adv-x="935" d="M72 1063q0 147 105 239.5t276 92.5q183 0 296 -101t113 -262q0 -62 -20.5 -116t-53.5 -94t-73 -77.5t-80 -74.5t-73 -76t-54 -90.5t-21 -110.5v-20l-116 -4v24q0 71 19.5 131t51.5 102.5t70.5 80.5t77.5 72.5t71 69.5t52 80t20 97q0 113 -78 185.5t-202 72.5 q-114 0 -184 -64t-70 -163q0 -36 10 -56l-125 -20q-12 35 -12 82zM336 68q0 38 26 64t62 26q38 0 64 -26t26 -64q0 -36 -26 -62t-64 -26q-35 0 -61.5 26.5t-26.5 61.5z" />
<glyph unicode="@" horiz-adv-x="1781" d="M106 485q0 240 102 424t285 283.5t420 99.5q340 0 547 -196t207 -512q0 -229 -99.5 -361.5t-242.5 -132.5q-90 0 -143.5 49.5t-53.5 136.5v21q-33 -93 -109 -150t-190 -57q-162 0 -261 113t-99 297q0 186 102 297.5t267 111.5q99 0 170 -43t108 -116v147h123v-608 q0 -58 32 -90.5t87 -32.5q101 0 175.5 116t74.5 302q0 293 -191 475t-504 182q-219 0 -389 -93t-265 -265.5t-95 -397.5q0 -320 205 -520.5t534 -200.5q64 0 123.5 7t107 19.5t90 28t75 33t59.5 34.5t46 33t31.5 28.5t19.5 20.5l7 7l35 -43l-1 -1q-61 -71 -177 -129 q-181 -89 -416 -89q-176 0 -324.5 57t-252.5 158t-162 244.5t-58 312.5zM594 500q0 -137 72 -221t190 -84q81 0 142.5 43.5t89.5 103.5t28 123v74q0 45 -17 91t-48.5 85.5t-84 64.5t-116.5 25q-115 0 -185.5 -84t-70.5 -221z" />
<glyph unicode="A" horiz-adv-x="1241" d="M43 0l512 1343h129l512 -1343h-133l-139 365h-611l-137 -365h-133zM354 473h529l-232 612q-10 29 -30 103h-5q-9 -43 -30 -103z" />
<glyph unicode="B" horiz-adv-x="1249" d="M193 0v1343h450q207 0 322.5 -91t115.5 -263q0 -57 -16 -104t-40.5 -76.5t-56 -51.5t-59 -32.5t-53.5 -15.5v-4q36 -6 71.5 -19t75.5 -40.5t69.5 -64t49 -95t19.5 -128.5q0 -171 -118.5 -264.5t-340.5 -93.5h-489zM322 111h346q161 0 252.5 65.5t91.5 194.5 q0 133 -90.5 204.5t-243.5 71.5h-356v-536zM322 748h348q134 0 207 66.5t73 168.5q0 250 -323 250h-305v-485z" />
<glyph unicode="C" horiz-adv-x="1300" d="M113 672q0 312 166.5 498t431.5 186q107 0 194.5 -31t141.5 -77.5t91.5 -106t53 -113t16.5 -100.5l-123 -21q0 34 -10.5 74.5t-38 87.5t-68 85t-107 63.5t-148.5 25.5q-204 0 -337.5 -154t-133.5 -417q0 -140 39 -250t107.5 -179t158 -105t194.5 -36q73 0 140 20 t116 53.5t83.5 66.5t60.5 69l80 -80q-19 -25 -40 -49t-66.5 -61.5t-95.5 -64t-125 -46.5t-157 -20q-282 0 -453 182t-171 500z" />
<glyph unicode="D" horiz-adv-x="1353" d="M193 0v1343h364q320 0 502 -177.5t182 -493.5q0 -327 -161.5 -499.5t-446.5 -172.5h-440zM319 111h312q223 0 352 145t129 416q0 272 -146.5 416.5t-408.5 144.5h-238v-1122z" />
<glyph unicode="E" horiz-adv-x="1114" d="M193 0v1343h813v-110h-687v-479h619v-109h-619v-534h687v-111h-813z" />
<glyph unicode="F" horiz-adv-x="1040" d="M193 0v1343h788v-110h-662v-488h574v-112h-574v-633h-126z" />
<glyph unicode="G" horiz-adv-x="1347" d="M113 672q0 307 164.5 495.5t427.5 188.5q108 0 196.5 -30t142.5 -75t91 -103t52.5 -109.5t16.5 -98.5l-121 -20q0 34 -10.5 73t-38.5 84.5t-68.5 81.5t-108 60t-150.5 24q-204 0 -334.5 -154.5t-130.5 -416.5q0 -257 127 -413.5t342 -156.5q80 0 147 21t112 55.5t76.5 80 t45.5 92.5t14 95v89h-473v108h581v-643h-77q-18 79 -25 213q-53 -106 -160.5 -164.5t-257.5 -58.5q-262 0 -421.5 187t-159.5 495z" />
<glyph unicode="H" horiz-adv-x="1443" d="M193 0v1343h126v-589h805v589h129v-1343h-129v645h-805v-645h-126z" />
<glyph unicode="I" horiz-adv-x="512" d="M193 0v1343h126v-1343h-126z" />
<glyph unicode="J" horiz-adv-x="913" d="M20 121l80 96q115 -115 250 -115q254 0 254 260v981h129v-972q0 -191 -102 -286t-281 -95q-189 0 -330 131z" />
<glyph unicode="K" horiz-adv-x="1173" d="M193 0v1343h126v-630h187l495 630h140l-541 -684l545 -657h-144l-493 602h-189v-604h-126z" />
<glyph unicode="L" horiz-adv-x="1046" d="M193 0v1343h126v-1232h701v-111h-827z" />
<glyph unicode="M" horiz-adv-x="1693" d="M193 0v1343h145l453 -1019q43 -96 57 -148h4q11 40 59 148l449 1019h141v-1343h-127l2 981q0 105 6 135l-6 2q-2 -5 -9.5 -28.5t-17 -50t-16.5 -42.5l-442 -1001h-82l-453 1010q-23 49 -39 112l-6 -2q6 -36 6 -135l2 -981h-126z" />
<glyph unicode="N" horiz-adv-x="1411" d="M193 0v1343h147l637 -981q82 -131 115 -196l10 4q-10 115 -10 184l-2 989h129v-1343h-148l-637 975q-94 153 -117 199l-8 -5q8 -32 8 -182l5 -987h-129z" />
<glyph unicode="O" d="M111 672q0 157 46.5 286t129 216t196 134.5t246.5 47.5q273 0 446 -185t173 -499q0 -156 -46.5 -285t-128.5 -215.5t-196 -134t-248 -47.5q-133 0 -246.5 47.5t-196 134t-129 215.5t-46.5 285zM242 672q0 -260 136.5 -415t350.5 -155q216 0 353 155t137 415t-137 415.5 t-353 155.5q-214 0 -350.5 -155.5t-136.5 -415.5z" />
<glyph unicode="P" horiz-adv-x="1187" d="M193 0v1343h421q234 0 367 -116.5t133 -323.5q0 -203 -129 -318.5t-356 -115.5h-310v-469h-126zM319 580h291q175 0 275 86t100 237q0 154 -101 242t-278 88h-287v-653z" />
<glyph unicode="Q" d="M111 672q0 157 46.5 286t129 216t196 134.5t246.5 47.5q273 0 446 -185t173 -499q0 -264 -126.5 -439.5t-336.5 -226.5q211 -57 405 -69l-26 -105q-297 27 -578 160q-125 7 -230.5 57t-182 136t-119.5 211.5t-43 275.5zM242 672q0 -260 136.5 -415t350.5 -155 q216 0 353 155t137 415t-137 415.5t-353 155.5q-214 0 -350.5 -155.5t-136.5 -415.5z" />
<glyph unicode="R" horiz-adv-x="1218" d="M193 0v1343h393q223 0 347 -104.5t124 -304.5q0 -148 -89.5 -246.5t-240.5 -134.5q47 -18 87.5 -61t67 -93t56 -104.5t56 -99t65.5 -73t86 -28.5l33 4l10 -102q-35 -6 -78 -6q-70 0 -123 30t-86.5 77.5t-62.5 105.5t-59 116t-66.5 105.5t-94 77.5t-133.5 30h-166v-532 h-126zM319 635h244q161 0 263 79t102 220q0 142 -92 220.5t-256 78.5h-261v-598z" />
<glyph unicode="S" horiz-adv-x="1130" d="M76 145l80 101q171 -144 407 -144q155 0 245.5 64.5t90.5 169.5q0 64 -26.5 113t-70.5 79.5t-102 54.5t-121.5 42.5t-127 38.5t-121.5 48t-102 64.5t-70.5 94.5t-26.5 133q0 158 120.5 255t311.5 97q351 0 451 -303l-123 -31q-6 24 -19 50t-39.5 57.5t-61 56t-89 41 t-119.5 16.5q-136 0 -219.5 -64.5t-83.5 -172.5q0 -55 26 -97.5t70.5 -69.5t102 -48.5t121 -40.5t127 -40.5t121 -52.5t102 -72t70.5 -104.5t26 -144.5q0 -156 -126 -251t-337 -95q-168 0 -290.5 46t-196.5 109z" />
<glyph unicode="T" horiz-adv-x="1089" d="M27 1233v110h1036v-110h-455v-1233h-129v1233h-452z" />
<glyph unicode="U" horiz-adv-x="1394" d="M176 530v813h129v-808q0 -208 105 -320.5t288 -112.5q181 0 286.5 112t105.5 316v813h127v-813q0 -252 -140.5 -396t-378.5 -144q-240 0 -381 144t-141 396z" />
<glyph unicode="V" horiz-adv-x="1226" d="M45 1343h135l402 -1085q11 -33 30 -102h4q4 16 9 33.5t12 37.5t10 31l404 1085h131l-506 -1343h-129z" />
<glyph unicode="W" horiz-adv-x="1830" d="M51 1343h133l299 -1085q26 -103 29 -115h4q8 38 27 115l313 1085h121l315 -1085l27 -115h4q3 12 29 115l299 1085h129l-391 -1343h-146l-291 1018q-18 58 -34 149h-3q-16 -91 -34 -149l-299 -1018h-142z" />
<glyph unicode="X" horiz-adv-x="1179" d="M43 0l461 659l-461 684h152l323 -483q54 -82 72 -127h2q18 45 72 127l327 483h148l-463 -679l463 -664h-146l-327 463q-30 42 -74 131h-2q-40 -80 -76 -129l-330 -465h-141z" />
<glyph unicode="Y" horiz-adv-x="1173" d="M43 1343h141l344 -589q46 -79 60 -138h4q15 62 59 138l344 589h133l-475 -831v-512h-129v504z" />
<glyph unicode="Z" horiz-adv-x="1132" d="M72 0v111l768 1038q47 61 67 84l-4 6q-60 -6 -121 -6h-690v110h967v-110l-766 -1038q-15 -20 -29.5 -37.5t-26.5 -31t-14 -15.5l4 -5q35 5 121 5h699v-111h-975z" />
<glyph unicode="[" horiz-adv-x="598" d="M182 -418v1864h350v-109h-227v-1646h227v-109h-350z" />
<glyph unicode="\" horiz-adv-x="813" d="M59 1446h123l572 -1864h-125z" />
<glyph unicode="]" horiz-adv-x="598" d="M68 -309h225v1646h-225v109h350v-1864h-350v109z" />
<glyph unicode="^" horiz-adv-x="745" d="M98 1073l201 397h145l201 -397h-115l-159 297l-156 -297h-117z" />
<glyph unicode="_" horiz-adv-x="714" d="M0 -131h715v-94h-715v94z" />
<glyph unicode="`" horiz-adv-x="522" d="M129 1415h164l125 -293l-109 -8z" />
<glyph unicode="a" horiz-adv-x="1075" d="M98 244q0 155 153.5 222.5t461.5 70.5l59 2v73q0 117 -71.5 184.5t-200.5 67.5q-118 0 -188 -52.5t-70 -143.5q0 -36 10 -56l-117 -20q-12 35 -12 82q0 131 104 213t275 82q184 0 289.5 -96t105.5 -259v-436q0 -41 15 -59.5t49 -18.5q18 0 34 4l6 -104l-5 -1 q-4 -1 -11 -2.5t-16 -3t-20.5 -2.5t-22.5 -1q-67 0 -106.5 35t-39.5 108v49h-4q-15 -32 -40.5 -61.5t-67.5 -61t-108 -50.5t-146 -19q-150 0 -233 68.5t-83 185.5zM225 248q0 -72 54.5 -113t160.5 -41q83 0 151 27t105 65.5t56.5 75t19.5 62.5v125l-59 -3 q-249 -3 -368.5 -49t-119.5 -149z" />
<glyph unicode="b" horiz-adv-x="1193" d="M160 0v1442h125v-682q47 95 138.5 153t221.5 58q200 0 324.5 -135.5t124.5 -356.5t-125.5 -355t-329.5 -134q-143 0 -239 70t-134 180q0 -103 -18 -240h-88zM285 436q0 -57 21.5 -115.5t62 -109.5t109 -83t153.5 -32q153 0 245.5 105.5t92.5 277.5q0 174 -94 279.5 t-250 105.5q-80 0 -147 -32.5t-108 -83.5t-63 -109.5t-22 -114.5v-88z" />
<glyph unicode="c" horiz-adv-x="1050" d="M98 475q0 220 130 357t337 137q175 0 281 -91.5t106 -232.5q0 -16 -1.5 -31t-2.5 -22l-2 -8l-117 -9q5 15 5 52q0 105 -72.5 171t-194.5 66q-154 0 -249 -106.5t-95 -280.5t97 -278.5t264 -104.5q188 0 299 125l73 -78q-130 -151 -376 -151q-219 0 -350.5 133.5 t-131.5 351.5z" />
<glyph unicode="d" horiz-adv-x="1193" d="M98 481q0 220 126.5 355t330.5 135q125 0 216 -55t138 -146v672h123v-1442l-90 -4q-14 139 -14 220v26h-2q-41 -111 -138.5 -181.5t-238.5 -70.5q-200 0 -325.5 135.5t-125.5 355.5zM225 481q0 -174 94 -279.5t250 -105.5q81 0 148 32.5t107.5 83.5t62.5 110t22 116v86 q0 57 -22 115.5t-63 109.5t-110 83t-153 32q-152 0 -244 -105.5t-92 -277.5z" />
<glyph unicode="e" horiz-adv-x="1067" d="M98 477q0 220 128 356t331 136q191 0 303.5 -120.5t112.5 -313.5q0 -23 -1.5 -43.5t-3.5 -29.5l-1 -9h-742q8 -164 105.5 -261.5t259.5 -97.5q184 0 284 125l78 -72q-127 -157 -370 -157q-222 0 -353 133t-131 354zM229 545h617v8q0 144 -79 227.5t-210 83.5 q-132 0 -221.5 -87t-106.5 -232z" />
<glyph unicode="f" horiz-adv-x="731" d="M82 856v102h143v152q0 157 89 251.5t235 94.5q53 0 104 -13.5t73.5 -25t35.5 -20.5l-47 -99q-1 0 -9.5 6.5t-14 10t-17 10t-23 10.5t-26 8.5t-31.5 6.5t-35 2q-96 0 -152.5 -65.5t-56.5 -174.5v-154h352v-102h-352v-856h-125v856h-143z" />
<glyph unicode="g" horiz-adv-x="1067" d="M51 -160q0 155 176 217q-110 47 -110 158q0 59 40 100.5t99 55.5q-117 96 -117 256q0 154 107 248t282 94q166 0 271 -82q108 37 108 209l109 -23q0 -106 -54 -166.5t-112 -68.5q72 -88 72 -211q0 -154 -107.5 -248t-284.5 -94q-106 0 -184 34q-55 -8 -86 -31t-31 -59 q0 -56 56.5 -77t171.5 -21h209q167 0 260.5 -69.5t93.5 -194.5q0 -136 -121.5 -215.5t-363.5 -79.5q-233 0 -358.5 71t-125.5 197zM174 -143q0 -179 361 -179q362 0 362 189q0 82 -62.5 120t-189.5 38h-221q-124 0 -187 -46t-63 -122zM264 627q0 -108 72 -174t192 -66 q121 0 195 66t74 174q0 107 -73.5 173t-193.5 66q-121 0 -193.5 -65.5t-72.5 -173.5z" />
<glyph unicode="h" horiz-adv-x="1155" d="M160 0v1446h123v-698q45 97 135 159t217 62q170 0 270.5 -105t100.5 -276v-588h-125v588q0 125 -71.5 200.5t-195.5 75.5q-78 0 -143 -32t-104.5 -83t-60.5 -110t-21 -117v-522h-125z" />
<glyph unicode="i" horiz-adv-x="450" d="M133 1272q0 41 28 68.5t68 27.5t69.5 -27.5t29.5 -68.5q0 -39 -29.5 -66.5t-69.5 -27.5t-68 27t-28 67zM164 0v958l125 5v-963h-125z" />
<glyph unicode="j" horiz-adv-x="464" d="M-178 -373l39 88q47 -34 127 -34q98 0 143 52.5t45 166.5v1058l125 5v-1043q0 -346 -303 -346q-53 0 -97 13t-61 27zM147 1272q0 41 28.5 68.5t68.5 27.5t69 -27.5t29 -68.5q0 -39 -29 -66.5t-69 -27.5t-68.5 27.5t-28.5 66.5z" />
<glyph unicode="k" horiz-adv-x="1001" d="M160 0v1446h125v-866h151l367 378h147l-428 -434l469 -524h-157l-420 477h-129v-477h-125z" />
<glyph unicode="l" horiz-adv-x="450" d="M164 0v1446h123v-1446h-123z" />
<glyph unicode="m" horiz-adv-x="1818" d="M160 0v958l88 5q18 -120 18 -244q38 109 126.5 178.5t217.5 69.5q132 0 223 -66.5t125 -183.5q38 109 127.5 179.5t217.5 70.5q168 0 267 -105.5t99 -277.5v-584h-125v584q0 126 -69.5 202t-190.5 76q-73 0 -133 -32.5t-97 -83.5t-57 -109t-20 -113v-524h-125v584 q0 126 -69.5 202t-190.5 76q-73 0 -133 -32.5t-97 -83.5t-57 -109t-20 -113v-524h-125z" />
<glyph unicode="n" horiz-adv-x="1155" d="M160 0v958l88 5q18 -120 18 -244h4q42 108 134.5 179t228.5 71q170 0 271.5 -105.5t101.5 -275.5v-588h-125v588q0 124 -72 200t-195 76q-78 0 -143 -32.5t-104 -84t-60.5 -109.5t-21.5 -114v-524h-125z" />
<glyph unicode="o" horiz-adv-x="1150" d="M98 477q0 219 131.5 355.5t345.5 136.5t346 -136.5t132 -355.5t-131.5 -353t-346.5 -134t-346 134t-131 353zM223 477q0 -171 97 -277t255 -106t254.5 106t96.5 277t-97 279t-254 108t-254.5 -108t-97.5 -279z" />
<glyph unicode="p" horiz-adv-x="1193" d="M160 -418v1376l88 5q18 -133 18 -244h2q40 110 136 180t241 70q200 0 324.5 -135.5t124.5 -356.5q0 -219 -125.5 -353t-329.5 -134q-121 0 -213.5 56t-140.5 147v-611h-125zM285 434q0 -57 22 -115.5t63 -109.5t109.5 -83t151.5 -32q153 0 245.5 105.5t92.5 277.5 q0 174 -94 280.5t-250 106.5q-82 0 -149 -32.5t-107.5 -84.5t-62 -111t-21.5 -116v-86z" />
<glyph unicode="q" horiz-adv-x="1193" d="M98 481q0 219 126.5 353.5t330.5 134.5q140 0 237 -70t134 -180h2v26q0 94 18 213h86v-1376h-123v621q-46 -97 -139 -155t-221 -58q-200 0 -325.5 135.5t-125.5 355.5zM225 481q0 -174 94 -280.5t250 -106.5q80 0 146.5 32.5t107.5 83.5t63.5 110t22.5 116v86 q0 58 -21.5 116t-62 109.5t-109.5 84t-155 32.5q-152 0 -244 -105.5t-92 -277.5z" />
<glyph unicode="r" horiz-adv-x="675" d="M160 0v958l88 5q18 -120 18 -244h4q31 108 100.5 179t172.5 71q61 0 108 -15l-30 -123q-30 17 -84 17q-69 0 -128 -48t-91.5 -123.5t-32.5 -158.5v-518h-125z" />
<glyph unicode="s" horiz-adv-x="942" d="M74 131l78 82q16 -15 37.5 -30t62.5 -38t98 -37t119 -14q119 0 184.5 43.5t65.5 116.5q0 48 -33 81.5t-86.5 52t-117.5 33.5t-128 34.5t-117.5 47t-86.5 78t-33 121.5q0 117 98 192t256 75q156 0 254 -72t98 -190l-6 -62l-115 -10q7 35 7 49q0 84 -67.5 132t-174.5 48 q-103 0 -163 -45t-60 -119q0 -51 33 -85.5t85.5 -52.5t116 -32t127.5 -31.5t117 -44t87 -77.5q35 -53 34 -125q0 -122 -101 -192q-102 -70 -274 -70q-230 0 -389 136q-4 3 -6 5z" />
<glyph unicode="t" horiz-adv-x="792" d="M59 856v102h158v291l125 8v-299h389v-102h-389v-518q0 -122 48.5 -182t154.5 -60q52 0 99 15t68 30l21 15l43 -101q-11 -8 -30.5 -19t-82.5 -29.5t-128 -18.5q-165 0 -241.5 86.5t-76.5 259.5v522h-158z" />
<glyph unicode="u" horiz-adv-x="1128" d="M150 369v589h124v-589q0 -127 67 -201t189 -74q74 0 136 32.5t100 84t59 110t21 113.5v524h123v-958l-90 -4q-19 127 -19 231h-2q-41 -104 -130 -170.5t-216 -66.5q-168 0 -265 103.5t-97 275.5z" />
<glyph unicode="v" horiz-adv-x="1032" d="M45 958h139l312 -763q15 -39 22 -70h4q6 30 21 70l315 763h127l-399 -958h-142z" />
<glyph unicode="w" horiz-adv-x="1505" d="M51 958h139l224 -757q4 -15 10 -32t9.5 -28.5t4.5 -15.5h4q1 5 10 33t13 43l229 757h129l230 -753q7 -26 18 -80h4q2 4 10 32.5t15 47.5l223 753h127l-297 -958h-152l-225 729q-12 46 -16 70h-4q-2 -13 -17 -70l-229 -729h-152z" />
<glyph unicode="x" horiz-adv-x="950" d="M45 958h150l247 -342q30 -46 35 -57h2q7 19 33 57l246 342h143l-352 -477l356 -481h-147l-256 350q-22 26 -25 43h-2q-6 -18 -24 -43l-256 -350h-144l352 477z" />
<glyph unicode="y" horiz-adv-x="1032" d="M51 958h137l312 -763q17 -38 22 -70h4q7 34 23 70l313 763h127l-475 -1157q-42 -110 -105 -169.5t-173 -59.5q-36 0 -68.5 7t-47.5 13l-14 7l23 104q41 -22 98 -22q69 0 106.5 37t67.5 114l60 145z" />
<glyph unicode="z" horiz-adv-x="915" d="M76 0v102l573 711q27 31 39 43l-2 4q-16 -4 -65 -4h-533v102h741v-102l-555 -692q-40 -50 -53 -62l2 -4q14 4 70 4h545v-102h-762z" />
<glyph unicode="{" horiz-adv-x="620" d="M78 442v103h20q52 0 91.5 34.5t39.5 102.5v451q0 74 18.5 131t49 92.5t73.5 58.5t88 32t97 9v-113q-100 0 -154.5 -57t-54.5 -172v-457q0 -43 -11.5 -76t-29 -50t-32 -25.5t-27.5 -11.5q11 -3 25.5 -12.5t32.5 -27.5t30 -50.5t12 -73.5v-418q0 -115 54.5 -172t154.5 -57 v-111q-52 0 -97 9t-88 32t-73.5 59t-49 93t-18.5 131v409q0 68 -39.5 102.5t-91.5 34.5h-20z" />
<glyph unicode="|" horiz-adv-x="473" d="M182 -418v1845h111v-1845h-111z" />
<glyph unicode="}" horiz-adv-x="620" d="M66 -317q100 0 154 56.5t54 172.5v418q0 35 9 64t19 44.5t28 29.5t24.5 17t20.5 9q-13 3 -26.5 10.5t-32 24.5t-30.5 50.5t-12 77.5v459q0 116 -54.5 173t-153.5 57v110q52 0 97 -9t88.5 -31.5t74 -58t49 -93t18.5 -131.5v-451q0 -68 39.5 -102.5t91.5 -34.5h21v-103h-21 q-52 0 -91.5 -34.5t-39.5 -102.5v-409q0 -91 -27.5 -157t-75.5 -101t-103 -50.5t-121 -15.5v111z" />
<glyph unicode="~" horiz-adv-x="1159" d="M152 518v92q90 64 217 64q82 0 213.5 -41t212.5 -41q54 0 114.5 16.5t102.5 46.5v-94q-92 -63 -217 -63q-81 0 -212.5 41t-213.5 41q-52 0 -114 -17t-103 -45z" />
<glyph unicode="&#xa1;" horiz-adv-x="454" d="M137 879q0 37 27 63.5t65 26.5q36 0 63 -27t27 -63t-27 -62t-63 -26q-38 0 -65 25.5t-27 62.5zM156 -416l18 975l107 4l14 -979h-139z" />
<glyph unicode="&#xa2;" horiz-adv-x="1060" d="M104 477q0 203 115.5 335t310.5 151v190h97v-190q216 -9 338 -150l-76 -78q-111 125 -299 125q-167 0 -263 -104.5t-96 -278.5t96 -278.5t263 -104.5q188 0 299 125l76 -78q-121 -140 -338 -149v-197h-97v197q-195 19 -310.5 150.5t-115.5 334.5z" />
<glyph unicode="&#xa3;" horiz-adv-x="1177" d="M96 535v90h183q-63 104 -82 157q-27 73 -27 150q0 187 130 305.5t341 118.5q71 0 134 -13t106.5 -33.5t80 -45.5t58.5 -50t37.5 -45.5t21.5 -33.5l6 -13l-110 -51q-3 7 -9.5 19t-33.5 42t-61 52.5t-95.5 41.5t-134.5 19q-151 0 -245.5 -87.5t-94.5 -223.5q0 -35 6 -68 t21.5 -68.5t25.5 -55.5t34.5 -62t31.5 -55h475v-90h-430q31 -77 31 -146q0 -58 -22 -112t-55 -90t-51.5 -52.5t-31.5 -25.5l2 -5q25 5 74 5h643v-109h-899v84q8 5 22.5 13.5t50.5 38t63.5 62.5t50 85t22.5 106q0 71 -35 146h-234z" />
<glyph unicode="&#xa4;" horiz-adv-x="1218" d="M131 354l172 174q-51 82 -51 185q0 104 51 186l-170 170l66 68l168 -168q47 47 110.5 74.5t132.5 27.5q142 0 244 -102l168 168l65 -68l-169 -170q55 -92 55 -186q0 -104 -55 -187l167 -168l-67 -65l-164 162q-45 -46 -108.5 -72.5t-133.5 -26.5q-150 0 -245 103 l-170 -172zM352 713q0 -106 76 -181t184 -75q107 0 182.5 75t75.5 181q0 108 -75.5 182t-184.5 74q-106 0 -182 -75t-76 -181z" />
<glyph unicode="&#xa5;" horiz-adv-x="1200" d="M55 1343h142l344 -589q44 -76 59 -138h4q14 59 60 138l344 589h133l-424 -743h303v-94h-354v-156h354v-92h-354v-258h-129v258h-357v92h357v156h-357v94h301z" />
<glyph unicode="&#xa6;" horiz-adv-x="468" d="M180 344h111v-762h-111v762zM180 664v763h111v-763h-111z" />
<glyph unicode="&#xa7;" horiz-adv-x="1153" d="M84 -270l80 98q165 -143 407 -143q153 0 243.5 59.5t90.5 163.5q0 75 -42 126t-109 77.5t-148 45.5t-162 41t-148 53t-109 91t-42 147q0 76 45.5 137.5t122.5 94.5q-169 91 -174 289q-1 157 119 251.5t315 94.5q353 0 451 -303l-123 -33q-8 32 -28 66t-56.5 71.5 t-100 61.5t-143.5 24q-136 0 -219.5 -63t-83.5 -168q0 -61 26 -106.5t70.5 -73.5t102 -49t121 -37t127 -33t121 -42.5t102 -59.5t70.5 -89t26 -127q0 -158 -141 -227q139 -86 139 -260q0 -156 -126 -246t-337 -90q-170 0 -291.5 47t-195.5 111zM268 494q0 -56 29.5 -95.5 t87 -64t114.5 -39.5t140.5 -34.5t136.5 -37.5q131 44 131 172q0 49 -21 86.5t-52.5 60t-83.5 42t-97.5 30.5t-111 27.5t-109.5 30.5q-74 -12 -119 -59.5t-45 -118.5z" />
<glyph unicode="&#xa8;" horiz-adv-x="694" d="M76 1272q0 36 25 62t61 26q35 0 60.5 -26.5t25.5 -61.5t-25.5 -60.5t-60.5 -25.5q-36 0 -61 25t-25 61zM449 1272q0 35 25.5 61.5t60.5 26.5q36 0 61 -26t25 -62t-25 -61t-61 -25q-35 0 -60.5 25.5t-25.5 60.5z" />
<glyph unicode="&#xa9;" horiz-adv-x="1581" d="M111 674q0 306 185.5 493t491.5 187q307 0 494.5 -187t187.5 -493q0 -203 -84.5 -358t-239.5 -239.5t-358 -84.5q-306 0 -491.5 187t-185.5 495zM168 674q0 -285 170.5 -459t449.5 -174q281 0 453 174.5t172 458.5t-171.5 456.5t-453.5 172.5q-280 0 -450 -172.5 t-170 -456.5zM393 647q0 206 110.5 331.5t291.5 125.5q82 0 148.5 -25t104.5 -64t58 -82t20 -83l-98 -19q-1 7 -3 19t-16.5 42t-37 53t-69 42t-107.5 19q-130 0 -209.5 -97.5t-79.5 -257.5q0 -148 83.5 -238.5t219.5 -90.5q52 0 98 11.5t75 27.5t50 32t30 27l9 12l51 -72 q-4 -5 -11 -14.5t-35.5 -32.5t-62 -41t-92 -32.5t-124.5 -14.5q-182 0 -293 116t-111 306z" />
<glyph unicode="&#xaa;" horiz-adv-x="948" d="M115 782q0 126 122.5 179t360.5 55l43 2v55q0 84 -53.5 134t-147.5 50q-87 0 -138.5 -39t-51.5 -106q0 -15 8 -39l-113 -20q-10 28 -10 67q0 106 84.5 171t224.5 65q150 0 234 -76.5t84 -210.5v-326q0 -31 11.5 -44t37.5 -13q21 0 27 2l8 -100h-4q-4 -1 -11 -2t-15.5 -2 t-19.5 -1.5t-22 -0.5q-129 0 -129 125v22q-13 -25 -32.5 -48t-51.5 -47.5t-83 -39t-113 -14.5q-120 0 -185 54t-65 148zM238 793q0 -53 41 -84t116 -31q61 0 111 19.5t78 47.5t42.5 55.5t14.5 47.5v92l-43 -2q-182 -2 -271 -35t-89 -110z" />
<glyph unicode="&#xab;" horiz-adv-x="901" d="M94 489v103l283 274l65 -73l-266 -252l266 -252l-65 -74zM432 489v103l283 274l65 -73l-266 -252l266 -252l-65 -74z" />
<glyph unicode="&#xad;" horiz-adv-x="804" d="M139 616v99h527v-99h-527z" />
<glyph unicode="&#xae;" horiz-adv-x="933" d="M109 995q0 160 99.5 260.5t256.5 100.5t257.5 -101t100.5 -260q0 -158 -100 -257t-258 -99q-157 0 -256.5 99t-99.5 257zM156 995q0 -139 86 -226t223 -87q139 0 226 88t87 225q0 140 -87.5 230t-225.5 90q-137 0 -223 -89t-86 -231zM322 782v437h149q61 0 98 -35t37 -92 q0 -28 -9.5 -50.5t-22 -36t-27 -22.5t-24 -12.5t-13.5 -3.5q25 -9 43.5 -33.5t26.5 -48t22.5 -42t34.5 -18.5h8l6 -43q-10 -2 -22 -2q-28 0 -47.5 17.5t-32 42.5t-25.5 50t-35.5 42.5t-54.5 17.5h-59v-168h-53zM375 995h84q42 0 69 27.5t27 69.5q0 37 -25.5 60.5t-66.5 23.5 h-88v-181z" />
<glyph unicode="&#xaf;" horiz-adv-x="753" d="M106 1223v96h541v-96h-541z" />
<glyph unicode="&#xb0;" horiz-adv-x="708" d="M104 1104q0 112 68.5 181t179.5 69q113 0 182.5 -69t69.5 -181q0 -110 -69.5 -178t-182.5 -68q-110 0 -179 68t-69 178zM180 1104q0 -78 47 -126t125 -48t127 48t49 126q0 79 -49 127.5t-127 48.5t-125 -48t-47 -128z" />
<glyph unicode="&#xb1;" horiz-adv-x="1015" d="M143 121v96h729v-96h-729zM143 616v97h316v260h98v-260h315v-97h-315v-268h-98v268h-316z" />
<glyph unicode="&#xb4;" horiz-adv-x="522" d="M104 1114l127 301h162l-176 -293z" />
<glyph unicode="&#xb6;" horiz-adv-x="1103" d="M57 991q0 158 116 255t306 97h426v-1755h-84v1686h-184v-1686h-84v1055h-74q-190 0 -306 95.5t-116 252.5z" />
<glyph unicode="&#xb7;" horiz-adv-x="452" d="M133 737q0 38 28 66t66 28t65 -28t27 -66t-27 -65t-65 -27t-66 27t-28 65z" />
<glyph unicode="&#xb8;" horiz-adv-x="542" d="M88 -324l39 74q6 -6 16 -14.5t44.5 -22.5t70.5 -14q46 0 75 21.5t29 56.5q0 39 -43.5 67.5t-138.5 28.5l60 145h92l-37 -86q64 -7 112 -47t48 -112q0 -75 -55 -118.5t-142 -43.5q-49 0 -91.5 16.5t-60.5 32.5z" />
<glyph unicode="&#xba;" horiz-adv-x="964" d="M100 967q0 173 105.5 281t277.5 108q171 0 276 -108t105 -281q0 -172 -105 -279.5t-276 -107.5q-172 0 -277.5 107t-105.5 280zM225 967q0 -127 71 -205t187 -78q115 0 185.5 78.5t70.5 204.5q0 128 -70.5 207t-185.5 79q-117 0 -187.5 -79t-70.5 -207z" />
<glyph unicode="&#xbb;" horiz-adv-x="901" d="M121 289l266 252l-266 252l65 73l283 -274v-103l-283 -274zM459 289l266 252l-266 252l65 73l283 -274v-103l-283 -274z" />
<glyph unicode="&#xbc;" horiz-adv-x="1667" d="M57 1165v115l353 63h20v-741h-121v612zM391 0l613 1356h120l-610 -1356h-123zM883 166l2 117l436 456h131v-471h150v-102h-150v-166h-123v166h-446zM995 270l4 -4q10 2 72 2h262v297q0 47 2 53l-4 5q-4 -7 -39 -48l-248 -264q-29 -29 -49 -41z" />
<glyph unicode="&#xbd;" horiz-adv-x="1656" d="M57 1165v115l353 63h20v-741h-121v612zM391 0l613 1356h120l-610 -1356h-123zM942 514q0 101 81.5 167.5t219.5 66.5q145 0 228 -66t83 -184q0 -60 -27.5 -112t-87 -99.5t-98 -72t-114.5 -66.5q-15 -9 -23 -13q-29 -16 -69 -31l2 -4q8 2 65 2h375v-102h-633v90 q37 22 108.5 62.5t114 65t99 63t87.5 69t54 69.5t23 77q0 65 -50.5 104t-136.5 39q-79 0 -127.5 -36t-48.5 -95q0 -21 6 -27l-121 -24q-10 20 -10 57z" />
<glyph unicode="&#xbe;" horiz-adv-x="1847" d="M74 739l94 64q3 -4 9.5 -10.5t29 -23.5t48.5 -30t68.5 -23.5t88.5 -10.5q98 0 151 29.5t53 80.5t-59 78t-156 27h-73v98h57q205 0 205 104q0 53 -48.5 86t-131.5 33q-76 0 -125 -27t-49 -67q0 -15 6 -27l-123 -20l-1 3q-1 3 -2 8.5t-2 12t-2 15.5t-1 18q0 85 84 139 t217 54q138 0 221.5 -58.5t83.5 -154.5q0 -71 -56.5 -116.5t-136.5 -45.5v-2q85 0 152 -47t67 -127q0 -91 -88.5 -147t-240.5 -56q-73 0 -135 14.5t-98.5 36t-62 42.5t-34.5 35zM590 0l610 1356h121l-610 -1356h-121zM1069 166l2 117l434 456h133v-471h148v-102h-148v-166 h-125v166h-444zM1182 270l2 -4q10 2 73 2h261v297q0 47 4 53l-4 5q-2 -3 -7.5 -10t-15 -18t-16.5 -20l-248 -264q-29 -29 -49 -41z" />
<glyph unicode="&#xbf;" horiz-adv-x="923" d="M68 -84q0 62 20.5 116t53.5 94t72.5 77.5t79.5 74.5t73 76t54 90.5t21 110.5v20l117 5v-25q0 -71 -19.5 -131t-51.5 -102.5t-70.5 -80.5t-77.5 -72.5t-71 -69.5t-52 -80t-20 -97q0 -113 78 -185.5t202 -72.5q113 0 183.5 64t70.5 163q0 36 -10 56l125 20q12 -35 12 -82 q0 -147 -105 -239t-276 -92q-184 0 -296.5 100.5t-112.5 261.5zM416 881q0 36 26 62t64 26q35 0 61.5 -26.5t26.5 -61.5q0 -38 -26 -64t-62 -26q-38 0 -64 26t-26 64z" />
<glyph unicode="&#xc0;" horiz-adv-x="1241" d="M43 0l512 1343h129l512 -1343h-133l-139 365h-611l-137 -365h-133zM354 473h529l-232 612q-10 29 -30 103h-5q-9 -43 -30 -103zM391 1653h166l127 -240l-113 -8z" />
<glyph unicode="&#xc1;" horiz-adv-x="1241" d="M43 0l512 1343h129l512 -1343h-133l-139 365h-611l-137 -365h-133zM354 473h529l-232 612q-10 29 -30 103h-5q-9 -43 -30 -103zM555 1405l127 248h164l-180 -240z" />
<glyph unicode="&#xc2;" horiz-adv-x="1241" d="M43 0l512 1343h129l512 -1343h-133l-139 365h-611l-137 -365h-133zM348 1405l201 258h143l199 -258l-115 4l-158 154l-153 -154zM354 473h529l-232 612q-10 29 -30 103h-5q-9 -43 -30 -103z" />
<glyph unicode="&#xc3;" horiz-adv-x="1241" d="M43 0l512 1343h129l512 -1343h-133l-139 365h-611l-137 -365h-133zM297 1452q0 69 44.5 111.5t117.5 42.5q44 0 88 -19t73.5 -41.5t62.5 -41.5t56 -19q70 0 70 76q0 13 -2 26.5t-4 20.5l-2 8h102q8 -29 8 -70q0 -68 -41 -114t-116 -46q-41 0 -85 19t-74.5 41.5 t-65.5 41.5t-60 19q-33 0 -52.5 -19t-19.5 -52q0 -10 2.5 -23t4.5 -21l2 -8h-103q-6 31 -6 68zM354 473h529l-232 612q-10 29 -30 103h-5q-9 -43 -30 -103z" />
<glyph unicode="&#xc4;" horiz-adv-x="1241" d="M43 0l512 1343h129l512 -1343h-133l-139 365h-611l-137 -365h-133zM350 1528q0 35 25.5 60.5t60.5 25.5q34 0 59 -25.5t25 -60.5t-25 -59.5t-59 -24.5q-35 0 -60.5 24.5t-25.5 59.5zM354 473h529l-232 612q-10 29 -30 103h-5q-9 -43 -30 -103zM723 1528q0 35 26 60.5 t60 25.5q35 0 60.5 -25.5t25.5 -60.5t-25.5 -59.5t-60.5 -24.5q-34 0 -60 24.5t-26 59.5z" />
<glyph unicode="&#xc5;" horiz-adv-x="1241" d="M43 0l512 1343h129l512 -1343h-133l-139 365h-611l-137 -365h-133zM354 473h529l-232 612q-10 29 -30 103h-5q-9 -43 -30 -103zM463 1534q0 66 45 110t110 44t109.5 -44t44.5 -110q0 -64 -44.5 -108t-109.5 -44t-110 44t-45 108zM543 1534q0 -32 21.5 -54t53.5 -22t54 22 t22 54q0 34 -22 56t-54 22t-53.5 -22t-21.5 -56z" />
<glyph unicode="&#xc6;" horiz-adv-x="1935" d="M-14 0l1024 1343h817v-110h-686v-479h618v-109h-618v-534h686v-111h-813v365h-615l-278 -365h-135zM481 473h533v698z" />
<glyph unicode="&#xc7;" horiz-adv-x="1300" d="M113 672q0 312 166.5 498t431.5 186q107 0 194.5 -31t141.5 -77.5t91.5 -106t53 -113t16.5 -100.5l-123 -21q0 34 -10.5 74.5t-38 87.5t-68 85t-107 63.5t-148.5 25.5q-204 0 -337.5 -154t-133.5 -417q0 -140 39 -250t107.5 -179t158 -105t194.5 -36q73 0 140 20 t116 53.5t83.5 66.5t60.5 69l80 -80q-17 -24 -37.5 -47t-62 -58t-87.5 -61.5t-114.5 -47.5t-143.5 -25l-24 -60q64 -7 111.5 -47t47.5 -112q0 -75 -54.5 -118.5t-141.5 -43.5q-49 0 -91.5 16.5t-60.5 32.5l-18 16l39 74q6 -6 16 -14.5t44.5 -22.5t70.5 -14q46 0 75 21.5 t29 56.5q0 39 -43.5 67.5t-138.5 28.5l49 119q-261 18 -417 197.5t-156 482.5z" />
<glyph unicode="&#xc8;" horiz-adv-x="1114" d="M193 0v1343h813v-110h-687v-479h619v-109h-619v-534h687v-111h-813zM399 1653h166l127 -240l-112 -8z" />
<glyph unicode="&#xc9;" horiz-adv-x="1114" d="M193 0v1343h813v-110h-687v-479h619v-109h-619v-534h687v-111h-813zM563 1405l127 248h164l-180 -240z" />
<glyph unicode="&#xca;" horiz-adv-x="1114" d="M193 0v1343h813v-110h-687v-479h619v-109h-619v-534h687v-111h-813zM356 1405l201 258h143l199 -258l-115 4l-157 154l-154 -154z" />
<glyph unicode="&#xcb;" horiz-adv-x="1114" d="M193 0v1343h813v-110h-687v-479h619v-109h-619v-534h687v-111h-813zM358 1528q0 35 25.5 60.5t60.5 25.5q34 0 59 -25.5t25 -60.5t-25 -59.5t-59 -24.5q-35 0 -60.5 24.5t-25.5 59.5zM731 1528q0 35 26 60.5t60 25.5q35 0 60.5 -25.5t25.5 -60.5t-25.5 -59.5t-60.5 -24.5 q-34 0 -60 24.5t-26 59.5z" />
<glyph unicode="&#xcc;" horiz-adv-x="512" d="M29 1653h166l127 -240l-113 -8zM193 0v1343h126v-1343h-126z" />
<glyph unicode="&#xcd;" horiz-adv-x="512" d="M193 0v1343h126v-1343h-126zM193 1405l126 248h164l-180 -240z" />
<glyph unicode="&#xce;" horiz-adv-x="512" d="M-14 1405l200 258h144l198 -258l-114 4l-158 154l-154 -154zM193 0v1343h126v-1343h-126z" />
<glyph unicode="&#xcf;" horiz-adv-x="512" d="M-12 1528q0 35 25.5 60.5t60.5 25.5q34 0 59 -25.5t25 -60.5t-25 -59.5t-59 -24.5q-35 0 -60.5 24.5t-25.5 59.5zM193 0v1343h126v-1343h-126zM360 1528q0 35 26 60.5t60 25.5q35 0 60.5 -25.5t25.5 -60.5t-25.5 -59.5t-60.5 -24.5q-34 0 -60 24.5t-26 59.5z" />
<glyph unicode="&#xd0;" horiz-adv-x="1353" d="M20 616v105h173v622h364q320 0 502 -177.5t182 -493.5q0 -327 -161.5 -499.5t-446.5 -172.5h-440v616h-173zM319 111h312q223 0 352 145t129 416q0 272 -146.5 416.5t-408.5 144.5h-238v-512h383v-105h-383v-505z" />
<glyph unicode="&#xd1;" horiz-adv-x="1411" d="M193 0v1343h147l637 -981q82 -131 115 -196l10 4q-10 115 -10 184l-2 989h129v-1343h-148l-637 975q-94 153 -117 199l-8 -5q8 -32 8 -182l5 -987h-129zM434 1452q0 69 44.5 111.5t117.5 42.5q44 0 88 -19t74 -41.5t63 -41.5t56 -19q69 0 69 76q0 13 -2 26.5t-4 20.5 l-2 8h102q9 -29 9 -70q0 -68 -41.5 -114t-116.5 -46q-41 0 -85 19t-74.5 41.5t-65.5 41.5t-60 19q-33 0 -52 -19t-19 -52q0 -10 2 -23t4 -21l2 -8h-103q-6 31 -6 68z" />
<glyph unicode="&#xd2;" d="M111 672q0 157 46.5 286t129 216t196 134.5t246.5 47.5q273 0 446 -185t173 -499q0 -156 -46.5 -285t-128.5 -215.5t-196 -134t-248 -47.5q-133 0 -246.5 47.5t-196 134t-129 215.5t-46.5 285zM242 672q0 -260 136.5 -415t350.5 -155q216 0 353 155t137 415t-137 415.5 t-353 155.5q-214 0 -350.5 -155.5t-136.5 -415.5zM502 1653h166l127 -240l-113 -8z" />
<glyph unicode="&#xd3;" d="M111 672q0 157 46.5 286t129 216t196 134.5t246.5 47.5q273 0 446 -185t173 -499q0 -156 -46.5 -285t-128.5 -215.5t-196 -134t-248 -47.5q-133 0 -246.5 47.5t-196 134t-129 215.5t-46.5 285zM242 672q0 -260 136.5 -415t350.5 -155q216 0 353 155t137 415t-137 415.5 t-353 155.5q-214 0 -350.5 -155.5t-136.5 -415.5zM666 1405l127 248h163l-180 -240z" />
<glyph unicode="&#xd4;" d="M111 672q0 157 46.5 286t129 216t196 134.5t246.5 47.5q273 0 446 -185t173 -499q0 -156 -46.5 -285t-128.5 -215.5t-196 -134t-248 -47.5q-133 0 -246.5 47.5t-196 134t-129 215.5t-46.5 285zM242 672q0 -260 136.5 -415t350.5 -155q216 0 353 155t137 415t-137 415.5 t-353 155.5q-214 0 -350.5 -155.5t-136.5 -415.5zM459 1405l200 258h144l198 -258l-114 4l-158 154l-154 -154z" />
<glyph unicode="&#xd5;" d="M111 672q0 157 46.5 286t129 216t196 134.5t246.5 47.5q273 0 446 -185t173 -499q0 -156 -46.5 -285t-128.5 -215.5t-196 -134t-248 -47.5q-133 0 -246.5 47.5t-196 134t-129 215.5t-46.5 285zM242 672q0 -260 136.5 -415t350.5 -155q216 0 353 155t137 415t-137 415.5 t-353 155.5q-214 0 -350.5 -155.5t-136.5 -415.5zM408 1452q0 69 44 111.5t117 42.5q44 0 88 -19t74 -41.5t63 -41.5t56 -19q70 0 70 76q0 13 -2 26.5t-4 20.5l-3 8h103q8 -29 8 -70q0 -68 -41.5 -114t-116.5 -46q-41 0 -84.5 19t-74.5 41.5t-65.5 41.5t-59.5 19 q-33 0 -52.5 -19t-19.5 -52q0 -10 2 -23t4 -21l2 -8h-102q-6 31 -6 68z" />
<glyph unicode="&#xd6;" d="M111 672q0 157 46.5 286t129 216t196 134.5t246.5 47.5q273 0 446 -185t173 -499q0 -156 -46.5 -285t-128.5 -215.5t-196 -134t-248 -47.5q-133 0 -246.5 47.5t-196 134t-129 215.5t-46.5 285zM242 672q0 -260 136.5 -415t350.5 -155q216 0 353 155t137 415t-137 415.5 t-353 155.5q-214 0 -350.5 -155.5t-136.5 -415.5zM461 1528q0 35 25.5 60.5t60.5 25.5q34 0 59 -25.5t25 -60.5t-25 -59.5t-59 -24.5q-35 0 -60.5 24.5t-25.5 59.5zM834 1528q0 35 26 60.5t60 25.5q35 0 60.5 -25.5t25.5 -60.5t-25.5 -59.5t-60.5 -24.5q-34 0 -60 24.5 t-26 59.5z" />
<glyph unicode="&#xd7;" horiz-adv-x="905" d="M133 246l250 250l-250 249l70 68l250 -250l249 250l70 -68l-250 -249l250 -250l-70 -68l-249 250l-250 -250z" />
<glyph unicode="&#xd8;" d="M111 672q0 157 46.5 286t129 216t196 134.5t246.5 47.5q189 0 332 -90l96 143h131l-141 -211q96 -90 148.5 -224t52.5 -302q0 -156 -46.5 -285t-128.5 -215.5t-196 -134t-248 -47.5q-189 0 -332 90l-112 -170h-133l159 237q-96 89 -148 223.5t-52 301.5zM242 672 q0 -260 139 -418l612 911q-113 78 -264 78q-214 0 -350.5 -155.5t-136.5 -415.5zM465 180q116 -78 264 -78q216 0 353 155t137 415q0 261 -142 422z" />
<glyph unicode="&#xd9;" horiz-adv-x="1394" d="M176 530v813h129v-808q0 -208 105 -320.5t288 -112.5q181 0 286.5 112t105.5 316v813h127v-813q0 -252 -140.5 -396t-378.5 -144q-240 0 -381 144t-141 396zM471 1653h166l127 -240l-113 -8z" />
<glyph unicode="&#xda;" horiz-adv-x="1394" d="M176 530v813h129v-808q0 -208 105 -320.5t288 -112.5q181 0 286.5 112t105.5 316v813h127v-813q0 -252 -140.5 -396t-378.5 -144q-240 0 -381 144t-141 396zM635 1405l127 248h164l-181 -240z" />
<glyph unicode="&#xdb;" horiz-adv-x="1394" d="M176 530v813h129v-808q0 -208 105 -320.5t288 -112.5q181 0 286.5 112t105.5 316v813h127v-813q0 -252 -140.5 -396t-378.5 -144q-240 0 -381 144t-141 396zM428 1405l201 258h143l199 -258l-115 4l-158 154l-153 -154z" />
<glyph unicode="&#xdc;" horiz-adv-x="1394" d="M176 530v813h129v-808q0 -208 105 -320.5t288 -112.5q181 0 286.5 112t105.5 316v813h127v-813q0 -252 -140.5 -396t-378.5 -144q-240 0 -381 144t-141 396zM430 1528q0 35 25.5 60.5t60.5 25.5q34 0 59 -25.5t25 -60.5t-25 -59.5t-59 -24.5q-35 0 -60.5 24.5t-25.5 59.5 zM803 1528q0 35 26 60.5t60 25.5q35 0 60.5 -25.5t25.5 -60.5t-25.5 -59.5t-60.5 -24.5q-34 0 -60 24.5t-26 59.5z" />
<glyph unicode="&#xdd;" horiz-adv-x="1173" d="M43 1343h141l344 -589q46 -79 60 -138h4q15 62 59 138l344 589h133l-475 -831v-512h-129v504zM524 1405l127 248h164l-180 -240z" />
<glyph unicode="&#xde;" horiz-adv-x="1200" d="M193 0v1343h126v-223h297q236 0 369 -117t133 -323q0 -204 -129 -319t-358 -115h-312v-246h-126zM319 354h293q175 0 275 87t100 239q0 154 -101 242t-276 88h-291v-656z" />
<glyph unicode="&#xdf;" horiz-adv-x="1118" d="M160 0v1098q0 162 98.5 260t263.5 98q169 0 276 -101t107 -265q0 -108 -48 -197.5t-132 -144.5q141 -35 219 -133.5t78 -239.5q0 -177 -105.5 -281t-306.5 -104q-56 0 -108 6t-76 12l-23 6l23 107q71 -27 186 -27q132 0 208.5 77t76.5 206q0 140 -93.5 223.5t-262.5 83.5 h-54v102h23q117 1 192.5 87.5t75.5 218.5q0 117 -70.5 188.5t-183.5 71.5q-112 0 -175.5 -71t-63.5 -202v-1079h-125z" />
<glyph unicode="&#xe0;" horiz-adv-x="1075" d="M98 244q0 155 153.5 222.5t461.5 70.5l59 2v73q0 117 -71.5 184.5t-200.5 67.5q-118 0 -188 -52.5t-70 -143.5q0 -36 10 -56l-117 -20q-12 35 -12 82q0 131 104 213t275 82q184 0 289.5 -96t105.5 -259v-436q0 -41 15 -59.5t49 -18.5q18 0 34 4l6 -104l-5 -1 q-4 -1 -11 -2.5t-16 -3t-20.5 -2.5t-22.5 -1q-67 0 -106.5 35t-39.5 108v49h-4q-15 -32 -40.5 -61.5t-67.5 -61t-108 -50.5t-146 -19q-150 0 -233 68.5t-83 185.5zM225 248q0 -72 54.5 -113t160.5 -41q83 0 151 27t105 65.5t56.5 75t19.5 62.5v125l-59 -3 q-249 -3 -368.5 -49t-119.5 -149zM285 1415h164l124 -293l-108 -8z" />
<glyph unicode="&#xe1;" horiz-adv-x="1075" d="M98 244q0 155 153.5 222.5t461.5 70.5l59 2v73q0 117 -71.5 184.5t-200.5 67.5q-118 0 -188 -52.5t-70 -143.5q0 -36 10 -56l-117 -20q-12 35 -12 82q0 131 104 213t275 82q184 0 289.5 -96t105.5 -259v-436q0 -41 15 -59.5t49 -18.5q18 0 34 4l6 -104l-5 -1 q-4 -1 -11 -2.5t-16 -3t-20.5 -2.5t-22.5 -1q-67 0 -106.5 35t-39.5 108v49h-4q-15 -32 -40.5 -61.5t-67.5 -61t-108 -50.5t-146 -19q-150 0 -233 68.5t-83 185.5zM225 248q0 -72 54.5 -113t160.5 -41q83 0 151 27t105 65.5t56.5 75t19.5 62.5v125l-59 -3 q-249 -3 -368.5 -49t-119.5 -149zM395 1114l127 301h162l-176 -293z" />
<glyph unicode="&#xe2;" horiz-adv-x="1075" d="M98 244q0 155 153.5 222.5t461.5 70.5l59 2v73q0 117 -71.5 184.5t-200.5 67.5q-118 0 -188 -52.5t-70 -143.5q0 -36 10 -56l-117 -20q-12 35 -12 82q0 131 104 213t275 82q184 0 289.5 -96t105.5 -259v-436q0 -41 15 -59.5t49 -18.5q18 0 34 4l6 -104l-5 -1 q-4 -1 -11 -2.5t-16 -3t-20.5 -2.5t-22.5 -1q-67 0 -106.5 35t-39.5 108v49h-4q-15 -32 -40.5 -61.5t-67.5 -61t-108 -50.5t-146 -19q-150 0 -233 68.5t-83 185.5zM225 248q0 -72 54.5 -113t160.5 -41q83 0 151 27t105 65.5t56.5 75t19.5 62.5v125l-59 -3 q-249 -3 -368.5 -49t-119.5 -149zM229 1114l201 299h143l199 -299l-115 4l-157 195l-154 -195z" />
<glyph unicode="&#xe3;" horiz-adv-x="1075" d="M98 244q0 155 153.5 222.5t461.5 70.5l59 2v73q0 117 -71.5 184.5t-200.5 67.5q-118 0 -188 -52.5t-70 -143.5q0 -36 10 -56l-117 -20q-12 35 -12 82q0 131 104 213t275 82q184 0 289.5 -96t105.5 -259v-436q0 -41 15 -59.5t49 -18.5q18 0 34 4l6 -104l-5 -1 q-4 -1 -11 -2.5t-16 -3t-20.5 -2.5t-22.5 -1q-67 0 -106.5 35t-39.5 108v49h-4q-15 -32 -40.5 -61.5t-67.5 -61t-108 -50.5t-146 -19q-150 0 -233 68.5t-83 185.5zM182 1210q0 66 45 113t117 47q44 0 88 -19t74 -41.5t63 -41.5t56 -19q69 0 69 76q0 13 -2 26.5t-4 20.5l-2 8 h102q9 -28 9 -69q0 -69 -42.5 -114.5t-121.5 -45.5q-49 0 -102.5 30.5t-98.5 60.5t-74 30q-33 0 -54 -19t-21 -57q0 -12 2 -26t4 -22l2 -7h-103q-6 30 -6 69zM225 248q0 -72 54.5 -113t160.5 -41q83 0 151 27t105 65.5t56.5 75t19.5 62.5v125l-59 -3q-249 -3 -368.5 -49 t-119.5 -149z" />
<glyph unicode="&#xe4;" horiz-adv-x="1075" d="M98 244q0 155 153.5 222.5t461.5 70.5l59 2v73q0 117 -71.5 184.5t-200.5 67.5q-118 0 -188 -52.5t-70 -143.5q0 -36 10 -56l-117 -20q-12 35 -12 82q0 131 104 213t275 82q184 0 289.5 -96t105.5 -259v-436q0 -41 15 -59.5t49 -18.5q18 0 34 4l6 -104l-5 -1 q-4 -1 -11 -2.5t-16 -3t-20.5 -2.5t-22.5 -1q-67 0 -106.5 35t-39.5 108v49h-4q-15 -32 -40.5 -61.5t-67.5 -61t-108 -50.5t-146 -19q-150 0 -233 68.5t-83 185.5zM225 248q0 -72 54.5 -113t160.5 -41q83 0 151 27t105 65.5t56.5 75t19.5 62.5v125l-59 -3 q-249 -3 -368.5 -49t-119.5 -149zM238 1272q0 36 25 62t61 26q35 0 60.5 -26.5t25.5 -61.5t-25.5 -60.5t-60.5 -25.5q-36 0 -61 25t-25 61zM610 1272q0 35 25.5 61.5t60.5 26.5q36 0 61 -26t25 -62t-25 -61t-61 -25q-35 0 -60.5 25.5t-25.5 60.5z" />
<glyph unicode="&#xe5;" horiz-adv-x="1075" d="M98 244q0 155 153.5 222.5t461.5 70.5l59 2v73q0 117 -71.5 184.5t-200.5 67.5q-118 0 -188 -52.5t-70 -143.5q0 -36 10 -56l-117 -20q-12 35 -12 82q0 131 104 213t275 82q184 0 289.5 -96t105.5 -259v-436q0 -41 15 -59.5t49 -18.5q18 0 34 4l6 -104l-5 -1 q-4 -1 -11 -2.5t-16 -3t-20.5 -2.5t-22.5 -1q-67 0 -106.5 35t-39.5 108v49h-4q-15 -32 -40.5 -61.5t-67.5 -61t-108 -50.5t-146 -19q-150 0 -233 68.5t-83 185.5zM225 248q0 -72 54.5 -113t160.5 -41q83 0 151 27t105 65.5t56.5 75t19.5 62.5v125l-59 -3 q-249 -3 -368.5 -49t-119.5 -149zM338 1264q0 70 48 116.5t118 46.5t118 -46.5t48 -116.5q0 -69 -48.5 -115.5t-117.5 -46.5t-117.5 46.5t-48.5 115.5zM424 1264q0 -34 23 -57t57 -23t57 23t23 57q0 35 -23 57t-57 22t-57 -22t-23 -57z" />
<glyph unicode="&#xe6;" horiz-adv-x="1738" d="M98 244q0 155 153.5 222.5t461.5 70.5l59 2v73q0 117 -71.5 184.5t-200.5 67.5q-118 0 -188 -52.5t-70 -143.5q0 -22 10 -62l-115 -20q-14 35 -14 88q0 131 104 213t275 82q125 0 217.5 -52.5t138.5 -140.5q61 91 157 142t214 51q191 0 303.5 -120.5t112.5 -313.5 q0 -23 -1.5 -43.5t-3.5 -29.5l-2 -9h-741q8 -164 106 -261.5t261 -97.5q182 0 282 125l78 -72q-127 -157 -371 -157q-150 0 -261 64.5t-169 181.5h-6q-11 -36 -37 -74t-72 -79t-123 -67t-171 -26q-150 0 -233 68.5t-83 185.5zM225 248q0 -72 54.5 -113t160.5 -41 q84 0 151.5 26.5t104.5 65t56.5 76.5t19.5 68v119l-59 -3q-249 -3 -368.5 -49t-119.5 -149zM901 545h619v8q0 143 -79.5 227t-209.5 84q-133 0 -223 -87t-107 -232z" />
<glyph unicode="&#xe7;" horiz-adv-x="1050" d="M98 475q0 220 130 357t337 137q175 0 281 -91.5t106 -232.5q0 -16 -1.5 -31t-2.5 -22l-2 -8l-117 -9q5 15 5 52q0 105 -72.5 171t-194.5 66q-154 0 -249 -106.5t-95 -280.5t97 -278.5t264 -104.5q188 0 299 125l73 -78q-124 -145 -356 -151l-25 -58q64 -7 112 -47 t48 -112q0 -75 -54.5 -118.5t-141.5 -43.5q-49 0 -91.5 16.5t-60.5 32.5l-18 16l39 74q6 -6 16 -14.5t44.5 -22.5t70.5 -14q46 0 75 21.5t29 56.5q0 39 -43.5 67.5t-138.5 28.5l49 121q-189 22 -300.5 152t-111.5 329z" />
<glyph unicode="&#xe8;" horiz-adv-x="1067" d="M98 477q0 220 128 356t331 136q191 0 303.5 -120.5t112.5 -313.5q0 -23 -1.5 -43.5t-3.5 -29.5l-1 -9h-742q8 -164 105.5 -261.5t259.5 -97.5q184 0 284 125l78 -72q-127 -157 -370 -157q-222 0 -353 133t-131 354zM229 545h617v8q0 144 -79 227.5t-210 83.5 q-132 0 -221.5 -87t-106.5 -232zM336 1415h164l125 -293l-109 -8z" />
<glyph unicode="&#xe9;" horiz-adv-x="1067" d="M98 477q0 220 128 356t331 136q191 0 303.5 -120.5t112.5 -313.5q0 -23 -1.5 -43.5t-3.5 -29.5l-1 -9h-742q8 -164 105.5 -261.5t259.5 -97.5q184 0 284 125l78 -72q-127 -157 -370 -157q-222 0 -353 133t-131 354zM229 545h617v8q0 144 -79 227.5t-210 83.5 q-132 0 -221.5 -87t-106.5 -232zM446 1114l127 301h162l-176 -293z" />
<glyph unicode="&#xea;" horiz-adv-x="1067" d="M98 477q0 220 128 356t331 136q191 0 303.5 -120.5t112.5 -313.5q0 -23 -1.5 -43.5t-3.5 -29.5l-1 -9h-742q8 -164 105.5 -261.5t259.5 -97.5q184 0 284 125l78 -72q-127 -157 -370 -157q-222 0 -353 133t-131 354zM229 545h617v8q0 144 -79 227.5t-210 83.5 q-132 0 -221.5 -87t-106.5 -232zM281 1114l200 299h144l198 -299l-114 4l-158 195l-154 -195z" />
<glyph unicode="&#xeb;" horiz-adv-x="1067" d="M98 477q0 220 128 356t331 136q191 0 303.5 -120.5t112.5 -313.5q0 -23 -1.5 -43.5t-3.5 -29.5l-1 -9h-742q8 -164 105.5 -261.5t259.5 -97.5q184 0 284 125l78 -72q-127 -157 -370 -157q-222 0 -353 133t-131 354zM229 545h617v8q0 144 -79 227.5t-210 83.5 q-132 0 -221.5 -87t-106.5 -232zM289 1272q0 36 25 62t61 26q35 0 60.5 -26.5t25.5 -61.5t-25.5 -60.5t-60.5 -25.5q-36 0 -61 25t-25 61zM662 1272q0 35 25.5 61.5t60.5 26.5q36 0 61 -26t25 -62t-25 -61t-61 -25q-35 0 -60.5 25.5t-25.5 60.5z" />
<glyph unicode="&#xec;" horiz-adv-x="450" d="M-16 1415h163l125 -293l-108 -8zM164 0v958l125 5v-963h-125z" />
<glyph unicode="&#xed;" horiz-adv-x="450" d="M162 1114l127 301h162l-177 -293zM164 0v958l125 5v-963h-125z" />
<glyph unicode="&#xee;" horiz-adv-x="450" d="M-53 1114l200 299h144l198 -299l-114 4l-158 195l-154 -195zM164 0v958l125 5v-963h-125z" />
<glyph unicode="&#xef;" horiz-adv-x="450" d="M-45 1272q0 36 25 62t61 26q35 0 60.5 -26.5t25.5 -61.5t-25.5 -60.5t-60.5 -25.5q-36 0 -61 25t-25 61zM164 0v958l125 5v-963h-125zM328 1272q0 35 25.5 61.5t60.5 26.5q36 0 61 -26t25 -62t-25 -61t-61 -25q-35 0 -60.5 25.5t-25.5 60.5z" />
<glyph unicode="&#xf0;" horiz-adv-x="1146" d="M100 432q0 216 123 339.5t314 123.5q77 0 143 -21t109.5 -54.5t71 -70t40.5 -73.5q-10 141 -69 269.5t-154 223.5l-182 -106l-47 82l155 90q-126 92 -256 106l72 105q170 -39 297 -146l184 109l47 -82l-160 -94q238 -259 238 -723q0 -246 -130.5 -384t-348.5 -138 q-192 0 -319.5 122t-127.5 322zM221 434q0 -152 94.5 -246t239.5 -94q159 0 253.5 99.5t94.5 261.5q0 143 -97 239.5t-249 96.5q-146 0 -241 -97.5t-95 -259.5z" />
<glyph unicode="&#xf1;" horiz-adv-x="1155" d="M160 0v958l88 5q18 -120 18 -244h4q42 108 134.5 179t228.5 71q170 0 271.5 -105.5t101.5 -275.5v-588h-125v588q0 124 -72 200t-195 76q-78 0 -143 -32.5t-104 -84t-60.5 -109.5t-21.5 -114v-524h-125zM260 1210q0 66 45 113t117 47q44 0 88 -19t73.5 -41.5t62.5 -41.5 t56 -19q70 0 70 76q0 13 -2 26.5t-4 20.5l-2 8h102q8 -28 8 -69q0 -69 -42 -114.5t-121 -45.5q-49 0 -102.5 30.5t-98.5 60.5t-74 30q-33 0 -54.5 -19t-21.5 -57q0 -12 2 -26t4 -22l3 -7h-103q-6 30 -6 69z" />
<glyph unicode="&#xf2;" horiz-adv-x="1150" d="M98 477q0 219 131.5 355.5t345.5 136.5t346 -136.5t132 -355.5t-131.5 -353t-346.5 -134t-346 134t-131 353zM223 477q0 -171 97 -277t255 -106t254.5 106t96.5 277t-97 279t-254 108t-254.5 -108t-97.5 -279zM356 1415h164l125 -293l-108 -8z" />
<glyph unicode="&#xf3;" horiz-adv-x="1150" d="M98 477q0 219 131.5 355.5t345.5 136.5t346 -136.5t132 -355.5t-131.5 -353t-346.5 -134t-346 134t-131 353zM223 477q0 -171 97 -277t255 -106t254.5 106t96.5 277t-97 279t-254 108t-254.5 -108t-97.5 -279zM467 1114l127 301h162l-176 -293z" />
<glyph unicode="&#xf4;" horiz-adv-x="1150" d="M98 477q0 219 131.5 355.5t345.5 136.5t346 -136.5t132 -355.5t-131.5 -353t-346.5 -134t-346 134t-131 353zM223 477q0 -171 97 -277t255 -106t254.5 106t96.5 277t-97 279t-254 108t-254.5 -108t-97.5 -279zM301 1114l201 299h143l199 -299l-115 4l-158 195l-153 -195z " />
<glyph unicode="&#xf5;" horiz-adv-x="1150" d="M98 477q0 219 131.5 355.5t345.5 136.5t346 -136.5t132 -355.5t-131.5 -353t-346.5 -134t-346 134t-131 353zM223 477q0 -171 97 -277t255 -106t254.5 106t96.5 277t-97 279t-254 108t-254.5 -108t-97.5 -279zM254 1210q0 66 45 113t117 47q44 0 88 -19t73.5 -41.5 t62.5 -41.5t56 -19q70 0 70 76q0 13 -2 26.5t-4 20.5l-2 8h102q8 -28 8 -69q0 -69 -42 -114.5t-121 -45.5q-49 0 -102.5 30.5t-98.5 60.5t-74 30q-33 0 -54.5 -19t-21.5 -57q0 -12 2 -26t4 -22l2 -7h-102q-6 30 -6 69z" />
<glyph unicode="&#xf6;" horiz-adv-x="1150" d="M98 477q0 219 131.5 355.5t345.5 136.5t346 -136.5t132 -355.5t-131.5 -353t-346.5 -134t-346 134t-131 353zM223 477q0 -171 97 -277t255 -106t254.5 106t96.5 277t-97 279t-254 108t-254.5 -108t-97.5 -279zM309 1272q0 36 25 62t61 26q35 0 60.5 -26.5t25.5 -61.5 t-25.5 -60.5t-60.5 -25.5q-36 0 -61 25t-25 61zM682 1272q0 35 25.5 61.5t60.5 26.5q36 0 61 -26t25 -62t-25 -61t-61 -25q-35 0 -60.5 25.5t-25.5 60.5z" />
<glyph unicode="&#xf7;" horiz-adv-x="999" d="M137 455v94h725v-94h-725zM418 82q0 35 26.5 61.5t61.5 26.5q36 0 62 -26t26 -62q0 -37 -25.5 -62.5t-62.5 -25.5q-36 0 -62 26t-26 62zM418 891q0 35 26.5 61.5t61.5 26.5q36 0 62 -26t26 -62q0 -37 -25.5 -62.5t-62.5 -25.5q-36 0 -62 26t-26 62z" />
<glyph unicode="&#xf8;" horiz-adv-x="1150" d="M98 477q0 219 131.5 355.5t345.5 136.5q130 0 232 -54l63 99h103l-92 -144q83 -67 127.5 -167.5t44.5 -225.5q0 -219 -131.5 -353t-346.5 -134q-127 0 -229 51l-63 -98h-105l92 143q-83 65 -127.5 165.5t-44.5 225.5zM223 477q0 -184 113 -291l412 635q-73 43 -173 43 q-157 0 -254.5 -108t-97.5 -279zM406 135q74 -41 169 -41q158 0 254.5 106t96.5 277q0 185 -111 293z" />
<glyph unicode="&#xf9;" horiz-adv-x="1128" d="M150 369v589h124v-589q0 -127 67 -201t189 -74q74 0 136 32.5t100 84t59 110t21 113.5v524h123v-958l-90 -4q-19 127 -19 231h-2q-41 -104 -130 -170.5t-216 -66.5q-168 0 -265 103.5t-97 275.5zM338 1415h164l125 -293l-109 -8z" />
<glyph unicode="&#xfa;" horiz-adv-x="1128" d="M150 369v589h124v-589q0 -127 67 -201t189 -74q74 0 136 32.5t100 84t59 110t21 113.5v524h123v-958l-90 -4q-19 127 -19 231h-2q-41 -104 -130 -170.5t-216 -66.5q-168 0 -265 103.5t-97 275.5zM449 1114l126 301h162l-176 -293z" />
<glyph unicode="&#xfb;" horiz-adv-x="1128" d="M150 369v589h124v-589q0 -127 67 -201t189 -74q74 0 136 32.5t100 84t59 110t21 113.5v524h123v-958l-90 -4q-19 127 -19 231h-2q-41 -104 -130 -170.5t-216 -66.5q-168 0 -265 103.5t-97 275.5zM283 1114l200 299h144l198 -299l-114 4l-158 195l-154 -195z" />
<glyph unicode="&#xfc;" horiz-adv-x="1128" d="M150 369v589h124v-589q0 -127 67 -201t189 -74q74 0 136 32.5t100 84t59 110t21 113.5v524h123v-958l-90 -4q-19 127 -19 231h-2q-41 -104 -130 -170.5t-216 -66.5q-168 0 -265 103.5t-97 275.5zM291 1272q0 36 25 62t61 26q35 0 60.5 -26.5t25.5 -61.5t-25.5 -60.5 t-60.5 -25.5q-36 0 -61 25t-25 61zM664 1272q0 35 25.5 61.5t60.5 26.5q36 0 61 -26t25 -62t-25 -61t-61 -25q-35 0 -60.5 25.5t-25.5 60.5z" />
<glyph unicode="&#xfd;" horiz-adv-x="1032" d="M51 958h137l312 -763q17 -38 22 -70h4q7 34 23 70l313 763h127l-475 -1157q-42 -110 -105 -169.5t-173 -59.5q-36 0 -68.5 7t-47.5 13l-14 7l23 104q41 -22 98 -22q69 0 106.5 37t67.5 114l60 145zM408 1114l127 301h161l-176 -293z" />
<glyph unicode="&#xfe;" horiz-adv-x="1193" d="M160 -418v1845h121v-677q46 98 138.5 158.5t225.5 60.5q200 0 324.5 -135.5t124.5 -356.5q0 -219 -125.5 -353t-329.5 -134q-121 0 -213.5 56t-140.5 147v-611h-125zM285 434q0 -57 22 -115.5t63 -109.5t109.5 -83t151.5 -32q153 0 245.5 105.5t92.5 277.5 q0 174 -94 280.5t-250 106.5q-82 0 -149 -32.5t-107.5 -84.5t-62 -111t-21.5 -116v-86z" />
<glyph unicode="&#xff;" horiz-adv-x="1032" d="M51 958h137l312 -763q17 -38 22 -70h4q7 34 23 70l313 763h127l-475 -1157q-42 -110 -105 -169.5t-173 -59.5q-36 0 -68.5 7t-47.5 13l-14 7l23 104q41 -22 98 -22q69 0 106.5 37t67.5 114l60 145zM250 1272q0 36 25 62t61 26q35 0 60.5 -26.5t25.5 -61.5t-25.5 -60.5 t-60.5 -25.5q-36 0 -61 25t-25 61zM623 1272q0 35 25.5 61.5t60.5 26.5q36 0 61 -26t25 -62t-25 -61t-61 -25q-35 0 -60.5 25.5t-25.5 60.5z" />
<glyph unicode="&#x152;" horiz-adv-x="2146" d="M111 672q0 157 46.5 286t129 216t196 134.5t246.5 47.5q157 0 285 -64t211 -184v235h813v-110h-686v-479h618v-109h-618v-534h686v-111h-813v236q-83 -119 -211.5 -182.5t-284.5 -63.5q-133 0 -246.5 47.5t-196 134t-129 215.5t-46.5 285zM242 672q0 -260 136.5 -415 t350.5 -155q216 0 353 155t137 415t-137 415.5t-353 155.5q-214 0 -350.5 -155.5t-136.5 -415.5z" />
<glyph unicode="&#x153;" horiz-adv-x="1896" d="M98 477q0 219 131.5 355.5t345.5 136.5q139 0 247 -60.5t167 -167.5q58 107 161.5 167.5t235.5 60.5q191 0 303.5 -120.5t112.5 -313.5q0 -23 -1.5 -43.5t-2.5 -29.5l-2 -9h-741q8 -164 105.5 -261.5t258.5 -97.5q185 0 285 125l78 -72q-127 -157 -371 -157 q-146 0 -254.5 59t-167.5 166q-59 -106 -167 -165.5t-247 -59.5q-215 0 -346 134t-131 353zM223 477q0 -171 97 -277t255 -106t254.5 106t96.5 277t-97 279t-254 108t-254.5 -108t-97.5 -279zM1059 545h616v8q0 144 -79 227.5t-210 83.5q-132 0 -221 -87t-106 -232z" />
<glyph unicode="&#x178;" horiz-adv-x="1173" d="M43 1343h141l344 -589q46 -79 60 -138h4q15 62 59 138l344 589h133l-475 -831v-512h-129v504zM319 1528q0 35 26 60.5t61 25.5q34 0 58.5 -25.5t24.5 -60.5t-24.5 -59.5t-58.5 -24.5q-36 0 -61.5 24.5t-25.5 59.5zM692 1528q0 35 26 60.5t60 25.5q35 0 60.5 -25.5 t25.5 -60.5t-25.5 -59.5t-60.5 -24.5q-34 0 -60 24.5t-26 59.5z" />
<glyph unicode="&#x2c6;" horiz-adv-x="684" d="M70 1114l200 299h144l198 -299l-114 4l-158 195l-154 -195z" />
<glyph unicode="&#x2dc;" horiz-adv-x="788" d="M80 1210q0 66 45 113t117 47q44 0 88 -19t73.5 -41.5t62.5 -41.5t56 -19q70 0 70 76q0 13 -2 26.5t-4 20.5l-2 8h102q8 -28 8 -69q0 -69 -42.5 -114.5t-121.5 -45.5q-49 0 -102.5 30.5t-98 60.5t-73.5 30q-33 0 -54.5 -19t-21.5 -57q0 -12 2 -26t4 -22l2 -7h-102 q-6 30 -6 69z" />
<glyph unicode="&#x2000;" horiz-adv-x="844" />
<glyph unicode="&#x2001;" horiz-adv-x="1688" />
<glyph unicode="&#x2002;" horiz-adv-x="844" />
<glyph unicode="&#x2003;" horiz-adv-x="1688" />
<glyph unicode="&#x2004;" horiz-adv-x="562" />
<glyph unicode="&#x2005;" horiz-adv-x="422" />
<glyph unicode="&#x2006;" horiz-adv-x="281" />
<glyph unicode="&#x2007;" horiz-adv-x="281" />
<glyph unicode="&#x2008;" horiz-adv-x="211" />
<glyph unicode="&#x2009;" horiz-adv-x="337" />
<glyph unicode="&#x200a;" horiz-adv-x="93" />
<glyph unicode="&#x2010;" horiz-adv-x="804" d="M139 616v99h527v-99h-527z" />
<glyph unicode="&#x2011;" horiz-adv-x="804" d="M139 616v99h527v-99h-527z" />
<glyph unicode="&#x2012;" horiz-adv-x="804" d="M139 616v99h527v-99h-527z" />
<glyph unicode="&#x2013;" horiz-adv-x="966" d="M121 512v96h725v-96h-725z" />
<glyph unicode="&#x2014;" horiz-adv-x="1470" d="M121 512v96h1229v-96h-1229z" />
<glyph unicode="&#x2018;" horiz-adv-x="442" d="M109 1030q0 60 17 115.5t41.5 92t49.5 64.5t42 41l17 13l62 -74q-5 -4 -13 -10.5t-28.5 -28t-36 -44t-28.5 -55t-13 -63.5q41 0 69.5 -24.5t28.5 -63.5q0 -40 -27 -65t-71 -25q-50 0 -80 34.5t-30 92.5z" />
<glyph unicode="&#x2019;" horiz-adv-x="436" d="M109 979q5 4 13 10.5t28 28t35.5 44t28.5 55t13 63.5q-41 0 -69.5 24.5t-28.5 63.5q0 40 27 65t71 25q50 0 80.5 -34.5t30.5 -92.5q0 -60 -17.5 -115.5t-42 -92t-49 -64.5t-41.5 -41l-18 -13z" />
<glyph unicode="&#x201a;" horiz-adv-x="458" d="M104 -213q5 4 13 10.5t28.5 28t36 44t28.5 55t13 63.5q-41 0 -69.5 24.5t-28.5 63.5q0 40 27 65t71 25q50 0 80.5 -34.5t30.5 -92.5q0 -60 -17.5 -115.5t-42 -92t-49 -64.5t-41.5 -41l-18 -13z" />
<glyph unicode="&#x201c;" horiz-adv-x="733" d="M109 1030q0 60 17 115.5t41.5 92t49.5 64.5t42 41l17 13l62 -74q-5 -4 -13 -10.5t-28.5 -28t-36 -44t-28.5 -55t-13 -63.5q41 0 69.5 -24.5t28.5 -63.5q0 -40 -27 -65t-71 -25q-50 0 -80 34.5t-30 92.5zM399 1030q0 60 17.5 115.5t42 92t49 64.5t42.5 41l17 13l62 -74 q-5 -4 -13 -10.5t-28.5 -28t-36 -44t-28.5 -55t-13 -63.5q41 0 69.5 -24.5t28.5 -63.5q0 -40 -27 -65t-71 -25q-50 0 -80.5 34.5t-30.5 92.5z" />
<glyph unicode="&#x201d;" horiz-adv-x="727" d="M109 979q5 4 13 10.5t28 28t35.5 44t28.5 55t13 63.5q-41 0 -69.5 24.5t-28.5 63.5q0 40 27.5 65t72.5 25q48 0 78.5 -34.5t30.5 -92.5q0 -60 -17.5 -115.5t-42 -92t-49 -64.5t-41.5 -41l-18 -13zM399 979q5 4 13 10.5t28.5 28t36.5 44t29 55t14 63.5q-42 0 -71 24.5 t-29 63.5q0 40 27.5 65t72.5 25q48 0 79.5 -35t31.5 -92q0 -60 -17.5 -115.5t-42.5 -92t-50 -64.5t-43 -41l-17 -13z" />
<glyph unicode="&#x201e;" horiz-adv-x="751" d="M104 -213q5 4 13 10.5t28.5 28t36 44t28.5 55t13 63.5q-41 0 -69.5 24.5t-28.5 63.5q0 40 27 65t71 25q50 0 80.5 -34.5t30.5 -92.5q0 -60 -17.5 -115.5t-42 -92t-49 -64.5t-41.5 -41l-18 -13zM395 -213q5 4 13 10.5t28.5 28t36 44t28.5 55t13 63.5q-41 0 -69.5 24.5 t-28.5 63.5q0 40 27 65t71 25q50 0 80.5 -34.5t30.5 -92.5q0 -60 -17.5 -115.5t-42 -92t-49 -64.5t-42.5 -41l-17 -13z" />
<glyph unicode="&#x2022;" horiz-adv-x="702" d="M174 592q0 73 52 125.5t124 52.5q74 0 126 -52t52 -126q0 -72 -52.5 -124t-125.5 -52q-72 0 -124 52t-52 124z" />
<glyph unicode="&#x2026;" horiz-adv-x="1105" d="M125 80q0 38 28 66t66 28t65 -28t27 -66t-27 -65t-65 -27t-66 27t-28 65zM455 80q0 38 28 66t66 28t65 -28t27 -66t-27 -65t-65 -27t-66 27t-28 65zM795 80q0 38 28 66t66 28t65 -28t27 -66t-27 -65t-65 -27t-66 27t-28 65z" />
<glyph unicode="&#x202f;" horiz-adv-x="337" />
<glyph unicode="&#x2039;" horiz-adv-x="563" d="M94 489v103l283 274l65 -73l-266 -252l266 -252l-65 -74z" />
<glyph unicode="&#x203a;" horiz-adv-x="563" d="M121 289l266 252l-266 252l65 73l283 -274v-103l-283 -274z" />
<glyph unicode="&#x205f;" horiz-adv-x="422" />
<glyph unicode="&#x20ac;" horiz-adv-x="1452" d="M84 481l22 94h177q-4 62 -4 97q0 54 6 106h-201l22 92h193q49 228 204 357t376 129q80 0 154 -19t124 -45.5t93.5 -61.5t66 -60t37.5 -48l-80 -78q-56 78 -156.5 138.5t-236.5 60.5q-159 0 -282 -96.5t-169 -276.5h598l-22 -92h-592q-6 -50 -6 -106q0 -50 6 -97h553 l-23 -94h-514q44 -183 167.5 -281t283.5 -98q74 0 140 18t114 48.5t81 61t58 65.5l80 -78q-16 -23 -37.5 -47.5t-64.5 -58.5t-93 -59.5t-124.5 -43.5t-157.5 -18q-223 0 -378 130.5t-202 360.5h-213z" />
<glyph unicode="&#x2122;" horiz-adv-x="1435" d="M74 1266v77h520v-77h-213v-488h-94v488h-213zM682 778v565h102l197 -434l201 434h96v-565h-84v402l-182 -402h-64l-180 402v-402h-86z" />
<glyph unicode="&#x25fc;" horiz-adv-x="962" d="M0 0v963h963v-963h-963z" />
</font>
</defs>
</svg>
