<?xml version="1.0" standalone="no"?>
<!DOCTYPE svg PUBLIC "-//W3C//DTD SVG 1.1//EN" "http://www.w3.org/Graphics/SVG/1.1/DTD/svg11.dtd" >
<svg xmlns="http://www.w3.org/2000/svg" xmlns:xlink="http://www.w3.org/1999/xlink" version="1.1">
<metadata></metadata>
<defs>
<font id="basic_sanssemibold" horiz-adv-x="1468" >
<font-face units-per-em="2048" ascent="1536" descent="-512" />
<missing-glyph horiz-adv-x="432" />
<glyph unicode="&#xfb01;" horiz-adv-x="1286" d="M61 774v193h144v86q0 186 110.5 295.5t286.5 109.5q54 0 106 -12t76.5 -22t34.5 -17l-76 -199q-1 0 -14.5 9t-24 15t-31 11.5t-42.5 5.5q-84 0 -130 -51.5t-46 -140.5v-90h428l250 8v-975h-250v774h-428v-774h-250v774h-144zM846 1278q0 67 47.5 112.5t116.5 45.5 q68 0 116 -45.5t48 -112.5q0 -68 -48 -113t-116 -45q-70 0 -117 45t-47 113z" />
<glyph unicode="&#xfb02;" horiz-adv-x="1286" d="M61 774v193h144v86q0 186 110.5 295.5t286.5 109.5q56 0 110.5 -12t79.5 -22t35 -17l-75 -199q-1 1 -9 6t-14.5 8.5t-18.5 9t-23 9t-26 6t-30 2.5q-84 0 -130 -51.5t-46 -140.5v-90h311v-193h-311v-774h-250v774h-144zM913 0v1446h248v-1446h-248z" />
<glyph horiz-adv-x="0" />
<glyph horiz-adv-x="682" />
<glyph unicode=" "  horiz-adv-x="432" />
<glyph unicode="&#x09;" horiz-adv-x="432" />
<glyph unicode="&#xa0;" horiz-adv-x="432" />
<glyph unicode="!" horiz-adv-x="524" d="M131 1370h270l-36 -946l-207 -8zM158 122q1 42 30 73q31 29 73 29t71 -29q30 -31 30 -73t-30 -73q-29 -29 -73 -29t-73 31q-29 29 -28 71z" />
<glyph unicode="&#x22;" horiz-adv-x="643" d="M104 1446h168l-10 -414h-149zM373 1446h168l-11 -414h-149z" />
<glyph unicode="#" horiz-adv-x="1325" d="M59 252l35 145h252l45 209h-256l35 146h252l55 254h189l-56 -254h213l56 254h188l-55 -254h254l-35 -146h-250l-45 -209h254l-35 -145h-250l-55 -252h-188l55 252h-213l-53 -252h-191l55 252h-256zM535 397h213l45 209h-213z" />
<glyph unicode="$" horiz-adv-x="1163" d="M53 166l154 188q27 -25 60 -47.5t82.5 -49t112.5 -42.5t128 -16q116 0 177.5 41t61.5 114q0 48 -24.5 84.5t-65.5 60t-95 43t-113 38t-118 38.5t-113 50t-95 69t-65.5 99t-24.5 135q0 151 105.5 258.5t279.5 130.5v203h176v-201q83 -9 150.5 -37.5t109.5 -63.5 t72.5 -80.5t45 -83.5t23.5 -79l-233 -57q-2 30 -18 61t-45 60.5t-78.5 48t-110.5 18.5q-101 0 -160 -44.5t-59 -121.5q0 -41 24.5 -73t65.5 -53t95 -39t113 -36.5t118 -40t113 -54.5t95 -75.5t65.5 -107.5t24.5 -146q0 -148 -107.5 -247.5t-303.5 -120.5v-203h-176v203 q-149 13 -263 65t-184 111z" />
<glyph unicode="%" horiz-adv-x="1847" d="M57 971q0 173 100.5 280t264.5 107q166 0 267.5 -107t101.5 -280q0 -169 -101.5 -273t-267.5 -104q-164 0 -264.5 104t-100.5 273zM266 971q0 -86 43.5 -138.5t112.5 -52.5q72 0 116 52.5t44 138.5q0 89 -44 143.5t-116 54.5q-69 0 -112.5 -54.5t-43.5 -143.5zM508 0 l622 1366h209l-618 -1366h-213zM1057 369q0 173 101 280t265 107q166 0 267.5 -107t101.5 -280q0 -169 -101.5 -273t-267.5 -104q-164 0 -265 104t-101 273zM1266 369q0 -86 44 -138.5t113 -52.5q72 0 116 52.5t44 138.5q0 89 -44 143.5t-116 54.5q-69 0 -113 -54.5 t-44 -143.5z" />
<glyph unicode="&#x26;" horiz-adv-x="1247" d="M74 369q0 248 264 352q-113 143 -113 287q0 152 104.5 248t266.5 96q164 0 264.5 -90t100.5 -228q0 -237 -302 -368l259 -301q69 110 69 288l205 -53q0 -239 -135 -399l117 -135l-164 -121l-111 127q-147 -80 -338 -80q-219 0 -353 104.5t-134 272.5zM324 397 q0 -88 66.5 -143t176.5 -55q114 0 195 34l-305 355q-133 -65 -133 -191zM449 1008q0 -105 100 -213q110 43 152 93.5t42 125.5q0 68 -39.5 109.5t-105.5 41.5q-67 0 -108 -43t-41 -114z" />
<glyph unicode="'" horiz-adv-x="374" d="M104 1446h168l-10 -414h-149z" />
<glyph unicode="(" horiz-adv-x="622" d="M82 494q0 132 17 257.5t43.5 222t59 182t65.5 144.5t59.5 102.5t43.5 63.5l17 21l207 -92q-11 -13 -29.5 -37.5t-65.5 -110t-82.5 -181.5t-65 -251.5t-29.5 -320.5q0 -120 15 -235t39 -202.5t53 -165t58 -131t53 -92.5t39 -58l15 -18l-207 -92q-12 14 -33 41.5 t-73.5 122.5t-92.5 201.5t-73 277t-33 351.5z" />
<glyph unicode=")" horiz-adv-x="620" d="M29 -408q6 7 15.5 19.5t37.5 56.5t53.5 93.5t56.5 130t53.5 166t38 201t15.5 235.5t-15 235t-38.5 202t-52.5 164.5t-58 131t-52.5 92.5t-38.5 57l-15 19l207 92q6 -7 17 -21t43 -63t60.5 -104t64 -143.5t60.5 -182.5t42.5 -220.5t17.5 -258.5t-17 -258t-43.5 -222 t-59.5 -181.5t-65.5 -145t-59 -103t-43.5 -64.5l-17 -20z" />
<glyph unicode="*" horiz-adv-x="876" d="M74 1049l14 129l272 -64l-114 250l119 53l90 -266l161 233l105 -79l-191 -213l277 -23l-14 -131l-279 59l121 -249l-121 -54l-92 260l-156 -219l-108 78l194 211z" />
<glyph unicode="+" horiz-adv-x="946" d="M72 412v168h313v305h176v-305h313v-168h-313v-342h-176v342h-313z" />
<glyph unicode="," horiz-adv-x="503" d="M86 -225l16.5 11t37 29.5t47 46t37 58.5t16.5 68q-65 0 -108.5 39t-43.5 100q0 65 42 104t112 39q73 0 122.5 -49.5t49.5 -140.5q0 -84 -24.5 -158t-59.5 -120t-70 -79.5t-60 -48.5l-24 -14z" />
<glyph unicode="-" horiz-adv-x="792" d="M113 575v175h567v-175h-567z" />
<glyph unicode="." horiz-adv-x="471" d="M88 133q0 62 43.5 106t104.5 44t104 -44t43 -106q0 -60 -43 -102.5t-104 -42.5t-104.5 42.5t-43.5 102.5z" />
<glyph unicode="/" horiz-adv-x="894" d="M45 -418l567 1864h236l-563 -1864h-240z" />
<glyph unicode="0" horiz-adv-x="1312" d="M90 670q0 328 146.5 512t416.5 184q273 0 420.5 -184t147.5 -512q0 -325 -147.5 -504.5t-420.5 -179.5q-270 0 -416.5 180t-146.5 504zM348 670q0 -222 80.5 -340.5t224.5 -118.5q148 0 230 118.5t82 340.5q0 226 -82.5 348.5t-229.5 122.5q-144 0 -224.5 -122.5 t-80.5 -348.5z" />
<glyph unicode="1" horiz-adv-x="792" d="M41 995v236l561 121h39v-1352h-254v1085z" />
<glyph unicode="2" horiz-adv-x="1161" d="M84 969q0 177 132 287t347 110q219 0 351.5 -122t132.5 -322q0 -81 -27 -159.5t-69.5 -143.5t-106 -130t-125 -114.5t-137.5 -102.5q-67 -46 -101 -59l4 -8q42 6 109 6h485v-211h-983v180q53 39 137.5 98.5t140 100t126.5 95.5t116.5 102t87.5 102.5t62 114t20 120.5 q0 103 -61.5 165.5t-165.5 62.5q-98 0 -158.5 -51t-60.5 -134q0 -27 8 -51l-248 -43q-16 37 -16 107z" />
<glyph unicode="3" horiz-adv-x="1175" d="M57 252l193 125q4 -7 12.5 -18t39 -40t64.5 -51.5t89 -40.5t114 -18q122 0 191 49t71 133q0 168 -270 180l-119 2v197l90 2q117 5 184.5 49.5t67.5 122.5q0 88 -60.5 142.5t-158.5 54.5q-94 0 -150.5 -43t-56.5 -109q0 -28 9 -51l-250 -39q-13 26 -13 105 q0 159 129 260.5t338 101.5q216 0 344.5 -109t128.5 -286q0 -123 -80.5 -206t-189.5 -83v-4q55 0 110.5 -22t102 -61t76 -101t29.5 -134q0 -165 -137.5 -269.5t-376.5 -104.5q-84 0 -158 14.5t-125 38t-93.5 52t-68.5 57t-44 52t-25 38.5z" />
<glyph unicode="4" horiz-adv-x="1241" d="M43 297v209l608 846h332v-846h199v-209h-197v-297h-252v297h-690zM297 510l4 -8q20 4 121 4h319v491q0 105 4 119l-6 6q-4 -10 -28 -48t-43 -64l-283 -381q-10 -14 -31 -43t-36 -49.5t-21 -26.5z" />
<glyph unicode="5" horiz-adv-x="1169" d="M53 242l199 139q4 -7 13 -18.5t39 -40.5t63.5 -51.5t87 -41t110.5 -18.5q121 0 198 67t77 175q0 105 -69.5 171t-182.5 66q-39 0 -74 -8.5t-57.5 -20.5t-40.5 -26t-25.5 -22.5t-9.5 -12.5h-240l58 752h807v-213h-600l-29 -318l8 -4q37 36 104 59t146 23q210 0 337.5 -124 t127.5 -324q0 -209 -148.5 -337t-386.5 -128q-102 0 -192.5 26.5t-146.5 64t-97 75t-59 64.5z" />
<glyph unicode="6" horiz-adv-x="1208" d="M88 664q0 315 162 507.5t424 192.5q276 0 422 -178l-158 -156q-31 42 -95.5 76.5t-156.5 34.5q-158 0 -253 -126.5t-95 -334.5v-27l8 -2q10 32 32.5 64.5t62 67t106 56t147.5 21.5q189 0 311.5 -119t122.5 -309q0 -201 -134 -323.5t-351 -122.5q-251 0 -403 180t-152 498 zM369 416q64 -207 272 -207q108 0 176 63.5t68 167.5q0 97 -67.5 157t-176.5 60q-122 0 -196 -66.5t-76 -174.5z" />
<glyph unicode="7" horiz-adv-x="1058" d="M57 961v368h4v23h957v-205l-506 -1147h-281l484 1040q52 102 53 103l-4 6q-32 -4 -102 -4h-373v-184h-232z" />
<glyph unicode="8" horiz-adv-x="1232" d="M82 385q0 115 62 200t167 126v6q-74 32 -120 105t-46 169q0 167 130 271t341 104t341 -104t130 -271q0 -96 -45.5 -169t-119.5 -105v-6q105 -41 167 -126t62 -200q0 -180 -146 -289.5t-389 -109.5q-242 0 -388 109.5t-146 289.5zM332 410q0 -98 78 -157.5t206 -59.5 q129 0 207 59.5t78 157.5q0 90 -77.5 143t-207.5 53q-128 0 -206 -53t-78 -143zM399 989q0 -77 59.5 -127.5t157.5 -50.5t159 51t61 127q0 84 -60 131t-160 47q-99 0 -158 -47t-59 -131z" />
<glyph unicode="9" horiz-adv-x="1200" d="M80 907q0 202 136 329.5t351 127.5q254 0 399.5 -177t145.5 -507q0 -315 -157 -504.5t-418 -189.5q-292 0 -428 174l163 153q32 -40 95 -72t155 -32q154 0 250 127.5t96 335.5v2l-8 2q-8 -29 -29 -59t-59 -62.5t-104.5 -53t-149.5 -20.5q-191 0 -314.5 117.5 t-123.5 308.5zM324 911q0 -97 68 -158t177 -61q118 0 193 66t78 172q-61 213 -273 213q-106 0 -174.5 -65t-68.5 -167z" />
<glyph unicode=":" horiz-adv-x="514" d="M111 131q0 62 43 106t104 44t104.5 -44t43.5 -106q0 -60 -43.5 -102.5t-104.5 -42.5t-104 42.5t-43 102.5zM111 831q0 62 43 106t104 44t104.5 -44t43.5 -106q0 -60 -43.5 -102.5t-104.5 -42.5t-104 42.5t-43 102.5z" />
<glyph unicode=";" horiz-adv-x="550" d="M113 -227l16.5 11t37 29.5t46.5 46t36.5 58.5t16.5 68q-65 0 -108 39t-43 100q0 65 41.5 104t111.5 39q73 0 122.5 -49.5t49.5 -140.5q0 -84 -24.5 -158t-59 -120t-69.5 -79.5t-59 -48.5l-25 -14zM129 831q0 62 43 106t104 44t104.5 -44t43.5 -106q0 -60 -43.5 -102.5 t-104.5 -42.5t-104 42.5t-43 102.5z" />
<glyph unicode="&#x3c;" horiz-adv-x="862" d="M59 463v190l695 404v-209l-484 -291l484 -287v-211z" />
<glyph unicode="=" horiz-adv-x="1042" d="M121 205v166h801v-166h-801zM121 616v168h801v-168h-801z" />
<glyph unicode="&#x3e;" horiz-adv-x="862" d="M109 59v211l481 287l-481 291v209l694 -404v-190z" />
<glyph unicode="?" horiz-adv-x="970" d="M57 1059q0 158 115 257t301 99q107 0 193 -31t139.5 -84t81.5 -120.5t28 -143.5q0 -63 -20.5 -116t-53.5 -91t-73 -72t-80 -66t-73 -65.5t-53.5 -78t-20.5 -96.5v-31l-219 -8v63q0 67 18.5 123t48.5 94.5t66.5 72t73 62t67 56.5t49.5 63.5t19 75.5q0 74 -52 124t-139 50 q-79 0 -128.5 -43.5t-49.5 -114.5q0 -26 10 -49l-233 -37q-15 56 -15 107zM291 121q0 60 41.5 102.5t99.5 42.5q60 0 103 -42.5t43 -102.5q0 -58 -43 -99.5t-103 -41.5q-58 0 -99.5 41t-41.5 100z" />
<glyph unicode="@" horiz-adv-x="1751" d="M80 489q0 239 106 425t292 287.5t421 101.5q170 -1 313.5 -54t242 -146t153.5 -224t55 -285q0 -239 -110 -376.5t-275 -137.5q-96 0 -157 49.5t-70 132.5q-33 -81 -102 -129.5t-173 -48.5q-161 0 -257.5 115.5t-96.5 296.5q0 195 105 308.5t264 113.5q166 0 239 -115v102 h234v-592q0 -45 25 -72.5t69 -27.5q88 0 150.5 105t62.5 276q0 279 -185 452t-487 173q-209 0 -374.5 -91.5t-259 -258.5t-93.5 -380q0 -203 91 -362.5t254.5 -247.5t371.5 -88q96 0 183.5 18t141.5 39t108.5 56t71.5 49.5t44 38.5l55 -62q-23 -23 -48.5 -44.5t-82.5 -56.5 t-119 -59.5t-156 -43.5t-196 -19q-176 0 -327 57.5t-257 160t-166.5 248t-60.5 316.5zM662 496q0 -96 49.5 -154.5t130.5 -58.5q83 0 135.5 57t52.5 133v53q0 75 -52.5 134t-139.5 59q-79 0 -127.5 -60.5t-48.5 -162.5z" />
<glyph unicode="A" horiz-adv-x="1275" d="M12 0l490 1352h274l486 -1352h-263l-102 303h-516l-102 -303h-267zM449 502h380l-147 430q-19 56 -41 149h-6q-12 -63 -41 -151z" />
<glyph unicode="B" horiz-adv-x="1259" d="M152 0v1352h510q216 0 337 -95.5t121 -269.5q0 -57 -15.5 -104.5t-38.5 -76.5t-53.5 -50.5t-57 -31t-52.5 -13.5v-6q30 -5 64 -18t73 -40.5t69.5 -64t50.5 -93t20 -122.5q0 -175 -120.5 -271t-342.5 -96h-565zM408 201h266q112 0 179 49t67 145q0 101 -73 154t-192 53 h-247v-401zM408 782h223q111 0 171 50.5t60 132.5q0 186 -250 186h-204v-369z" />
<glyph unicode="C" horiz-adv-x="1320" d="M84 676q0 155 47 284.5t130 218.5t199 138t253 49q114 0 207.5 -31.5t154 -81.5t101.5 -115.5t58.5 -130.5t18.5 -130l-241 -37q0 40 -9.5 80t-32.5 80.5t-56 71.5t-84 50t-113 19q-160 0 -265.5 -125.5t-105.5 -339.5q0 -97 22.5 -175.5t60.5 -132t90.5 -89.5t111 -52 t123.5 -16q117 0 207.5 58.5t148.5 136.5l154 -158q-21 -29 -46 -57.5t-73 -67.5t-101.5 -67.5t-131.5 -49t-164 -20.5q-300 0 -482 185.5t-182 504.5z" />
<glyph unicode="D" horiz-adv-x="1374" d="M152 0v1352h454q325 0 503.5 -181t178.5 -495q0 -332 -162.5 -504t-455.5 -172h-518zM410 207h235q179 0 280 114.5t101 354.5q0 234 -114 351.5t-332 117.5h-170v-938z" />
<glyph unicode="E" horiz-adv-x="1126" d="M152 0v1352h878v-213h-620v-344h542v-205h-542v-377h620v-213h-878z" />
<glyph unicode="F" horiz-adv-x="1062" d="M152 0v1352h858v-213h-600v-365h516v-211h-516v-563h-258z" />
<glyph unicode="G" horiz-adv-x="1372" d="M86 676q0 155 47 284.5t129.5 218.5t198.5 138t252 49q114 0 207.5 -30t153.5 -78t101 -111t58.5 -125.5t17.5 -124.5l-237 -37q0 50 -17 98t-50.5 90t-93 67.5t-136.5 25.5q-159 0 -265 -125t-106 -340q0 -214 104.5 -343.5t282.5 -129.5q155 0 238.5 78.5t83.5 205.5 h-379v175h594v-662h-170q-13 51 -23 164q-119 -178 -387 -178q-272 0 -438 188.5t-166 501.5z" />
<glyph unicode="H" horiz-adv-x="1452" d="M152 0v1352h258v-553h630v553h258v-1352h-258v586h-630v-586h-258z" />
<glyph unicode="I" horiz-adv-x="559" d="M152 0v1352h256v-1352h-256z" />
<glyph unicode="J" horiz-adv-x="962" d="M-2 131l154 182q91 -100 204 -100q104 0 155.5 49t51.5 160v930h258v-924q0 -215 -123.5 -327.5t-337.5 -112.5q-203 0 -362 143z" />
<glyph unicode="K" horiz-adv-x="1234" d="M152 0v1352h258v-598h135l409 598h269l-486 -693l490 -657h-273l-395 545h-149v-547h-258z" />
<glyph unicode="L" horiz-adv-x="1064" d="M152 0v1352h258v-1139h630v-213h-888z" />
<glyph unicode="M" horiz-adv-x="1740" d="M152 0v1352h278l354 -772q62 -138 88 -224h7q12 51 90 224l350 772h270v-1352h-256l2 750q0 43 4 100t7 65l-11 5q-4 -17 -19 -65t-26 -71l-346 -790h-143l-355 799q-30 60 -43 127l-8 -5q8 -40 8 -165l5 -750h-256z" />
<glyph unicode="N" horiz-adv-x="1427" d="M152 0v1352h243l482 -738q105 -164 147 -254l12 7q-10 87 -10 249l-2 736h252v-1352h-254l-467 713q-33 51 -154 252l-10 -7q10 -48 10 -243l5 -715h-254z" />
<glyph unicode="O" d="M84 676q0 314 180.5 502t468.5 188q290 0 470.5 -187.5t180.5 -502.5q0 -313 -180.5 -500.5t-470.5 -187.5q-141 0 -261 48.5t-205.5 136.5t-134 217.5t-48.5 285.5zM344 676q0 -213 108.5 -339t280.5 -126q173 0 282 126t109 339q0 215 -109 340t-282 125 q-172 0 -280.5 -125.5t-108.5 -339.5z" />
<glyph unicode="P" horiz-adv-x="1228" d="M152 0v1352h469q264 0 409.5 -121t145.5 -350q0 -228 -142 -350.5t-381 -122.5h-243v-408h-258zM410 614h196q148 0 228.5 69t80.5 198q0 125 -82 194.5t-237 69.5h-186v-531z" />
<glyph unicode="Q" d="M84 676q0 314 180.5 502t468.5 188q290 0 470.5 -187.5t180.5 -502.5q0 -239 -107.5 -407.5t-295.5 -237.5q200 -46 371 -54l-52 -198q-198 28 -340 74.5t-309 138.5q-255 27 -411 210.5t-156 473.5zM344 676q0 -213 108.5 -339t280.5 -126q173 0 282 126t109 339 q0 215 -109 340t-282 125q-172 0 -280.5 -125.5t-108.5 -339.5z" />
<glyph unicode="R" horiz-adv-x="1263" d="M152 0v1352h444q260 0 393 -108.5t133 -336.5q0 -139 -73.5 -236t-208.5 -145q42 -21 77 -64t58.5 -87.5t49.5 -86.5t63.5 -68.5t87.5 -26.5l41 4l16 -197q-53 -14 -137 -14q-81 0 -142.5 27.5t-98.5 71t-66 96t-55 105.5t-56 96.5t-78.5 71t-112.5 27.5h-77v-481h-258z M410 668h151q137 0 221 62t84 175q0 118 -73.5 179t-210.5 61h-172v-477z" />
<glyph unicode="S" horiz-adv-x="1163" d="M49 166l154 188q27 -25 60 -47.5t82.5 -49t112.5 -42.5t128 -16q116 0 177.5 41t61.5 114q0 48 -24.5 84.5t-65.5 60t-95 43t-113 38t-118 38.5t-113 50t-95 69t-65.5 99t-24.5 135q0 171 130.5 283t340.5 112q104 0 187.5 -24t134.5 -60t88.5 -85.5t54.5 -91.5t26 -87 l-233 -57q-2 30 -18 61t-45 60.5t-78.5 48t-110.5 18.5q-101 0 -160 -44.5t-59 -121.5q0 -41 24.5 -73t65.5 -53t95 -39t113 -36.5t118 -40t113 -54.5t95 -75.5t65.5 -107.5t24.5 -146q0 -165 -132.5 -268.5t-370.5 -103.5q-95 0 -183.5 18t-155 47t-112.5 57.5t-80 57.5z " />
<glyph unicode="T" horiz-adv-x="1144" d="M25 1139v213h1095v-213h-420v-1139h-258v1139h-417z" />
<glyph unicode="U" horiz-adv-x="1392" d="M139 530v822h258v-820q0 -151 82.5 -236t218.5 -85q133 0 215 85t82 234v822h258v-822q0 -246 -153 -395t-402 -149q-253 0 -406 148.5t-153 395.5z" />
<glyph unicode="V" horiz-adv-x="1259" d="M16 1352h269l303 -930q28 -86 41 -152h6q20 86 43 150l305 932h262l-479 -1352h-272z" />
<glyph unicode="W" horiz-adv-x="1880" d="M20 1352h267l223 -930q8 -39 37 -164h4q2 10 15.5 69.5t21.5 92.5l239 932h230l239 -932q24 -90 37 -162h6q7 37 37 164l223 930h261l-379 -1352h-291l-203 758q-26 94 -43 219h-4q-15 -110 -45 -219l-209 -758h-289z" />
<glyph unicode="X" horiz-adv-x="1253" d="M16 1352h303l236 -416q46 -80 70 -133h6q14 42 71 133l252 416h277l-424 -688l434 -664h-293l-243 391q-27 41 -76 139h-4q-49 -98 -76 -139l-256 -391h-270l419 662z" />
<glyph unicode="Y" horiz-adv-x="1210" d="M12 1352h279l250 -480q54 -103 65 -167h6q10 61 66 167l246 480h270l-459 -860v-492h-258v483z" />
<glyph unicode="Z" horiz-adv-x="1183" d="M68 0v207l632 807q78 94 107 123l-4 8q-40 -6 -170 -6h-545v213h1024v-207l-627 -807q-59 -74 -114 -123l6 -8q30 6 170 6h555v-213h-1034z" />
<glyph unicode="[" horiz-adv-x="720" d="M141 -418v1864h527v-203h-285v-1458h285v-203h-527z" />
<glyph unicode="\" horiz-adv-x="894" d="M45 1446h238l565 -1864h-238z" />
<glyph unicode="]" horiz-adv-x="720" d="M55 -215h283v1458h-283v203h525v-1864h-525v203z" />
<glyph unicode="^" horiz-adv-x="794" d="M74 1047l190 446h266l191 -446h-211l-113 268l-112 -268h-211z" />
<glyph unicode="_" horiz-adv-x="796" d="M0 -115h797v-174h-797v174z" />
<glyph unicode="`" horiz-adv-x="593" d="M84 1438h309l119 -326l-225 -10z" />
<glyph unicode="a" horiz-adv-x="1105" d="M74 254q0 85 41.5 144t125 93t191.5 50t258 18h17v47q0 84 -50 132t-145 48q-89 0 -136.5 -33.5t-47.5 -93.5q0 -18 8 -38l-221 -37q-13 39 -13 90q0 138 112.5 221.5t305.5 83.5q206 0 318 -100.5t112 -278.5v-340q0 -36 13.5 -50.5t44.5 -14.5q14 0 34 4l11 -195 q-55 -14 -123 -14q-187 0 -211 153q-13 -25 -34 -48t-57 -49.5t-95 -42t-132 -15.5q-156 0 -241.5 72t-85.5 194zM317 281q0 -49 39 -76t111 -27q109 0 174.5 48.5t65.5 113.5v82h-17q-197 -3 -285 -36t-88 -105z" />
<glyph unicode="b" horiz-adv-x="1198" d="M123 0v1446h250v-629q99 162 313 162q192 0 315 -134.5t123 -363.5q0 -223 -126 -358t-326 -135q-122 0 -207 56.5t-127 150.5h-2q0 -86 -25 -195h-188zM373 455q0 -102 69 -180t189 -78q109 0 174 77.5t65 206.5q0 133 -66 211t-181 78q-78 0 -136.5 -41t-86 -99 t-27.5 -120v-55z" />
<glyph unicode="c" horiz-adv-x="1050" d="M70 479q0 222 138 361t359 139q184 0 295 -96.5t111 -241.5q0 -18 -1.5 -35t-3.5 -25l-1 -8l-224 -14q5 15 5 45q0 74 -48.5 122t-134.5 48q-109 0 -175 -79t-66 -208q0 -135 70.5 -214.5t201.5 -79.5q177 0 274 116l127 -155q-57 -72 -164.5 -119t-250.5 -47 q-235 0 -373.5 136t-138.5 355z" />
<glyph unicode="d" horiz-adv-x="1198" d="M74 481q0 228 126.5 363t323.5 135q203 0 301 -141v608h250v-1446l-198 -8q-11 47 -19 113q-7 53 -6 79v11h-6q-42 -95 -126.5 -151t-207.5 -56q-197 0 -317.5 137.5t-120.5 355.5zM326 481q0 -129 67 -206.5t182 -77.5q112 0 181 79t69 179v57q0 99 -69 178.5t-189 79.5 q-109 0 -175 -78.5t-66 -210.5z" />
<glyph unicode="e" horiz-adv-x="1077" d="M72 481q0 220 134 359t355 139q207 0 326 -127.5t119 -327.5q0 -27 -3 -52t-5 -36l-3 -12h-671q18 -111 92 -176.5t198 -65.5q160 0 256 115l127 -137q-59 -77 -164.5 -124.5t-244.5 -47.5q-238 0 -377 136t-139 357zM324 565h446q-2 97 -58.5 158t-150.5 61 q-93 0 -156.5 -58.5t-80.5 -160.5z" />
<glyph unicode="f" horiz-adv-x="788" d="M61 774v193h144v86q0 186 110.5 295.5t286.5 109.5q56 0 110.5 -12t79.5 -22t35 -17l-75 -199q-1 1 -9 6t-14.5 8.5t-18.5 9t-23 9t-26 6t-30 2.5q-84 0 -130 -51.5t-46 -140.5v-90h311v-193h-311v-774h-250v774h-144z" />
<glyph unicode="g" horiz-adv-x="1085" d="M27 -172q0 141 163 197q-106 59 -106 176q0 64 38 109t97 65q-108 97 -108 250q0 158 116.5 255t307.5 97q155 0 264 -64q94 48 94 232l192 -49q0 -110 -61.5 -178.5t-132.5 -83.5q72 -84 72 -209q0 -159 -117 -257t-309 -98q-91 0 -177 27q-75 -15 -75 -64 q0 -40 40 -55.5t132 -15.5h213q180 0 284.5 -72t104.5 -209q0 -64 -26 -116.5t-83.5 -97.5t-162 -70t-248.5 -25q-256 0 -384 68t-128 188zM252 -133q0 -59 67 -87t220 -28q155 0 221.5 29t66.5 90q0 56 -43.5 77t-142.5 21h-192q-197 0 -197 -102zM348 625v-6 q0 -71 50 -115q51 -47 137 -47h4q84 0 135 45q53 45 55 121q0 75 -52 122t-138 48q-86 0 -138.5 -46.5t-52.5 -121.5z" />
<glyph unicode="h" horiz-adv-x="1157" d="M123 0v1446h246v-641h6q91 174 301 174q175 0 270.5 -106t95.5 -279v-594h-249v559q0 96 -48.5 151.5t-140.5 55.5q-111 0 -171 -80t-60 -184v-502h-250z" />
<glyph unicode="i" horiz-adv-x="499" d="M88 1278q0 67 47.5 112.5t116.5 45.5q68 0 116 -45.5t48 -112.5q0 -68 -48 -113t-116 -45q-70 0 -117 45t-47 113zM125 0v967l250 8v-975h-250z" />
<glyph unicode="j" horiz-adv-x="514" d="M-184 -367l71 174q38 -24 99 -24q81 0 117 46.5t36 137.5v1000l250 8v-991q0 -195 -92.5 -303.5t-280.5 -108.5q-39 0 -74.5 6.5t-57.5 15t-38 17.5t-23 15zM109 1284q0 69 46.5 114.5t114.5 45.5q70 0 118 -46t48 -114q0 -67 -48 -111.5t-118 -44.5q-68 0 -114.5 44.5 t-46.5 111.5z" />
<glyph unicode="k" horiz-adv-x="1085" d="M123 0v1446h250v-838h121l278 359h285l-379 -461l420 -506h-305l-326 416h-94v-416h-250z" />
<glyph unicode="l" horiz-adv-x="497" d="M125 0v1446h248v-1446h-248z" />
<glyph unicode="m" horiz-adv-x="1794" d="M123 0v967l192 8q13 -44 22 -110t9 -101h2q38 97 116 155t198 58q126 0 212.5 -58.5t124.5 -162.5q37 100 116 160.5t202 60.5q171 0 267.5 -107t96.5 -280v-590h-249v557q0 96 -48 150.5t-139 54.5q-72 0 -123.5 -41t-73.5 -98.5t-22 -120.5v-502h-250v557 q0 96 -47.5 150.5t-138.5 54.5q-105 0 -161 -79.5t-56 -180.5v-502h-250z" />
<glyph unicode="n" horiz-adv-x="1155" d="M123 0v967l192 8q13 -49 22 -113t9 -98h6q41 97 120.5 156t203.5 59q174 0 270 -106.5t96 -278.5v-594h-249v559q0 96 -49 151.5t-140 55.5q-57 0 -103 -24t-73 -63t-41 -84.5t-14 -92.5v-502h-250z" />
<glyph unicode="o" horiz-adv-x="1150" d="M70 481q0 220 139.5 359t365.5 139q227 0 366.5 -139t139.5 -359q0 -219 -139 -356t-367 -137q-226 0 -365.5 137t-139.5 356zM324 481q0 -129 68.5 -208.5t182.5 -79.5q115 0 183.5 79.5t68.5 208.5q0 130 -69 211.5t-183 81.5t-182.5 -81.5t-68.5 -211.5z" />
<glyph unicode="p" horiz-adv-x="1198" d="M123 -418v1385l192 8q12 -42 21.5 -108.5t9.5 -94.5h4q41 94 125 150.5t211 56.5q197 0 317.5 -138.5t120.5 -359.5q0 -227 -126 -360t-326 -133q-101 0 -177.5 39.5t-121.5 105.5v-551h-250zM373 455q0 -99 69 -178.5t189 -79.5q109 0 174 77.5t65 206.5q0 131 -67 210 t-180 79q-112 0 -181 -79t-69 -179v-57z" />
<glyph unicode="q" horiz-adv-x="1198" d="M74 485q0 220 121.5 357t322.5 137q123 0 206.5 -56t123.5 -151h4v9q0 26 8 79q10 63 23 107h192v-1385h-250v557q-98 -151 -307 -151q-195 0 -319.5 134t-124.5 363zM326 485q0 -131 67 -209.5t182 -78.5q76 0 135 41t87 99t28 120v55q0 102 -69 180t-189 78 q-109 0 -175 -78t-66 -207z" />
<glyph unicode="r" horiz-adv-x="755" d="M123 0v967l192 8q13 -48 22 -115.5t9 -101.5h6q30 100 94.5 160.5t165.5 60.5q74 0 138 -25l-64 -243q-44 30 -104 30q-87 0 -148 -69t-61 -193v-479h-250z" />
<glyph unicode="s" horiz-adv-x="978" d="M49 133l125 154q35 -33 125 -75t184 -42q83 0 125.5 24.5t42.5 67.5q0 30 -24 52t-63 34.5t-89 26.5t-102.5 26.5t-102.5 35.5t-89 52t-63 78.5t-24 112.5q0 135 110.5 217t293.5 82q173 0 282 -76.5t109 -195.5q0 -17 -2 -33.5t-4 -24.5l-2 -8l-222 -14q5 20 5 39 q0 63 -47.5 100t-127.5 37q-75 0 -116 -31t-41 -82q0 -41 31.5 -67t81.5 -40t111 -25.5t122 -29.5t111.5 -46t82.5 -81.5t33 -128.5q0 -131 -112 -207.5t-304 -76.5q-265 0 -440 145z" />
<glyph unicode="t" horiz-adv-x="854" d="M43 774v193h156v276l243 10v-286h351v-193h-351v-375q0 -103 40 -151.5t126 -48.5q46 0 87 13.5t59 26.5l18 13l72 -197q-4 -3 -12 -7.5t-35 -16t-56.5 -20.5t-77 -16t-96.5 -7q-374 0 -374 403v383h-150z" />
<glyph unicode="u" horiz-adv-x="1138" d="M115 373v594h250v-559q0 -96 48 -151.5t138 -55.5q68 0 118.5 41.5t73.5 100t23 122.5v502h250v-967l-197 -8q-11 47 -19.5 109.5t-8.5 86.5h-5q-87 -200 -307 -200q-173 0 -268.5 106.5t-95.5 278.5z" />
<glyph unicode="v" horiz-adv-x="1081" d="M23 967h270l221 -605q21 -58 31 -122h6q14 74 31 122l223 605h250l-377 -967h-277z" />
<glyph unicode="w" horiz-adv-x="1579" d="M29 967h264l156 -605q25 -116 26 -122h6q3 14 29 122l170 605h229l168 -600q25 -102 29 -127h6q10 63 27 127l153 600h254l-284 -967h-289l-158 547q-13 48 -18 96h-6q-3 -27 -17 -96l-164 -547h-284z" />
<glyph unicode="x" horiz-adv-x="1026" d="M20 0l355 487l-355 480h279l162 -236q48 -75 53 -98h4q6 28 51 98l158 236h277l-351 -486l357 -481h-275l-178 252q-38 56 -41 76h-6q-6 -26 -41 -76l-176 -252h-273z" />
<glyph unicode="y" horiz-adv-x="1071" d="M27 967h270l219 -605q21 -58 31 -122h4q12 59 33 122l215 605h252l-426 -1108q-108 -287 -371 -287q-46 0 -89 9t-63 17l-20 9l39 194q51 -26 112 -26q65 0 104 31.5t66 93.5l27 63z" />
<glyph unicode="z" horiz-adv-x="962" d="M66 0v184l489 537q36 41 49 53l-2 6q-30 -6 -102 -6h-422v193h807v-185l-461 -518q-28 -31 -68 -71l2 -7q35 7 103 7h440v-193h-835z" />
<glyph unicode="{" horiz-adv-x="706" d="M59 395v197h21q52 0 91.5 34.5t39.5 102.5v328q0 114 36.5 195.5t100.5 124.5t137.5 62t161.5 19v-211q-100 0 -154.5 -57t-54.5 -172v-344q0 -47 -11 -82.5t-29 -54.5t-31.5 -28.5t-28.5 -14.5q27 -8 63.5 -56t36.5 -125v-305q0 -115 54.5 -172t154.5 -57v-211 q-70 0 -130 11t-117.5 39t-98.5 72t-65.5 115t-24.5 162v291q0 68 -39.5 102.5t-91.5 34.5h-21z" />
<glyph unicode="|" horiz-adv-x="489" d="M141 -418v1852h205v-1852h-205z" />
<glyph unicode="}" horiz-adv-x="704" d="M59 -219q100 0 154.5 57t54.5 172v303q0 25 3.5 47.5t9 38.5t14 30t15.5 22.5t17 17t15.5 12t14.5 8t10 5.5q-13 5 -26 13t-31.5 27t-30 55.5t-11.5 84.5v344q0 115 -54.5 172t-154.5 57v213q69 0 129 -11t118 -39t99 -72.5t66 -115.5t25 -163v-330q0 -68 39.5 -102.5 t91.5 -34.5h20v-197h-20q-52 0 -91.5 -34.5t-39.5 -102.5v-289q0 -91 -25 -162t-66 -115.5t-99 -73t-118 -39.5t-129 -11v213z" />
<glyph unicode="~" horiz-adv-x="1132" d="M123 473v168q92 68 225 68q87 0 219 -41t219 -41q53 0 118.5 15.5t107.5 45.5v-168q-100 -67 -226 -67q-87 0 -219 41t-219 41q-52 0 -117.5 -16t-107.5 -46z" />
<glyph unicode="&#xa1;" horiz-adv-x="501" d="M113 -422l34 940l207 6l29 -946h-270zM115 842q0 58 40.5 98.5t98.5 40.5t99.5 -40.5t41.5 -98.5t-42 -99t-99 -41q-58 0 -98.5 40.5t-40.5 99.5z" />
<glyph unicode="&#xa2;" horiz-adv-x="1077" d="M82 483q0 193 108 324t297 162v207h177v-203q118 -10 206.5 -54.5t137.5 -107.5l-127 -156q-100 119 -275 119q-129 0 -200.5 -79.5t-71.5 -211.5t71.5 -211t200.5 -79q178 0 275 116l127 -155q-49 -63 -137.5 -107.5t-206.5 -54.5v-203h-177v207q-189 31 -297 161.5 t-108 325.5z" />
<glyph unicode="&#xa3;" horiz-adv-x="1224" d="M80 508v149h174q-29 45 -46.5 77.5t-32.5 85t-15 108.5q0 193 141 315.5t371 122.5q79 0 148 -16t117 -41t88 -56t64 -61.5t40.5 -55.5t22.5 -41l7 -16l-215 -94q-2 6 -7.5 17t-26.5 38t-48 48t-76 38t-108 17q-115 0 -186.5 -66t-71.5 -168q0 -18 3 -37t5.5 -32.5 t10.5 -34t11.5 -29.5t16 -32t15.5 -28t18.5 -30.5t17.5 -28.5h426v-149h-360q6 -30 6 -62q0 -87 -47.5 -155t-81.5 -84l4 -8q36 6 96 6h559v-205h-985v147q8 4 21.5 12.5t48.5 38t61.5 61.5t48 83t21.5 104q0 38 -8 62h-248z" />
<glyph unicode="&#xa4;" horiz-adv-x="1220" d="M92 346l170 170q-53 95 -53 197q0 106 53 198l-166 166l121 123l166 -166q103 80 231 80q123 0 228 -78l166 164l120 -123l-165 -166q55 -90 55 -198q0 -111 -55 -199l161 -158l-123 -120l-159 155q-99 -76 -228 -76q-131 0 -231 78l-170 -168zM395 713 q0 -88 63.5 -150.5t155.5 -62.5q91 0 155.5 62.5t64.5 150.5q0 90 -64.5 152.5t-155.5 62.5q-92 0 -155.5 -62t-63.5 -153z" />
<glyph unicode="&#xa5;" horiz-adv-x="1284" d="M49 1352h279l250 -480q54 -103 65 -167h6q10 61 66 167l246 480h270l-426 -799h305v-217h-338v-336h-258v336h-340v217h303z" />
<glyph unicode="&#xa6;" horiz-adv-x="487" d="M141 375h205v-793h-205v793zM141 641v793h205v-793h-205z" />
<glyph unicode="&#xa7;" horiz-adv-x="1198" d="M63 -252l156 191q60 -58 159 -107t222 -49q115 0 177.5 39t62.5 110q0 54 -39 92.5t-101.5 60.5t-137.5 41.5t-150.5 44t-138 58.5t-101.5 95t-39 145q0 79 43 138t115 93q-159 98 -164 291q-1 170 129.5 272.5t343.5 102.5q104 0 187.5 -24t135 -59.5t89 -84.5t55 -91 t27.5 -87l-234 -59q-4 30 -20.5 61t-45.5 60.5t-78.5 48t-111.5 18.5q-100 0 -158.5 -43t-58.5 -115q0 -48 24.5 -84.5t65.5 -59.5t94 -41.5t112 -34.5t117.5 -34t111.5 -45.5t94 -63.5t65.5 -93t24.5 -129q0 -153 -125 -220q129 -97 129 -262q0 -163 -137.5 -258.5 t-368.5 -95.5q-95 0 -183 18t-154.5 47t-112.5 56.5t-81 56.5zM362 489q0 -33 18.5 -59t46.5 -43t73.5 -33t87 -26.5t100.5 -26t100 -29.5q70 41 70 121q0 34 -16.5 62t-38 46t-66 36.5t-74.5 27.5t-91.5 26.5t-90.5 26.5q-57 -6 -88 -39.5t-31 -89.5z" />
<glyph unicode="&#xa8;" horiz-adv-x="778" d="M53 1272q0 54 39 93.5t94 39.5q54 0 91.5 -39.5t37.5 -93.5q0 -55 -37.5 -93t-91.5 -38q-56 0 -94.5 38t-38.5 93zM467 1272q0 54 38.5 93.5t92.5 39.5q55 0 93 -39t38 -94q0 -56 -37.5 -93.5t-93.5 -37.5q-54 0 -92.5 38t-38.5 93z" />
<glyph unicode="&#xa9;" horiz-adv-x="1544" d="M84 678q0 308 188.5 496t497.5 188q310 0 500 -188t190 -496q0 -310 -189.5 -499t-500.5 -189q-309 0 -497.5 189t-188.5 499zM164 678q0 -279 166.5 -449t439.5 -170q275 0 442.5 170t167.5 449q0 277 -167.5 445.5t-442.5 168.5q-274 0 -440 -168.5t-166 -445.5z M362 659q0 206 114 332.5t300 126.5q158 0 254 -81t96 -212l-170 -30q0 6 -1 17t-10.5 38t-26.5 47.5t-53.5 37.5t-86.5 17q-98 0 -158.5 -77t-60.5 -203q0 -124 66.5 -200.5t173.5 -76.5q44 0 83.5 10.5t64.5 25.5t44 29.5t27 25.5l8 10l88 -125q-4 -6 -12 -15.5 t-37.5 -33.5t-65 -42.5t-96.5 -33.5t-129 -15q-185 0 -298.5 118t-113.5 310z" />
<glyph unicode="&#xaa;" horiz-adv-x="970" d="M84 780q0 71 35.5 121t103.5 77.5t153.5 39.5t198.5 12h11v33q0 59 -36.5 94t-103.5 35q-62 0 -96.5 -24t-34.5 -66q0 -6 7 -27l-203 -35q-10 33 -10 78q0 113 93 180.5t255 67.5q172 0 263 -82t91 -231v-252q0 -49 43 -49q13 0 29 4l8 -176q-48 -13 -111 -13 q-158 0 -182 121h-2q-23 -48 -82.5 -85.5t-165.5 -37.5q-126 0 -195 57.5t-69 157.5zM309 813q0 -37 28 -56.5t77 -19.5q77 0 124.5 33.5t47.5 81.5v61h-11q-137 0 -201.5 -23.5t-64.5 -76.5z" />
<glyph unicode="&#xab;" horiz-adv-x="1044" d="M78 444v195l319 283l121 -134l-276 -247l276 -246l-121 -135zM522 444v195l320 283l121 -134l-279 -247l279 -246l-121 -135z" />
<glyph unicode="&#xad;" horiz-adv-x="792" d="M113 575v175h567v-175h-567z" />
<glyph unicode="&#xae;" horiz-adv-x="894" d="M82 1004q0 161 101.5 261.5t262.5 100.5q162 0 264.5 -100.5t102.5 -261.5t-102 -261t-265 -100q-162 0 -263 100t-101 261zM145 1004q0 -136 83.5 -220t217.5 -84q136 0 220 84.5t84 219.5q0 137 -84 221t-220 84t-218.5 -83.5t-82.5 -221.5zM291 784v437h160 q65 0 105 -36.5t40 -94.5q0 -34 -12.5 -60.5t-30 -39.5t-31.5 -19t-20 -6q24 -9 40.5 -28.5t23.5 -37.5t20 -31.5t32 -13.5h11l6 -70q-15 -2 -33 -2q-35 0 -60 23.5t-38 51.5t-38 51.5t-60 23.5h-35v-148h-80zM371 1006h67q36 0 59 22t23 57q0 29 -21.5 46.5t-56.5 17.5h-71 v-143z" />
<glyph unicode="&#xaf;" horiz-adv-x="829" d="M106 1186v172h617v-172h-617z" />
<glyph unicode="&#xb0;" horiz-adv-x="690" d="M76 1096q0 119 74 192.5t192 73.5q122 0 197 -73t75 -193t-75 -193.5t-197 -73.5q-118 0 -192 74t-74 193zM209 1096q0 -61 36.5 -98t96.5 -37q63 0 101 37t38 98q0 62 -38 99.5t-101 37.5q-60 0 -96.5 -37.5t-36.5 -99.5z" />
<glyph unicode="&#xb1;" horiz-adv-x="1026" d="M113 53v166h800v-166h-800zM113 592v168h313v256h176v-256h311v-168h-311v-268h-176v268h-313z" />
<glyph unicode="&#xb4;" horiz-adv-x="593" d="M82 1102l119 336h305l-201 -326z" />
<glyph unicode="&#xb6;" horiz-adv-x="1222" d="M51 961q0 177 122.5 284t322.5 107h557v-1762h-146v1645h-184v-1645h-145v992h-82q-200 0 -322.5 104.5t-122.5 274.5z" />
<glyph unicode="&#xb7;" horiz-adv-x="483" d="M94 725q0 62 43.5 105.5t104.5 43.5t104 -43.5t43 -105.5q0 -60 -43 -102.5t-104 -42.5t-104.5 42.5t-43.5 102.5z" />
<glyph unicode="&#xb8;" horiz-adv-x="577" d="M74 -332l63 115q6 -6 17 -15.5t47.5 -25.5t74.5 -16q39 0 60.5 15t21.5 42q0 80 -182 80l72 166h139l-39 -84q65 -9 112.5 -52t47.5 -122q0 -88 -65.5 -137.5t-161.5 -49.5q-37 0 -72 8.5t-58.5 21t-41.5 25t-27 21.5z" />
<glyph unicode="&#xba;" horiz-adv-x="962" d="M70 967q0 176 113 287.5t298 111.5t298.5 -111.5t113.5 -287.5q0 -178 -113.5 -290t-298.5 -112t-298 112t-113 290zM305 967q0 -95 47.5 -152t128.5 -57t128.5 57t47.5 152q0 93 -47.5 151t-128.5 58t-128.5 -58t-47.5 -151z" />
<glyph unicode="&#xbb;" horiz-adv-x="1044" d="M82 295l276 246l-276 247l121 134l319 -283v-195l-319 -284zM526 295l277 246l-277 247l121 134l320 -283v-195l-320 -284z" />
<glyph unicode="&#xbc;" horiz-adv-x="1773" d="M55 1079v195l430 76h39v-746h-221v524zM410 0l622 1366h209l-618 -1366h-213zM946 137l2 174l393 432h238v-438h135v-168h-135v-137h-219v137h-414zM1149 307l4 -4q12 2 72 2h147v187q0 47 4 55l-6 4q-4 -8 -33 -41l-143 -160q-15 -19 -45 -43z" />
<glyph unicode="&#xbd;" horiz-adv-x="1761" d="M55 1079v195l430 76h39v-746h-221v524zM410 0l622 1366h209l-618 -1366h-213zM997 498q0 111 92 184.5t250 73.5q154 0 243 -71t89 -193q0 -50 -21.5 -94t-63 -80.5t-79.5 -61.5t-94 -55q-34 -17 -67 -27l2 -4q8 2 69 2h279v-172h-692v139q223 127 274 160 q154 100 167 173q1 8 1 15q0 40 -31 65.5t-78 25.5q-51 0 -80.5 -24t-29.5 -62q0 -17 4 -21l-221 -43q-13 39 -13 70z" />
<glyph unicode="&#xbe;" horiz-adv-x="1933" d="M59 748l150 110q3 -3 9 -8.5t26 -19.5t42.5 -24.5t58 -19t73.5 -8.5q137 0 137 62q0 27 -31.5 42t-89.5 15h-112v147h77q131 0 131 66q0 34 -28.5 55t-81.5 21q-52 0 -83.5 -17t-31.5 -43q0 -14 2 -18l-213 -35l-1 4q-1 4 -2 10.5t-2 14.5t-2 18.5t-1 20.5 q0 98 92.5 158.5t247.5 60.5q153 0 241.5 -65.5t88.5 -170.5q0 -66 -45 -106.5t-117 -40.5v-2q79 0 133.5 -47t54.5 -121q0 -94 -94.5 -154.5t-259.5 -60.5q-83 0 -151.5 16t-107 39t-65.5 46t-36 39zM588 0l620 1366h211l-618 -1366h-213zM1110 137v174l395 432h236v-438 h137v-168h-137v-137h-219v137h-412zM1311 307l4 -4q14 2 74 2h147v187q0 47 2 55l-6 4q-4 -8 -33 -41l-141 -160q-19 -24 -47 -43z" />
<glyph unicode="&#xbf;" horiz-adv-x="960" d="M51 -78q0 63 20.5 116.5t54 91.5t73.5 72.5t79.5 67t73 66t54 78t20.5 96.5v31l219 8v-64q0 -67 -18.5 -123.5t-48.5 -95t-66.5 -72t-73 -62t-67 -56.5t-49.5 -62.5t-19 -74.5q0 -76 51.5 -126.5t137.5 -50.5q80 0 129 43t49 115q0 25 -8 49l233 37q12 -53 12 -106 q0 -158 -114 -257.5t-301 -99.5q-107 0 -192.5 31.5t-139 84.5t-81.5 120.5t-28 142.5zM389 838q0 60 41.5 101.5t101.5 41.5t102 -41.5t42 -101.5t-42 -102t-102 -42t-101.5 42t-41.5 102z" />
<glyph unicode="&#xc0;" horiz-adv-x="1275" d="M12 0l490 1352h274l486 -1352h-263l-102 303h-516l-102 -303h-267zM332 1686h315l119 -256l-231 -11zM449 502h380l-147 430q-19 56 -41 149h-6q-12 -63 -41 -151z" />
<glyph unicode="&#xc1;" horiz-adv-x="1275" d="M12 0l490 1352h274l486 -1352h-263l-102 303h-516l-102 -303h-267zM449 502h380l-147 430q-19 56 -41 149h-6q-12 -63 -41 -151zM510 1419l119 267h313l-203 -256z" />
<glyph unicode="&#xc2;" horiz-adv-x="1275" d="M12 0l490 1352h274l486 -1352h-263l-102 303h-516l-102 -303h-267zM315 1419l195 285h266l195 -285l-197 6l-131 121l-131 -121zM449 502h380l-147 430q-19 56 -41 149h-6q-12 -63 -41 -151z" />
<glyph unicode="&#xc3;" horiz-adv-x="1275" d="M12 0l490 1352h274l486 -1352h-263l-102 303h-516l-102 -303h-267zM252 1489q0 89 57.5 141.5t153.5 52.5q50 0 99.5 -16.5t81 -36.5t64 -36.5t52.5 -16.5q53 0 53 63q0 16 -2 32.5t-4 25.5l-2 8h172q8 -39 8 -96q0 -84 -54 -142.5t-149 -58.5q-44 0 -90 17t-77.5 37.5 t-65.5 37.5t-57 17q-30 0 -48 -18t-18 -48q0 -11 2.5 -24t5.5 -20l2 -7h-172q-12 37 -12 88zM449 502h380l-147 430q-19 56 -41 149h-6q-12 -63 -41 -151z" />
<glyph unicode="&#xc4;" horiz-adv-x="1275" d="M12 0l490 1352h274l486 -1352h-263l-102 303h-516l-102 -303h-267zM315 1567q0 53 37.5 91t91.5 38q52 0 89.5 -38t37.5 -91q0 -54 -37 -91.5t-90 -37.5q-54 0 -91.5 37.5t-37.5 91.5zM449 502h380l-147 430q-19 56 -41 149h-6q-12 -63 -41 -151zM727 1567q0 53 38.5 91 t90.5 38q54 0 91.5 -38t37.5 -91q0 -54 -37.5 -91.5t-91.5 -37.5q-53 0 -91 37.5t-38 91.5z" />
<glyph unicode="&#xc5;" horiz-adv-x="1275" d="M12 0l490 1352h274l486 -1352h-263l-102 303h-516l-102 -303h-267zM449 502h380l-147 430q-19 56 -41 149h-6q-12 -63 -41 -151zM453 1573q0 76 55.5 129t132.5 53t132.5 -53t55.5 -129t-55.5 -129t-132.5 -53t-132.5 53t-55.5 129zM580 1573q0 -27 17.5 -45.5 t43.5 -18.5t45 19t19 45t-18.5 43.5t-45.5 17.5q-26 0 -43.5 -17.5t-17.5 -43.5z" />
<glyph unicode="&#xc6;" horiz-adv-x="1941" d="M-33 0l967 1352h911v-213h-620v-344h542v-205h-542v-377h620v-213h-878v303h-518l-216 -303h-266zM590 502h377v528z" />
<glyph unicode="&#xc7;" horiz-adv-x="1320" d="M84 676q0 155 47 284.5t130 218.5t199 138t253 49q114 0 207.5 -31.5t154 -81.5t101.5 -115.5t58.5 -130.5t18.5 -130l-241 -37q0 40 -9.5 80t-32.5 80.5t-56 71.5t-84 50t-113 19q-160 0 -265.5 -125.5t-105.5 -339.5q0 -97 22.5 -175.5t60.5 -132t90.5 -89.5t111 -52 t123.5 -16q117 0 207.5 58.5t148.5 136.5l154 -158q-24 -35 -58 -70t-90.5 -78.5t-139 -74t-175.5 -37.5l-21 -43q65 -9 112.5 -52t47.5 -122q0 -88 -65.5 -137.5t-161.5 -49.5q-37 0 -72 8.5t-58.5 21t-41.5 25t-27 21.5l-8 8l63 115q6 -6 17.5 -15.5t48 -25.5t74.5 -16 q39 0 60.5 15t21.5 42q0 80 -183 80l56 127q-265 27 -422.5 209t-157.5 477z" />
<glyph unicode="&#xc8;" horiz-adv-x="1126" d="M152 0v1352h878v-213h-620v-344h542v-205h-542v-377h620v-213h-878zM309 1686h316l118 -256l-231 -11z" />
<glyph unicode="&#xc9;" horiz-adv-x="1126" d="M152 0v1352h878v-213h-620v-344h542v-205h-542v-377h620v-213h-878zM487 1419l119 267h314l-203 -256z" />
<glyph unicode="&#xca;" horiz-adv-x="1126" d="M152 0v1352h878v-213h-620v-344h542v-205h-542v-377h620v-213h-878zM293 1419l194 285h267l194 -285l-196 6l-131 121l-132 -121z" />
<glyph unicode="&#xcb;" horiz-adv-x="1126" d="M152 0v1352h878v-213h-620v-344h542v-205h-542v-377h620v-213h-878zM293 1567q0 53 37.5 91t91.5 38q52 0 89.5 -38t37.5 -91q0 -54 -37 -91.5t-90 -37.5q-54 0 -91.5 37.5t-37.5 91.5zM705 1567q0 53 38.5 91t90.5 38q54 0 91.5 -38t37.5 -91q0 -54 -37.5 -91.5 t-91.5 -37.5q-53 0 -91 37.5t-38 91.5z" />
<glyph unicode="&#xcc;" horiz-adv-x="559" d="M-29 1686h316l119 -256l-232 -11zM152 0v1352h256v-1352h-256z" />
<glyph unicode="&#xcd;" horiz-adv-x="559" d="M150 1419l118 267h314l-203 -256zM152 0v1352h256v-1352h-256z" />
<glyph unicode="&#xce;" horiz-adv-x="559" d="M-45 1419l195 285h266l194 -285l-196 6l-131 121l-131 -121zM152 0v1352h256v-1352h-256z" />
<glyph unicode="&#xcf;" horiz-adv-x="559" d="M-45 1567q0 53 37.5 91t91.5 38q52 0 89.5 -38t37.5 -91q0 -54 -37 -91.5t-90 -37.5q-54 0 -91.5 37.5t-37.5 91.5zM152 0v1352h256v-1352h-256zM367 1567q0 53 38.5 91t90.5 38q54 0 91.5 -38t37.5 -91q0 -54 -37.5 -91.5t-91.5 -37.5q-53 0 -91 37.5t-38 91.5z" />
<glyph unicode="&#xd0;" horiz-adv-x="1374" d="M-37 588v170h189v594h454q325 0 503.5 -181t178.5 -495q0 -332 -162.5 -504t-455.5 -172h-518v588h-189zM410 207h235q179 0 280 114.5t101 354.5q0 234 -114 351.5t-332 117.5h-170v-387h344v-170h-344v-381z" />
<glyph unicode="&#xd1;" horiz-adv-x="1427" d="M152 0v1352h243l482 -738q105 -164 147 -254l12 7q-10 87 -10 249l-2 736h252v-1352h-254l-467 713q-33 51 -154 252l-10 -7q10 -48 10 -243l5 -715h-254zM385 1489q0 89 57.5 141.5t153.5 52.5q50 0 99.5 -16.5t81 -36.5t64 -36.5t52.5 -16.5q53 0 53 63q0 16 -2 32.5 t-4 25.5l-2 8h172q8 -39 8 -96q0 -84 -54 -142.5t-149 -58.5q-44 0 -90 17t-77.5 37.5t-65.5 37.5t-57 17q-30 0 -48 -18t-18 -48q0 -11 2.5 -24t4.5 -20l3 -7h-172q-12 37 -12 88z" />
<glyph unicode="&#xd2;" d="M84 676q0 314 180.5 502t468.5 188q290 0 470.5 -187.5t180.5 -502.5q0 -313 -180.5 -500.5t-470.5 -187.5q-141 0 -261 48.5t-205.5 136.5t-134 217.5t-48.5 285.5zM344 676q0 -213 108.5 -339t280.5 -126q173 0 282 126t109 339q0 215 -109 340t-282 125 q-172 0 -280.5 -125.5t-108.5 -339.5zM424 1686h315l119 -256l-231 -11z" />
<glyph unicode="&#xd3;" d="M84 676q0 314 180.5 502t468.5 188q290 0 470.5 -187.5t180.5 -502.5q0 -313 -180.5 -500.5t-470.5 -187.5q-141 0 -261 48.5t-205.5 136.5t-134 217.5t-48.5 285.5zM344 676q0 -213 108.5 -339t280.5 -126q173 0 282 126t109 339q0 215 -109 340t-282 125 q-172 0 -280.5 -125.5t-108.5 -339.5zM602 1419l119 267h313l-203 -256z" />
<glyph unicode="&#xd4;" d="M84 676q0 314 180.5 502t468.5 188q290 0 470.5 -187.5t180.5 -502.5q0 -313 -180.5 -500.5t-470.5 -187.5q-141 0 -261 48.5t-205.5 136.5t-134 217.5t-48.5 285.5zM344 676q0 -213 108.5 -339t280.5 -126q173 0 282 126t109 339q0 215 -109 340t-282 125 q-172 0 -280.5 -125.5t-108.5 -339.5zM408 1419l194 285h266l195 -285l-197 6l-131 121l-131 -121z" />
<glyph unicode="&#xd5;" d="M84 676q0 314 180.5 502t468.5 188q290 0 470.5 -187.5t180.5 -502.5q0 -313 -180.5 -500.5t-470.5 -187.5q-141 0 -261 48.5t-205.5 136.5t-134 217.5t-48.5 285.5zM344 676q0 -213 108.5 -339t280.5 -126q173 0 282 126t109 339q0 215 -109 340t-282 125 q-172 0 -280.5 -125.5t-108.5 -339.5zM344 1489q0 89 57.5 141.5t153.5 52.5q50 0 99.5 -16.5t81 -36.5t64 -36.5t52.5 -16.5q53 0 53 63q0 16 -2 32.5t-4 25.5l-2 8h172q8 -39 8 -96q0 -84 -54 -142.5t-149 -58.5q-44 0 -90 17t-77.5 37.5t-65.5 37.5t-57 17q-30 0 -48 -18 t-18 -48q0 -11 2.5 -24t5.5 -20l2 -7h-172q-12 37 -12 88z" />
<glyph unicode="&#xd6;" d="M84 676q0 314 180.5 502t468.5 188q290 0 470.5 -187.5t180.5 -502.5q0 -313 -180.5 -500.5t-470.5 -187.5q-141 0 -261 48.5t-205.5 136.5t-134 217.5t-48.5 285.5zM344 676q0 -213 108.5 -339t280.5 -126q173 0 282 126t109 339q0 215 -109 340t-282 125 q-172 0 -280.5 -125.5t-108.5 -339.5zM408 1567q0 53 37.5 91t91.5 38q52 0 89.5 -38t37.5 -91q0 -54 -37 -91.5t-90 -37.5q-54 0 -91.5 37.5t-37.5 91.5zM819 1567q0 53 38.5 91t90.5 38q54 0 91.5 -38t37.5 -91q0 -54 -37.5 -91.5t-91.5 -37.5q-53 0 -91 37.5t-38 91.5z " />
<glyph unicode="&#xd7;" horiz-adv-x="913" d="M96 242l242 241l-242 240l121 121l242 -240l239 240l121 -121l-239 -240l239 -241l-121 -121l-239 241l-242 -241z" />
<glyph unicode="&#xd8;" d="M84 676q0 314 180.5 502t468.5 188q168 0 307 -68l74 111h221l-143 -219q192 -189 192 -514q0 -313 -180.5 -500.5t-470.5 -187.5q-163 0 -291 61l-90 -139h-223l160 242q-98 92 -151.5 225.5t-53.5 298.5zM344 676q0 -187 86 -309l481 733q-80 41 -178 41 q-172 0 -280.5 -125.5t-108.5 -339.5zM571 246q75 -35 162 -35q173 0 282 126t109 339q0 174 -75 295z" />
<glyph unicode="&#xd9;" horiz-adv-x="1392" d="M139 530v822h258v-820q0 -151 82.5 -236t218.5 -85q133 0 215 85t82 234v822h258v-822q0 -246 -153 -395t-402 -149q-253 0 -406 148.5t-153 395.5zM389 1686h316l118 -256l-231 -11z" />
<glyph unicode="&#xda;" horiz-adv-x="1392" d="M139 530v822h258v-820q0 -151 82.5 -236t218.5 -85q133 0 215 85t82 234v822h258v-822q0 -246 -153 -395t-402 -149q-253 0 -406 148.5t-153 395.5zM567 1419l119 267h313l-202 -256z" />
<glyph unicode="&#xdb;" horiz-adv-x="1392" d="M139 530v822h258v-820q0 -151 82.5 -236t218.5 -85q133 0 215 85t82 234v822h258v-822q0 -246 -153 -395t-402 -149q-253 0 -406 148.5t-153 395.5zM373 1419l194 285h267l194 -285l-197 6l-131 121l-131 -121z" />
<glyph unicode="&#xdc;" horiz-adv-x="1392" d="M139 530v822h258v-820q0 -151 82.5 -236t218.5 -85q133 0 215 85t82 234v822h258v-822q0 -246 -153 -395t-402 -149q-253 0 -406 148.5t-153 395.5zM373 1567q0 53 37.5 91t91.5 38q52 0 89.5 -38t37.5 -91q0 -54 -37 -91.5t-90 -37.5q-54 0 -91.5 37.5t-37.5 91.5z M784 1567q0 53 38 91t91 38q54 0 91.5 -38t37.5 -91q0 -54 -37.5 -91.5t-91.5 -37.5q-53 0 -91 37.5t-38 91.5z" />
<glyph unicode="&#xdd;" horiz-adv-x="1210" d="M12 1352h279l250 -480q54 -103 65 -167h6q10 61 66 167l246 480h270l-459 -860v-492h-258v483zM477 1419l119 267h313l-202 -256z" />
<glyph unicode="&#xde;" horiz-adv-x="1245" d="M152 0v1352h258v-199h217q266 0 411.5 -120t145.5 -351q0 -228 -141.5 -350.5t-383.5 -122.5h-249v-209h-258zM410 416h202q150 0 230 68.5t80 197.5q0 124 -82 194t-236 70h-194v-530z" />
<glyph unicode="&#xdf;" horiz-adv-x="1177" d="M123 0v1063q0 179 115.5 288t308.5 109q197 0 320.5 -111t123.5 -290q0 -98 -43.5 -184t-118.5 -144q137 -42 208 -139t71 -230q0 -175 -107.5 -275.5t-310.5 -100.5q-61 0 -115 5t-78 10l-24 5l33 203q55 -19 147 -19t147.5 53t55.5 148q0 103 -70 164t-204 61h-66v29 h-12v172h26q91 0 150 69t59 173q0 89 -52.5 143.5t-133.5 54.5q-86 0 -133 -52.5t-47 -155.5v-1049h-250z" />
<glyph unicode="&#xe0;" horiz-adv-x="1105" d="M74 254q0 85 41.5 144t125 93t191.5 50t258 18h17v47q0 84 -50 132t-145 48q-89 0 -136.5 -33.5t-47.5 -93.5q0 -18 8 -38l-221 -37q-13 39 -13 90q0 138 112.5 221.5t305.5 83.5q206 0 318 -100.5t112 -278.5v-340q0 -36 13.5 -50.5t44.5 -14.5q14 0 34 4l11 -195 q-55 -14 -123 -14q-187 0 -211 153q-13 -25 -34 -48t-57 -49.5t-95 -42t-132 -15.5q-156 0 -241.5 72t-85.5 194zM207 1438h309l119 -326l-225 -10zM317 281q0 -49 39 -76t111 -27q109 0 174.5 48.5t65.5 113.5v82h-17q-197 -3 -285 -36t-88 -105z" />
<glyph unicode="&#xe1;" horiz-adv-x="1105" d="M74 254q0 85 41.5 144t125 93t191.5 50t258 18h17v47q0 84 -50 132t-145 48q-89 0 -136.5 -33.5t-47.5 -93.5q0 -18 8 -38l-221 -37q-13 39 -13 90q0 138 112.5 221.5t305.5 83.5q206 0 318 -100.5t112 -278.5v-340q0 -36 13.5 -50.5t44.5 -14.5q14 0 34 4l11 -195 q-55 -14 -123 -14q-187 0 -211 153q-13 -25 -34 -48t-57 -49.5t-95 -42t-132 -15.5q-156 0 -241.5 72t-85.5 194zM317 281q0 -49 39 -76t111 -27q109 0 174.5 48.5t65.5 113.5v82h-17q-197 -3 -285 -36t-88 -105zM373 1102l119 336h305l-201 -326z" />
<glyph unicode="&#xe2;" horiz-adv-x="1105" d="M74 254q0 85 41.5 144t125 93t191.5 50t258 18h17v47q0 84 -50 132t-145 48q-89 0 -136.5 -33.5t-47.5 -93.5q0 -18 8 -38l-221 -37q-13 39 -13 90q0 138 112.5 221.5t305.5 83.5q206 0 318 -100.5t112 -278.5v-340q0 -36 13.5 -50.5t44.5 -14.5q14 0 34 4l11 -195 q-55 -14 -123 -14q-187 0 -211 153q-13 -25 -34 -48t-57 -49.5t-95 -42t-132 -15.5q-156 0 -241.5 72t-85.5 194zM195 1102l194 334h266l195 -334l-197 6l-131 162l-131 -162zM317 281q0 -49 39 -76t111 -27q109 0 174.5 48.5t65.5 113.5v82h-17q-197 -3 -285 -36t-88 -105z " />
<glyph unicode="&#xe3;" horiz-adv-x="1105" d="M74 254q0 85 41.5 144t125 93t191.5 50t258 18h17v47q0 84 -50 132t-145 48q-89 0 -136.5 -33.5t-47.5 -93.5q0 -18 8 -38l-221 -37q-13 39 -13 90q0 138 112.5 221.5t305.5 83.5q206 0 318 -100.5t112 -278.5v-340q0 -36 13.5 -50.5t44.5 -14.5q14 0 34 4l11 -195 q-55 -14 -123 -14q-187 0 -211 153q-13 -25 -34 -48t-57 -49.5t-95 -42t-132 -15.5q-156 0 -241.5 72t-85.5 194zM131 1196q0 83 58.5 143t152.5 60q49 0 98.5 -16.5t81 -37t64.5 -37t53 -16.5q53 0 53 64q0 16 -2 32.5t-4 24.5l-2 8h172q8 -39 8 -96q0 -85 -55 -143 t-154 -58q-42 0 -86.5 17t-75 37.5t-64 37.5t-54.5 17q-30 0 -50 -18t-20 -54q0 -14 2.5 -28.5t4.5 -22.5l3 -8h-172q-12 41 -12 94zM317 281q0 -49 39 -76t111 -27q109 0 174.5 48.5t65.5 113.5v82h-17q-197 -3 -285 -36t-88 -105z" />
<glyph unicode="&#xe4;" horiz-adv-x="1105" d="M74 254q0 85 41.5 144t125 93t191.5 50t258 18h17v47q0 84 -50 132t-145 48q-89 0 -136.5 -33.5t-47.5 -93.5q0 -18 8 -38l-221 -37q-13 39 -13 90q0 138 112.5 221.5t305.5 83.5q206 0 318 -100.5t112 -278.5v-340q0 -36 13.5 -50.5t44.5 -14.5q14 0 34 4l11 -195 q-55 -14 -123 -14q-187 0 -211 153q-13 -25 -34 -48t-57 -49.5t-95 -42t-132 -15.5q-156 0 -241.5 72t-85.5 194zM190 1272q0 54 39.5 93.5t94.5 39.5q54 0 91.5 -39.5t37.5 -93.5q0 -55 -37.5 -93t-91.5 -38q-56 0 -95 38t-39 93zM317 281q0 -49 39 -76t111 -27 q109 0 174.5 48.5t65.5 113.5v82h-17q-197 -3 -285 -36t-88 -105zM604 1272q0 54 38.5 93.5t92.5 39.5q55 0 93 -39t38 -94q0 -56 -38 -93.5t-93 -37.5q-54 0 -92.5 38t-38.5 93z" />
<glyph unicode="&#xe5;" horiz-adv-x="1105" d="M74 254q0 85 41.5 144t125 93t191.5 50t258 18h17v47q0 84 -50 132t-145 48q-89 0 -136.5 -33.5t-47.5 -93.5q0 -18 8 -38l-221 -37q-13 39 -13 90q0 138 112.5 221.5t305.5 83.5q206 0 318 -100.5t112 -278.5v-340q0 -36 13.5 -50.5t44.5 -14.5q14 0 34 4l11 -195 q-55 -14 -123 -14q-187 0 -211 153q-13 -25 -34 -48t-57 -49.5t-95 -42t-132 -15.5q-156 0 -241.5 72t-85.5 194zM317 281q0 -49 39 -76t111 -27q109 0 174.5 48.5t65.5 113.5v82h-17q-197 -3 -285 -36t-88 -105zM319 1268q0 81 59 136.5t142 55.5q82 0 140.5 -55.5 t58.5 -136.5t-58.5 -137t-140.5 -56q-83 0 -142 56t-59 137zM455 1268q0 -28 19 -48t46 -20q28 0 48 20t20 48q0 27 -20 46t-48 19t-46.5 -18.5t-18.5 -46.5z" />
<glyph unicode="&#xe6;" horiz-adv-x="1712" d="M74 254q0 85 41.5 144t125 93t191.5 50t258 18h17v47q0 84 -50 132t-145 48q-89 0 -136.5 -33.5t-47.5 -93.5q0 -23 10 -43l-221 -36q-15 39 -15 94q0 138 112.5 221.5t305.5 83.5q213 0 332 -139q139 139 344 139q207 0 324.5 -127t117.5 -328q0 -27 -2 -52t-4 -36 l-2 -12h-680q18 -111 92.5 -176.5t198.5 -65.5q168 0 264 115l127 -137q-59 -77 -164.5 -124.5t-244.5 -47.5q-289 0 -422 198h-13q-12 -22 -26 -42.5t-46.5 -50.5t-72 -51.5t-103.5 -37.5t-139 -16q-156 0 -241.5 72t-85.5 194zM317 281q0 -49 39 -76t111 -27 q109 0 175.5 51.5t66.5 118.5v74h-19q-197 -3 -285 -36t-88 -105zM950 565h455q-2 97 -59.5 158t-155.5 61q-95 0 -159 -58.5t-81 -160.5z" />
<glyph unicode="&#xe7;" horiz-adv-x="1050" d="M70 479q0 222 138 361t359 139q184 0 295 -96.5t111 -241.5q0 -18 -1.5 -35t-3.5 -25l-1 -8l-224 -14q5 15 5 45q0 74 -48.5 122t-134.5 48q-109 0 -175 -79t-66 -208q0 -135 70.5 -214.5t201.5 -79.5q177 0 274 116l127 -155q-53 -68 -153 -114t-232 -52l-20 -43 q65 -9 112.5 -52t47.5 -122q0 -88 -66 -137.5t-162 -49.5q-37 0 -72 8.5t-58.5 21t-41.5 25t-26 21.5l-9 8l64 115q6 -6 17 -15.5t47.5 -25.5t74.5 -16q39 0 60.5 15t21.5 42q0 80 -182 80l57 133q-190 29 -298.5 159t-108.5 324z" />
<glyph unicode="&#xe8;" horiz-adv-x="1077" d="M72 481q0 220 134 359t355 139q207 0 326 -127.5t119 -327.5q0 -27 -3 -52t-5 -36l-3 -12h-671q18 -111 92 -176.5t198 -65.5q160 0 256 115l127 -137q-59 -77 -164.5 -124.5t-244.5 -47.5q-238 0 -377 136t-139 357zM246 1438h309l119 -326l-225 -10zM324 565h446 q-2 97 -58.5 158t-150.5 61q-93 0 -156.5 -58.5t-80.5 -160.5z" />
<glyph unicode="&#xe9;" horiz-adv-x="1077" d="M72 481q0 220 134 359t355 139q207 0 326 -127.5t119 -327.5q0 -27 -3 -52t-5 -36l-3 -12h-671q18 -111 92 -176.5t198 -65.5q160 0 256 115l127 -137q-59 -77 -164.5 -124.5t-244.5 -47.5q-238 0 -377 136t-139 357zM324 565h446q-2 97 -58.5 158t-150.5 61 q-93 0 -156.5 -58.5t-80.5 -160.5zM412 1102l118 336h306l-201 -326z" />
<glyph unicode="&#xea;" horiz-adv-x="1077" d="M72 481q0 220 134 359t355 139q207 0 326 -127.5t119 -327.5q0 -27 -3 -52t-5 -36l-3 -12h-671q18 -111 92 -176.5t198 -65.5q160 0 256 115l127 -137q-59 -77 -164.5 -124.5t-244.5 -47.5q-238 0 -377 136t-139 357zM233 1102l195 334h266l195 -334l-197 6l-131 162 l-131 -162zM324 565h446q-2 97 -58.5 158t-150.5 61q-93 0 -156.5 -58.5t-80.5 -160.5z" />
<glyph unicode="&#xeb;" horiz-adv-x="1077" d="M72 481q0 220 134 359t355 139q207 0 326 -127.5t119 -327.5q0 -27 -3 -52t-5 -36l-3 -12h-671q18 -111 92 -176.5t198 -65.5q160 0 256 115l127 -137q-59 -77 -164.5 -124.5t-244.5 -47.5q-238 0 -377 136t-139 357zM229 1272q0 54 39 93.5t94 39.5q54 0 92 -39.5 t38 -93.5q0 -55 -38 -93t-92 -38q-56 0 -94.5 38t-38.5 93zM324 565h446q-2 97 -58.5 158t-150.5 61q-93 0 -156.5 -58.5t-80.5 -160.5zM643 1272q0 54 38.5 93.5t92.5 39.5q55 0 93 -39t38 -94q0 -56 -37.5 -93.5t-93.5 -37.5q-54 0 -92.5 38t-38.5 93z" />
<glyph unicode="&#xec;" horiz-adv-x="499" d="M-68 1438h310l118 -326l-225 -10zM125 0v967l250 8v-975h-250z" />
<glyph unicode="&#xed;" horiz-adv-x="499" d="M125 0v967l250 8v-975h-250zM133 1102l119 336h305l-201 -326z" />
<glyph unicode="&#xee;" horiz-adv-x="499" d="M-86 1102l195 334h266l194 -334l-196 6l-131 162l-131 -162zM125 0v967l250 8v-975h-250z" />
<glyph unicode="&#xef;" horiz-adv-x="499" d="M-90 1272q0 54 39 93.5t94 39.5q54 0 91.5 -39.5t37.5 -93.5q0 -55 -37.5 -93t-91.5 -38q-56 0 -94.5 38t-38.5 93zM125 0v967l250 8v-975h-250zM324 1272q0 54 38.5 93.5t92.5 39.5q55 0 93 -39t38 -94q0 -56 -38 -93.5t-93 -37.5q-54 0 -92.5 38t-38.5 93z" />
<glyph unicode="&#xf0;" horiz-adv-x="1167" d="M72 444q0 215 127 343t325 128q114 0 191.5 -43.5t113.5 -99.5q-39 199 -184 338l-201 -131l-86 129l150 98q-104 51 -211 54l125 186q160 -25 289 -107l190 125l84 -129l-147 -96q243 -246 243 -682q0 -262 -139 -415.5t-389 -153.5q-212 0 -346.5 129t-134.5 327z M311 449q0 -114 75 -185t187 -71q121 0 194 74.5t75 189.5v6q-1 113 -77 180.5t-192 67.5t-189 -72.5t-73 -189.5z" />
<glyph unicode="&#xf1;" horiz-adv-x="1155" d="M123 0v967l192 8q13 -49 22 -113t9 -98h6q41 97 120.5 156t203.5 59q174 0 270 -106.5t96 -278.5v-594h-249v559q0 96 -49 151.5t-140 55.5q-57 0 -103 -24t-73 -63t-41 -84.5t-14 -92.5v-502h-250zM195 1196q0 83 58.5 143t152.5 60q49 0 98 -16.5t81 -37t64.5 -37 t52.5 -16.5q54 0 54 64q0 16 -2 32.5t-4 24.5l-2 8h172q8 -39 8 -96q0 -85 -55 -143t-154 -58q-42 0 -86.5 17t-75.5 37.5t-64.5 37.5t-54.5 17q-30 0 -49.5 -18t-19.5 -54q0 -14 2.5 -28.5t4.5 -22.5l3 -8h-172q-12 41 -12 94z" />
<glyph unicode="&#xf2;" horiz-adv-x="1150" d="M70 481q0 220 139.5 359t365.5 139q227 0 366.5 -139t139.5 -359q0 -219 -139 -356t-367 -137q-226 0 -365.5 137t-139.5 356zM262 1438h309l119 -326l-225 -10zM324 481q0 -129 68.5 -208.5t182.5 -79.5q115 0 183.5 79.5t68.5 208.5q0 130 -69 211.5t-183 81.5 t-182.5 -81.5t-68.5 -211.5z" />
<glyph unicode="&#xf3;" horiz-adv-x="1150" d="M70 481q0 220 139.5 359t365.5 139q227 0 366.5 -139t139.5 -359q0 -219 -139 -356t-367 -137q-226 0 -365.5 137t-139.5 356zM324 481q0 -129 68.5 -208.5t182.5 -79.5q115 0 183.5 79.5t68.5 208.5q0 130 -69 211.5t-183 81.5t-182.5 -81.5t-68.5 -211.5zM428 1102 l119 336h305l-201 -326z" />
<glyph unicode="&#xf4;" horiz-adv-x="1150" d="M70 481q0 220 139.5 359t365.5 139q227 0 366.5 -139t139.5 -359q0 -219 -139 -356t-367 -137q-226 0 -365.5 137t-139.5 356zM250 1102l194 334h267l194 -334l-196 6l-131 162l-132 -162zM324 481q0 -129 68.5 -208.5t182.5 -79.5q115 0 183.5 79.5t68.5 208.5 q0 130 -69 211.5t-183 81.5t-182.5 -81.5t-68.5 -211.5z" />
<glyph unicode="&#xf5;" horiz-adv-x="1150" d="M70 481q0 220 139.5 359t365.5 139q227 0 366.5 -139t139.5 -359q0 -219 -139 -356t-367 -137q-226 0 -365.5 137t-139.5 356zM186 1196q0 83 58.5 143t152.5 60q49 0 98.5 -16.5t81 -37t64.5 -37t53 -16.5q54 0 54 64q0 16 -2 32.5t-4 24.5l-3 8h172q9 -39 9 -96 q0 -85 -55 -143t-154 -58q-42 0 -86.5 17t-75.5 37.5t-64.5 37.5t-54.5 17q-30 0 -50 -18t-20 -54q0 -14 3 -28.5t5 -22.5l3 -8h-172q-13 41 -13 94zM324 481q0 -129 68.5 -208.5t182.5 -79.5q115 0 183.5 79.5t68.5 208.5q0 130 -69 211.5t-183 81.5t-182.5 -81.5 t-68.5 -211.5z" />
<glyph unicode="&#xf6;" horiz-adv-x="1150" d="M70 481q0 220 139.5 359t365.5 139q227 0 366.5 -139t139.5 -359q0 -219 -139 -356t-367 -137q-226 0 -365.5 137t-139.5 356zM246 1272q0 54 39 93.5t94 39.5q54 0 91.5 -39.5t37.5 -93.5q0 -55 -37.5 -93t-91.5 -38q-56 0 -94.5 38t-38.5 93zM324 481 q0 -129 68.5 -208.5t182.5 -79.5q115 0 183.5 79.5t68.5 208.5q0 130 -69 211.5t-183 81.5t-182.5 -81.5t-68.5 -211.5zM659 1272q0 54 39 93.5t93 39.5q55 0 93 -39t38 -94q0 -56 -38 -93.5t-93 -37.5q-54 0 -93 38t-39 93z" />
<glyph unicode="&#xf7;" horiz-adv-x="964" d="M94 412v168h774v-168h-774zM365 102q0 50 34.5 84.5t83.5 34.5t84 -34.5t35 -84.5q0 -47 -35 -81.5t-84 -34.5t-83.5 34t-34.5 82zM365 862q0 50 34.5 84.5t83.5 34.5t84 -34.5t35 -84.5q0 -48 -35 -82.5t-84 -34.5t-83.5 34.5t-34.5 82.5z" />
<glyph unicode="&#xf8;" horiz-adv-x="1150" d="M70 481q0 220 139.5 359t365.5 139q120 0 220 -41l49 76h157l-94 -144q84 -66 129 -166.5t45 -222.5q0 -219 -139 -356t-367 -137q-117 0 -215 39l-55 -84h-160l99 151q-84 67 -129 166t-45 221zM324 481q0 -110 51 -186l301 459q-44 20 -101 20q-114 0 -182.5 -81.5 t-68.5 -211.5zM479 211q43 -18 96 -18q115 0 183.5 79.5t68.5 208.5q0 111 -51 187z" />
<glyph unicode="&#xf9;" horiz-adv-x="1138" d="M115 373v594h250v-559q0 -96 48 -151.5t138 -55.5q68 0 118.5 41.5t73.5 100t23 122.5v502h250v-967l-197 -8q-11 47 -19.5 109.5t-8.5 86.5h-5q-87 -200 -307 -200q-173 0 -268.5 106.5t-95.5 278.5zM252 1438h309l119 -326l-225 -10z" />
<glyph unicode="&#xfa;" horiz-adv-x="1138" d="M115 373v594h250v-559q0 -96 48 -151.5t138 -55.5q68 0 118.5 41.5t73.5 100t23 122.5v502h250v-967l-197 -8q-11 47 -19.5 109.5t-8.5 86.5h-5q-87 -200 -307 -200q-173 0 -268.5 106.5t-95.5 278.5zM418 1102l119 336h305l-201 -326z" />
<glyph unicode="&#xfb;" horiz-adv-x="1138" d="M115 373v594h250v-559q0 -96 48 -151.5t138 -55.5q68 0 118.5 41.5t73.5 100t23 122.5v502h250v-967l-197 -8q-11 47 -19.5 109.5t-8.5 86.5h-5q-87 -200 -307 -200q-173 0 -268.5 106.5t-95.5 278.5zM240 1102l194 334h266l195 -334l-197 6l-131 162l-131 -162z" />
<glyph unicode="&#xfc;" horiz-adv-x="1138" d="M115 373v594h250v-559q0 -96 48 -151.5t138 -55.5q68 0 118.5 41.5t73.5 100t23 122.5v502h250v-967l-197 -8q-11 47 -19.5 109.5t-8.5 86.5h-5q-87 -200 -307 -200q-173 0 -268.5 106.5t-95.5 278.5zM236 1272q0 54 39 93.5t94 39.5q54 0 91.5 -39.5t37.5 -93.5 q0 -55 -37.5 -93t-91.5 -38q-56 0 -94.5 38t-38.5 93zM649 1272q0 54 38.5 93.5t92.5 39.5q55 0 93 -39t38 -94q0 -56 -37.5 -93.5t-93.5 -37.5q-54 0 -92.5 38t-38.5 93z" />
<glyph unicode="&#xfd;" horiz-adv-x="1071" d="M27 967h270l219 -605q21 -58 31 -122h4q12 59 33 122l215 605h252l-426 -1108q-108 -287 -371 -287q-46 0 -89 9t-63 17l-20 9l39 194q51 -26 112 -26q65 0 104 31.5t66 93.5l27 63zM387 1102l119 336h305l-201 -326z" />
<glyph unicode="&#xfe;" horiz-adv-x="1198" d="M123 -418v1385h2v467h242l2 -623h2q98 168 315 168q197 0 317.5 -138.5t120.5 -359.5q0 -227 -126 -360t-326 -133q-101 0 -177.5 39.5t-121.5 105.5v-551h-250zM373 455q0 -99 69 -178.5t189 -79.5q109 0 174 77.5t65 206.5q0 131 -67 210t-180 79q-112 0 -181 -79 t-69 -179v-57z" />
<glyph unicode="&#xff;" horiz-adv-x="1071" d="M27 967h270l219 -605q21 -58 31 -122h4q12 59 33 122l215 605h252l-426 -1108q-108 -287 -371 -287q-46 0 -89 9t-63 17l-20 9l39 194q51 -26 112 -26q65 0 104 31.5t66 93.5l27 63zM205 1272q0 54 39 93.5t94 39.5q54 0 91.5 -39.5t37.5 -93.5q0 -55 -37.5 -93 t-91.5 -38q-56 0 -94.5 38t-38.5 93zM618 1272q0 54 39 93.5t93 39.5q55 0 93 -39t38 -94q0 -56 -37.5 -93.5t-93.5 -37.5q-54 0 -93 38t-39 93z" />
<glyph unicode="&#x152;" horiz-adv-x="2107" d="M84 676q0 314 180.5 502t468.5 188q238 0 400 -125v111h878v-213h-620v-344h542v-205h-542v-377h620v-213h-878v113q-162 -125 -400 -125q-141 0 -261 48.5t-205.5 136.5t-134 217.5t-48.5 285.5zM344 676q0 -213 108.5 -339t280.5 -126q173 0 282 126t109 339 q0 215 -109 340t-282 125q-172 0 -280.5 -125.5t-108.5 -339.5z" />
<glyph unicode="&#x153;" horiz-adv-x="1837" d="M70 481q0 220 139.5 359t365.5 139q240 0 379 -152q136 152 367 152q207 0 325.5 -127t118.5 -328q0 -27 -2.5 -52t-4.5 -36l-3 -12h-672q18 -111 92.5 -176.5t198.5 -65.5q160 0 256 115l127 -137q-59 -77 -164.5 -124.5t-244.5 -47.5q-254 0 -392 151 q-142 -151 -381 -151q-226 0 -365.5 137t-139.5 356zM324 481q0 -129 68.5 -208.5t182.5 -79.5q115 0 183.5 79.5t68.5 208.5q0 130 -69 211.5t-183 81.5t-182.5 -81.5t-68.5 -211.5zM1083 565h447q-2 97 -58.5 158t-150.5 61t-157.5 -58.5t-80.5 -160.5z" />
<glyph unicode="&#x178;" horiz-adv-x="1210" d="M12 1352h279l250 -480q54 -103 65 -167h6q10 61 66 167l246 480h270l-459 -860v-492h-258v483zM283 1567q0 53 37.5 91t91.5 38q52 0 89.5 -38t37.5 -91q0 -54 -37 -91.5t-90 -37.5q-54 0 -91.5 37.5t-37.5 91.5zM694 1567q0 53 38 91t91 38q54 0 91.5 -38t37.5 -91 q0 -54 -37.5 -91.5t-91.5 -37.5q-53 0 -91 37.5t-38 91.5z" />
<glyph unicode="&#x2c6;" horiz-adv-x="763" d="M51 1102l195 334h266l195 -334l-197 6l-131 162l-131 -162z" />
<glyph unicode="&#x2dc;" horiz-adv-x="876" d="M63 1196q0 83 58.5 143t152.5 60q49 0 98.5 -16.5t81 -37t64.5 -37t53 -16.5q54 0 54 64q0 16 -2.5 32.5t-4.5 24.5l-2 8h172q9 -39 9 -96q0 -85 -55 -143t-154 -58q-42 0 -86.5 17t-75.5 37.5t-64.5 37.5t-54.5 17q-30 0 -49.5 -18t-19.5 -54q0 -14 2.5 -28.5t5.5 -22.5 l2 -8h-172q-13 41 -13 94z" />
<glyph unicode="&#x2000;" horiz-adv-x="877" />
<glyph unicode="&#x2001;" horiz-adv-x="1755" />
<glyph unicode="&#x2002;" horiz-adv-x="877" />
<glyph unicode="&#x2003;" horiz-adv-x="1755" />
<glyph unicode="&#x2004;" horiz-adv-x="585" />
<glyph unicode="&#x2005;" horiz-adv-x="438" />
<glyph unicode="&#x2006;" horiz-adv-x="292" />
<glyph unicode="&#x2007;" horiz-adv-x="292" />
<glyph unicode="&#x2008;" horiz-adv-x="219" />
<glyph unicode="&#x2009;" horiz-adv-x="351" />
<glyph unicode="&#x200a;" horiz-adv-x="97" />
<glyph unicode="&#x2010;" horiz-adv-x="792" d="M113 575v175h567v-175h-567z" />
<glyph unicode="&#x2011;" horiz-adv-x="792" d="M113 575v175h567v-175h-567z" />
<glyph unicode="&#x2012;" horiz-adv-x="792" d="M113 575v175h567v-175h-567z" />
<glyph unicode="&#x2013;" horiz-adv-x="966" d="M98 469v176h770v-176h-770z" />
<glyph unicode="&#x2014;" horiz-adv-x="1490" d="M98 469v176h1293v-176h-1293z" />
<glyph unicode="&#x2018;" horiz-adv-x="495" d="M78 944q0 84 24.5 158t59.5 120t69.5 79.5t58.5 48.5l25 14l91 -115l-16.5 -11t-37 -29.5t-47 -46t-37 -58.5t-16.5 -68q65 0 108 -39t43 -100q0 -65 -41.5 -104t-111.5 -39q-73 0 -122.5 49.5t-49.5 140.5z" />
<glyph unicode="&#x2019;" horiz-adv-x="489" d="M92 870l16.5 11t37 29.5t47 46t37 58.5t16.5 68q-65 0 -108.5 39.5t-43.5 100.5q0 65 42 104t112 39q73 0 122.5 -49.5t49.5 -140.5q0 -84 -24.5 -158t-59.5 -120t-70 -79.5t-60 -48.5l-24 -14z" />
<glyph unicode="&#x201a;" horiz-adv-x="503" d="M86 -225l16.5 11t37 29.5t47 46t37 58.5t16.5 68q-65 0 -108.5 39t-43.5 100q0 65 42 104t112 39q73 0 122.5 -49.5t49.5 -140.5q0 -84 -24.5 -158t-59.5 -120t-70 -79.5t-60 -48.5l-24 -14z" />
<glyph unicode="&#x201c;" horiz-adv-x="886" d="M78 948q0 84 24.5 158t59.5 120t69.5 79.5t58.5 48.5l25 14l91 -115l-16.5 -11t-37 -29.5t-47 -46t-37 -58.5t-16.5 -68q65 0 108 -39t43 -100q0 -65 -41.5 -104t-111.5 -39q-73 0 -122.5 49.5t-49.5 140.5zM469 948q0 84 24.5 158t59.5 120t70 79.5t59 48.5l25 14 l90 -115l-16.5 -11t-37 -29.5t-47 -46t-37 -58.5t-16.5 -68q65 0 108.5 -39t43.5 -100q0 -65 -42 -104t-112 -39q-73 0 -122.5 49.5t-49.5 140.5z" />
<glyph unicode="&#x201d;" horiz-adv-x="880" d="M90 870l16.5 11t37.5 29.5t47.5 46t37.5 58.5t17 68q-65 0 -109.5 40t-44.5 102q0 63 42.5 102t111.5 39q73 0 122.5 -49.5t49.5 -140.5q0 -84 -24.5 -158t-59 -120t-69 -79.5t-59.5 -48.5l-24 -14zM483 870l16.5 11t37 29.5t47 46t37 58.5t16.5 68q-65 0 -108.5 40 t-43.5 102q0 63 41.5 102t110.5 39q74 0 123 -49.5t49 -140.5q0 -84 -24.5 -158t-59 -120t-69 -79.5t-58.5 -48.5l-25 -14z" />
<glyph unicode="&#x201e;" horiz-adv-x="903" d="M86 -225l16.5 11t37 29.5t47 46t37 58.5t16.5 68q-65 0 -108.5 39t-43.5 100q0 65 42 104t112 39q73 0 122.5 -49.5t49.5 -140.5q0 -84 -24.5 -158t-59.5 -120t-70 -79.5t-60 -48.5l-24 -14zM485 -225l16.5 11t37 29.5t47 46t37 58.5t16.5 68q-65 0 -108.5 39t-43.5 100 q0 65 42 104t112 39q73 0 122.5 -49.5t49.5 -140.5q0 -84 -24.5 -158t-59.5 -120t-70 -79.5t-59 -48.5l-25 -14z" />
<glyph unicode="&#x2022;" horiz-adv-x="763" d="M133 592q0 104 72.5 178t175.5 74t176.5 -74t73.5 -178q0 -103 -73.5 -175.5t-176.5 -72.5t-175.5 72.5t-72.5 175.5z" />
<glyph unicode="&#x2026;" horiz-adv-x="1302" d="M88 133q0 62 43.5 106t104.5 44t104 -44t43 -106q0 -60 -43 -102.5t-104 -42.5t-104.5 42.5t-43.5 102.5zM504 133q0 62 43 106t104 44t104.5 -44t43.5 -106q0 -60 -43.5 -102.5t-104.5 -42.5t-104 42.5t-43 102.5zM920 133q0 62 43 106t104 44t104 -44t43 -106 q0 -60 -43 -102.5t-104 -42.5t-104 42.5t-43 102.5z" />
<glyph unicode="&#x202f;" horiz-adv-x="351" />
<glyph unicode="&#x2039;" horiz-adv-x="600" d="M78 444v195l319 283l121 -134l-276 -247l276 -246l-121 -135z" />
<glyph unicode="&#x203a;" horiz-adv-x="600" d="M82 295l276 246l-276 247l121 134l319 -283v-195l-319 -284z" />
<glyph unicode="&#x205f;" horiz-adv-x="438" />
<glyph unicode="&#x20ac;" horiz-adv-x="1478" d="M63 457l35 153h156q-2 20 -2 66q0 43 2 63h-191l35 154h178q57 223 221.5 348t393.5 125q85 0 163 -18.5t132.5 -46t101.5 -63t73 -64.5t44 -56l-154 -157q-53 74 -142 127t-208 53q-112 0 -208.5 -62t-143.5 -186h514l-33 -154h-514q-2 -20 -2 -63q0 -46 2 -66h490 l-35 -153h-420q47 -122 141 -184t203 -62q121 0 212.5 53t143.5 127l154 -160q-23 -35 -61.5 -71.5t-101 -78.5t-155 -68.5t-198.5 -26.5q-227 0 -390 125t-220 346h-216z" />
<glyph unicode="&#x2122;" horiz-adv-x="1462" d="M63 1217v135h531v-135h-186v-433h-158v433h-187zM664 784v568h170l163 -371l168 371h166v-568h-145l2 312l-139 -312h-107l-135 312l2 -312h-145z" />
<glyph unicode="&#x25fc;" horiz-adv-x="962" d="M0 0v963h963v-963h-963z" />
</font>
</defs>
</svg>
