<?xml version="1.0" standalone="no"?>
<!DOCTYPE svg PUBLIC "-//W3C//DTD SVG 1.1//EN" "http://www.w3.org/Graphics/SVG/1.1/DTD/svg11.dtd" >
<svg xmlns="http://www.w3.org/2000/svg" xmlns:xlink="http://www.w3.org/1999/xlink" version="1.1">
<metadata></metadata>
<defs>
<font id="basic_sanslight_it" horiz-adv-x="1155" >
<font-face units-per-em="2048" ascent="1536" descent="-512" />
<missing-glyph horiz-adv-x="464" />
<glyph unicode="&#xfb01;" horiz-adv-x="1146" d="M184 857l13 102h136l19 151q19 157 116.5 252t236.5 95q51 0 97.5 -13.5t67 -25.5t31.5 -21l-59 -98q-1 1 -8 6.5t-12 9t-15 9.5t-20.5 10t-23.5 8.5t-29 6.5t-33 2q-90 0 -150.5 -65t-74.5 -173l-20 -154h484l125 4l-102 -806q-8 -56 41 -56q17 0 33 4l-6 -106 q-34 -10 -80 -10q-65 0 -95 35.5t-21 103.5l92 729h-483l-107 -857h-123l107 857h-137zM949 1264q0 43 32.5 73.5t74.5 30.5q37 0 61.5 -24.5t24.5 -60.5q0 -44 -32.5 -74t-77.5 -30q-35 0 -59 24t-24 61z" />
<glyph unicode="&#xfb02;" horiz-adv-x="1126" d="M184 857l13 102h136l19 151q19 157 116.5 252t236.5 95q51 0 97.5 -13.5t67 -25.5t31.5 -21l-59 -98q-1 1 -8 6.5t-12 9t-15 9.5t-20.5 10t-23.5 8.5t-29 6.5t-33 2q-90 0 -150.5 -65t-74.5 -173l-20 -154h334l-13 -102h-333l-107 -857h-123l107 857h-137zM849 0 l182 1446h123l-181 -1446h-124z" />
<glyph horiz-adv-x="0" />
<glyph horiz-adv-x="682" />
<glyph unicode=" "  horiz-adv-x="464" />
<glyph unicode="&#x09;" horiz-adv-x="464" />
<glyph unicode="&#xa0;" horiz-adv-x="464" />
<glyph unicode="!" horiz-adv-x="466" d="M157 63q0 39 27 67.5t62 28.5q33 0 55.5 -25t22.5 -61q0 -38 -27 -66t-63 -28q-32 0 -54.5 24.5t-22.5 59.5zM228 380l109 984h137l-140 -979z" />
<glyph unicode="&#x22;" horiz-adv-x="538" d="M267 1113l36 333h95l-47 -333h-84zM468 1113l36 333h95l-48 -333h-83z" />
<glyph unicode="#" horiz-adv-x="1247" d="M111 290l32 89h257l85 251h-256l32 89h253l96 286h105l-95 -286h273l95 286h109l-95 -286h262l-31 -89h-261l-84 -251h258l-31 -89h-257l-96 -290h-108l97 290h-273l-97 -290h-107l97 290h-260zM507 379h273l84 251h-273z" />
<glyph unicode="$" horiz-adv-x="1110" d="M86 146l92 99q143 -143 368 -143q158 0 253 72.5t95 192.5q0 70 -36 120t-93.5 79.5t-127 53t-139 49.5t-127 60t-93.5 94t-36 142q0 164 115.5 270.5t299.5 118.5l23 191h98l-24 -191q75 -7 134.5 -32.5t94 -57t60 -74t35.5 -73.5t16 -65l-126 -30q-2 30 -17.5 64.5 t-46 71.5t-87.5 61t-131 24q-136 0 -224.5 -72.5t-88.5 -189.5q0 -61 36 -105t93 -70.5t126 -49.5t138.5 -51t126.5 -65.5t93 -102.5t36 -153q0 -169 -119 -274.5t-319 -118.5l-25 -198h-98l25 197q-141 7 -242.5 53t-157.5 103z" />
<glyph unicode="%" horiz-adv-x="1677" d="M184 910q0 194 105.5 317t267.5 123q129 0 204.5 -88t75.5 -236q0 -192 -105 -311.5t-268 -119.5q-129 0 -204.5 85.5t-75.5 229.5zM305 923q0 -100 46.5 -159.5t125.5 -59.5q106 0 173 86.5t67 225.5q0 103 -46 163.5t-127 60.5q-102 0 -170.5 -89.5t-68.5 -227.5z M497 0l751 1356h119l-750 -1356h-120zM1005 309q0 194 105.5 316.5t267.5 122.5q130 0 205 -88t75 -236q0 -192 -105 -311.5t-268 -119.5q-129 0 -204.5 85.5t-75.5 230.5zM1126 321q0 -101 46 -160t126 -59q104 0 171.5 86t67.5 224q0 104 -46 165t-126 61q-103 0 -171 -89 t-68 -228z" />
<glyph unicode="&#x26;" horiz-adv-x="1169" d="M134 320q0 79 25 144t71.5 111.5t101.5 79.5t127 59q-96 136 -96 267q0 156 106.5 259t262.5 103q125 0 196 -72t71 -188q0 -140 -93.5 -233.5t-276.5 -163.5l290 -417q112 132 141 368l108 -37q-33 -261 -186 -422l94 -136l-102 -68l-86 124q-157 -106 -372 -106 q-175 0 -278.5 90.5t-103.5 237.5zM266 343q0 -105 72 -170.5t193 -65.5q174 0 296 80l-314 453l-1 1q-119 -45 -182.5 -116t-63.5 -182zM485 997q0 -108 93 -240q176 69 240 135t64 172q0 81 -43.5 128.5t-120.5 47.5q-100 0 -166.5 -68.5t-66.5 -174.5z" />
<glyph unicode="'" horiz-adv-x="335" d="M267 1113l36 333h95l-47 -333h-84z" />
<glyph unicode="(" horiz-adv-x="536" d="M149 306q0 153 23.5 300t61 260t83 213.5t91 170t83 121t61.5 75.5l23 25l98 -53q-8 -8 -22.5 -23.5t-56.5 -69.5t-80 -115t-84.5 -159.5t-80 -203.5t-56.5 -246t-23 -288q0 -131 17.5 -255t43 -207.5t51 -148t42.5 -94.5l18 -30l-110 -53q-7 12 -19.5 34t-44 98.5 t-55.5 160.5t-44 217t-20 271z" />
<glyph unicode=")" horiz-adv-x="536" d="M-10 -422q8 8 22.5 24.5t56.5 72t80 118t84.5 163t80 206t56.5 246.5t23 287q0 131 -17.5 254t-43 204.5t-51 144t-43.5 91.5l-17 29l112 53q7 -11 19.5 -32.5t44 -95.5t55.5 -156.5t43.5 -214t19.5 -269.5q0 -152 -23.5 -299.5t-61 -261t-83 -216t-91 -174t-83 -124.5 t-61.5 -78l-23 -26z" />
<glyph unicode="*" horiz-adv-x="817" d="M229 1093l22 78l248 -54l-75 245l75 33l61 -258l191 233l57 -51l-207 -217l263 -34l-19 -78l-260 52l82 -251l-77 -35l-65 259l-184 -219l-58 49l203 212z" />
<glyph unicode="+" horiz-adv-x="872" d="M147 460l11 95h299l39 311h99l-39 -311h297l-12 -95h-297l-45 -350h-98l44 350h-298z" />
<glyph unicode="," horiz-adv-x="438" d="M71 -213q5 4 13.5 10.5t31 28t41 44t35.5 55t21 63.5q-38 0 -62 21.5t-24 55.5q0 45 29.5 72.5t77.5 27.5q43 0 68.5 -29t25.5 -78q0 -61 -21 -119t-51 -97t-60.5 -69.5t-51.5 -44.5l-21 -15z" />
<glyph unicode="-" horiz-adv-x="763" d="M209 617l12 97h501l-12 -97h-501z" />
<glyph unicode="." horiz-adv-x="417" d="M126 71q0 42 31.5 73t73.5 31q34 0 57 -24.5t23 -59.5q0 -42 -31.5 -72.5t-72.5 -30.5q-35 0 -58 24t-23 59z" />
<glyph unicode="/" horiz-adv-x="778" d="M4 -418l776 1864h123l-775 -1864h-124z" />
<glyph unicode="0" horiz-adv-x="1193" d="M183 522q0 388 155 611t427 223q200 0 306.5 -139t106.5 -404q0 -385 -156 -605t-430 -220q-198 0 -303.5 136.5t-105.5 397.5zM314 531q0 -211 75.5 -320.5t216.5 -109.5q205 0 323 187t118 514q0 215 -77 327.5t-220 112.5q-203 0 -319.5 -191.5t-116.5 -519.5z" />
<glyph unicode="1" horiz-adv-x="679" d="M185 1113l15 123l451 108h19l-168 -1344h-129l151 1204z" />
<glyph unicode="2" horiz-adv-x="1054" d="M104 0l12 107q43 30 127 84.5t138 90t132 93t129 103t109 108t91.5 121t56 129.5t22.5 144q0 121 -67.5 192t-189.5 71q-135 0 -223.5 -77t-88.5 -197q0 -22 4 -42l-128 -21q-4 8 -4 51q0 175 128.5 287t325.5 112q176 0 275.5 -97.5t99.5 -262.5q0 -104 -41.5 -207 t-103 -184.5t-154 -166.5t-172 -143.5t-179.5 -124.5q-46 -31 -99 -59l2 -6q32 5 95 5h575l-13 -110h-859z" />
<glyph unicode="3" horiz-adv-x="1085" d="M107 230l110 62q3 -8 10.5 -20.5t35 -45.5t61.5 -58t93 -45.5t127 -20.5q153 0 248 75t103 201q8 116 -75 175t-242 64l-69 2l15 115l68 3q153 5 247 74.5t94 195.5q0 105 -68 170.5t-182 65.5q-132 0 -217 -71t-85 -179q0 -30 4 -40l-128 -20q-4 8 -4 49 q0 163 125 268.5t320 105.5q169 0 267.5 -89.5t98.5 -238.5q0 -99 -50 -180.5t-123.5 -123.5t-149.5 -42l-1 -3q39 0 78 -10.5t77 -34t67 -56t46.5 -81.5t17.5 -106q0 -175 -136.5 -288.5t-359.5 -113.5q-71 0 -132.5 13.5t-103.5 34.5t-76 47t-54 51.5t-33.5 46.5t-18.5 34 z" />
<glyph unicode="4" horiz-adv-x="1110" d="M92 332l14 110l740 902h175l-113 -902h197l-14 -110h-197l-41 -332h-126l41 332h-676zM242 446l2 -6q16 2 98 2h438l87 686q7 71 16 92l-5 3q-16 -24 -64 -88l-488 -587q-8 -10 -28.5 -36t-34.5 -43t-21 -23z" />
<glyph unicode="5" horiz-adv-x="1069" d="M106 212l113 71q3 -7 10 -19.5t34 -43.5t59 -55t87.5 -43.5t118.5 -19.5q164 0 272.5 104t108.5 269q0 129 -75.5 207t-203.5 78q-50 0 -97 -11.5t-78.5 -28t-56 -32.5t-36.5 -28l-11 -11h-127l143 695h700l-13 -110h-589l-101 -463l6 -3q42 43 121 74.5t172 31.5 q173 0 275 -105.5t102 -279.5q0 -222 -148.5 -361t-377.5 -139q-63 0 -119 12.5t-96 32t-74 43t-55.5 47.5t-36.5 43.5t-21 32.5z" />
<glyph unicode="6" horiz-adv-x="1124" d="M180 527q0 186 47.5 342t131 262.5t198 165.5t247.5 59q227 0 337 -152l-85 -83q-9 14 -24 30t-45.5 39t-80.5 38t-109 15q-202 0 -339.5 -180.5t-149.5 -487.5l11 -2q12 46 44 93t81 89.5t123 69t159 26.5q163 0 262 -100t99 -265q0 -218 -140 -357.5t-355 -139.5 q-191 0 -301.5 140t-110.5 398zM314 415q18 -153 91 -233t199 -80q153 0 253.5 104.5t100.5 265.5q0 121 -73 193t-198 72q-144 0 -247 -91.5t-126 -230.5z" />
<glyph unicode="7" horiz-adv-x="964" d="M196 1039l39 305h851l-13 -110l-667 -1234h-133l622 1136q47 84 56 96l-1 5q-30 -3 -113 -3h-501l-25 -195h-115z" />
<glyph unicode="8" horiz-adv-x="1148" d="M144 334q0 142 80 241.5t224 139.5v3q-71 25 -112 92.5t-41 158.5q0 170 127 278.5t323 108.5q166 0 265 -86t99 -224q0 -116 -63 -206.5t-164 -121.5v-3q104 -31 160.5 -108.5t56.5 -187.5q0 -191 -147 -310.5t-378 -119.5q-196 0 -313 95t-117 250zM277 357 q0 -114 84.5 -184.5t226.5 -70.5q168 0 274.5 88.5t106.5 228.5q0 111 -82.5 173.5t-229.5 62.5q-173 0 -276.5 -80t-103.5 -218zM425 980q0 -96 66 -154t180 -56q135 -2 221 73t86 192q0 96 -67.5 152.5t-180.5 56.5q-134 0 -219.5 -72t-85.5 -192z" />
<glyph unicode="9" horiz-adv-x="1122" d="M155 141l86 82q10 -15 24.5 -30t45 -39t80 -38.5t108.5 -14.5q200 0 334.5 180.5t145.5 485.5l-9 2q-12 -46 -43.5 -92t-80.5 -88t-123 -68.5t-159 -26.5q-163 0 -262 100t-99 265q0 218 140 357.5t355 139.5q191 0 301 -140t110 -399q0 -374 -171.5 -601t-444.5 -227 q-227 0 -338 152zM332 873q0 -120 73.5 -193.5t197.5 -73.5q143 0 245 90.5t126 229.5q-36 317 -289 317q-150 0 -251.5 -105t-101.5 -265z" />
<glyph unicode=":" horiz-adv-x="448" d="M142 71q0 42 31.5 73t73.5 31q33 0 56.5 -25t23.5 -60q0 -41 -31.5 -71.5t-72.5 -30.5q-35 0 -58 24t-23 59zM241 865q0 42 31.5 73t73.5 31q34 0 57 -24.5t23 -59.5q0 -42 -31.5 -72.5t-72.5 -30.5q-35 0 -58 24t-23 59z" />
<glyph unicode=";" horiz-adv-x="493" d="M103 -213q5 4 13.5 10.5t31 28t41 44t35.5 55t21 63.5q-38 0 -62 21.5t-24 55.5q0 45 29.5 72.5t77.5 27.5q43 0 68 -29t25 -78q0 -61 -21 -119t-51 -97t-60 -69.5t-51 -44.5l-21 -15zM268 865q0 42 32 73t74 31q34 0 57 -24.5t23 -59.5q0 -41 -32 -72t-73 -31 q-35 0 -58 24t-23 59z" />
<glyph unicode="&#x3c;" horiz-adv-x="784" d="M131 510l13 103l654 408l-14 -113l-537 -347l449 -346l-13 -113z" />
<glyph unicode="=" horiz-adv-x="1026" d="M173 271l11 94h748l-12 -94h-747zM222 661l12 95h748l-12 -95h-748z" />
<glyph unicode="&#x3e;" horiz-adv-x="782" d="M126 102l13 113l539 346l-451 347l14 113l552 -408l-13 -103z" />
<glyph unicode="?" horiz-adv-x="890" d="M198 1033q0 155 115 258.5t291 103.5q161 0 255.5 -88t94.5 -232q0 -70 -22.5 -130t-58.5 -103.5t-80.5 -83t-90 -78t-85 -78.5t-68 -94t-35.5 -116q0 -4 -1 -10t-2 -10l-116 -4q0 8 3 26q11 73 40 135t67.5 105t82 82t85 74.5t76 73t55 86.5t20.5 107q0 100 -64 163.5 t-169 63.5q-115 0 -191 -70.5t-76 -173.5q0 -20 3 -38l-126 -21q-3 23 -3 52zM323 60q0 40 31 69.5t70 29.5q33 0 55.5 -24t22.5 -57q0 -40 -30.5 -69.5t-70.5 -29.5q-33 0 -55.5 24t-22.5 57z" />
<glyph unicode="@" horiz-adv-x="1691" d="M153 388q0 196 67 365.5t183 287.5t278 185t347 67q292 0 463.5 -170.5t171.5 -449.5q0 -133 -34 -245t-89.5 -184.5t-126.5 -112.5t-146 -40q-85 0 -129.5 49.5t-34.5 136.5l2 18q-42 -92 -121.5 -148.5t-187.5 -56.5q-137 0 -216 95t-79 253q0 209 116 340.5t289 131.5 q93 0 155 -43t88 -115l19 145h121l-76 -607q-8 -59 18.5 -91t77.5 -32q112 0 204 142t92 358q0 259 -157 416.5t-426 157.5q-171 0 -321 -62.5t-258 -173t-170 -269t-62 -342.5q0 -282 167.5 -455.5t449.5 -173.5q76 0 147.5 11.5t125 30t100.5 41t79.5 44.5t55.5 40.5 t36 30.5l12 12l29 -42l-13 -13q-14 -13 -38.5 -32t-60 -42.5t-85 -47t-107 -43t-133.5 -31.5t-156 -12q-202 0 -354 85.5t-232.5 238.5t-80.5 352zM627 452q0 -116 56 -186.5t152 -70.5q74 0 136 41.5t96.5 99.5t44.5 119l12 97q3 61 -17.5 117t-72 96t-125.5 40 q-122 0 -202 -99.5t-80 -253.5z" />
<glyph unicode="A" horiz-adv-x="1179" d="M40 0l651 1344h132l317 -1344h-133l-84 365h-575l-175 -365h-133zM399 473h499l-141 613q-9 37 -18 102h-4q-14 -43 -41 -102z" />
<glyph unicode="B" horiz-adv-x="1187" d="M180 0l168 1344h432q180 0 278.5 -79t98.5 -228q0 -83 -27 -147.5t-70 -100.5t-81.5 -54.5t-75.5 -25.5v-4q39 -7 76 -25.5t74 -51.5t59.5 -89.5t22.5 -129.5q0 -193 -126.5 -301t-359.5 -108h-469zM322 110h324q167 0 263 75.5t96 221.5q0 116 -75 178.5t-205 62.5h-335 zM402 747h325q140 0 219 77t79 194q0 216 -275 216h-287z" />
<glyph unicode="C" horiz-adv-x="1236" d="M183 566q0 176 51.5 324.5t141 250t211.5 158.5t260 57q102 0 181.5 -31t125 -78t74 -106t36.5 -113q5 -34 6 -64q0 -18 -2 -36l-124 -21q1 12 1 25q1 24 -3 50q-6 40 -26 87.5t-53.5 85t-93 63t-136.5 25.5q-105 0 -199.5 -46.5t-166 -130.5t-113.5 -211t-42 -277 q0 -231 112.5 -353.5t294.5 -122.5q69 0 134.5 20t116 54t86 66.5t64.5 67.5l70 -79q-21 -25 -44 -49t-70.5 -61.5t-98.5 -64.5t-124.5 -47t-150.5 -20q-241 0 -380 153t-139 424z" />
<glyph unicode="D" horiz-adv-x="1286" d="M180 0l168 1344h352q272 0 421.5 -151t149.5 -420q0 -366 -181 -569.5t-488 -203.5h-422zM321 110h290q240 0 385.5 173.5t145.5 480.5q0 228 -120 349t-339 121h-220z" />
<glyph unicode="E" horiz-adv-x="1058" d="M180 0l168 1344h776l-13 -110h-648l-61 -480h583l-14 -110h-583l-67 -534h648l-14 -110h-775z" />
<glyph unicode="F" horiz-adv-x="987" d="M180 0l168 1344h753l-13 -110h-625l-62 -490h541l-14 -112h-541l-79 -632h-128z" />
<glyph unicode="G" horiz-adv-x="1282" d="M183 564q0 230 87 412t237 281t334 99q103 0 183 -29.5t126.5 -75t75 -103t36.5 -108.5q6 -36 6 -68q0 -16 -1 -31l-124 -22q2 15 2 31q0 21 -3 42q-5 40 -26 85.5t-55 81.5t-95 60t-139 24q-104 0 -198 -47.5t-164 -132t-111.5 -211t-41.5 -275.5q0 -217 100.5 -346 t277.5 -129q91 0 168 30.5t126.5 81t80.5 108t40 117.5l12 96h-447l12 108h555l-80 -643h-79q-3 30 -3 73q0 56 5 133q-64 -103 -172 -160t-249 -57q-221 0 -348.5 157t-127.5 418z" />
<glyph unicode="H" horiz-adv-x="1370" d="M180 0l168 1344h128l-74 -590h756l74 590h128l-169 -1344h-128l81 644h-755l-81 -644h-128z" />
<glyph unicode="I" horiz-adv-x="487" d="M180 0l168 1344h128l-168 -1344h-128z" />
<glyph unicode="J" horiz-adv-x="870" d="M34 122l92 96q93 -116 219 -116q238 0 271 260l123 982h128l-121 -973q-24 -192 -133.5 -287t-281.5 -95q-183 0 -297 133z" />
<glyph unicode="K" horiz-adv-x="1247" d="M180 0l168 1344h129l-80 -638h225q54 0 108 18t113 63.5t107.5 115.5t88 183.5t57.5 257.5h129q-70 -543 -420 -689q47 -21 85 -72.5t60.5 -112t47.5 -127.5t48 -121t60.5 -89t85.5 -35h52l-11 -97q-1 0 -14.5 -1t-33.5 -2.5t-39 -1.5q-67 0 -117 33.5t-80.5 86.5 t-54.5 117.5t-47 128.5t-50.5 117t-72.5 86.5t-106 33.5h-234l-75 -599h-129z" />
<glyph unicode="L" horiz-adv-x="993" d="M180 0l168 1344h128l-155 -1234h660l-12 -110h-789z" />
<glyph unicode="M" horiz-adv-x="1609" d="M180 0l168 1344h146l297 -1021q28 -93 37 -146h4q12 30 75 146l551 1021h140l-168 -1344h-128l127 982q12 107 20 135l-4 2q-38 -93 -54 -122l-541 -1001h-82l-300 1009q-13 45 -21 114l-8 -2v-10q0 -33 -9 -125l-122 -982h-128z" />
<glyph unicode="N" horiz-adv-x="1339" d="M180 0l168 1344h146l475 -982q9 -19 85 -197l9 5q4 90 15 184l122 990h129l-169 -1344h-146l-475 975q-33 69 -87 199l-9 -5q1 -8 1 -23q0 -45 -13 -159l-122 -987h-129z" />
<glyph unicode="O" horiz-adv-x="1386" d="M182 570q0 176 53.5 325t145.5 249t216.5 156t265.5 56q232 0 371.5 -156.5t139.5 -424.5q0 -176 -53 -325t-145 -249t-217 -156t-267 -56q-230 0 -370 156.5t-140 424.5zM311 583q0 -220 108.5 -350.5t286.5 -130.5q111 0 210 47.5t171.5 132.5t115 209.5t42.5 271.5 q0 220 -108.5 350t-287.5 130q-110 0 -208.5 -47.5t-171.5 -132t-115.5 -209t-42.5 -271.5z" />
<glyph unicode="P" horiz-adv-x="1132" d="M180 0l168 1344h405q202 0 314 -101t112 -280q0 -227 -142 -360.5t-380 -133.5h-290l-59 -469h-128zM381 579h272q182 0 289 99.5t107 268.5q0 134 -83.5 210.5t-233.5 76.5h-269z" />
<glyph unicode="Q" horiz-adv-x="1458" d="M182 570q0 176 53.5 325t145.5 249t216.5 156t265.5 56q232 0 371.5 -156.5t139.5 -424.5q0 -304 -147.5 -509.5t-383.5 -259.5q189 -56 377 -70l-40 -104q-282 27 -531 159q-213 15 -340 169.5t-127 409.5zM311 583q0 -220 108.5 -350.5t286.5 -130.5q111 0 210 47.5 t171.5 132.5t115 209.5t42.5 271.5q0 220 -108.5 350t-287.5 130q-110 0 -208.5 -47.5t-171.5 -132t-115.5 -209t-42.5 -271.5z" />
<glyph unicode="R" horiz-adv-x="1159" d="M180 0l168 1344h377q192 0 297 -90t105 -262q0 -171 -98.5 -285t-263.5 -155q49 -21 85.5 -77t58 -118.5t44 -123t59.5 -100t89 -39.5l32 4l-2 -102q-35 -7 -78 -7q-67 0 -114 30t-73 77.5t-46 105.5t-41.5 116t-49.5 105.5t-78.5 77.5t-121.5 30h-155l-66 -531h-128z M387 634h227q165 0 274.5 91t109.5 250q0 123 -76.5 191t-215.5 68h-243z" />
<glyph unicode="S" horiz-adv-x="1077" d="M89 146l93 99q143 -143 367 -143q158 0 253 72.5t95 192.5q0 70 -36 120t-93.5 79.5t-127 53t-139 49.5t-127 60t-93.5 94t-36 142q0 174 128.5 282.5t329.5 108.5q88 0 157.5 -23t110 -55t69.5 -77.5t40 -79t18 -69.5l-127 -30q-2 30 -17.5 64.5t-46 71.5t-87.5 61 t-131 24q-136 0 -224 -72.5t-88 -189.5q0 -54 28 -95t73.5 -65t103.5 -47.5t119 -42t119 -48t103.5 -65.5t73.5 -96.5t28 -137.5q0 -180 -134.5 -287.5t-355.5 -107.5q-158 0 -271 47.5t-175 109.5z" />
<glyph unicode="T" horiz-adv-x="1038" d="M181 1234l13 110h986l-12 -110h-431l-155 -1234h-128l155 1234h-428z" />
<glyph unicode="U" horiz-adv-x="1325" d="M233 531l101 813h129l-100 -810q-6 -49 -7 -93q0 -141 65 -227q84 -112 255 -112q170 0 282 112t138 317l102 813h128l-102 -813q-31 -252 -183 -397t-379 -145q-228 0 -344 145q-92 114 -92 295q0 49 7 102z" />
<glyph unicode="V" horiz-adv-x="1165" d="M210 1344h135l240 -1087q10 -48 16 -101h3q15 40 43 101l516 1087h131l-646 -1344h-130z" />
<glyph unicode="W" horiz-adv-x="1740" d="M216 1344h132l145 -1087q4 -29 13 -114h4q21 64 40 114l431 1087h120l158 -1087q1 -10 13 -114h4q19 57 40 114l418 1087h128l-538 -1344h-145l-146 1018q-14 91 -14 149h-3q-28 -91 -50 -149l-407 -1018h-142z" />
<glyph unicode="X" horiz-adv-x="1124" d="M40 0l518 661l-352 683h153l244 -485q39 -88 49 -124h3q19 41 83 125l370 484h146l-525 -682l358 -662h-146l-250 463q-33 64 -53 131h-3q-51 -87 -85 -130l-369 -464h-141z" />
<glyph unicode="Y" horiz-adv-x="1116" d="M207 1344h141l248 -591q33 -83 42 -137h3q18 55 72 137l398 591h133l-556 -830l-64 -514h-129l64 508z" />
<glyph unicode="Z" horiz-adv-x="1077" d="M67 0l14 110l854 1040q36 43 76 83l-2 5q-40 -4 -118 -4h-649l12 110h922l-12 -110l-852 -1040q-16 -19 -80 -83l3 -5q19 4 119 4h656l-13 -110h-930z" />
<glyph unicode="[" horiz-adv-x="575" d="M119 -418l234 1864h341l-14 -109h-219l-207 -1646h218l-13 -109h-340z" />
<glyph unicode="\" horiz-adv-x="776" d="M237 1446h123l308 -1864h-123z" />
<glyph unicode="]" horiz-adv-x="575" d="M11 -418l13 109h218l207 1646h-219l15 109h341l-234 -1864h-341z" />
<glyph unicode="^" horiz-adv-x="708" d="M227 1073l240 397h144l140 -397h-114l-111 297l-184 -297h-115z" />
<glyph unicode="_" horiz-adv-x="681" d="M-28 -226l11 95h683l-11 -95h-683z" />
<glyph unicode="`" horiz-adv-x="499" d="M298 1415h161l83 -293l-110 -8z" />
<glyph unicode="a" d="M146 409q0 246 141.5 403t358.5 157q133 0 215 -70t103 -181h2q15 127 47 241h90l-99 -781q-5 -41 7.5 -59t44.5 -18q16 0 32 4l-5 -105q-18 -9 -77 -9q-66 1 -100 35q-26 27 -26 76q0 15 2 31l11 83h-3q-53 -102 -150 -164.5t-222 -62.5q-170 0 -271 115t-101 305z M274 421q0 -148 74.5 -237t202.5 -89q72 0 136 29.5t108 77t73.5 103.5t41.5 113l6 51l9 54l-2 -3q3 21 3 42q0 37 -8 75q-12 59 -44 110.5t-92 84t-140 32.5q-159 0 -263.5 -124.5t-104.5 -318.5z" />
<glyph unicode="b" horiz-adv-x="1132" d="M150 1l181 1440h123l-84 -680q56 94 149.5 151.5t215.5 57.5q169 0 269 -114.5t100 -305.5q0 -247 -140.5 -403.5t-357.5 -156.5q-135 0 -217 70t-104 180q-8 -97 -46 -239h-89zM327 420q-1 -13 -1 -25q0 -43 11 -87q14 -56 46.5 -104t91 -78t135.5 -30q161 0 264.5 124 t103.5 319q0 148 -74 237t-203 89q-72 0 -136 -29.5t-109 -77t-74.5 -103t-39.5 -111.5z" />
<glyph unicode="c" horiz-adv-x="997" d="M145 408q0 243 147 402t367 159q151 0 239.5 -81t88.5 -208q0 -24 -3.5 -48t-7.5 -36l-4 -12l-116 -9q12 30 12 80q0 93 -59 151t-162 58q-161 0 -267.5 -125.5t-106.5 -320.5q0 -148 77 -235.5t216 -87.5q177 0 298 125l63 -79q-143 -152 -376 -152q-189 0 -297.5 114.5 t-108.5 304.5z" />
<glyph unicode="d" d="M147 409q0 247 141.5 404t357.5 157q117 0 196 -54.5t113 -144.5l84 670h123l-158 -1263q-5 -41 7.5 -59t44.5 -18q16 0 32 4l-5 -105q-18 -9 -77 -9q-66 1 -99 35q-26 27 -26 77q0 14 2 30l11 84h-5q-54 -102 -150 -164.5t-222 -62.5q-169 0 -269.5 114.5t-100.5 304.5z M274 422q0 -148 74.5 -237t202.5 -89q76 0 143.5 32.5t112 83.5t72.5 110t35 116l11 89q2 19 2 38q0 38 -9 77q-14 58 -46 108.5t-92 82.5t-138 32q-159 0 -263.5 -124.5t-104.5 -318.5z" />
<glyph unicode="e" horiz-adv-x="1011" d="M146 408q0 245 144.5 403t359.5 158q161 0 253 -102.5t92 -270.5q0 -36 -5 -71.5t-10 -52.5l-5 -18h-701q-1 -11 -1 -33q0 -149 79.5 -237.5t220.5 -88.5q171 0 284 124l66 -71q-138 -159 -372 -159q-188 0 -296.5 114.5t-108.5 304.5zM286 545h583q3 22 3 56 q0 122 -63 192.5t-171 70.5q-127 0 -224 -87.5t-128 -231.5z" />
<glyph unicode="f" horiz-adv-x="696" d="M184 857l13 102h136l19 151q19 157 116.5 252t236.5 95q51 0 97.5 -13.5t67 -25.5t31.5 -21l-59 -98q-1 1 -8 6.5t-12 9t-15 9.5t-20.5 10t-23.5 8.5t-29 6.5t-33 2q-90 0 -150.5 -65t-74.5 -173l-20 -154h334l-13 -102h-333l-107 -857h-123l107 857h-137z" />
<glyph unicode="g" horiz-adv-x="1132" d="M107 -314l70 100q46 -45 129.5 -77t186.5 -32q154 0 248.5 79t113.5 226l27 217q-57 -96 -150.5 -153t-213.5 -57q-170 0 -271 115t-101 305q0 246 141.5 403t358.5 157q133 0 215 -70t103 -181h2q15 127 47 241h89l-123 -976q-23 -190 -156.5 -300.5t-343.5 -110.5 q-228 0 -372 114zM274 421q0 -148 74.5 -237t203.5 -89q73 0 137.5 30.5t109 79.5t73 105.5t38.5 112.5l15 116q1 13 1 25q0 44 -11 88q-14 55 -46.5 103.5t-91 78.5t-135.5 30q-159 0 -263.5 -124.5t-104.5 -318.5z" />
<glyph unicode="h" horiz-adv-x="1122" d="M150 0l182 1446h121l-88 -698h1q55 98 147.5 159.5t212.5 61.5q162 0 244 -105q65 -83 64 -209q0 -32 -4 -68l-52 -420q-4 -31 10 -48.5t41 -17.5q21 0 35 4l-5 -106q-34 -10 -88 -10q-67 -1 -97 41q-24 33 -25 84q0 13 2 27l54 446q3 26 3 51q0 90 -44 150 q-56 76 -172 76q-70 0 -131.5 -28.5t-104.5 -75.5t-72 -101.5t-40 -111.5l-69 -547h-125z" />
<glyph unicode="i" horiz-adv-x="440" d="M164 128l106 831l125 4l-102 -806q-1 -8 -1 -15q0 -41 42 -41q17 0 33 4l-6 -106q-34 -10 -81 -10q-65 -1 -95 35q-23 27 -23 74q0 14 2 30zM278 1264q0 43 33 73.5t75 30.5q37 0 61.5 -24.5t24.5 -60.5q0 -44 -32.5 -74t-77.5 -30q-36 0 -60 24.5t-24 60.5z" />
<glyph unicode="j" horiz-adv-x="444" d="M-216 -373l48 89q40 -36 116 -36q92 0 141.5 53.5t63.5 166.5l133 1059l125 4l-131 -1042q-43 -347 -335 -347q-32 0 -60 5.5t-45.5 13t-31 15.5t-18.5 14zM295 1264q0 43 32.5 73.5t76.5 30.5q36 0 60.5 -24.5t24.5 -61.5q0 -43 -33 -73t-77 -30q-36 0 -60 24t-24 61z " />
<glyph unicode="k" horiz-adv-x="1017" d="M150 0l182 1446h123l-113 -905h193q147 0 243.5 98t102.5 272q0 8 0.5 24.5t1.5 23.5h124q-1 -7 -2.5 -35t-3.5 -47q-17 -139 -83 -244.5t-179 -155.5l235 -477h-148l-211 443q-31 -4 -72 -4h-214l-55 -439h-124z" />
<glyph unicode="l" horiz-adv-x="430" d="M153 0l181 1446h124l-181 -1446h-124z" />
<glyph unicode="m" horiz-adv-x="1751" d="M150 0l121 959l88 4q1 -21 1 -43q0 -89 -13 -202h3q47 109 139 179t215 70q124 0 202 -66t96 -181q50 109 141.5 178t213.5 69q161 1 243 -105q64 -83 63 -207q0 -33 -4 -70l-53 -418q-4 -32 9.5 -49t40.5 -17q22 0 36 4l-5 -106q-38 -10 -87 -10q-67 -1 -98 41 q-25 33 -25 84q0 13 2 27l55 444q3 27 3 52q0 90 -43 149q-55 75 -170 75q-67 0 -126 -31t-99 -80.5t-66.5 -105.5t-35.5 -112l-67 -532h-125l73 585q4 28 4 53q0 88 -44 148q-56 76 -170 75q-87 0 -160.5 -52.5t-114.5 -126t-53 -151.5l-66 -531h-124z" />
<glyph unicode="n" horiz-adv-x="1122" d="M150 0l121 959l88 4q1 -21 1 -43q0 -89 -13 -202h3q53 108 150.5 179.5t224.5 71.5q161 0 243 -105q65 -83 65 -209q0 -32 -4 -68l-52 -420q-4 -31 10 -48.5t41 -17.5q21 0 35 4l-5 -106q-34 -10 -88 -10q-68 -1 -98 41q-24 33 -24 84q0 13 2 27l54 446q3 26 3 51 q-1 90 -45 150q-56 76 -171 76q-72 0 -135.5 -31t-107 -80.5t-71.5 -106.5t-37 -113l-66 -533h-124z" />
<glyph unicode="o" horiz-adv-x="1091" d="M146 410q0 243 147.5 401t373.5 158q183 0 290.5 -117t107.5 -308q0 -244 -147 -399.5t-374 -155.5q-184 0 -291 115t-107 306zM273 420q0 -148 76 -236.5t208 -88.5q166 0 274 123t108 315q0 149 -76.5 240t-208.5 91q-165 0 -273 -126.5t-108 -317.5z" />
<glyph unicode="p" horiz-adv-x="1132" d="M98 -418l172 1377l89 4v-37q0 -128 -12 -208h2q49 110 148.5 180.5t237.5 70.5q170 0 270 -114t100 -304q0 -248 -141 -405t-358 -157q-115 0 -194.5 56t-113.5 148l-76 -611h-124zM326 423q-1 -10 -1 -20q0 -48 13 -95q14 -56 46 -104.5t90.5 -78.5t135.5 -30 q161 0 264.5 124t103.5 319q0 148 -74 237t-203 89q-73 0 -138 -30.5t-109.5 -79.5t-74 -106.5t-39.5 -116.5z" />
<glyph unicode="q" horiz-adv-x="1132" d="M146 409q0 246 141.5 403t358.5 157q134 0 215.5 -70t101.5 -181h3q15 127 47 241h89l-173 -1377h-123l77 617q-57 -95 -151 -152.5t-214 -57.5q-170 0 -271 115t-101 305zM274 421q0 -148 74.5 -237t202.5 -89q73 0 138 30.5t109.5 79.5t73.5 105.5t39 113.5l14 115 q1 13 1 25q0 44 -11 88q-14 55 -46.5 103.5t-91 78.5t-135.5 30q-159 0 -263.5 -124.5t-104.5 -318.5z" />
<glyph unicode="r" horiz-adv-x="645" d="M150 0l120 959l89 4q1 -21 1 -43q0 -89 -13 -202h4q42 110 116.5 180.5t173.5 70.5q53 0 103 -14l-45 -124q-32 18 -81 18q-97 0 -178 -96t-100 -221l-66 -532h-124z" />
<glyph unicode="s" horiz-adv-x="897" d="M86 131l86 83q12 -14 31.5 -30t55 -38t88.5 -36.5t112 -14.5q119 0 186 48t67 127q0 43 -28.5 73t-74 47t-100.5 31.5t-110 32.5t-100.5 43t-74 69.5t-28.5 105.5q0 128 105.5 212.5t268.5 84.5q139 0 223 -65t84 -172q0 -20 -4 -42t-8 -34l-4 -11l-117 -9q13 29 13 69 q0 75 -55.5 117t-147.5 42q-105 0 -168 -49.5t-63 -129.5q0 -45 28.5 -76t74 -47.5t100.5 -30t110 -30t100.5 -40.5t74 -69t28.5 -108q0 -136 -108 -215.5t-286 -79.5q-231 0 -359 142z" />
<glyph unicode="t" horiz-adv-x="755" d="M163 857l13 102h149l37 290l124 8l-37 -298h368l-13 -102h-368l-64 -519q-4 -35 -5 -65q-1 -75 27 -118q38 -60 138 -60q49 0 95.5 15t68.5 30l22 15l28 -99q-11 -8 -31 -19t-82.5 -29.5t-125.5 -18.5q-157 0 -219 86q-46 64 -47 175q0 39 6 85l65 522h-149z" />
<glyph unicode="u" horiz-adv-x="1095" d="M186 368l73 591h125l-73 -591q-4 -30 -4 -57q-1 -86 41 -142q54 -74 170 -74q68 0 129.5 32.5t103 83t68.5 109t35 114.5l66 525h124l-98 -781q-5 -41 7.5 -59t43.5 -18q18 0 32 4l-5 -105q-18 -9 -77 -9q-65 1 -99 35q-26 27 -26 78q0 14 2 29l9 74h-5 q-50 -97 -140.5 -157.5t-205.5 -60.5q-160 -1 -239 103q-62 81 -62 204q0 35 5 72z" />
<glyph unicode="v" horiz-adv-x="980" d="M162 959h139l195 -763q11 -42 12 -71h4q6 19 28 71l392 763h127l-496 -959h-142z" />
<glyph unicode="w" horiz-adv-x="1431" d="M168 959h135l117 -758q2 -14 5.5 -32t6 -29t2.5 -15h4q1 2 12 30t18 46l310 758h126l121 -754q3 -18 9 -80h5q1 2 11 30t19 50l305 754h128l-402 -959h-152l-118 729q-7 40 -7 70h-4q-13 -43 -25 -70l-305 -729h-149z" />
<glyph unicode="x" horiz-adv-x="905" d="M47 0l398 476l-281 483h145l189 -342q25 -51 26 -58h4q15 29 37 58l273 342h143l-396 -477l279 -482h-145l-196 351q-17 30 -17 42h-4q-6 -17 -29 -42l-285 -351h-141z" />
<glyph unicode="y" horiz-adv-x="1073" d="M105 -326l70 102q47 -43 119.5 -71t159.5 -28q157 0 244.5 78t106.5 227l30 228h-2q-53 -99 -143 -160t-208 -61q-160 0 -239 103q-62 81 -62 204q0 35 5 72l73 591h125l-73 -591q-4 -30 -4 -57q0 -86 41 -142q55 -74 170 -74q88 0 162.5 53t116 125t55.5 148l68 538h124 l-123 -978q-24 -191 -147 -300t-334 -109q-67 0 -124 10.5t-101.5 30.5t-63 31t-46.5 30z" />
<glyph unicode="z" horiz-adv-x="870" d="M72 0l13 102l630 712q10 10 22.5 24t18.5 19l-2 3q-16 -3 -62 -3h-501l13 102h706l-13 -102l-611 -694q-28 -33 -56 -61v-3q16 3 69 3h513l-13 -102h-727z" />
<glyph unicode="{" horiz-adv-x="593" d="M127 442l13 103h20q49 0 90.5 34.5t50.5 102.5l57 450q12 92 46 157.5t85 100t105.5 50t118.5 15.5l-13 -111q-95 0 -154 -57t-73 -172l-57 -457q-6 -43 -21 -76t-34.5 -50.5t-33.5 -25.5t-27 -12q10 -4 21.5 -13t26.5 -27.5t22.5 -51t2.5 -73.5l-51 -417 q-14 -116 30.5 -172.5t139.5 -56.5l-15 -111q-64 0 -115 15.5t-93 50.5t-60.5 100.5t-6.5 156.5l51 410q8 68 -24 102.5t-81 34.5h-21z" />
<glyph unicode="|" horiz-adv-x="450" d="M119 -418l231 1845h108l-230 -1845h-109z" />
<glyph unicode="}" horiz-adv-x="593" d="M8 -428l15 111q95 0 153.5 56.5t72.5 172.5l52 417q16 125 117 165q-11 3 -23.5 10.5t-28 24.5t-22.5 50.5t-1 78.5l57 458q14 116 -30.5 172.5t-138.5 56.5l13 112q63 0 114 -15.5t93.5 -50.5t60.5 -100.5t7 -157.5l-57 -451q-8 -68 25 -102.5t83 -34.5h20l-13 -103h-20 q-49 0 -91.5 -34.5t-50.5 -102.5l-51 -410q-9 -73 -34.5 -130.5t-59.5 -93t-78.5 -58.5t-89 -32t-94.5 -9z" />
<glyph unicode="~" horiz-adv-x="1099" d="M208 518l11 92q95 65 216 65q77 0 197 -41t197 -41q52 0 111.5 16t102.5 46l-12 -93q-100 -65 -215 -65q-77 0 -196 41t-197 41q-50 0 -111 -16.5t-104 -44.5z" />
<glyph unicode="&#xa1;" horiz-adv-x="434" d="M94 -416l140 975l107 4l-110 -979h-137zM239 869q0 41 30.5 70.5t70.5 29.5q33 0 55 -23.5t22 -56.5q0 -40 -30 -69.5t-69 -29.5q-34 0 -56.5 23t-22.5 56z" />
<glyph unicode="&#xa2;" horiz-adv-x="1007" d="M152 411q0 227 130.5 379t340.5 172l24 192h95l-24 -190q207 -13 300 -150l-82 -79q-89 125 -266 125q-176 0 -283 -123.5t-107 -318.5q0 -148 77 -235.5t217 -87.5q176 0 297 125l63 -79q-130 -139 -338 -151l-25 -196h-95l26 198q-164 17 -257 130t-93 289z" />
<glyph unicode="&#xa3;" horiz-adv-x="1120" d="M147 0l10 84q10 5 26 14.5t57.5 42.5t73.5 69.5t58 94.5t26 119q0 54 -18 110h-221l10 90h175q-24 54 -34.5 80.5t-22.5 78t-12 101.5q0 204 143 338.5t364 134.5q68 0 126 -13t97.5 -33.5t71 -45.5t49.5 -50t30 -45.5t16 -33.5l4 -13l-116 -51q-1 4 -3.5 10t-12.5 24 t-23 34t-37 36t-52.5 34t-71.5 24t-93 10q-156 0 -258.5 -99t-102.5 -249q0 -30 4 -57.5t14 -60t16 -49.5t22 -56t20 -49h450l-11 -90h-409q15 -57 15 -106q0 -55 -18.5 -107t-43.5 -87.5t-54.5 -65t-47 -42.5t-25.5 -17l3 -5q23 5 69 5h607l-13 -109h-857z" />
<glyph unicode="&#xa4;" horiz-adv-x="1157" d="M167 354l186 174q-29 66 -29 144q0 119 75 227l-140 170l73 67l138 -168q111 103 244 103q131 0 217 -103l179 168l59 -67l-184 -170q33 -74 33 -154q0 -116 -79 -219l139 -167l-75 -67l-136 163q-101 -98 -241 -98q-139 0 -220 101l-181 -171zM423 685q0 -96 61 -162.5 t155 -66.5q110 0 194.5 84.5t84.5 199.5q0 98 -61.5 163.5t-154.5 65.5q-111 0 -195 -84.5t-84 -199.5z" />
<glyph unicode="&#xa5;" horiz-adv-x="1200" d="M204 257l11 94h338l19 155h-337l12 94h287l-312 744h140l249 -591q31 -79 41 -137h3q18 55 72 137l398 591h133l-498 -744h289l-11 -94h-337l-19 -155h336l-12 -94h-336l-32 -257h-129l32 257h-337z" />
<glyph unicode="&#xa6;" horiz-adv-x="446" d="M117 -418l95 762h109l-95 -762h-109zM252 665l96 762h108l-95 -762h-109z" />
<glyph unicode="&#xa7;" horiz-adv-x="1099" d="M45 -271l93 99q143 -143 368 -143q155 0 249 66.5t94 181.5q0 66 -36 111.5t-93 70t-126.5 43t-139 39t-126.5 48.5t-93 81t-36 128q0 93 52 162t139 105q-133 84 -133 250q0 173 131 279t330 106q337 0 391 -303l-127 -33q-3 32 -17.5 66.5t-44 71.5t-86.5 61t-132 24 q-137 0 -225.5 -71.5t-88.5 -187.5q0 -53 22.5 -93t60 -65t87 -45t103.5 -35.5t108 -31.5t103.5 -39t87 -53.5t60 -78.5t22.5 -110q0 -190 -168 -266q107 -77 107 -218q0 -174 -135.5 -275.5t-353.5 -101.5q-161 0 -272.5 47t-174.5 110zM321 473q0 -50 26 -85t76.5 -57.5 t100.5 -37t122.5 -33.5t118.5 -36q148 48 148 194q0 43 -18.5 76t-46.5 53.5t-73 39t-84.5 29t-96.5 26.5t-95 29q-78 -12 -128 -65.5t-50 -132.5z" />
<glyph unicode="&#xa8;" horiz-adv-x="663" d="M228 1262q0 39 29.5 68t67.5 29q31 0 52 -22.5t21 -55.5q0 -39 -28.5 -67t-66.5 -28q-32 0 -53.5 22t-21.5 54zM585 1262q0 39 29 68t66 29q32 0 53.5 -22.5t21.5 -54.5q0 -40 -29 -68t-68 -28q-31 0 -52 22t-21 54z" />
<glyph unicode="&#xa9;" horiz-adv-x="1501" d="M181 581q0 168 55.5 312.5t153 245.5t234 158t294.5 57q262 0 416 -161t154 -428q0 -225 -95.5 -402t-264.5 -274.5t-381 -97.5q-261 0 -413.5 161.5t-152.5 428.5zM237 587q0 -247 139.5 -396t377.5 -149q195 0 349.5 90.5t241.5 254.5t87 373q0 247 -140.5 395 t-380.5 148q-144 0 -269 -53t-214 -146t-140 -227t-51 -290zM449 587q0 224 125.5 370.5t318.5 146.5q78 0 138 -25t91.5 -64.5t45.5 -82.5t9 -83l-98 -17q0 7 -0.5 19t-10.5 42t-28.5 52.5t-60 41.5t-98.5 19q-138 0 -229 -114t-91 -289q0 -128 66 -204.5t181 -76.5 q50 0 95 11.5t74 28t51 32.5t32 28l10 11l41 -73q-4 -6 -12.5 -15t-38 -32.5t-64.5 -41.5t-92 -32.5t-120 -14.5q-155 0 -245 99t-90 264z" />
<glyph unicode="&#xaa;" horiz-adv-x="901" d="M203 757q0 140 124 198.5t366 60.5l40 1l7 55q11 85 -32.5 135t-132.5 50q-87 0 -142.5 -43.5t-55.5 -112.5q0 -7 5 -27l-114 -21q-3 19 -3 42q0 116 90.5 188.5t237.5 72.5q143 0 213.5 -76t53.5 -210l-42 -326q-4 -31 5.5 -44.5t33.5 -13.5q10 0 28 2l-7 -99l-4 -1 q-5 -1 -11.5 -2t-15 -2t-19.5 -2t-21 -1q-126 0 -110 126l3 21h-2q-34 -59 -102.5 -104t-178.5 -45q-103 0 -158.5 48t-55.5 130zM327 779q0 -47 34 -73.5t100 -26.5q103 0 169 54.5t81 109.5l12 97l-40 -1q-179 -2 -267.5 -39t-88.5 -121z" />
<glyph unicode="&#xab;" horiz-adv-x="862" d="M149 489l14 104l305 273l55 -73l-285 -252l222 -251l-74 -75zM475 489l14 104l305 273l54 -73l-285 -252l223 -251l-75 -75z" />
<glyph unicode="&#xad;" horiz-adv-x="763" d="M209 617l12 97h501l-12 -97h-501z" />
<glyph unicode="&#xae;" horiz-adv-x="886" d="M223 950q0 176 112 291t278 115q134 0 217 -87.5t83 -227.5q0 -174 -112 -288t-278 -114q-135 0 -217.5 86t-82.5 225zM269 954q0 -122 70 -197.5t188 -75.5q145 0 242.5 102t97.5 253q0 123 -71.5 200.5t-188.5 77.5q-146 0 -242 -101.5t-96 -258.5zM402 782l56 437h141 q52 0 83.5 -31t31.5 -81q0 -39 -15 -68.5t-36.5 -44t-36.5 -21t-22 -7.5q23 -9 37.5 -33t19.5 -47.5t16 -42t30 -18.5h9l-1 -43q-9 -2 -22 -2q-27 0 -43.5 17.5t-24.5 42t-17 49.5t-27.5 42.5t-48.5 17.5h-57l-22 -167h-51zM480 996h80q44 0 74 30.5t30 74.5q0 33 -21 53.5 t-57 20.5h-83z" />
<glyph unicode="&#xaf;" horiz-adv-x="718" d="M254 1223l11 95h519l-12 -95h-518z" />
<glyph unicode="&#xb0;" horiz-adv-x="671" d="M233 1071q0 124 77 203t194 79q97 0 153.5 -58.5t56.5 -157.5q0 -123 -77 -201.5t-196 -78.5q-95 0 -151.5 59t-56.5 155zM307 1079q0 -67 38.5 -108t104.5 -41q82 0 136 55.5t54 142.5q0 69 -39.5 111t-105.5 42q-81 0 -134.5 -56.5t-53.5 -145.5z" />
<glyph unicode="&#xb1;" horiz-adv-x="964" d="M151 121l11 96h694l-11 -96h-694zM212 617l12 95h298l33 261h99l-33 -261h298l-12 -95h-298l-33 -269h-99l33 269h-298z" />
<glyph unicode="&#xb4;" horiz-adv-x="499" d="M238 1114l157 301h162l-206 -293z" />
<glyph unicode="&#xb6;" horiz-adv-x="1054" d="M174 951q0 174 126.5 283.5t323.5 109.5h410l-219 -1756h-82l211 1686h-176l-211 -1686h-81l131 1054h-70q-165 0 -264 85t-99 224z" />
<glyph unicode="&#xb7;" horiz-adv-x="430" d="M215 727q0 42 31.5 73t73.5 31q34 0 57 -24.5t23 -59.5q0 -42 -31.5 -72.5t-72.5 -30.5q-35 0 -58 24t-23 59z" />
<glyph unicode="&#xb8;" horiz-adv-x="518" d="M43 -324l47 73l13.5 -13.5t39 -22t64.5 -13.5q49 0 79.5 23t30.5 62q0 37 -38.5 62.5t-123.5 25.5l78 147l86 -1l-46 -87q55 -6 95 -41.5t40 -98.5q0 -83 -60 -132.5t-151 -49.5q-47 0 -85.5 16.5t-53.5 33.5z" />
<glyph unicode="&#xba;" horiz-adv-x="917" d="M212 914q0 193 117.5 317.5t299.5 124.5q146 0 232.5 -93t86.5 -244q0 -192 -118 -316t-299 -124q-147 0 -233 92t-86 243zM337 924q0 -110 55 -175t152 -65q120 0 199 91.5t79 233.5q0 111 -55.5 177.5t-151.5 66.5q-121 0 -199.5 -93t-78.5 -236z" />
<glyph unicode="&#xbb;" horiz-adv-x="862" d="M149 290l283 251l-220 252l74 73l237 -273l-14 -104l-305 -274zM475 290l282 251l-220 252l75 73l236 -273l-14 -104l-304 -274z" />
<glyph unicode="&#xbc;" horiz-adv-x="1587" d="M200 1165l15 114l343 64h21l-92 -740h-120l77 612zM373 0l751 1356h118l-750 -1356h-119zM863 166l16 117l469 457h130l-58 -473h139l-13 -101h-140l-21 -166h-121l20 166h-421zM987 269l1 -4q11 2 69 2h244l38 297q4 36 9 55l-2 4q-18 -24 -41 -47l-267 -264 q-19 -18 -51 -43z" />
<glyph unicode="&#xbd;" horiz-adv-x="1579" d="M200 1165l15 114l343 64h21l-92 -740h-120l77 612zM373 0l751 1356h118l-750 -1356h-119zM901 0l11 89q40 24 113.5 65t119.5 67t104.5 65.5t92 71.5t57.5 73t24 81q0 57 -42.5 92t-114.5 35q-80 0 -131.5 -40.5t-51.5 -101.5q0 -13 3 -16l-123 -23q-3 15 -3 33 q0 109 88 183t231 74q127 0 198 -57.5t71 -160.5q0 -30 -7.5 -58.5t-17 -51.5t-29.5 -48.5t-35 -43t-44.5 -40.5t-46 -35.5t-52 -33.5t-50 -29.5t-51.5 -29t-47 -25.5q-34 -20 -69 -30l1 -4q8 2 62 2h353l-12 -103h-602z" />
<glyph unicode="&#xbe;" horiz-adv-x="1759" d="M161 739l102 64q3 -4 8 -10.5t24 -24t41.5 -30.5t61 -23.5t81.5 -10.5q98 0 152 33t54 86q0 47 -50.5 72t-136.5 25h-72l11 98h55q98 0 152 29t54 86q0 49 -40.5 79t-113.5 30q-74 0 -124 -29.5t-50 -73.5q0 -15 4 -19l-124 -20v4q-1 5 -1.5 12.5t-0.5 14.5 q0 97 88 158.5t223 61.5q123 0 195 -54t72 -142q0 -78 -61 -128.5t-143 -50.5v-2q74 0 130 -42.5t56 -115.5q0 -98 -93 -159t-247 -61q-70 0 -127 14.5t-89 36t-54 42.5t-30 35zM559 0l751 1356h119l-750 -1356h-120zM1036 166l17 117l471 457h130l-59 -473h139l-13 -101 h-140l-21 -166h-121l20 166h-423zM1161 269l2 -4q11 2 69 2h243l38 297q4 41 10 55l-2 4q-14 -19 -41 -47l-268 -264q-29 -29 -51 -43z" />
<glyph unicode="&#xbf;" horiz-adv-x="878" d="M48 -126q0 70 22.5 130t58.5 103.5t80.5 83t90 78t85 78t68 93.5t35.5 116q0 1 1.5 8.5t1.5 11.5l117 4q0 -3 -1 -12.5t-2 -12.5q-11 -73 -40 -135t-67.5 -105.5t-82.5 -82.5t-85.5 -74.5t-75.5 -73t-55 -86.5t-21 -107q0 -100 64 -163t169 -63q117 0 193 71t76 175 q0 11 -5 36l126 20q5 -23 5 -53q0 -154 -115.5 -257.5t-292.5 -103.5q-161 0 -255.5 88.5t-94.5 232.5zM502 870q0 40 29.5 69.5t70.5 29.5q33 0 54.5 -23.5t21.5 -56.5q0 -40 -30 -69.5t-68 -29.5q-34 0 -56 23t-22 57z" />
<glyph unicode="&#xc0;" horiz-adv-x="1179" d="M40 0l651 1344h132l317 -1344h-133l-84 365h-575l-175 -365h-133zM399 473h499l-141 613q-9 37 -18 102h-4q-14 -43 -41 -102zM575 1653h164l90 -240l-113 -8z" />
<glyph unicode="&#xc1;" horiz-adv-x="1179" d="M40 0l651 1344h132l317 -1344h-133l-84 365h-575l-175 -365h-133zM399 473h499l-141 613q-9 37 -18 102h-4q-14 -43 -41 -102zM699 1405l150 248h165l-203 -240z" />
<glyph unicode="&#xc2;" horiz-adv-x="1179" d="M40 0l651 1344h132l317 -1344h-133l-84 365h-575l-175 -365h-133zM399 473h499l-141 613q-9 37 -18 102h-4q-14 -43 -41 -102zM507 1405l221 259h143l157 -259l-114 5l-128 154l-166 -154z" />
<glyph unicode="&#xc3;" horiz-adv-x="1179" d="M40 0l651 1344h132l317 -1344h-133l-84 365h-575l-175 -365h-133zM399 473h499l-141 613q-9 37 -18 102h-4q-14 -43 -41 -102zM460 1420q0 86 50 136t129 50q41 0 80.5 -19t65 -41.5t54.5 -41.5t52 -19q76 0 76 104l-1 28h101q-1 -17 -2 -36q-3 -86 -48 -139.5 t-124 -53.5q-39 0 -78.5 19t-66 41.5t-57 41.5t-54.5 19q-35 0 -57 -24.5t-22 -70.5l3 -29h-99q-2 16 -2 35z" />
<glyph unicode="&#xc4;" horiz-adv-x="1179" d="M40 0l651 1344h132l317 -1344h-133l-84 365h-575l-175 -365h-133zM399 473h499l-141 613q-9 37 -18 102h-4q-14 -43 -41 -102zM522 1520q0 37 29.5 65.5t66.5 28.5q31 0 51.5 -22t20.5 -54q0 -38 -29 -66.5t-65 -28.5q-32 0 -53 22t-21 55zM879 1520q0 37 29 65.5 t66 28.5q32 0 52.5 -22t20.5 -54q0 -38 -28 -66.5t-66 -28.5q-32 0 -53 22t-21 55z" />
<glyph unicode="&#xc5;" horiz-adv-x="1179" d="M40 0l651 1344h132l317 -1344h-133l-84 365h-575l-175 -365h-133zM399 473h499l-141 613q-9 37 -18 102h-4q-14 -43 -41 -102zM630 1518q0 70 51 120t119 50q57 0 94 -39t37 -97q0 -70 -51 -120t-118 -50q-58 0 -95 39t-37 97zM710 1526q0 -30 16.5 -49t44.5 -19 q33 0 58 25t25 60q0 30 -17.5 49t-45.5 19q-34 0 -57.5 -25t-23.5 -60z" />
<glyph unicode="&#xc6;" horiz-adv-x="1937" d="M-15 0l1138 1344h784l-13 -110h-648l-61 -480h583l-14 -110h-583l-67 -534h648l-14 -110h-775l45 365h-578l-309 -365h-136zM521 472h501l87 695z" />
<glyph unicode="&#xc7;" horiz-adv-x="1236" d="M183 566q0 176 51.5 324.5t141 250t211.5 158.5t260 57q102 0 181.5 -31t125 -78t74 -106t37 -112.5t3.5 -100.5l-124 -21q3 34 -2.5 74.5t-25.5 88t-53.5 85t-93 63t-136.5 25.5q-105 0 -199.5 -46.5t-166 -130.5t-113.5 -211t-42 -277q0 -231 112.5 -353.5 t294.5 -122.5q69 0 134.5 20t116 54t86 66.5t64.5 67.5l70 -79q-26 -31 -58 -62t-89.5 -73.5t-137.5 -71.5t-168 -34l-31 -58q55 -6 95.5 -41.5t40.5 -98.5q0 -83 -60.5 -132.5t-151.5 -49.5q-47 0 -85.5 16.5t-53.5 33.5l-15 16l47 73l13.5 -13.5t39 -22t64.5 -13.5 q49 0 79.5 23t30.5 62q0 37 -38 62.5t-123 25.5l62 118q-218 17 -343 168.5t-125 406.5z" />
<glyph unicode="&#xc8;" horiz-adv-x="1058" d="M180 0l168 1344h776l-13 -110h-648l-61 -480h583l-14 -110h-583l-67 -534h648l-14 -110h-775zM581 1653h164l90 -240l-113 -8z" />
<glyph unicode="&#xc9;" horiz-adv-x="1058" d="M180 0l168 1344h776l-13 -110h-648l-61 -480h583l-14 -110h-583l-67 -534h648l-14 -110h-775zM705 1405l150 248h165l-203 -240z" />
<glyph unicode="&#xca;" horiz-adv-x="1058" d="M180 0l168 1344h776l-13 -110h-648l-61 -480h583l-14 -110h-583l-67 -534h648l-14 -110h-775zM513 1405l221 259h143l157 -259l-114 5l-128 154l-165 -154z" />
<glyph unicode="&#xcb;" horiz-adv-x="1058" d="M180 0l168 1344h776l-13 -110h-648l-61 -480h583l-14 -110h-583l-67 -534h648l-14 -110h-775zM528 1520q0 37 29.5 65.5t66.5 28.5q31 0 51.5 -22t20.5 -54q0 -38 -29 -66.5t-65 -28.5q-32 0 -53 22t-21 55zM885 1520q0 37 29 65.5t66 28.5q32 0 52.5 -22t20.5 -54 q0 -38 -28 -66.5t-66 -28.5q-32 0 -53 22t-21 55z" />
<glyph unicode="&#xcc;" horiz-adv-x="487" d="M180 0l168 1344h128l-168 -1344h-128zM232 1653h163l90 -240l-113 -8z" />
<glyph unicode="&#xcd;" horiz-adv-x="487" d="M180 0l168 1344h128l-168 -1344h-128zM355 1405l151 248h164l-203 -240z" />
<glyph unicode="&#xce;" horiz-adv-x="487" d="M164 1405l220 259h144l157 -259l-115 5l-128 154l-165 -154zM180 0l168 1344h128l-168 -1344h-128z" />
<glyph unicode="&#xcf;" horiz-adv-x="487" d="M179 1520q0 37 29 65.5t66 28.5q31 0 51.5 -22t20.5 -54q0 -38 -29 -66.5t-65 -28.5q-32 0 -52.5 22t-20.5 55zM180 0l168 1344h128l-168 -1344h-128zM535 1520q0 37 29.5 65.5t66.5 28.5q32 0 52 -22t20 -54q0 -38 -28 -66.5t-66 -28.5q-32 0 -53 22t-21 55z" />
<glyph unicode="&#xd0;" horiz-adv-x="1286" d="M93 617l13 104h164l78 623h352q272 0 421.5 -151t149.5 -420q0 -366 -181 -569.5t-488 -203.5h-422l77 617h-164zM321 110h290q240 0 385.5 173.5t145.5 480.5q0 228 -120 349t-339 121h-220l-65 -513h361l-13 -104h-361z" />
<glyph unicode="&#xd1;" horiz-adv-x="1339" d="M180 0l168 1344h146l475 -982q9 -19 85 -197l9 5q4 90 15 184l122 990h129l-169 -1344h-146l-475 975q-33 69 -87 199l-9 -5q6 -30 -12 -182l-122 -987h-129zM588 1419q0 86 50 136.5t129 50.5q41 0 81 -19t65.5 -41.5t54.5 -41.5t52 -19q76 0 76 104l-2 28h101 q0 -17 -1 -36q-3 -85 -48.5 -139t-124.5 -54q-39 0 -78.5 19t-66 41.5t-57 41.5t-54.5 19q-35 0 -57 -24.5t-22 -70.5l3 -30h-99q-2 16 -2 35z" />
<glyph unicode="&#xd2;" horiz-adv-x="1386" d="M182 570q0 176 53.5 325t145.5 249t216.5 156t265.5 56q232 0 371.5 -156.5t139.5 -424.5q0 -176 -53 -325t-145 -249t-217 -156t-267 -56q-230 0 -370 156.5t-140 424.5zM311 583q0 -220 108.5 -350.5t286.5 -130.5q111 0 210 47.5t171.5 132.5t115 209.5t42.5 271.5 q0 220 -108.5 350t-287.5 130q-110 0 -208.5 -47.5t-171.5 -132t-115.5 -209t-42.5 -271.5zM680 1653h163l90 -240l-112 -8z" />
<glyph unicode="&#xd3;" horiz-adv-x="1386" d="M182 570q0 176 53.5 325t145.5 249t216.5 156t265.5 56q232 0 371.5 -156.5t139.5 -424.5q0 -176 -53 -325t-145 -249t-217 -156t-267 -56q-230 0 -370 156.5t-140 424.5zM311 583q0 -220 108.5 -350.5t286.5 -130.5q111 0 210 47.5t171.5 132.5t115 209.5t42.5 271.5 q0 220 -108.5 350t-287.5 130q-110 0 -208.5 -47.5t-171.5 -132t-115.5 -209t-42.5 -271.5zM804 1405l150 248h165l-204 -240z" />
<glyph unicode="&#xd4;" horiz-adv-x="1386" d="M182 570q0 176 53.5 325t145.5 249t216.5 156t265.5 56q232 0 371.5 -156.5t139.5 -424.5q0 -176 -53 -325t-145 -249t-217 -156t-267 -56q-230 0 -370 156.5t-140 424.5zM311 583q0 -220 108.5 -350.5t286.5 -130.5q111 0 210 47.5t171.5 132.5t115 209.5t42.5 271.5 q0 220 -108.5 350t-287.5 130q-110 0 -208.5 -47.5t-171.5 -132t-115.5 -209t-42.5 -271.5zM612 1405l221 259h143l157 -259l-115 5l-128 154l-165 -154z" />
<glyph unicode="&#xd5;" horiz-adv-x="1386" d="M182 570q0 176 53.5 325t145.5 249t216.5 156t265.5 56q232 0 371.5 -156.5t139.5 -424.5q0 -176 -53 -325t-145 -249t-217 -156t-267 -56q-230 0 -370 156.5t-140 424.5zM311 583q0 -220 108.5 -350.5t286.5 -130.5q111 0 210 47.5t171.5 132.5t115 209.5t42.5 271.5 q0 220 -108.5 350t-287.5 130q-110 0 -208.5 -47.5t-171.5 -132t-115.5 -209t-42.5 -271.5zM564 1419q0 86 50.5 136.5t129.5 50.5q41 0 80.5 -19t65 -41.5t54.5 -41.5t52 -19q76 0 76 104l-1 28h101q-1 -17 -2 -36q-3 -85 -48.5 -139t-124.5 -54q-39 0 -78.5 19t-66 41.5 t-57 41.5t-54.5 19q-34 0 -56 -24.5t-22 -70.5l2 -30h-98q-3 16 -3 35z" />
<glyph unicode="&#xd6;" horiz-adv-x="1386" d="M182 570q0 176 53.5 325t145.5 249t216.5 156t265.5 56q232 0 371.5 -156.5t139.5 -424.5q0 -176 -53 -325t-145 -249t-217 -156t-267 -56q-230 0 -370 156.5t-140 424.5zM311 583q0 -220 108.5 -350.5t286.5 -130.5q111 0 210 47.5t171.5 132.5t115 209.5t42.5 271.5 q0 220 -108.5 350t-287.5 130q-110 0 -208.5 -47.5t-171.5 -132t-115.5 -209t-42.5 -271.5zM627 1520q0 37 29 65.5t66 28.5q31 0 52 -22t21 -54q0 -38 -29 -66.5t-65 -28.5q-32 0 -53 22t-21 55zM984 1520q0 37 29 65.5t66 28.5q32 0 52 -22t20 -54q0 -38 -28 -66.5 t-66 -28.5q-32 0 -52.5 22t-20.5 55z" />
<glyph unicode="&#xd7;" horiz-adv-x="858" d="M156 245l269 250l-208 251l77 68l206 -249l267 249l60 -68l-270 -250l208 -251l-78 -68l-205 249l-268 -249z" />
<glyph unicode="&#xd8;" horiz-adv-x="1386" d="M136 -90l183 240q-137 157 -137 420q0 176 53.5 325t145.5 249t216.5 156t265.5 56q175 0 302 -93l111 146h130l-165 -217q133 -156 133 -417q0 -176 -53 -325t-145 -249t-217 -156t-267 -56q-172 0 -297 91l-129 -170h-130zM311 583q0 -197 90 -325l687 903 q-99 82 -239 82q-110 0 -208.5 -47.5t-171.5 -132t-115.5 -209t-42.5 -271.5zM472 181q98 -79 234 -79q111 0 210 47.5t171.5 132.5t115 209.5t42.5 271.5q0 193 -87 321z" />
<glyph unicode="&#xd9;" horiz-adv-x="1325" d="M233 531l101 813h129l-100 -810q-26 -207 58 -319.5t255 -112.5q170 0 282 112t138 317l102 813h128l-102 -813q-31 -252 -183 -397t-379 -145q-228 0 -344 145t-85 397zM650 1653h164l90 -240l-113 -8z" />
<glyph unicode="&#xda;" horiz-adv-x="1325" d="M233 531l101 813h129l-100 -810q-26 -207 58 -319.5t255 -112.5q170 0 282 112t138 317l102 813h128l-102 -813q-31 -252 -183 -397t-379 -145q-228 0 -344 145t-85 397zM774 1405l150 248h165l-203 -240z" />
<glyph unicode="&#xdb;" horiz-adv-x="1325" d="M233 531l101 813h129l-100 -810q-26 -207 58 -319.5t255 -112.5q170 0 282 112t138 317l102 813h128l-102 -813q-31 -252 -183 -397t-379 -145q-228 0 -344 145t-85 397zM582 1405l221 259h143l157 -259l-114 5l-128 154l-166 -154z" />
<glyph unicode="&#xdc;" horiz-adv-x="1325" d="M233 531l101 813h129l-100 -810q-26 -207 58 -319.5t255 -112.5q170 0 282 112t138 317l102 813h128l-102 -813q-31 -252 -183 -397t-379 -145q-228 0 -344 145t-85 397zM597 1520q0 37 29.5 65.5t66.5 28.5q31 0 51.5 -22t20.5 -54q0 -38 -29 -66.5t-65 -28.5 q-32 0 -53 22t-21 55zM954 1520q0 37 29 65.5t66 28.5q32 0 52.5 -22t20.5 -54q0 -38 -28.5 -66.5t-66.5 -28.5q-32 0 -52.5 22t-20.5 55z" />
<glyph unicode="&#xdd;" horiz-adv-x="1116" d="M207 1344h141l248 -591q33 -83 42 -137h3q18 55 72 137l398 591h133l-556 -830l-64 -514h-129l64 508zM671 1405l150 248h165l-204 -240z" />
<glyph unicode="&#xde;" horiz-adv-x="1142" d="M180 0l168 1344h128l-28 -225h279q203 0 316 -100.5t113 -279.5q0 -227 -142.5 -360.5t-382.5 -133.5h-292l-31 -245h-128zM352 355h274q181 0 289 99.5t108 268.5q0 134 -84 210t-235 76h-270z" />
<glyph unicode="&#xdf;" horiz-adv-x="1064" d="M151 0l137 1098q20 162 126.5 260.5t263.5 98.5q148 0 236.5 -88.5t88.5 -232.5q0 -122 -58 -226t-156 -164q114 -33 176 -117t62 -205q0 -194 -116 -314.5t-329 -120.5q-53 0 -102 6.5t-71 12.5l-22 7l38 106q63 -26 170 -26q139 0 222 89.5t83 233.5q0 122 -77.5 193.5 t-218.5 71.5h-52l12 104h21q121 0 206.5 99.5t85.5 240.5q0 101 -57.5 162.5t-151.5 61.5q-104 0 -173.5 -71t-85.5 -201l-134 -1079h-124z" />
<glyph unicode="&#xe0;" d="M146 409q0 246 141.5 403t358.5 157q133 0 215 -70t103 -181h2q15 127 47 241h90l-99 -781q-5 -41 7.5 -59t44.5 -18q16 0 32 4l-5 -105q-18 -9 -77 -9q-66 0 -100 34.5t-24 107.5l11 83h-2q-53 -101 -150.5 -164t-222.5 -63q-170 0 -271 115t-101 305zM274 421 q0 -148 74.5 -237t202.5 -89q72 0 136 29.5t108 77t73.5 103.5t41.5 113l6 51l9 54l-2 -3q7 58 -5.5 117t-44 110.5t-91.5 84t-140 32.5q-159 0 -263.5 -124.5t-104.5 -318.5zM538 1415h161l83 -293l-110 -8z" />
<glyph unicode="&#xe1;" d="M146 409q0 246 141.5 403t358.5 157q133 0 215 -70t103 -181h2q15 127 47 241h90l-99 -781q-5 -41 7.5 -59t44.5 -18q16 0 32 4l-5 -105q-18 -9 -77 -9q-66 0 -100 34.5t-24 107.5l11 83h-3q-53 -102 -150 -164.5t-222 -62.5q-170 0 -271 115t-101 305zM274 421 q0 -148 74.5 -237t202.5 -89q72 0 136 29.5t108 77t73.5 103.5t41.5 113l6 51l9 54l-2 -3q7 58 -5.5 117t-44 110.5t-91.5 84t-140 32.5q-159 0 -263.5 -124.5t-104.5 -318.5zM608 1114l156 301h162l-206 -293z" />
<glyph unicode="&#xe2;" d="M146 409q0 246 141.5 403t358.5 157q133 0 215 -70t103 -181h2q15 127 47 241h90l-99 -781q-5 -41 7.5 -59t44.5 -18q16 0 32 4l-5 -105q-18 -9 -77 -9q-66 0 -100 34.5t-24 107.5l11 83h-2q-53 -101 -150.5 -164t-222.5 -63q-170 0 -271 115t-101 305zM274 421 q0 -148 74.5 -237t202.5 -89q72 0 136 29.5t108 77t73.5 103.5t41.5 113l6 51l9 54l-2 -3q7 58 -5.5 117t-44 110.5t-91.5 84t-140 32.5q-159 0 -263.5 -124.5t-104.5 -318.5zM451 1115l226 299h139l156 -299l-113 4l-124 196l-171 -196z" />
<glyph unicode="&#xe3;" d="M146 409q0 246 141.5 403t358.5 157q133 0 215 -70t103 -181h2q15 127 47 241h90l-99 -781q-5 -41 7.5 -59t44.5 -18q16 0 32 4l-5 -105q-18 -9 -77 -9q-66 0 -100 34.5t-24 107.5l11 83h-2q-53 -101 -150.5 -164t-222.5 -63q-170 0 -271 115t-101 305zM274 421 q0 -148 74.5 -237t202.5 -89q72 0 136 29.5t108 77t73.5 103.5t41.5 113l6 51l9 54l-2 -3q7 58 -5.5 117t-44 110.5t-91.5 84t-140 32.5q-159 0 -263.5 -124.5t-104.5 -318.5zM413 1176q0 83 50 138.5t129 55.5q41 0 81 -19t65.5 -41.5t54.5 -41.5t52 -19q76 0 76 104l-2 28 h101q0 -18 -1 -37q-3 -86 -49 -139t-128 -53q-37 0 -75.5 19t-64.5 41t-55.5 41t-52.5 19q-35 0 -58.5 -25t-23.5 -77l1 -29h-99q-1 16 -1 35z" />
<glyph unicode="&#xe4;" d="M146 409q0 246 141.5 403t358.5 157q133 0 215 -70t103 -181h2q15 127 47 241h90l-99 -781q-5 -41 7.5 -59t44.5 -18q16 0 32 4l-5 -105q-18 -9 -77 -9q-66 0 -100 34.5t-24 107.5l11 83h-2q-53 -101 -150.5 -164t-222.5 -63q-170 0 -271 115t-101 305zM274 421 q0 -148 74.5 -237t202.5 -89q72 0 136 29.5t108 77t73.5 103.5t41.5 113l6 51l9 54l-2 -3q7 58 -5.5 117t-44 110.5t-91.5 84t-140 32.5q-159 0 -263.5 -124.5t-104.5 -318.5zM474 1262q0 39 29 68t67 29q31 0 52.5 -23t21.5 -55q0 -39 -28.5 -67t-66.5 -28q-32 0 -53.5 22 t-21.5 54zM831 1262q0 39 29 68t66 29q32 0 53.5 -22.5t21.5 -54.5q0 -40 -29 -68t-68 -28q-31 0 -52 22t-21 54z" />
<glyph unicode="&#xe5;" d="M146 409q0 246 141.5 403t358.5 157q133 0 215 -70t103 -181h2q15 127 47 241h90l-99 -781q-5 -41 7.5 -59t44.5 -18q16 0 32 4l-5 -105q-18 -9 -77 -9q-66 0 -100 34.5t-24 107.5l11 83h-3q-53 -102 -150 -164.5t-222 -62.5q-170 0 -271 115t-101 305zM274 421 q0 -148 74.5 -237t202.5 -89q72 0 136 29.5t108 77t73.5 103.5t41.5 113l6 51l9 54l-2 -3q7 58 -5.5 117t-44 110.5t-91.5 84t-140 32.5q-159 0 -263.5 -124.5t-104.5 -318.5zM570 1247q0 75 53.5 127.5t127.5 52.5q60 0 99.5 -41t39.5 -103q0 -76 -53 -128.5t-127 -52.5 q-61 0 -100.5 41t-39.5 104zM655 1254q0 -31 17.5 -50.5t47.5 -19.5q35 0 61 26t26 64q0 31 -18.5 50.5t-48.5 19.5q-35 0 -60 -26t-25 -64z" />
<glyph unicode="&#xe6;" horiz-adv-x="1650" d="M120 212q0 173 155 246.5t467 77.5l57 2l9 75q15 115 -43.5 183t-180.5 68q-120 0 -194 -59t-74 -158q0 -29 4 -41l-119 -21q-4 21 -4 52q0 147 112.5 239.5t289.5 92.5q117 0 197.5 -49.5t114.5 -134.5q67 88 164.5 136t212.5 48q161 0 253 -102.5t92 -270.5 q0 -36 -5 -71.5t-10 -52.5l-5 -18h-701q-1 -11 -1 -33q0 -149 79.5 -237.5t220.5 -88.5q171 0 284 124l66 -71q-138 -159 -373 -159q-140 0 -234.5 65.5t-134.5 181.5h-4q-12 -29 -30.5 -57.5t-54.5 -64t-80 -62t-111 -45t-145 -18.5q-132 0 -203 60t-71 163zM247 229 q0 -63 47 -98.5t137 -35.5q78 0 145 26.5t107 65t63 76.5t26 67l15 118l-56 -1q-248 -4 -366 -54.5t-118 -163.5zM924 545h583q3 23 3 56q0 122 -63 192.5t-171 70.5q-127 0 -224 -87.5t-128 -231.5z" />
<glyph unicode="&#xe7;" horiz-adv-x="997" d="M145 408q0 243 147 402t367 159q151 0 239.5 -81t88.5 -208q0 -24 -3.5 -48t-7.5 -36l-4 -12l-116 -9q12 30 12 80q0 93 -59 151t-162 58q-161 0 -267.5 -125.5t-106.5 -320.5q0 -148 77 -235.5t216 -87.5q177 0 298 125l63 -79q-134 -145 -360 -151l-31 -58 q55 -6 95.5 -41.5t40.5 -98.5q0 -83 -60.5 -132.5t-151.5 -49.5q-47 0 -85.5 16.5t-53.5 33.5l-15 16l47 73l13.5 -13.5t39 -22t64.5 -13.5q49 0 79.5 23t30.5 62q0 37 -38 62.5t-123 25.5l63 121q-159 21 -248 132t-89 282z" />
<glyph unicode="&#xe8;" horiz-adv-x="1011" d="M146 408q0 245 144.5 403t359.5 158q161 0 253 -102.5t92 -270.5q0 -36 -5 -71.5t-10 -52.5l-5 -18h-701q-1 -11 -1 -33q0 -149 79.5 -237.5t220.5 -88.5q171 0 284 124l66 -71q-138 -159 -372 -159q-188 0 -296.5 114.5t-108.5 304.5zM286 545h583q3 22 3 56 q0 122 -63 192.5t-171 70.5q-127 0 -224 -87.5t-128 -231.5zM492 1415h161l83 -293l-110 -8z" />
<glyph unicode="&#xe9;" horiz-adv-x="1011" d="M146 408q0 245 144.5 403t359.5 158q161 0 253 -102.5t92 -270.5q0 -36 -5 -71.5t-10 -52.5l-5 -18h-701q-1 -11 -1 -33q0 -149 79.5 -237.5t220.5 -88.5q171 0 284 124l66 -71q-138 -159 -372 -159q-188 0 -296.5 114.5t-108.5 304.5zM286 545h583q3 22 3 56 q0 122 -63 192.5t-171 70.5q-127 0 -224 -87.5t-128 -231.5zM561 1114l157 301h162l-206 -293z" />
<glyph unicode="&#xea;" horiz-adv-x="1011" d="M146 408q0 245 144.5 403t359.5 158q161 0 253 -102.5t92 -270.5q0 -36 -5 -71.5t-10 -52.5l-5 -18h-701q-1 -11 -1 -33q0 -149 79.5 -237.5t220.5 -88.5q171 0 284 124l66 -71q-138 -159 -372 -159q-188 0 -296.5 114.5t-108.5 304.5zM286 545h583q3 22 3 56 q0 122 -63 192.5t-171 70.5q-127 0 -224 -87.5t-128 -231.5zM405 1115l225 299h140l156 -299l-113 4l-124 196l-171 -196z" />
<glyph unicode="&#xeb;" horiz-adv-x="1011" d="M146 408q0 245 144.5 403t359.5 158q161 0 253 -102.5t92 -270.5q0 -36 -5 -71.5t-10 -52.5l-5 -18h-701q-1 -11 -1 -33q0 -149 79.5 -237.5t220.5 -88.5q171 0 284 124l66 -71q-138 -159 -372 -159q-188 0 -296.5 114.5t-108.5 304.5zM286 545h583q3 22 3 56 q0 122 -63 192.5t-171 70.5q-127 0 -224 -87.5t-128 -231.5zM428 1262q0 39 29 68t67 29q31 0 52.5 -23t21.5 -55q0 -39 -28.5 -67t-66.5 -28q-32 0 -53.5 22t-21.5 54zM784 1262q0 39 29.5 68t66.5 29q32 0 53.5 -22.5t21.5 -54.5q0 -40 -29 -68t-68 -28q-31 0 -52.5 22 t-21.5 54z" />
<glyph unicode="&#xec;" horiz-adv-x="442" d="M158 1415h161l83 -293l-110 -8zM164 128l106 831l125 4l-102 -806q-8 -56 41 -56q17 0 33 4l-6 -106q-34 -10 -81 -10q-65 0 -95 35.5t-21 103.5z" />
<glyph unicode="&#xed;" horiz-adv-x="442" d="M164 128l106 831l125 4l-102 -806q-8 -56 41 -56q17 0 33 4l-6 -106q-34 -10 -81 -10q-65 0 -95 35.5t-21 103.5zM290 1114l157 301h162l-206 -293z" />
<glyph unicode="&#xee;" horiz-adv-x="442" d="M89 1114l225 300h140l156 -300l-114 5l-124 196l-171 -196zM164 128l106 831l125 4l-102 -806q-8 -56 41 -56q17 0 33 4l-6 -106q-34 -10 -81 -10q-65 0 -95 35.5t-21 103.5z" />
<glyph unicode="&#xef;" horiz-adv-x="442" d="M111 1262q0 39 29.5 68t67.5 29q31 0 52.5 -23t21.5 -55q0 -39 -29 -67t-67 -28q-32 0 -53.5 22t-21.5 54zM164 128l106 831l125 4l-102 -806q-8 -56 41 -56q17 0 33 4l-6 -106q-34 -10 -81 -10q-65 0 -95 35.5t-21 103.5zM468 1262q0 39 29 68t66 29q32 0 53.5 -22.5 t21.5 -54.5q0 -40 -28.5 -68t-67.5 -28q-31 0 -52.5 22t-21.5 54z" />
<glyph unicode="&#xf0;" horiz-adv-x="1091" d="M143 373q0 119 38 218.5t103.5 165.5t152.5 102t184 36q73 0 132 -21t96 -54.5t58.5 -69.5t29.5 -73q7 137 -33 265t-116 223l-182 -103l-35 84l154 86q-106 93 -231 109l83 103q154 -38 263 -147l197 111l36 -82l-174 -98q155 -210 155 -554q0 -168 -40 -300 t-112.5 -215.5t-170 -127t-215.5 -43.5q-165 0 -269 105t-104 280zM266 388q0 -133 75.5 -214t196.5 -81q149 0 251.5 101.5t123.5 263.5l2 22q6 133 -73 221.5t-213 88.5q-153 0 -258 -112t-105 -290z" />
<glyph unicode="&#xf1;" horiz-adv-x="1122" d="M150 0l121 959l88 4q4 -104 -12 -245h3q53 108 150.5 179.5t224.5 71.5q162 0 243.5 -105t60.5 -277l-52 -420q-4 -31 10 -48.5t41 -17.5q21 0 35 4l-5 -106q-34 -10 -88 -10q-67 0 -97.5 41.5t-22.5 110.5l54 446q15 126 -41.5 201.5t-171.5 75.5q-72 0 -135.5 -31 t-107 -80.5t-71.5 -106.5t-37 -113l-66 -533h-124zM398 1176q0 83 50 138.5t128 55.5q41 0 81 -19t65.5 -41.5t55 -41.5t52.5 -19q76 0 76 104l-3 28h101q1 -18 0 -37q-3 -86 -49 -139t-128 -53q-37 0 -75.5 19t-64.5 41t-56 41t-53 19q-35 0 -58.5 -25t-23.5 -77l1 -29h-98 q-1 16 -1 35z" />
<glyph unicode="&#xf2;" horiz-adv-x="1091" d="M146 410q0 243 147.5 401t373.5 158q183 0 290.5 -117t107.5 -308q0 -244 -147 -399.5t-374 -155.5q-184 0 -291 115t-107 306zM273 420q0 -148 76 -236.5t208 -88.5q166 0 274 123t108 315q0 149 -76.5 240t-208.5 91q-165 0 -273 -126.5t-108 -317.5zM511 1415h162 l83 -293l-111 -8z" />
<glyph unicode="&#xf3;" horiz-adv-x="1091" d="M146 410q0 243 147.5 401t373.5 158q183 0 290.5 -117t107.5 -308q0 -244 -147 -399.5t-374 -155.5q-184 0 -291 115t-107 306zM273 420q0 -148 76 -236.5t208 -88.5q166 0 274 123t108 315q0 149 -76.5 240t-208.5 91q-165 0 -273 -126.5t-108 -317.5zM581 1114l156 301 h162l-205 -293z" />
<glyph unicode="&#xf4;" horiz-adv-x="1091" d="M146 410q0 243 147.5 401t373.5 158q183 0 290.5 -117.5t107.5 -308.5q0 -243 -147 -398.5t-374 -155.5q-184 0 -291 115t-107 306zM273 420q0 -148 76 -236.5t208 -88.5q166 0 274 123t108 315q0 149 -76.5 240t-208.5 91q-165 0 -273 -126.5t-108 -317.5zM424 1114 l226 300h139l156 -300l-113 5l-124 196l-171 -196z" />
<glyph unicode="&#xf5;" horiz-adv-x="1091" d="M146 410q0 243 147.5 401t373.5 158q183 0 290.5 -117t107.5 -308q0 -244 -147 -399.5t-374 -155.5q-184 0 -291 115t-107 306zM273 420q0 -148 76 -236.5t208 -88.5q166 0 274 123t108 315q0 149 -76.5 240t-208.5 91q-165 0 -273 -126.5t-108 -317.5zM386 1175 q0 83 50.5 139t128.5 56q41 0 81 -19t65.5 -41.5t54.5 -41.5t52 -19q76 0 76 104l-2 28h101q0 -18 -1 -37q-3 -86 -48.5 -139t-127.5 -53q-37 0 -75.5 19t-64.5 41t-56 41t-53 19q-35 0 -58.5 -25t-23.5 -77l1 -30h-99q-1 16 -1 35z" />
<glyph unicode="&#xf6;" horiz-adv-x="1091" d="M146 410q0 243 147.5 401t373.5 158q183 0 290.5 -117t107.5 -308q0 -244 -147 -399.5t-374 -155.5q-184 0 -291 115t-107 306zM273 420q0 -148 76 -236.5t208 -88.5q166 0 274 123t108 315q0 149 -76.5 240t-208.5 91q-165 0 -273 -126.5t-108 -317.5zM447 1262 q0 39 29.5 68t67.5 29q31 0 52 -22.5t21 -55.5q0 -39 -28.5 -67t-66.5 -28q-32 0 -53.5 22t-21.5 54zM804 1262q0 39 29 68t66 29q32 0 53.5 -22.5t21.5 -54.5q0 -40 -29 -68t-68 -28q-31 0 -52 22t-21 54z" />
<glyph unicode="&#xf7;" horiz-adv-x="948" d="M186 454l12 95h690l-12 -95h-690zM396 72q0 39 30 68.5t69 29.5q31 0 52.5 -23t21.5 -56q0 -39 -29 -68t-68 -29q-33 0 -54.5 22.5t-21.5 55.5zM503 882q0 40 29.5 69t68.5 29q31 0 53 -23.5t22 -55.5q0 -39 -29 -67.5t-68 -28.5q-33 0 -54.5 22t-21.5 55z" />
<glyph unicode="&#xf8;" horiz-adv-x="1091" d="M146 410q0 243 147.5 401t373.5 158q122 0 211 -53l73 98h99l-108 -146q123 -117 123 -324q0 -244 -147 -399.5t-374 -155.5q-120 0 -212 53l-72 -98h-101l108 146q-121 115 -121 320zM273 420q0 -139 70 -228l465 629q-65 43 -154 43q-165 0 -273 -126.5t-108 -317.5z M403 137q65 -42 154 -42q166 0 274 123t108 315q0 144 -71 234z" />
<glyph unicode="&#xf9;" horiz-adv-x="1095" d="M186 368l73 591h125l-73 -591q-17 -125 37.5 -199t169.5 -74q68 0 129.5 32.5t103 83t68.5 109t35 114.5l66 525h124l-98 -781q-5 -41 7.5 -59t43.5 -18q18 0 32 4l-5 -105q-18 -9 -77 -9q-65 0 -98 34.5t-24 107.5l8 74h-5q-50 -97 -140.5 -157.5t-205.5 -60.5 q-160 0 -239 103.5t-57 275.5zM496 1415h161l83 -293l-110 -8z" />
<glyph unicode="&#xfa;" horiz-adv-x="1095" d="M186 368l73 591h125l-73 -591q-17 -125 37.5 -199t169.5 -74q68 0 129.5 32.5t103 83t68.5 109t35 114.5l66 525h124l-98 -781q-5 -41 7.5 -59t43.5 -18q18 0 32 4l-5 -105q-18 -9 -77 -9q-65 0 -98.5 34.5t-24.5 107.5l9 74h-5q-50 -97 -140.5 -157.5t-205.5 -60.5 q-160 0 -239 103.5t-57 275.5zM565 1114l157 301h162l-206 -293z" />
<glyph unicode="&#xfb;" horiz-adv-x="1095" d="M186 368l73 591h125l-73 -591q-17 -125 37.5 -199t169.5 -74q68 0 129.5 32.5t103 83t68.5 109t35 114.5l66 525h124l-98 -781q-5 -41 7.5 -59t43.5 -18q18 0 32 4l-5 -105q-18 -9 -77 -9q-65 0 -98.5 34.5t-24.5 107.5l9 74h-5q-50 -97 -140.5 -157.5t-205.5 -60.5 q-160 0 -239 103.5t-57 275.5zM409 1115l225 299h139l157 -299l-114 4l-124 196l-171 -196z" />
<glyph unicode="&#xfc;" horiz-adv-x="1095" d="M186 368l73 591h125l-73 -591q-17 -125 37.5 -199t169.5 -74q68 0 129.5 32.5t103 83t68.5 109t35 114.5l66 525h124l-98 -781q-5 -41 7.5 -59t43.5 -18q18 0 32 4l-5 -105q-18 -9 -77 -9q-65 0 -98.5 34.5t-24.5 107.5l9 74h-5q-50 -97 -140.5 -157.5t-205.5 -60.5 q-160 0 -239 103.5t-57 275.5zM431 1262q0 39 29.5 68t67.5 29q31 0 52.5 -23t21.5 -55q0 -39 -29 -67t-67 -28q-32 0 -53.5 22t-21.5 54zM788 1262q0 39 29 68t66 29q32 0 53.5 -22.5t21.5 -54.5q0 -40 -28.5 -68t-67.5 -28q-31 0 -52.5 22t-21.5 54z" />
<glyph unicode="&#xfd;" horiz-adv-x="1073" d="M105 -326l70 102q47 -43 119.5 -71t159.5 -28q157 0 244.5 78t106.5 227l30 228h-2q-53 -99 -143 -160t-208 -61q-160 0 -239 103.5t-57 275.5l73 591h125l-73 -591q-17 -125 37.5 -199t169.5 -74q88 0 162.5 53t116 125t55.5 148l68 538h124l-123 -978 q-24 -191 -147 -300t-334 -109q-67 0 -124 10.5t-101.5 30.5t-63 31t-46.5 30zM549 1114l157 301h162l-206 -293z" />
<glyph unicode="&#xfe;" horiz-adv-x="1193" d="M98 -418l231 1845h121l-85 -677h2q51 98 145.5 158.5t222.5 60.5q170 0 270 -114t100 -304q0 -248 -141 -405t-358 -157q-118 0 -198 59t-109 154l-77 -620h-124zM327 425q-4 -59 10.5 -115t46.5 -105.5t90.5 -79.5t135.5 -30q161 0 264.5 124t103.5 319q0 148 -74 237 t-203 89q-73 0 -138 -30.5t-109.5 -79.5t-74 -106.5t-39.5 -116.5z" />
<glyph unicode="&#xff;" horiz-adv-x="1073" d="M105 -326l70 102q47 -43 119.5 -71t159.5 -28q157 0 244.5 78t106.5 227l30 228h-2q-53 -99 -143 -160t-208 -61q-160 0 -239 103.5t-57 275.5l73 591h125l-73 -591q-17 -125 37.5 -199t169.5 -74q88 0 162.5 53t116 125t55.5 148l68 538h124l-123 -978 q-24 -191 -147 -300t-334 -109q-67 0 -124 10.5t-101.5 30.5t-63 31t-46.5 30zM415 1262q0 39 29.5 68t67.5 29q31 0 52 -22.5t21 -55.5q0 -39 -28.5 -67t-66.5 -28q-32 0 -53.5 22t-21.5 54zM772 1262q0 39 29 68t66 29q32 0 53.5 -22.5t21.5 -54.5q0 -40 -28.5 -68 t-67.5 -28q-31 0 -52.5 22t-21.5 54z" />
<glyph unicode="&#x152;" horiz-adv-x="2048" d="M182 570q0 176 53.5 325t145.5 249t216.5 156t265.5 56q150 0 265 -68.5t178 -194.5l32 251h775l-12 -110h-649l-60 -480h583l-14 -110h-583l-67 -534h648l-14 -110h-776l29 228q-93 -115 -224 -177t-282 -62q-230 0 -370 156.5t-140 424.5zM311 583q0 -220 108.5 -350.5 t286.5 -130.5q111 0 210 47.5t171.5 132.5t115 209.5t42.5 271.5q0 220 -108.5 350t-287.5 130q-110 0 -208.5 -47.5t-171.5 -132t-115.5 -209t-42.5 -271.5z" />
<glyph unicode="&#x153;" horiz-adv-x="1800" d="M146 410q0 243 147.5 401t373.5 158q128 0 221 -59.5t139 -165.5q68 106 175.5 165.5t235.5 59.5q161 0 253 -102.5t92 -270.5q0 -36 -5 -71.5t-10 -52.5l-5 -18h-701q-1 -11 -1 -33q0 -149 80 -237.5t221 -88.5q171 0 284 124l66 -71q-138 -159 -373 -159 q-133 0 -227.5 59t-139.5 164q-70 -105 -181.5 -164t-246.5 -59q-184 0 -291 115t-107 306zM273 420q0 -148 76 -236.5t208 -88.5q166 0 274.5 123.5t108.5 314.5q0 149 -76.5 240t-208.5 91q-165 0 -273.5 -126.5t-108.5 -317.5zM1074 545h583q4 30 4 56q0 122 -63.5 192.5 t-171.5 70.5q-127 0 -224 -87.5t-128 -231.5z" />
<glyph unicode="&#x178;" horiz-adv-x="1116" d="M207 1344h141l248 -591q33 -83 42 -137h3q18 55 72 137l398 591h133l-556 -830l-64 -514h-129l64 508zM494 1520q0 37 29 65.5t66 28.5q31 0 52 -22t21 -54q0 -38 -29 -66.5t-65 -28.5q-32 0 -53 22t-21 55zM851 1520q0 37 29 65.5t66 28.5q32 0 52 -22t20 -54 q0 -38 -28 -66.5t-66 -28.5q-32 0 -52.5 22t-20.5 55z" />
<glyph unicode="&#x2c6;" horiz-adv-x="653" d="M206 1114l225 300h139l157 -300l-114 5l-124 196l-171 -196z" />
<glyph unicode="&#x2dc;" horiz-adv-x="753" d="M224 1175q0 83 50 139t128 56q41 0 81 -19t65.5 -41.5t55 -41.5t52.5 -19q76 0 76 104l-3 28h101q1 -18 0 -37q-3 -86 -49 -139t-128 -53q-37 0 -75.5 19t-64.5 41t-56 41t-53 19q-35 0 -58.5 -25t-23.5 -77l1 -30h-98q-1 16 -1 35z" />
<glyph unicode="&#x2000;" horiz-adv-x="844" />
<glyph unicode="&#x2001;" horiz-adv-x="1688" />
<glyph unicode="&#x2002;" horiz-adv-x="844" />
<glyph unicode="&#x2003;" horiz-adv-x="1688" />
<glyph unicode="&#x2004;" horiz-adv-x="562" />
<glyph unicode="&#x2005;" horiz-adv-x="422" />
<glyph unicode="&#x2006;" horiz-adv-x="281" />
<glyph unicode="&#x2007;" horiz-adv-x="281" />
<glyph unicode="&#x2008;" horiz-adv-x="211" />
<glyph unicode="&#x2009;" horiz-adv-x="337" />
<glyph unicode="&#x200a;" horiz-adv-x="93" />
<glyph unicode="&#x2010;" horiz-adv-x="763" d="M209 617l12 97h501l-12 -97h-501z" />
<glyph unicode="&#x2011;" horiz-adv-x="763" d="M209 617l12 97h501l-12 -97h-501z" />
<glyph unicode="&#x2012;" horiz-adv-x="763" d="M209 617l12 97h501l-12 -97h-501z" />
<glyph unicode="&#x2013;" horiz-adv-x="919" d="M178 513l13 96h691l-12 -96h-692z" />
<glyph unicode="&#x2014;" horiz-adv-x="1400" d="M178 513l13 96h1172l-13 -96h-1172z" />
<glyph unicode="&#x2018;" horiz-adv-x="421" d="M228 1012q0 61 21 119t51 97t60 69.5t51 44.5l21 15l53 -74q-5 -4 -13.5 -10.5t-31 -28t-41 -44t-35.5 -55t-21 -63.5q38 0 62 -22t24 -56q0 -44 -29 -71.5t-78 -27.5q-43 0 -68.5 29t-25.5 78z" />
<glyph unicode="&#x2019;" horiz-adv-x="415" d="M225 979q5 4 13.5 10.5t31 28t41 44t35.5 55t21 63.5q-38 0 -62 22t-24 56q0 44 29 71.5t78 27.5q43 0 68 -29t25 -78q0 -61 -21 -119t-51 -97t-60 -69.5t-51 -44.5l-21 -15z" />
<glyph unicode="&#x201a;" horiz-adv-x="438" d="M71 -213q5 4 13.5 10.5t31 28t41 44t35.5 55t21 63.5q-38 0 -62 21.5t-24 55.5q0 45 29.5 72.5t77.5 27.5q43 0 68.5 -29t25.5 -78q0 -61 -21 -119t-51 -97t-60.5 -69.5t-51.5 -44.5l-21 -15z" />
<glyph unicode="&#x201c;" horiz-adv-x="704" d="M114 1012q0 61 21 119t51 97t60.5 69.5t51.5 44.5l21 15l52 -74q-5 -4 -13.5 -10.5t-31 -28t-41 -44t-35.5 -55t-21 -63.5q38 0 62 -22t24 -56q0 -44 -29 -71.5t-78 -27.5q-43 0 -68.5 29t-25.5 78zM378 1012q0 61 21 119t51 97t60 69.5t51 44.5l21 15l53 -74 q-5 -4 -13.5 -10.5t-31 -28t-41 -44t-35.5 -55t-21 -63.5q38 0 61.5 -22t23.5 -56q0 -45 -29 -72t-77 -27q-43 0 -68.5 29t-25.5 78z" />
<glyph unicode="&#x201d;" horiz-adv-x="698" d="M224 979q5 4 13.5 10.5t31 28t40.5 44t35 55t22 63.5q-38 0 -62.5 22t-24.5 56q0 45 29.5 72t78.5 27q43 0 68.5 -29t25.5 -78q0 -44 -11.5 -87.5t-29.5 -76.5t-40 -63t-43.5 -51t-39.5 -36.5t-29 -23.5l-12 -7zM505 979q5 4 13.5 10.5t31 28t40.5 44t35 55t22 63.5 q-38 0 -62.5 22t-24.5 56q0 45 29.5 72t78.5 27q43 0 68.5 -29t25.5 -78q0 -61 -21 -119t-51 -97t-60.5 -69.5t-51.5 -44.5l-21 -15z" />
<glyph unicode="&#x201e;" horiz-adv-x="720" d="M71 -213q5 4 13.5 10.5t31 28t41 44t35.5 55t21 63.5q-38 0 -62 21.5t-24 55.5q0 45 29.5 72.5t77.5 27.5q43 0 68.5 -29t25.5 -78q0 -61 -21 -119t-51 -97t-60.5 -69.5t-51.5 -44.5l-21 -15zM363 -213q5 4 13.5 10.5t31 28t41 44t35.5 55t21 63.5q-38 0 -62 21.5 t-24 55.5q0 45 29.5 72.5t77.5 27.5q43 0 68 -29t25 -78q0 -61 -21 -119t-51 -97t-60 -69.5t-51 -44.5l-21 -15z" />
<glyph unicode="&#x2022;" horiz-adv-x="671" d="M237 573q0 79 58.5 138t135.5 59q65 0 108 -46.5t43 -113.5q0 -79 -59 -137t-136 -58q-64 0 -107 46t-43 112z" />
<glyph unicode="&#x2026;" horiz-adv-x="1060" d="M126 71q0 42 31.5 73t73.5 31q34 0 57 -24.5t23 -59.5q0 -42 -31.5 -72.5t-72.5 -30.5q-35 0 -58 24t-23 59zM444 71q0 42 31.5 73t73.5 31q33 0 56.5 -25t23.5 -60q0 -41 -31.5 -71.5t-72.5 -30.5q-35 0 -58 24t-23 59zM770 71q0 42 31.5 73t73.5 31q33 0 56.5 -25 t23.5 -60q0 -41 -31.5 -71.5t-72.5 -30.5q-35 0 -58 24t-23 59z" />
<glyph unicode="&#x202f;" horiz-adv-x="337" />
<glyph unicode="&#x2039;" horiz-adv-x="536" d="M149 489l14 104l305 273l55 -73l-285 -252l222 -251l-74 -75z" />
<glyph unicode="&#x203a;" horiz-adv-x="536" d="M149 290l283 251l-220 252l74 73l237 -273l-14 -104l-305 -274z" />
<glyph unicode="&#x205f;" horiz-adv-x="422" />
<glyph unicode="&#x20ac;" horiz-adv-x="1382" d="M139 481l33 94h168q0 105 20 202h-184l33 94h175q71 226 238 355.5t384 129.5q76 0 143.5 -19t112 -45t82 -61t55.5 -60t31 -48l-88 -79q-20 35 -48.5 66.5t-70.5 63t-101.5 50.5t-127.5 19q-153 0 -284.5 -97.5t-193.5 -274.5h572l-33 -94h-565q-20 -94 -20 -199v-3h523 l-35 -94h-482q23 -181 126 -280t248 -99q134 0 233.5 57.5t163.5 135.5l70 -79q-18 -23 -42 -47.5t-70 -58.5t-97 -59.5t-124 -43.5t-151 -18q-206 0 -336.5 131.5t-152.5 360.5h-205z" />
<glyph unicode="&#x2122;" horiz-adv-x="1366" d="M228 1265l9 79h496l-9 -79h-201l-62 -486h-93l63 486h-203zM745 779l70 565h101l130 -433l244 433h95l-72 -565h-81l51 401l-222 -401h-65l-118 401l-50 -401h-83z" />
<glyph unicode="&#x25fc;" horiz-adv-x="962" d="M0 0v963h963v-963h-963z" />
</font>
</defs>
</svg>
