<?xml version="1.0" standalone="no"?>
<!DOCTYPE svg PUBLIC "-//W3C//DTD SVG 1.1//EN" "http://www.w3.org/Graphics/SVG/1.1/DTD/svg11.dtd" >
<svg xmlns="http://www.w3.org/2000/svg" xmlns:xlink="http://www.w3.org/1999/xlink" version="1.1">
<metadata></metadata>
<defs>
<font id="los_niches-scitalic" horiz-adv-x="1132" >
<font-face units-per-em="2048" ascent="1536" descent="-512" />
<missing-glyph horiz-adv-x="542" />
<glyph horiz-adv-x="0" />
<glyph horiz-adv-x="682" />
<glyph unicode=" "  horiz-adv-x="542" />
<glyph unicode="&#x09;" horiz-adv-x="542" />
<glyph unicode="&#xa0;" horiz-adv-x="542" />
<glyph unicode="!" horiz-adv-x="325" d="M121 29q0 15 12 27t27 12q17 0 29 -12t12 -27q0 -17 -12 -29t-29 -12q-15 0 -27 12t-12 29zM201 346l219 1131q3 26 31 22q26 -7 20 -31l-217 -1130q-6 -27 -33 -23q-26 9 -20 31z" />
<glyph unicode="&#x22;" horiz-adv-x="288" d="M258 1165l82 414q3 17 17.5 21.5t26 -5t7.5 -26.5l-80 -414q-3 -17 -17.5 -21.5t-26.5 5t-9 26.5zM428 1165l82 414q3 17 17.5 21.5t26 -5t7.5 -26.5l-80 -414q-3 -17 -17.5 -21.5t-26.5 5t-9 26.5z" />
<glyph unicode="#" horiz-adv-x="923" d="M99.5 272q-6.5 14 0 27.5t23.5 13.5h172l57 299h-182q-17 0 -23.5 14t0 28t23.5 14h192l46 227q3 16 17.5 20.5t26.5 -4t9 -24.5l-43 -219h340l45 227q3 16 17.5 20.5t26.5 -4t9 -24.5l-43 -219h154q17 0 23.5 -14t0 -28t-23.5 -14h-164l-60 -299h177q17 0 23.5 -13.5 t0 -27.5t-23.5 -14h-187l-43 -229q-3 -16 -17.5 -20.5t-26.5 4t-9 24.5l43 221h-342l-43 -229q-3 -16 -17.5 -20.5t-26.5 4t-9 24.5l43 221h-162q-17 0 -23.5 14zM348 313h342l58 299h-340z" />
<glyph unicode="$" horiz-adv-x="790" d="M118.5 156.5q5.5 14.5 19 17.5t26.5 -8q8 -7 20 -19q121 -102 252 -102q111 0 177.5 49t66.5 127q0 38 -25 67.5t-64.5 49.5t-88 39t-96.5 42.5t-87.5 53t-64.5 77t-25 109.5q0 94 56 163.5t147 101.5l37 184q3 16 17.5 20.5t26.5 -4t9 -24.5l-30 -162q46 8 73 8 q31 0 66 -6l33 168q3 16 17.5 20.5t26.5 -4t9 -24.5l-35 -174q125 -42 176 -138q8 -16 -0.5 -28t-23.5 -12t-23 16l-12 18q-40 53 -102 81t-132 28q-119 0 -199.5 -64.5t-80.5 -167.5q0 -53 24.5 -93.5t64 -65.5t87.5 -46t96 -41t87.5 -44t64 -61.5t24.5 -86.5 q0 -80 -49.5 -136.5t-132.5 -80.5l-35 -182q-3 -16 -17.5 -20.5t-26.5 4t-9 24.5l31 164q-36 -4 -58 -4q-35 0 -80 10l-34 -178q-3 -16 -17.5 -20.5t-27 4t-9.5 24.5l35 184q-109 40 -178 115q-12 13 -6.5 27.5z" />
<glyph unicode="%" horiz-adv-x="1392" d="M154 672q22 112 116 191t207 79q107 0 174 -74q306 -86 578 308q17 23 38.5 7.5t6.5 -38.5l-918 -1327q-9 -15 -24.5 -13t-21.5 14.5t1 28.5l723 1043q-165 -112 -342 -88q25 -64 13 -141q-22 -112 -116.5 -191.5t-207.5 -79.5q-117 0 -183 82.5t-44 198.5zM207 662 q-19 -92 32 -155t142 -63q93 0 172 67t98 161q17 91 -34 154t-140 63q-94 0 -172.5 -66.5t-97.5 -160.5zM838 268q22 114 115.5 193.5t207.5 79.5q115 0 181.5 -83.5t43.5 -197.5q-22 -114 -115.5 -193t-207.5 -79q-115 0 -181.5 83t-43.5 197zM889 260q-17 -92 33.5 -154.5 t140.5 -62.5q94 0 173.5 66t96.5 159q19 92 -31.5 154.5t-140.5 62.5q-94 0 -173.5 -65.5t-98.5 -159.5z" />
<glyph unicode="&#x26;" horiz-adv-x="1228" d="M182 301q0 103 51.5 196t137.5 154q-61 60 -96 144.5t-35 171.5q0 221 132.5 348t344.5 127q101 0 197 -52t139 -139q8 -15 -1.5 -27t-23 -11.5t-22.5 14.5q-46 77 -122 119.5t-167 42.5q-190 0 -307 -112.5t-117 -309.5q0 -77 33.5 -155.5t91.5 -131.5q86 47 178 47 q48 0 81.5 -23t33.5 -67q0 -42 -36 -62t-81 -20q-99 0 -180 59q-80 -52 -129 -136.5t-49 -176.5q0 -102 82.5 -181t213.5 -79q181 0 293 114t152 314l29 141h-115q-17 0 -24.5 14t0 28t24.5 14h125l47 249q3 17 17 21t25.5 -5t8.5 -26l-41 -239h117q17 0 24.5 -14t0 -28 t-24.5 -14h-125l-35 -170q-38 -186 29 -292.5t239 -106.5q17 0 24.5 -13.5t0 -26.5t-24.5 -13q-157 0 -238.5 75t-94.5 207q-134 -282 -433 -282q-153 0 -251.5 94.5t-98.5 218.5zM467 643q56 -35 127 -35q23 0 38.5 5.5t20 11.5t4.5 12q0 35 -61 35q-63 0 -129 -29z" />
<glyph unicode="'" horiz-adv-x="167" d="M274 1165l82 414q3 17 17.5 21.5t26.5 -5t8 -26.5l-80 -414q-3 -17 -17.5 -21.5t-27 5t-9.5 26.5z" />
<glyph unicode="(" horiz-adv-x="516" d="M180 -666q-205 893 346 1782q8 15 23.5 13.5t22 -14t-0.5 -28.5q-537 -873 -338 -1740q2 -10 -2 -18t-11.5 -11.5t-15.5 -4t-15 5t-9 15.5z" />
<glyph unicode=")" horiz-adv-x="606" d="M108.5 -116.5q-6.5 12.5 0.5 28.5q536 872 337 1741q-3 17 9 26.5t26.5 6t18.5 -20.5q205 -893 -346 -1782q-8 -15 -23.5 -13.5t-22 14z" />
<glyph unicode="*" horiz-adv-x="479" d="M64.5 1269q-6.5 14 0 28t23.5 14h221l-155 155q-19 19 0.5 38.5t38.5 0.5l155 -155v221q0 17 14 23.5t27.5 0t13.5 -23.5v-223l158 157q19 19 38.5 -0.5t0.5 -38.5l-156 -155h220q17 0 23.5 -14t0 -28t-23.5 -14h-222l158 -157q19 -19 -0.5 -38.5t-38.5 -0.5l-158 158 v-222q0 -17 -13.5 -23.5t-27.5 0t-14 23.5v219l-155 -155q-19 -19 -38.5 0.5t-0.5 38.5l157 157h-223q-17 0 -23.5 14z" />
<glyph unicode="+" horiz-adv-x="632" d="M97.5 470.5q-6.5 13.5 0 26.5t23.5 13h264l53 266q3 17 17.5 21t27 -6t9.5 -27l-52 -254h256q17 0 23.5 -13t0 -26.5t-23.5 -13.5h-266l-51 -267q-2 -10 -8.5 -15.5t-14.5 -5.5t-15.5 3t-12 11t-2.5 18l49 256h-254q-17 0 -23.5 13.5z" />
<glyph unicode="," horiz-adv-x="354" d="M-77 -354.5q-15 22.5 7 37.5q231 152 287 456q3 17 17 21t25.5 -5t8.5 -26q-49 -321 -307 -491q-23 -15 -38 7.5z" />
<glyph unicode="-" horiz-adv-x="632" d="M89.5 456q-6.5 14 0 28t23.5 14h575q17 0 23.5 -14t0 -28t-23.5 -14h-575q-17 0 -23.5 14z" />
<glyph unicode="." horiz-adv-x="313" d="M109 61q0 34 24.5 58t59.5 24q30 0 52.5 -24.5t22.5 -57.5q0 -31 -23 -54t-52 -23q-35 0 -59.5 23t-24.5 54z" />
<glyph unicode="/" horiz-adv-x="366" d="M39 -20l633 1486q7 16 22 17t24.5 -11t2.5 -28l-633 -1487q-7 -16 -22 -16.5t-24.5 11.5t-2.5 28z" />
<glyph unicode="0" horiz-adv-x="1101" d="M176 379q0 110 49 214.5t128.5 180.5t184.5 122t212 46q175 0 286 -111t111 -280q0 -146 -82 -277t-214.5 -208.5t-275.5 -77.5q-176 0 -287.5 111.5t-111.5 279.5zM229 377q0 -146 96.5 -241t249.5 -95q128 0 248.5 70.5t195.5 189.5t75 250q0 147 -96.5 242.5 t-247.5 95.5q-128 0 -249 -70.5t-196.5 -190t-75.5 -251.5z" />
<glyph unicode="1" horiz-adv-x="806" d="M95.5 13q-6.5 13 0 26.5t23.5 13.5h319l152 774q-148 -137 -363 -202q-26 -7 -33.5 19t17.5 34q246 70 403 252q17 20 33.5 11.5t11.5 -34.5l-165 -854h274q17 0 24.5 -13.5t0 -26.5t-24.5 -13h-649q-17 0 -23.5 13z" />
<glyph unicode="2" horiz-adv-x="813" d="M66 31q10 58 42 101.5t78.5 70t104 46.5t118 36t121 33.5t114 44t94.5 63t65 95t24 134.5q0 101 -67.5 167.5t-173.5 66.5q-124 0 -229.5 -89t-131.5 -214q-4 -17 -18.5 -22t-26 4.5t-8.5 27.5q25 142 147 244t267 102q129 0 212 -83t83 -206q0 -88 -28.5 -156 t-76 -108.5t-109.5 -72.5t-127.5 -49.5t-132.5 -38t-122.5 -40.5t-98 -54.5t-59.5 -80.5h637q17 0 23.5 -13.5t0 -26.5t-23.5 -13h-672q-13 0 -21 9t-5 22z" />
<glyph unicode="3" horiz-adv-x="815" d="M-115 -150q-3 17 9.5 26.5t27 5.5t17.5 -21q19 -119 108 -194t219 -75q123 0 240 67.5t190.5 182t73.5 240.5q0 123 -82 206t-213 101q-20 3 -25 16.5t9 28.5l397 440h-651q-17 0 -23.5 13.5t0 27t23.5 13.5h713q21 0 26.5 -15t-8.5 -30l-406 -449q131 -31 212 -126 t81 -228q0 -105 -48 -205.5t-125.5 -173.5t-179 -117.5t-204.5 -44.5q-149 0 -253 86.5t-128 224.5z" />
<glyph unicode="4" horiz-adv-x="854" d="M19.5 14q-6.5 14 7.5 29l815 887q12 12 24 12q11 0 18.5 -10.5t4.5 -26.5l-168 -852h100q17 0 24.5 -13.5t0 -26.5t-24.5 -13h-110l-80 -412q-2 -10 -8.5 -15.5t-14.5 -5.5t-15.5 3t-12 11t-2.5 18l77 401h-608q-21 0 -27.5 14zM109 53h557l151 768z" />
<glyph unicode="5" horiz-adv-x="825" d="M-33 -117q-1 17 12 25t26.5 2t14.5 -23q9 -114 91.5 -187t205.5 -73q119 0 226 69t168 173t61 207q0 124 -99 204t-304 80h-160q-14 0 -22 10t-5 23l101 512q2 8 10.5 15.5t15.5 7.5h520q17 0 23.5 -13.5t0 -27t-23.5 -13.5h-497l-90 -460h127q119 0 209.5 -27 t143.5 -74.5t79 -106.5t26 -128q0 -87 -40 -177t-107 -162.5t-163 -118.5t-200 -46q-144 0 -241.5 87.5t-108.5 221.5z" />
<glyph unicode="6" horiz-adv-x="1001" d="M156 377q0 103 31 218t86.5 229t140.5 219.5t185.5 189.5t228.5 140t264 69q17 2 26 -10.5t3 -26.5t-23 -16q-151 -17 -291.5 -89.5t-246.5 -178.5t-183.5 -230t-118.5 -252q67 94 182 145.5t226 51.5q178 0 279.5 -126.5t66.5 -303.5q-34 -173 -180.5 -295.5 t-321.5 -122.5q-177 0 -265.5 107t-88.5 282zM207 350q0 -146 84.5 -227.5t218.5 -81.5q155 0 287 110t161 265q31 153 -54 259.5t-238 106.5q-57 0 -118 -16t-122 -50.5t-109.5 -83.5t-79 -122.5t-30.5 -159.5z" />
<glyph unicode="7" horiz-adv-x="833" d="M-63 -416l1013 1293h-762q-17 0 -23.5 12.5t0 25.5t23.5 13h818q21 0 27.5 -13t-5.5 -28l-1048 -1336q-17 -21 -37.5 -4.5t-5.5 37.5z" />
<glyph unicode="8" horiz-adv-x="847" d="M147 276q0 121 75 223.5t190 147.5q-95 38 -151 123.5t-56 194.5q0 127 71 240.5t186 181t240 67.5q153 0 251 -97t98 -243q0 -156 -106 -289.5t-257 -181.5q68 -34 108 -99.5t40 -144.5q0 -159 -124.5 -279t-281.5 -120q-125 0 -204 79t-79 197zM201 279 q0 -97 64.5 -161.5t164.5 -64.5q87 0 168.5 47.5t132.5 127.5t51 169q0 98 -64.5 162t-166.5 64h-12q-131 -5 -234.5 -108.5t-103.5 -235.5zM258 965q0 -125 82.5 -207t210.5 -82h12q109 3 209 64.5t161.5 162t61.5 211.5q0 124 -82.5 205.5t-210.5 81.5q-109 0 -212 -60.5 t-167.5 -162.5t-64.5 -213z" />
<glyph unicode="9" horiz-adv-x="948" d="M-88 -465q0 11 7 19t20 8q283 0 542.5 198.5t392.5 507.5q-73 -81 -179 -127.5t-216 -46.5q-156 0 -255 97.5t-99 246.5q0 130 72.5 247t190.5 187t247 70q151 0 254.5 -97.5t103.5 -258.5q0 -130 -41 -263.5t-113 -251.5t-173 -222.5t-216 -179t-247.5 -118 t-263.5 -43.5q-13 0 -20 8t-7 19zM178 442q0 -127 84.5 -211t216.5 -84q92 0 176.5 33.5t146.5 91t99 137.5t37 169q0 146 -85 228.5t-218 82.5q-113 0 -219 -61.5t-172 -165.5t-66 -220z" />
<glyph unicode=":" horiz-adv-x="454" d="M162 176q0 34 24.5 58t59.5 24q30 0 53 -24.5t23 -57.5q0 -31 -23.5 -54.5t-52.5 -23.5q-35 0 -59.5 23.5t-24.5 54.5zM262 776q0 34 24.5 58t59.5 24q30 0 53 -24.5t23 -57.5q0 -31 -23.5 -54.5t-52.5 -23.5q-35 0 -59.5 23.5t-24.5 54.5z" />
<glyph unicode=";" horiz-adv-x="411" d="M-91 -354.5q15 -22.5 38 -7.5q243 161 307 491q4 16 -7.5 25.5t-26 5.5t-17.5 -21q-60 -307 -287 -456q-22 -15 -7 -37.5zM229 788q0 34 24.5 58t59.5 24q30 0 53 -24.5t23 -57.5q0 -30 -23.5 -53.5t-52.5 -23.5q-35 0 -59.5 23t-24.5 54z" />
<glyph unicode="&#x3c;" horiz-adv-x="608" d="M114 475q1 13 13 21l565 358q23 14 37.5 -9t-8.5 -38l-533 -338l398 -336q13 -11 9 -26t-17 -19.5t-27 4.5l-426 359q-12 11 -11 24z" />
<glyph unicode="=" horiz-adv-x="534" d="M64.5 310.5q-6.5 13.5 0 27.5t23.5 14h471q17 0 23.5 -14t0 -27.5t-23.5 -13.5h-471q-17 0 -23.5 13.5zM107.5 530q-6.5 14 0 27.5t23.5 13.5h471q17 0 23.5 -13.5t0 -27.5t-23.5 -14h-471q-17 0 -23.5 14z" />
<glyph unicode="&#x3e;" horiz-adv-x="561" d="M5.5 97q-14.5 23 8.5 38l533 338l-397 336q-13 11 -9.5 26t16.5 19.5t27 -4.5l426 -358q12 -11 11 -24.5t-13 -21.5l-565 -358q-23 -14 -37.5 9z" />
<glyph unicode="?" horiz-adv-x="528" d="M205 59q0 30 20 51t49 21t49.5 -21.5t20.5 -50.5t-20.5 -49t-49.5 -20t-49 20t-20 49zM291 381q0 102 25 188t64.5 145.5t87.5 111.5t96 95.5t87.5 86.5t64.5 96.5t25 114.5q0 71 -43 126t-128.5 72.5t-213.5 -43.5q-15 -7 -27 2.5t-11.5 24.5t16.5 22q146 67 248 47 t157.5 -89.5t55.5 -161.5q0 -67 -25 -125.5t-64.5 -103.5t-88 -89.5t-96.5 -94.5t-87.5 -107t-64.5 -139t-25 -179q1 -17 -12.5 -24t-27 0t-13.5 24z" />
<glyph unicode="@" horiz-adv-x="1519" d="M152 422q36 186 158.5 343.5t298.5 249t362 91.5q140 0 258.5 -53t194.5 -141t108.5 -207t7.5 -246q-38 -196 -149.5 -321.5t-241.5 -125.5q-78 0 -123.5 39t-56.5 103q-121 -142 -281 -142q-84 1 -140.5 55t-74.5 131.5t-2 157.5q33 162 138.5 281t241 162.5t259.5 1.5 l8 -6q4 0 4 -4q6 -6 6 -21l-102 -530q-16 -76 15.5 -124t107.5 -48q107 0 205 108.5t133 292.5q22 114 -7 220.5t-97 186.5t-176 128.5t-236 48.5q-174 0 -338.5 -86t-279 -233.5t-148.5 -321.5q-25 -129 2 -246t95.5 -201t175.5 -134t235 -50q17 0 23.5 -14t0 -27.5 t-23.5 -13.5q-141 0 -259 55.5t-193.5 148.5t-105.5 222t-3 270zM524 346q-22 -110 25 -194t139 -84q51 -1 99 17.5t80.5 45t57.5 54t36.5 45.5t11.5 20l96 506q-106 27 -220 -14.5t-205 -146.5t-120 -249z" />
<glyph unicode="A" d="M12 4q-9 13 0 29l803 1392q11 18 30.5 17t22.5 -17l262 -1400q3 -17 -9 -27t-26.5 -5.5t-17.5 21.5l-57 308h-780l-181 -316q-10 -15 -24 -15t-23 13zM270 375h740l-181 968z" />
<glyph unicode="B" horiz-adv-x="1032" d="M129 33l270 1382q2 8 10 15.5t15 7.5h321q160 0 253.5 -87t93.5 -221q0 -207 -183 -337q164 -104 164 -299q0 -219 -160.5 -356.5t-410.5 -137.5h-346q-13 0 -21 9.5t-6 23.5zM188 53h314q228 0 373 125.5t145 315.5q0 175 -164 266q-137 -76 -293 -76q-82 0 -125 25 t-43 71v4q4 93 195 93q140 0 264 -56q184 117 184 309q0 110 -76.5 181t-216.5 71h-299zM451 774q6 -35 112 -35q120 0 230 49q-93 35 -203 35q-13 0 -30 -1t-44.5 -5t-46 -13.5t-18.5 -23.5v-6z" />
<glyph unicode="C" horiz-adv-x="1071" d="M188 721q-19 -96 -19 -184q0 -99 24 -187q45 -168 164 -265t288 -97q194 0 365 129q14 11 11 26.5t-16 20.5t-28 -4q-157 -119 -332 -119q-232 0 -342 182q-76 127 -76 307q0 47 5 97q24 241 153 442q138 215 339 286q87 31 179 31q176 0 281 -114q12 -12 27 -7t18.5 18 t-6.5 26q-122 131 -320 131q-167 0 -317 -94t-254 -258t-144 -367z" />
<glyph unicode="D" horiz-adv-x="1089" d="M127 27v6l268 1384q1 7 10 14t17 7h182q155 0 271.5 -42.5t186 -118t103 -172.5t33.5 -214q0 -108 -23 -215t-66 -206.5t-109 -184.5t-148.5 -148.5t-189.5 -100t-226 -36.5h-282q-12 0 -19.5 8t-7.5 19zM186 53h250h5q128 0 241 47q115 48 198.5 130t144 189.5 t90.5 228.5t30 245q0 108 -30.5 195t-94 154.5t-169.5 104.5t-247 37h-160z" />
<glyph unicode="E" horiz-adv-x="937" d="M182 299q0 96 47.5 186.5t126.5 151.5q-127 107 -127 278q0 109 47 208.5t122.5 168.5t171.5 109.5t192 40.5q101 0 197 -53.5t137 -143.5q10 -25 -14 -35t-35 13q-5 12 -15 26q-46 67 -116 103.5t-154 36.5q-115 0 -225.5 -62.5t-182 -173.5t-71.5 -238q0 -156 120 -245 q90 55 191 55q48 0 81.5 -21.5t33.5 -64.5t-35 -62.5t-84 -19.5q-107 0 -189 49q-75 -55 -120 -137.5t-45 -169.5q0 -107 70.5 -182.5t197.5 -75.5q78 0 159 46t136 112q9 14 24.5 11t21 -16t-2.5 -28q-64 -76 -155.5 -127t-182.5 -51q-103 0 -178 45.5t-109.5 114.5 t-34.5 151zM457 639q66 -29 133 -29q24 0 39.5 5.5t20.5 11.5t5 12q0 13 -14.5 23t-46.5 10q-66 0 -137 -33z" />
<glyph unicode="F" horiz-adv-x="856" d="M129 25l270 1392q2 8 10 14.5t17 6.5h612q17 0 24.5 -13.5t0 -27t-24.5 -13.5h-592l-135 -694h582q17 0 24.5 -13t0 -26.5t-24.5 -13.5h-592l-121 -623q-3 -17 -17.5 -21.5t-26 5.5t-7.5 27z" />
<glyph unicode="G" horiz-adv-x="1318" d="M170 543q0 124 33.5 251.5t100.5 243.5t158 206t216.5 144t265.5 54q92 0 170 -23.5t141.5 -78.5t90.5 -138l10 -47q2 -17 -10.5 -25.5t-26.5 -3t-16 22.5q-3 15 -9 35q-24 73 -80 119.5t-122.5 64.5t-147.5 18q-130 0 -246.5 -50.5t-201.5 -136t-147.5 -194t-94 -227.5 t-31.5 -235q0 -104 26.5 -192.5t79 -158t138.5 -109.5t197 -40q139 0 266 81t216 218.5t128 306.5h-387q-17 0 -23.5 13.5t0 26.5t23.5 13h420q14 0 21.5 -9.5t4.5 -22.5l-76 -398q-16 -82 -21 -153q-2 -26 -2 -53q0 -45 6 -92q8 -73 33 -135t73.5 -121t119.5 -105 q15 -9 13.5 -25t-13.5 -22t-28 2q-79 51 -133 116t-81.5 133.5t-37.5 149.5q-6 52 -6 102q0 27 2 54q5 75 22 160l21 100q-78 -170 -235 -282.5t-326 -112.5q-124 0 -220.5 44.5t-155 122t-88.5 176t-30 212.5z" />
<glyph unicode="H" horiz-adv-x="1120" d="M129 25l270 1390q3 17 17 21t26 -5t9 -26l-138 -707h760l139 717q3 17 17.5 21t27 -5t9.5 -26l-271 -1391q-6 -26 -31.5 -21.5t-21.5 32.5l121 620h-760l-123 -631q-3 -17 -17.5 -21.5t-26 5.5t-7.5 27z" />
<glyph unicode="I" horiz-adv-x="307" d="M129 25l270 1390q3 17 17.5 21t27 -5t9.5 -26l-271 -1391q-3 -22 -24 -22q-13 0 -22.5 9.5t-6.5 23.5z" />
<glyph unicode="J" horiz-adv-x="323" d="M-287 -399q0 8 5.5 15t15.5 9q20 7 53 23q77 37 137.5 87t106 127.5t73.5 128t57 161t37.5 148.5t32.5 164q6 29 9 44l176 907q3 17 17.5 21t26.5 -5t9 -26l-223 -1153q-23 -116 -62 -215t-81.5 -165.5t-93 -121t-91.5 -85t-82.5 -52.5t-60 -29t-28.5 -10h-1 q-10 -2 -18 1.5t-11.5 10.5t-3.5 15z" />
<glyph unicode="K" horiz-adv-x="1120" d="M129 25l270 1390q3 17 17.5 21t27 -5t9.5 -26l-271 -1391q-2 -10 -8.5 -15.5t-14.5 -5.5t-15.5 3t-12 11t-2.5 18zM326 563q0 52 47 75.5t104 23.5q119 0 213 -62q26 23 50.5 50.5t49.5 62t41 58t43 66.5t37 58l349 530q10 13 24 12t22.5 -14t0.5 -28l-351 -529 q-15 -22 -49.5 -75t-55 -83.5t-53.5 -71t-65 -69.5q57 -47 103.5 -112.5t99.5 -159.5l147 -262q9 -15 0 -28t-23 -13t-24 14l-147 262q-52 93 -97 157t-102 110q-94 -72 -213 -72q-37 0 -67.5 6.5t-57 30.5t-26.5 63zM379 563q0 -15 11 -25.5t29 -14.5t31.5 -5.5t26.5 -1.5 q92 0 166 49q-75 43 -166 43q-29 0 -63.5 -10.5t-34.5 -34.5z" />
<glyph unicode="L" horiz-adv-x="710" d="M129 33l268 1384q3 17 17.5 21t27 -5t9.5 -26l-263 -1354h496q17 0 23.5 -13.5t-0.5 -26.5t-23 -13h-528q-13 0 -21 9.5t-6 23.5z" />
<glyph unicode="M" horiz-adv-x="1519" d="M129 25l270 1390q5 23 28 23t32 -23l383 -966l764 972q17 22 40.5 15.5t18.5 -31.5l-270 -1391q-6 -26 -32 -21.5t-22 32.5l250 1290l-727 -924q49 -126 49 -211q0 -78 -40.5 -135t-112.5 -57q-49 0 -78 32t-29 80q0 108 138 283l14 18l-367 924l-256 -1311 q-3 -22 -26 -22q-12 0 -21 9.5t-6 23.5zM707 98q0 -26 15.5 -41.5t37.5 -15.5q48 0 73 40.5t25 98.5q0 59 -31 162q-49 -64 -84.5 -131.5t-35.5 -112.5z" />
<glyph unicode="N" horiz-adv-x="1175" d="M129 25l270 1386q3 16 13 22.5t21.5 2t17.5 -18.5l565 -1302l252 1300q3 17 17.5 21t26.5 -5t9 -26l-268 -1387q-6 -25 -24.5 -27t-27.5 21l-565 1303l-254 -1301q-2 -10 -8.5 -15.5t-14.5 -5.5t-15.5 3t-12 11t-2.5 18z" />
<glyph unicode="O" horiz-adv-x="1255" d="M170 520q0 138 35.5 273.5t102.5 251.5t156 205.5t203 140.5t236 51q210 0 333 -144.5t128 -377.5q0 -180 -57.5 -350t-154.5 -298t-234 -206t-287 -78q-210 0 -334 148t-127 384zM223 522q3 -220 113.5 -350.5t294.5 -130.5q136 0 261.5 71.5t217 190.5t146.5 281.5 t55 335.5q-5 215 -114 342t-294 127q-110 0 -214.5 -47t-187.5 -130.5t-146 -191.5t-97.5 -237t-34.5 -261z" />
<glyph unicode="P" horiz-adv-x="1048" d="M84 25l274 1392q2 8 10 14.5t15 6.5h379q185 0 299.5 -92.5t114.5 -270.5q0 -170 -76.5 -299.5t-209 -197.5t-300.5 -68h-357l-96 -496q-3 -17 -17.5 -21.5t-26.5 5.5t-9 27zM244 563h346q235 0 383.5 139t148.5 371q0 155 -97 233t-263 78h-356z" />
<glyph unicode="Q" horiz-adv-x="1263" d="M170 575q0 132 39.5 262.5t109.5 238t161 190.5t200 129.5t219 46.5q215 0 338 -149.5t123 -391.5q0 -235 -116 -458.5t-308 -346.5q38 -39 95 -104t97 -111.5t99.5 -101.5t114 -89t128 -57.5t152.5 -23.5q190 0 426 129q16 8 29 -1.5t12.5 -23t-14.5 -22.5 q-254 -137 -453 -137q-85 0 -164.5 25.5t-138.5 63t-122.5 95t-107 107.5t-103 116.5t-99.5 106.5q-151 -80 -320 -80q-86 0 -149.5 37t-63.5 112q0 54 34 89t79 47t100 12q166 0 330 -150q186 115 298 330.5t112 439.5q0 220 -111 352t-297 132q-110 0 -215 -48t-187 -130 t-144.5 -185.5t-96 -219.5t-33.5 -228q0 -156 60 -265q12 -23 -10 -36t-35 10q-5 5 -19 34.5t-31.5 102t-17.5 151.5zM412 137q0 -43 41.5 -69.5t113.5 -26.5q152 0 279 65q-142 125 -279 125q-75 0 -115 -24t-40 -70z" />
<glyph unicode="R" horiz-adv-x="1079" d="M129 23l272 1392q2 9 9 16t16 7h326q188 0 280 -94.5t92 -260.5q0 -127 -78 -241t-200 -185q56 -81 92 -181t49 -182.5t30 -163.5t36 -135.5t66 -86.5q42 -28 105 -27h17q17 1 25.5 -12t3 -26.5t-22.5 -14.5q-16 -1 -31 -1q-60 0 -104 19q-54 24 -84 72t-47.5 110 t-30.5 140t-27.5 154t-45.5 160.5t-78 150.5q-109 -53 -221 -53q-93 0 -139 30t-46 80q0 49 49 80t136 31q139 0 233 -101q112 63 185 166t73 217q0 299 -317 299h-303l-267 -1368q-3 -17 -17.5 -22t-26.5 4.5t-9 26.5zM446 690q0 -27 34 -42t98 -15q94 0 184 41 q-77 74 -184 74q-63 0 -97.5 -15.5t-34.5 -42.5z" />
<glyph unicode="S" horiz-adv-x="999" d="M106.5 216q6.5 14 21 15.5t26.5 -10.5q69 -82 166 -130t202 -48q185 0 297.5 72.5t112.5 206.5q0 70 -36 121.5t-93 83.5t-126 60t-138.5 61t-126.5 76t-93 115.5t-36 168.5q0 120 70.5 221t180.5 157t230 56q75 0 150.5 -22t141.5 -73t89 -122q6 -16 -4.5 -27.5 t-25.5 -9.5t-21 18q-39 91 -130 135.5t-200 44.5q-108 0 -206.5 -50t-160 -138t-61.5 -190q0 -69 22 -124t60 -91.5t86.5 -66t102.5 -52t107.5 -45t102 -49.5t86.5 -60.5t60 -84t22 -113.5q0 -84 -38 -150t-103.5 -105t-147 -59t-174.5 -20q-114 0 -228.5 55t-182.5 145 q-11 14 -4.5 28z" />
<glyph unicode="T" horiz-adv-x="1032" d="M271.5 1397.5q-6.5 13.5 0 27t23.5 13.5h997q17 0 24.5 -13.5t0 -27t-24.5 -13.5h-475l-268 -1370q-3 -17 -17 -21t-25.5 5.5t-8.5 26.5l264 1359h-467q-17 0 -23.5 13.5z" />
<glyph unicode="U" horiz-adv-x="1138" d="M227 426l191 989q3 17 17.5 21t26.5 -5t9 -26l-190 -989q-8 -40 -8 -77q-1 -106 65 -187q88 -109 244 -109q158 0 292.5 112.5t165.5 270.5l191 989q3 17 18 21t27 -5.5t8 -25.5l-190 -989q-34 -177 -184 -302.5t-328 -125.5q-182 0 -286 129q-78 97 -78 222q0 42 9 87z " />
<glyph unicode="V" horiz-adv-x="1073" d="M236 1405q-3 17 9 26t26.5 5t17.5 -21l262 -1331l784 1339q10 14 24 14t23 -12.5t0 -27.5l-811 -1385q-14 -22 -36 -21t-25 21z" />
<glyph unicode="W" horiz-adv-x="1753" d="M236 1411q-3 17 9 26.5t26.5 5t17.5 -21.5l219 -1329l522 860l-18 86q-6 30 -10 61q-6 31 -8 72q-1 23 -1 44q0 17 1 33q2 36 12 73.5t27 63.5t47 42.5t71 16.5q112 0 112 -101q0 -48 -25 -118q-43 -118 -151 -285l187 -850l741 1340q10 14 24 14t22.5 -13t0.5 -28 l-776 -1401q-8 -13 -18.5 -17t-19 3t-11.5 22l-188 867l-533 -875q-11 -22 -27.5 -18.5t-21.5 26.5zM1048 1236l-2 -26q0 -28 5 -60q6 -48 10 -74.5t10 -55.5v-2l25 41q111 184 111 272q0 9 -1 16q-7 46 -55 46q-36 0 -59.5 -21.5t-32 -59.5t-11.5 -76z" />
<glyph unicode="X" horiz-adv-x="1183" d="M292.5 6q-8.5 14 2.5 29l446 588l-436 774q-9 15 0 27.5t23 12.5t24 -14l426 -753l576 757q9 14 24.5 11.5t20.5 -15t-4 -26.5l-590 -776l334 -588q8 -15 -1.5 -28t-23 -13t-22.5 14l-322 567l-432 -571q-8 -10 -21 -10q-16 0 -24.5 14z" />
<glyph unicode="Y" horiz-adv-x="929" d="M217 1401q-7 16 3 27t25 10t21 -17l316 -753l616 759q11 14 26 11t19.5 -15.5t-4.5 -27.5l-639 -791l-115 -590q-3 -17 -17.5 -21.5t-26.5 5.5t-9 27l115 589z" />
<glyph unicode="Z" horiz-adv-x="1032" d="M65.5 14q-6.5 14 8.5 31l1097 1339h-833q-17 0 -24.5 13.5t0 27t24.5 13.5h893q22 0 28 -14t-8 -31l-1097 -1340h768q17 0 23.5 -13.5t0 -26.5t-23.5 -13h-828q-22 0 -28.5 14z" />
<glyph unicode="[" horiz-adv-x="462" d="M35 -659l342 1761q2 8 9.5 14t16.5 6h156q17 0 23.5 -13t0 -26.5t-23.5 -13.5h-133l-332 -1708h123q17 0 23.5 -13.5t0 -26.5t-23.5 -13h-156q-14 0 -21.5 10t-4.5 23z" />
<glyph unicode="\" horiz-adv-x="647" d="M123 1468q-4 17 8 27t26.5 5.5t18.5 -21.5l326 -1512q4 -17 -8 -26t-27 -4t-18 22z" />
<glyph unicode="]" horiz-adv-x="409" d="M27.5 -91q6.5 13 23.5 13h133l332 1708h-123q-17 0 -23.5 13t0 26.5t23.5 13.5h156q14 0 21.5 -9.5t4.5 -22.5l-342 -1762q-2 -8 -9.5 -14t-16.5 -6h-156q-17 0 -23.5 13.5t0 26.5z" />
<glyph unicode="^" horiz-adv-x="608" d="M184 1024q0 9 9 18l358 396q11 13 24 13.5t21 -13.5l209 -400q4 -8 4 -14q0 -10 -9 -18.5t-20 -8.5q-13 0 -22 15l-191 364l-336 -368q-11 -11 -18 -11q-11 0 -20 8.5t-9 18.5z" />
<glyph unicode="_" horiz-adv-x="751" d="M64.5 14q-6.5 14 0 27.5t23.5 13.5h576q17 0 23.5 -13.5t0 -27.5t-23.5 -14h-576q-17 0 -23.5 14z" />
<glyph unicode="`" horiz-adv-x="399" d="M326 1421q-8 15 1.5 27.5t23 12t22.5 -14.5l190 -367q8 -15 -1.5 -27t-23 -11.5t-22.5 14.5z" />
<glyph unicode="a" horiz-adv-x="876" d="M102 178q0 62 26 112t69 82.5t102.5 56t120.5 35t129 16.5q57 4 104 4h19q55 -1 106 -5l23 115q11 56 11 101q0 78 -33 123q-52 71 -189 71q-85 0 -177.5 -35t-150.5 -94q-19 -19 -38.5 -1t-0.5 38q64 67 167.5 106t199.5 39q164 0 230 -91q44 -60 44 -156 q0 -50 -12 -109l-64 -332q-7 -33 -6 -67q0 -31 6 -64q7 -35 29.5 -58t59.5 -24q17 0 23.5 -13.5t0 -26.5t-23.5 -13q-77 0 -117 61q-34 52 -34 116q0 11 1 23q-62 -88 -156 -144t-217 -56t-187.5 54t-64.5 136zM156 178q0 -57 46.5 -97t151.5 -40q81 0 156 34.5t126 86 t84 108t40 105.5l8 53q-48 5 -101 5q-5 -1 -11 -1q-58 0 -130 -5t-135.5 -22.5t-118 -45t-85.5 -74t-31 -107.5z" />
<glyph unicode="b" horiz-adv-x="935" d="M139 51l295 1518q3 17 17.5 21t26.5 -5t9 -26l-161 -822q51 96 133.5 150.5t187.5 54.5q142 0 235 -101t93 -274q0 -101 -35 -196t-102 -173t-165 -131q-97 -53 -223 -71q-51 -7 -108 -7q-81 0 -170 15q-35 5 -35 34q0 6 2 13zM195 55q72 -17 147 -17t146 16.5t136 46.5 t119 76.5t94 104t62.5 131t22.5 154.5q0 152 -78.5 237t-196.5 85q-63 0 -119 -24.5t-96 -64t-72 -92t-51.5 -106t-29.5 -108.5z" />
<glyph unicode="c" horiz-adv-x="839" d="M137 369q0 144 73.5 277t194 214.5t250.5 81.5q86 0 169 -42.5t116 -117.5q7 -16 -2 -27.5t-24 -10t-23 17.5q-32 62 -96 94.5t-140 32.5q-113 0 -221 -73.5t-176 -195.5t-68 -253q0 -141 82 -232.5t209 -91.5q77 0 157.5 31.5t127.5 87.5q11 13 26.5 8.5t20 -18 t-5.5 -27.5q-58 -67 -145 -102t-181 -35q-153 0 -248.5 109t-95.5 272z" />
<glyph unicode="d" horiz-adv-x="929" d="M137 365q0 116 47 222t126.5 184t191.5 124.5t235 46.5q85 0 189 -16l112 571q3 17 17.5 21t26.5 -5.5t8 -25.5l-287 -1473q-2 -10 -8.5 -15.5t-14.5 -5.5t-15.5 3t-12 11t-2.5 18l28 147q-119 -184 -313 -184q-142 0 -235 102t-93 275zM190 365q0 -152 78.5 -237 t196.5 -85q143 0 240.5 120t134.5 314l75 397q-154 15 -178 15q-113 0 -214.5 -42.5t-174.5 -113.5t-115.5 -167t-42.5 -201z" />
<glyph unicode="e" horiz-adv-x="868" d="M137 356q0 138 41.5 251.5t110.5 185t154 110.5t175 39q127 0 196 -64t69 -173q0 -84 -47 -154t-121 -114t-167 -74q-94 -29 -184 -41q-72 -9 -137 -10q-17 0 -34 1q11 -125 89 -198.5t214 -73.5q159 0 303 154q12 13 27 8.5t18.5 -18t-6.5 -27.5q-157 -170 -342 -170 q-170 0 -264.5 103t-94.5 265zM190 367q21 -1 42 -1q91 0 183 18q113 22 205.5 63.5t150.5 109.5t58 148q0 85 -53 134.5t-158 49.5q-82 0 -152.5 -31t-119.5 -83t-84.5 -120t-53 -141t-18.5 -147z" />
<glyph unicode="f" horiz-adv-x="544" d="M49 -309l291 1495q3 17 17.5 21t26.5 -5t9 -26l-47 -248h250q17 0 24.5 -13.5t0 -27t-24.5 -13.5h-246q91 -472 104 -745q3 -60 3 -114q0 -513 -267 -513q-74 0 -116 52q-30 38 -30 91q0 22 5 46zM102 -319q-3 -18 -3 -33q0 -36 17 -58q26 -32 74 -32q53 0 92.5 29 t63 79.5t37 120t15.5 149.5q2 33 2 67q0 49 -2 101q-4 90 -12.5 177t-20.5 175t-23.5 161.5t-22.5 139.5q-3 15 -4 23z" />
<glyph unicode="g" horiz-adv-x="923" d="M-33 -330q-8 16 1.5 28.5t24 11.5t21.5 -17q32 -77 106.5 -124.5t162.5 -47.5q192 0 303 103.5t151 309.5l47 240q-123 -186 -315 -186q-142 0 -235 102t-93 275q0 116 47 222t126.5 184t191.5 124.5t235 46.5q36 0 89.5 -4.5t89.5 -9.5l36 -4q12 -2 19 -11.5t4 -21.5 l-188 -967q-88 -456 -508 -456q-109 0 -191.5 54t-124.5 148zM195 365q0 -152 78 -237t196 -85q62 0 117.5 25t95.5 64.5t72 91t51 102t29 100.5l88 448q-120 15 -181 15q-113 0 -214.5 -42.5t-174 -113.5t-115 -167t-42.5 -201z" />
<glyph unicode="h" horiz-adv-x="972" d="M137 27l299 1540q3 17 17.5 21t26 -6t7.5 -26l-165 -856q70 111 169.5 176.5t213.5 65.5q151 0 219 -86q49 -62 48 -149q0 -33 -7 -70l-119 -621q-4 -17 -18.5 -21.5t-26.5 5.5t-8 27l120 620q6 31 6 58q1 69 -37 117q-52 67 -177 67q-141 0 -262 -118t-167 -298 l-88 -457q-3 -17 -17 -21.5t-25.5 5.5t-8.5 27z" />
<glyph unicode="i" horiz-adv-x="317" d="M139 25q-2 -10 2.5 -18t12 -11t16 -3t15 5.5t8.5 15.5l174 891q3 18 -9 27.5t-26.5 4.5t-18.5 -22zM358 1233q0 17 12 29t29 12q15 0 27 -12t12 -29q0 -15 -12 -27t-27 -12q-17 0 -29 12t-12 27z" />
<glyph unicode="j" horiz-adv-x="337" d="M-374.5 -526.5q0.5 -13.5 14.5 -22.5q82 -43 161 -43q126 0 224 97t131 268l221 1132q3 17 -9 27t-26.5 5t-17.5 -22l-222 -1132q-30 -154 -112.5 -237t-188.5 -83q-69 0 -137 35q-15 8 -27 -1.5t-11.5 -23zM371 1231q0 17 12 29t29 12q15 0 27 -12t12 -29q0 -15 -12 -27 t-27 -12q-17 0 -29 12t-12 27z" />
<glyph unicode="k" horiz-adv-x="851" d="M137 23l301 1544q2 10 8.5 15.5t15 5.5t16 -3t12 -11t2.5 -18l-164 -839q50 107 137.5 166t187.5 59q117 0 181.5 -64.5t64.5 -162.5q0 -74 -28.5 -130.5t-78 -88.5t-111.5 -46q-51 -12 -110 -13q-12 0 -24 1q54 -19 93.5 -57t62.5 -83t41 -95t35.5 -96t39.5 -83.5 t58.5 -60t87.5 -22.5q25 0 30 -22q4 -21 -15 -27q-4 -1 -9 -1h-12q-52 -1 -91 15q-44 18 -70 48.5t-45.5 70.5t-34.5 84.5t-31 89t-41 85t-59.5 72t-91 50t-130.5 18.5q-17 0 -23.5 14t1 27.5t24.5 13.5q16 0 57 -0.5t63 -0.5t63 2t65 5.5t59 11.5t56.5 20t46 30t38 41.5 t22.5 55.5t9 71q0 75 -49 123.5t-144 48.5q-133 0 -236.5 -121t-146.5 -344l-80 -410q-2 -10 -8.5 -15.5t-14.5 -5.5t-15.5 3t-12 11t-2.5 18z" />
<glyph unicode="l" horiz-adv-x="540" d="M227 206v17q1 47 5 91q6 52 18 118l221 1135q3 17 17 21t25.5 -5.5t8.5 -26.5l-223 -1150q-13 -66 -18 -116q-2 -25 -2 -49.5t2 -49.5q5 -50 24 -82q19 -33 59 -51q34 -16 84 -15h17q17 1 25.5 -11.5t3 -25.5t-22.5 -14q-18 -1 -35 -1q-44 0 -78 9q-48 13 -74.5 43.5 t-41 69.5t-15.5 93z" />
<glyph unicode="m" horiz-adv-x="1593" d="M137 23l174 892q4 17 18.5 21.5t26.5 -5t9 -26.5l-27 -139q78 76 171 126t179 50q116 0 184 -53t80 -141q80 82 179.5 138t191.5 56q151 0 219 -86q50 -63 50 -150q0 -33 -7 -69l-121 -625q-3 -12 -12.5 -17.5t-19.5 -3.5t-16.5 11t-4.5 21l121 622q6 31 6 59 q0 70 -37 118q-52 68 -178 67q-163 0 -369 -215l-125 -662q-2 -10 -9 -15.5t-15.5 -5.5t-15.5 3t-11 11t-2 18l121 622q6 31 6 59q0 70 -38 118q-53 68 -177 67q-60 0 -123.5 -27t-116.5 -70.5t-80.5 -69.5t-50.5 -52l-127 -658q-2 -10 -8.5 -15.5t-14.5 -5.5t-15.5 3 t-12 11t-2.5 18z" />
<glyph unicode="n" horiz-adv-x="972" d="M137 25l172 888q3 17 17.5 22t26 -5t7.5 -27l-28 -143q85 78 184.5 130t188.5 52q151 0 219 -86q49 -62 48 -149q0 -33 -7 -70l-119 -623q-4 -17 -18.5 -21.5t-26.5 5.5t-8 27l120 622q6 31 6 58q1 69 -37 117q-52 67 -177 67q-63 0 -134 -31t-125.5 -74t-87.5 -74 t-45 -46l-125 -650q-3 -17 -17 -21.5t-25.5 5.5t-8.5 27z" />
<glyph unicode="o" horiz-adv-x="952" d="M137 369q0 144 73 277t193.5 214.5t251.5 81.5q153 0 247.5 -107.5t94.5 -269.5q0 -144 -73 -278t-193.5 -216.5t-251.5 -82.5q-151 0 -246.5 109.5t-95.5 271.5zM190 369q0 -142 81.5 -234t207.5 -92q86 0 171 43.5t149.5 114.5t104.5 167t40 195q0 143 -81 234.5 t-208 91.5q-114 0 -222 -73t-175.5 -194.5t-67.5 -252.5z" />
<glyph unicode="p" horiz-adv-x="950" d="M35 -555l284 1470q3 17 17 21t26 -5t9 -26l-33 -168q53 98 135 151.5t186 53.5q142 0 235 -101t93 -274q0 -114 -41 -214.5t-113.5 -173.5t-172 -123t-216.5 -62q-41 -4 -84 -4q-79 0 -163 14l-111 -569q-3 -17 -17.5 -21t-26 5.5t-7.5 25.5zM207 57q55 -16 121 -19h22 q56 0 114 10q69 13 136.5 39.5t128 71.5t106 102t72.5 136t27 170q0 153 -78 237.5t-197 84.5q-141 0 -238 -113t-130 -284z" />
<glyph unicode="q" horiz-adv-x="966" d="M154 365q0 116 47 222t126.5 184t191.5 124.5t235 46.5q82 0 215 -18q11 -2 18 -10.5t4 -20.5l-282 -1458q-3 -17 -17.5 -21.5t-27 5t-9.5 26.5l144 733q-122 -190 -318 -190q-142 0 -234.5 102t-92.5 275zM207 365q0 -153 77.5 -237.5t196.5 -84.5q77 0 142 34.5 t108.5 92.5t72 122.5t42.5 133.5l88 448q-104 15 -180 15q-113 0 -214.5 -42.5t-174.5 -113.5t-115.5 -167t-42.5 -201z" />
<glyph unicode="r" horiz-adv-x="647" d="M137 25l174 890q3 17 17.5 22t26 -5t7.5 -27l-51 -260q87 128 217 213.5t236 85.5q18 0 25 -13t0 -26t-25 -14q-63 -3 -142 -42.5t-151.5 -101.5t-129.5 -150.5t-75 -180.5l-78 -402q-3 -17 -17.5 -21.5t-26 5.5t-7.5 27z" />
<glyph unicode="s" horiz-adv-x="790" d="M118.5 156.5q5.5 14.5 19 17.5t26.5 -8q56 -55 128 -88t144 -33q111 0 177.5 49t66.5 127q0 38 -25 67.5t-64.5 49.5t-88 39t-96.5 42.5t-87.5 53t-64.5 77t-25 109.5q0 129 100 208t236 79q87 0 172 -42.5t121 -115.5q8 -16 0 -28t-23 -11.5t-24 15.5q-42 65 -107 96 t-139 31q-119 0 -199.5 -64.5t-80.5 -167.5q0 -53 24.5 -93.5t64 -65.5t87.5 -46t96 -41t87.5 -44t64 -61.5t24.5 -86.5q0 -106 -85 -168.5t-212 -62.5q-81 0 -167 39t-144 100q-12 13 -6.5 27.5z" />
<glyph unicode="t" horiz-adv-x="702" d="M269.5 886q-6.5 14 0 28t23.5 14h196l64 327v5l4 6q0 4 4 4q0 1 1 2t1 2q4 0 6 2h4q15 4 25 -6q4 -4 4 -8q2 -2 2 -9v-8l-61 -317h229q17 0 24.5 -14t0 -28t-24.5 -14h-240l-45 -235q-15 -76 -37 -191t-41 -214.5t-42 -211.5q-4 -20 -19.5 -27t-28 3t-8.5 29 q70 345 123 622l43 225h-184q-17 0 -23.5 14z" />
<glyph unicode="u" horiz-adv-x="989" d="M184 293l121 622q6 23 27 23q12 0 20.5 -9.5t5.5 -23.5l-120 -622q-6 -32 -6 -60q0 -68 36 -115q51 -67 178 -67q101 0 193.5 63.5t152 159t80.5 201.5l89 450q4 17 18.5 21.5t26 -5t8.5 -26.5l-172 -891q-3 -22 -25 -22q-13 0 -22.5 9.5t-6.5 23.5l39 198 q-71 -109 -170.5 -172t-210.5 -63q-152 0 -220 86q-50 63 -49 150q0 33 7 69z" />
<glyph unicode="v" horiz-adv-x="841" d="M170 905q-3 14 5.5 23.5t21.5 9.5q20 0 26 -20l199 -840l528 846q9 15 25 14t22.5 -13t-0.5 -28l-557 -889q-13 -22 -33 -20.5t-26 24.5z" />
<glyph unicode="w" horiz-adv-x="1253" d="M170 905q-2 10 2 18t11 11.5t15.5 4t15.5 -5t9 -15.5l189 -840l280 418l-8 43q-39 167 -39 247q0 71 35 113.5t90 42.5q53 0 90 -37.5t37 -95.5q0 -112 -117 -283l-30 -45l94 -401l518 846q14 22 37 8t10 -37l-547 -889q-12 -19 -31.5 -19t-25.5 23l-94 410l-277 -410 q-15 -23 -36.5 -22.5t-26.5 22.5zM698 786q0 -76 35 -231q61 90 86 145.5t25 108.5q0 30 -22 54t-52 24q-31 0 -51.5 -25t-20.5 -76z" />
<glyph unicode="x" horiz-adv-x="821" d="M138 8q-8 16 3 31l328 369l-246 489q-8 16 1.5 28.5t23 12t22.5 -15.5l236 -473l426 479q12 13 28 9t20 -17.5t-7 -28.5l-441 -496l185 -364q8 -16 -1.5 -28.5t-23.5 -11.5t-22 15l-174 348l-314 -352q-10 -10 -20 -10q-16 0 -24 16z" />
<glyph unicode="y" horiz-adv-x="827" d="M-279.5 -572q-6.5 14 1 27.5t24.5 12.5q16 0 43 6q143 24 264.5 126t208.5 242l113 181l-207 882q-2 10 1.5 18t10.5 11.5t15 4t15 -5t9 -15.5l195 -834l524 840q8 15 23.5 14t22 -13t-0.5 -28l-676 -1083q-93 -150 -223.5 -258.5t-284.5 -135.5l-55 -6q-17 0 -23.5 14z " />
<glyph unicode="z" horiz-adv-x="835" d="M53.5 15q-5.5 15 9.5 32l822 827h-678q-17 0 -23.5 13.5t0 27t23.5 13.5h741q23 0 29.5 -15t-8.5 -32l-822 -826h617q17 0 23.5 -13.5t0 -27.5t-23.5 -14h-682q-23 0 -28.5 15z" />
<glyph unicode="{" horiz-adv-x="464" d="M145 -242q0 68 29 167t63.5 182.5t63.5 172.5t29 140q0 44 -18 66t-62 22q-17 0 -24.5 13t0 26.5t24.5 13.5q65 0 100.5 48.5t45 126.5t10.5 172t5 187.5t19.5 171.5t63 126.5t127.5 48.5q17 0 24.5 -13t0 -26.5t-24.5 -13.5q-58 0 -92.5 -40t-46.5 -106.5t-15 -148 t-4.5 -169t-9 -164.5t-34.5 -139.5t-75 -89.5q34 -30 39 -87t-12.5 -122.5t-45.5 -145.5t-56.5 -151t-49 -144.5t-20.5 -121.5q0 -42 18.5 -60.5t61.5 -18.5q17 0 24.5 -13.5t0 -27t-24.5 -13.5q-70 0 -102 35.5t-32 95.5z" />
<glyph unicode="|" horiz-adv-x="344" d="M39 -545l405 2093q3 16 17.5 20.5t27 -4t9.5 -24.5l-406 -2093q-3 -16 -17.5 -20.5t-26.5 4t-9 24.5z" />
<glyph unicode="}" horiz-adv-x="436" d="M73.5 -91q7.5 13 24.5 13q58 0 92.5 40t46.5 106.5t15 147.5t4.5 168.5t9 164.5t34.5 139.5t75 89.5q-34 30 -39 87t12.5 122.5t45.5 145.5t56.5 151t49 144.5t20.5 121.5q0 42 -19 61t-61 19q-17 0 -24.5 13t0 26.5t24.5 13.5q70 0 101.5 -35.5t31.5 -95.5 q0 -68 -28.5 -167t-63.5 -182t-63.5 -172t-28.5 -140q0 -44 18 -66t62 -22q17 0 24.5 -13.5t0 -26.5t-24.5 -13q-65 0 -100.5 -48.5t-45 -126.5t-10.5 -171.5t-5 -187.5t-19.5 -172t-63 -126.5t-127.5 -48.5q-17 0 -24.5 13.5t0 26.5z" />
<glyph unicode="~" horiz-adv-x="739" d="M108.5 443q-2.5 14 8.5 26q50 45 104.5 60.5t103.5 6.5t98.5 -28t96.5 -41t89.5 -36t85 -8t77.5 38q12 12 26.5 6t17 -20t-8.5 -27q-43 -40 -91 -52t-94 -1t-93.5 31.5t-95.5 41.5t-93.5 33t-94 2.5t-91.5 -47.5q-14 -11 -28.5 -5t-17 20z" />
<glyph unicode="&#xa1;" horiz-adv-x="325" d="M31 -543q-6 -23 20 -30q28 -4 31 22l219 1131q5 22 -20 30q-27 4 -33 -22zM295 897q0 17 12 29t29 12q15 0 27 -12t12 -29q0 -15 -12 -27t-27 -12q-17 0 -29 12t-12 27z" />
<glyph unicode="&#xa2;" horiz-adv-x="839" d="M137 369q0 180 111.5 337t271.5 212l39 190q3 16 17.5 20.5t26.5 -4t9 -24.5l-32 -166q33 8 75 8q31 0 66 -6l33 172q3 16 17.5 20.5t26.5 -4t9 -24.5l-35 -178q124 -43 168 -140q7 -16 -2 -27.5t-24 -10t-23 17.5q-32 62 -96 94.5t-140 32.5q-113 0 -221 -73.5 t-176 -195.5t-68 -253q0 -141 82 -232.5t209 -91.5q77 0 157.5 31.5t127.5 87.5q11 13 26.5 8.5t20 -18t-5.5 -27.5q-77 -88 -201 -121l-35 -182q-3 -16 -17.5 -20.5t-26.5 4t-9 24.5l31 164q-35 -6 -68 -6q-25 0 -71 8l-33 -174q-3 -16 -17.5 -20.5t-26.5 4t-9 24.5l34 180 q-102 38 -161.5 135t-59.5 224z" />
<glyph unicode="&#xa3;" horiz-adv-x="929" d="M0 96q0 51 42 74t103 23q75 0 156 -31q30 57 49 153l109 559h-105q-17 0 -24.5 13.5t0 27t24.5 13.5h115l49 256q22 114 117 193t209 79q117 0 183.5 -83t43.5 -199q-3 -17 -17.5 -21t-26.5 5t-9 26q19 91 -32.5 154t-141.5 63q-94 0 -174 -66.5t-99 -160.5l-49 -246h234 q17 0 23.5 -13.5t0 -27t-23.5 -13.5h-244l-111 -569q-18 -98 -51 -166q35 -17 91.5 -51t93 -54.5t95.5 -40.5t113 -21t129.5 17.5t159.5 61.5q16 8 28.5 -1.5t12 -23t-15.5 -22.5q-88 -46 -166.5 -67t-144.5 -17t-118 19t-108 43q-34 16 -98 54.5t-98 55.5q-65 -92 -179 -92 q-61 0 -103 25.5t-42 70.5zM53 96q0 -8 7 -16.5t29 -16.5t56 -8q77 0 127 60q-70 24 -127 24q-92 0 -92 -43z" />
<glyph unicode="&#xa4;" horiz-adv-x="1087" d="M218 71.5q-3 13.5 7 26.5l137 140q-88 101 -88 237q0 134 88 240l-137 139q-12 12 -7 27t18.5 18t27.5 -8l137 -137q101 88 240 88q135 0 238 -90l139 139q12 13 27 8t18 -18.5t-8 -26.5l-140 -139q91 -109 91 -240q0 -135 -91 -239l140 -138q13 -12 8 -27t-18.5 -18 t-26.5 8l-139 138q-101 -88 -238 -88q-139 0 -240 88l-137 -138q-13 -13 -28 -8t-18 18.5zM330 475q0 -129 88 -217v-2q92 -92 223 -92q129 0 220 91t91 220t-91 221t-220 92t-220 -92t-91 -221z" />
<glyph unicode="&#xa5;" horiz-adv-x="827" d="M-279.5 -572.5q-6.5 13.5 1 27t24.5 13.5q80 1 157.5 33t143 88t117.5 118t98 135l113 181l-72 303h-244q-17 0 -23.5 14t0 27.5t23.5 13.5h232l-47 201h-138q-17 0 -23.5 14t0 27.5t23.5 13.5h123l-61 268q-2 10 1.5 18t10.5 11.5t15 4t15 -5t9 -15.5l66 -281h473 l180 287q8 15 23.5 14t22 -13t-0.5 -28l-162 -260h133q17 0 23.5 -13.5t0 -27.5t-23.5 -14h-168l-124 -201h245q17 0 23.5 -13.5t0 -27.5t-23.5 -14h-280l-320 -512q-48 -79 -105.5 -146.5t-128.5 -126.5t-156 -93t-173 -34q-17 0 -23.5 13.5zM297 582l47 -201h254l125 201 h-426zM356 326l58 -242l149 242h-207z" />
<glyph unicode="&#xa6;" horiz-adv-x="311" d="M25 -545l165 858q3 16 17.5 20.5t27 -4t9.5 -24.5l-166 -858q-3 -16 -17.5 -20.5t-26.5 4t-9 24.5zM264 690l166 858q3 16 17.5 20.5t26.5 -4t9 -24.5l-166 -858q-3 -16 -17.5 -20.5t-26.5 4t-9 24.5z" />
<glyph unicode="&#xa7;" horiz-adv-x="759" d="M1.5 -548.5q6.5 13.5 23.5 13.5q168 0 289.5 87t144.5 208q17 89 0 188.5t-55 193.5t-78.5 187t-70.5 199.5t-30 200.5q0 81 30 171t83 149q36 172 170.5 283.5t300.5 111.5q17 0 23.5 -14t0 -27.5t-23.5 -13.5q-148 0 -269 -101.5t-151 -259.5q-19 -96 0 -196.5 t60 -190.5t84.5 -178t76.5 -190.5t33 -196.5q0 -84 -37.5 -177t-95.5 -159q-33 -139 -168.5 -233.5t-316.5 -94.5q-17 0 -23.5 13t0 26.5zM279 729q0 -87 25 -181.5t61 -178.5t72 -167.5t61 -176t24 -175.5q68 113 68 226q0 84 -27.5 174t-66.5 169t-78 158.5t-66.5 171.5 t-27.5 179q-45 -98 -45 -199z" />
<glyph unicode="&#xa8;" horiz-adv-x="425" d="M287 1311q0 17 12 29t29 12q15 0 27 -12t12 -29q0 -15 -12 -27t-27 -12q-17 0 -29 12t-12 27zM563 1311q0 17 12 29t29 12q15 0 27 -12t12 -29q0 -15 -12 -27t-27 -12q-17 0 -29 12t-12 27z" />
<glyph unicode="&#xa9;" horiz-adv-x="858" d="M305 1231q0 155 108 263t261 108q155 0 262.5 -108t107.5 -263q0 -153 -107.5 -261t-262.5 -108q-152 0 -260.5 108.5t-108.5 260.5zM346 1231q0 -135 96.5 -231.5t231.5 -96.5q136 0 233 96.5t97 231.5q0 137 -97 233.5t-233 96.5q-135 0 -231.5 -97t-96.5 -233z M477 1178q0 115 71 211t181 96q66 0 111 -45q12 -15 -1.5 -29t-27.5 -2q-32 37 -82 37q-91 0 -151 -85t-60 -183q0 -66 31.5 -109t93.5 -43q49 0 102 37q9 8 19.5 2.5t12 -15.5t-8.5 -18q-57 -45 -125 -45q-82 0 -124 54.5t-42 136.5z" />
<glyph unicode="&#xaa;" horiz-adv-x="587" d="M260 1044q0 50 26 87t66 54.5t90 28t97.5 9t87.5 -3.5l10 57q17 83 -9.5 119.5t-95.5 36.5q-85 0 -161 -82q-8 -11 -20.5 -8t-15.5 13.5t5 20.5q39 45 90 72t102 27q95 0 129.5 -51t16.5 -152l-35 -199q-7 -42 2.5 -70t36.5 -28q14 0 20 -10.5t1 -21.5t-19 -11 q-36 0 -60 24.5t-26 57.5q-89 -82 -197 -82q-69 0 -105 32t-36 80zM307 1047q0 -30 23.5 -51t70.5 -21q52 0 106 27t93 75l18 99q-149 17 -230 -20.5t-81 -108.5z" />
<glyph unicode="&#xab;" horiz-adv-x="630" d="M147 459q-8 16 5 33l346 358q20 19 39 0t0 -39l-332 -344l196 -340q9 -15 0 -28t-23 -13t-24 14zM356 459q-8 17 4 33l347 358q12 12 26.5 7t18 -18.5t-6.5 -27.5l-333 -344l198 -340q12 -23 -11 -36.5t-36 9.5z" />
<glyph unicode="&#xac;" horiz-adv-x="827" d="M158.5 470.5q-6.5 13.5 0 26.5t23.5 13h625q13 0 22.5 -9.5t6.5 -23.5l-56 -287q-2 -10 -8.5 -15.5t-14.5 -5.5t-15.5 3t-12 11t-2.5 18l49 256h-594q-17 0 -23.5 13.5z" />
<glyph unicode="&#xad;" horiz-adv-x="632" d="M89.5 456q-6.5 14 0 28t23.5 14h575q17 0 23.5 -14t0 -28t-23.5 -14h-575q-17 0 -23.5 14z" />
<glyph unicode="&#xae;" horiz-adv-x="858" d="M305 1231q0 155 108 263t261 108q155 0 262.5 -108t107.5 -263q0 -153 -107.5 -261t-262.5 -108q-152 0 -260.5 108.5t-108.5 260.5zM346 1231q0 -135 96.5 -231.5t231.5 -96.5q136 0 233 96.5t97 231.5q0 137 -97 233.5t-233 96.5q-135 0 -231.5 -97t-96.5 -233z M504 1018l90 459q3 16 18 16h99q65 0 100 -34t35 -83q0 -50 -32 -90t-93 -47q28 -18 38 -51t8 -63t8.5 -56.5t39.5 -34.5q13 -3 16 -13.5t-4 -18.5t-18 -5q-42 9 -61 36.5t-21.5 59.5t-4.5 63.5t-20.5 52t-60.5 20.5h-57l-39 -217q-2 -13 -13.5 -16.5t-21 3t-6.5 19.5z M592 1262h55q162 3 162 110q0 37 -26 60.5t-72 23.5h-82z" />
<glyph unicode="&#xaf;" horiz-adv-x="1216" d="M371.5 1558q-6.5 14 0 27.5t23.5 13.5h1041q17 0 23.5 -13.5t0 -27.5t-23.5 -14h-1041q-17 0 -23.5 14z" />
<glyph unicode="&#xb0;" horiz-adv-x="423" d="M324 1432q0 71 50 120.5t122 49.5q70 0 120 -50t50 -120q0 -72 -49.5 -122t-120.5 -50q-72 0 -122 50t-50 122zM367 1432q0 -54 37.5 -91.5t91.5 -37.5q53 0 90 37.5t37 91.5q0 52 -37.5 89.5t-89.5 37.5q-54 0 -91.5 -37t-37.5 -90z" />
<glyph unicode="&#xb1;" horiz-adv-x="632" d="M42.5 140.5q-6.5 13.5 0 27.5t23.5 14h575q17 0 23.5 -14t0 -27.5t-23.5 -13.5h-575q-17 0 -23.5 13.5zM121.5 566.5q-6.5 13.5 0 26.5t23.5 13h265l53 266q3 17 17.5 21t26.5 -6t9 -27l-51 -254h256q17 0 23.5 -13t0 -26.5t-23.5 -13.5h-266l-52 -266q-3 -17 -17.5 -21 t-26.5 5t-9 26l49 256h-254q-17 0 -23.5 13.5z" />
<glyph unicode="&#xb2;" horiz-adv-x="526" d="M247 970q14 46 62 82q10 7 21 13q33 17 94.5 35t104.5 31.5t83.5 50t51.5 94.5q12 66 -24 111t-101 45q-66 0 -124 -48.5t-71 -115.5q-2 -14 -13.5 -17.5t-21 4t-6.5 21.5q15 83 84 141t152 58q86 0 134.5 -61t31.5 -146q-13 -67 -54.5 -109.5t-94 -61.5t-105 -32.5 t-96.5 -34.5t-60 -55h342q14 0 19.5 -10.5t0 -21.5t-19.5 -11h-373q-30 0 -17 38z" />
<glyph unicode="&#xb3;" horiz-adv-x="516" d="M225 981q-2 14 8 21t21.5 3t13.5 -18q8 -48 45.5 -79t92.5 -31q98 0 165 81q57 69 49 144q-8 79 -88 105q-16 5 -34 7q-15 1 -19.5 13t6.5 22l164 183h-270q-14 0 -19.5 11t0 21.5t19.5 10.5h317q19 0 24 -11.5t-7 -25.5l-172 -189q49 -16 79.5 -47t38.5 -68.5t2.5 -79.5 t-29 -81t-55.5 -70t-77 -50t-94 -19q-70 0 -120 41t-61 106z" />
<glyph unicode="&#xb4;" horiz-adv-x="415" d="M243.5 1048q-3.5 13 6.5 27l332 367q19 20 38.5 1.5t2.5 -38.5l-334 -365q-12 -13 -27 -9t-18.5 17z" />
<glyph unicode="&#xb5;" horiz-adv-x="989" d="M-229.5 -304.5q3.5 14.5 20.5 19.5q74 22 123.5 48.5t92.5 69t74 109.5t58 161t54 233l112 579q6 23 27 23q12 0 20.5 -9.5t5.5 -23.5l-120 -622q-21 -108 31 -175t177 -67q141 0 267 127t164 317l84 430q4 17 18.5 21.5t26 -5t8.5 -26.5l-172 -891q-3 -22 -25 -22 q-13 0 -22.5 9.5t-6.5 23.5l39 198q-71 -109 -170.5 -172t-210.5 -63q-93 0 -155.5 35t-91.5 96q-54 -217 -138 -312t-256 -147q-17 -3 -27.5 9t-7 26.5z" />
<glyph unicode="&#xb6;" horiz-adv-x="1116" d="M70 63q0 123 87.5 211t209.5 88q56 0 116 -24q16 -7 17 -22t-10.5 -24.5t-26.5 -2.5q-48 20 -96 20q-100 0 -172 -72.5t-72 -173.5q0 -104 69.5 -180t180.5 -76q137 0 223 74.5t121 253.5l74 385h-95q-231 0 -339 118t-66 335q22 115 77.5 204.5t133 143.5t168.5 81.5 t192 27.5h371q17 0 24.5 -10.5t4.5 -24.5l-269 -1381q-2 -9 -9 -14.5t-15.5 -6t-15.5 2.5t-11 11t-2 18l262 1351h-188l-244 -1251q-38 -196 -139 -283.5t-258 -87.5q-135 0 -219 92t-84 217zM344 963q-36 -188 57 -289t295 -101h105l157 803h-96q-94 0 -176.5 -24.5 t-152 -73t-119 -129.5t-70.5 -186z" />
<glyph unicode="&#xb7;" horiz-adv-x="299" d="M168 498q0 34 24.5 58t59.5 24q30 0 53 -24.5t23 -57.5q0 -31 -23.5 -54.5t-52.5 -23.5q-35 0 -59.5 23.5t-24.5 54.5z" />
<glyph unicode="&#xb8;" horiz-adv-x="419" d="M-8 -246q3 17 17.5 21t26.5 -5t9 -26q-9 -47 17 -80t73 -33q77 0 121 67q38 57 21 111q-17 58 -87 58q-37 0 -26 41l24 112q3 17 17.5 21t27 -5t9.5 -26l-19 -92q87 -17 108 -96q20 -73 -27 -148q-51 -82 -141 -94l-28 -2q-73 0 -115 52.5t-28 123.5z" />
<glyph unicode="&#xb9;" horiz-adv-x="481" d="M225 943q-6 11 0 21.5t21 10.5h172l80 411q-78 -70 -191 -100q-13 -5 -21 4t-6 21t15 16q140 42 221 139q12 15 26 8.5t11 -26.5l-92 -473h143q14 0 19.5 -10.5t0 -21.5t-19.5 -11h-358q-15 0 -21 11z" />
<glyph unicode="&#xba;" horiz-adv-x="575" d="M279 1206q20 110 103.5 189.5t182.5 79.5q103 0 159 -82.5t34 -194.5q-22 -110 -106 -188t-183 -78q-103 0 -157.5 81t-32.5 193zM319 1198q-18 -95 26.5 -159t123.5 -64q82 0 154.5 67.5t91.5 163.5q18 95 -26.5 160.5t-123.5 65.5q-80 0 -153 -68.5t-93 -165.5z" />
<glyph unicode="&#xbb;" horiz-adv-x="589" d="M104.5 107.5q-3.5 13.5 6.5 27.5l333 344l-198 340q-12 23 11 36.5t36 -9.5l207 -359q8 -16 -4 -32l-346 -359q-12 -12 -27 -7t-18.5 18.5zM319 96q-19 19 0 39l332 344l-196 340q-8 15 0.5 28t22.5 13t24 -14l207 -359q8 -16 -4 -32l-347 -359q-20 -19 -39 0z" />
<glyph unicode="&#xbc;" horiz-adv-x="1243" d="M206 414.5q0 25.5 23 25.5h166l78 394q-82 -66 -182 -93q-13 -5 -22 6t-8 25.5t13 18.5q138 39 218 135q14 17 31.5 9t13.5 -30l-91 -465h138q14 0 19.5 -13t0 -25.5t-19.5 -12.5h-355q-23 0 -23 25.5zM376.5 -133q-5.5 13 2.5 29l747 1144q9 16 25 15.5t22 -13t-2 -30.5 l-747 -1145q-11 -16 -26.5 -14.5t-21 14.5zM821.5 123.5q-6.5 12.5 5.5 26.5l361 399q14 15 31.5 7.5t13.5 -28.5l-72 -368h70q23 0 23 -24.5t-23 -24.5h-80l-33 -170q-3 -15 -16.5 -19.5t-24.5 3.5t-8 24l31 162h-252q-20 0 -26.5 12.5zM903 160h207l57 289 q-180 -193 -264 -289z" />
<glyph unicode="&#xbd;" horiz-adv-x="1308" d="M206 414.5q0 25.5 23 25.5h166l78 394q-82 -66 -182 -93q-13 -5 -22 6t-8 25.5t13 18.5q137 39 218 135q15 15 31.5 8t13.5 -29l-91 -465h138q14 0 19.5 -13t0 -25.5t-19.5 -12.5h-355q-23 0 -23 25.5zM376.5 -133q-5.5 13 2.5 29l747 1144q9 16 25 15.5t22 -13t-2 -30.5 l-747 -1145q-11 -16 -26.5 -14.5t-21 14.5zM828 38q10 45 57 83q13 11 28 18q33 17 115 41q42 12 70.5 23.5t60.5 30t52.5 47t29.5 65.5q11 62 -24 106t-95 44t-115 -47.5t-73 -110.5q-3 -13 -16.5 -16.5t-24.5 3.5t-8 21q15 84 84 142.5t153 58.5q87 0 136 -62t32 -147 q-8 -41 -28 -73.5t-42 -52t-57 -37t-58.5 -25.5t-62.5 -19q-118 -30 -153 -80h330q14 0 19.5 -12.5t0 -25.5t-19.5 -13h-369q-31 0 -22 38z" />
<glyph unicode="&#xbe;" horiz-adv-x="1286" d="M180 434q-2 14 10 21t25.5 3t15.5 -18q8 -47 43 -75.5t88 -28.5q88 0 148.5 65t60.5 140q0 46 -29 80t-87 41q-18 1 -22.5 14.5t7.5 25.5l156 175h-260q-14 0 -19.5 12.5t0 25.5t19.5 13h315q21 0 27 -14t-8 -29l-168 -183q121 -41 121 -159q0 -96 -76.5 -177t-184.5 -81 q-71 0 -121 42t-61 107zM419.5 -133q-5.5 13 2.5 29l747 1144q9 16 25 15.5t22 -13t-2 -30.5l-747 -1145q-11 -16 -26.5 -14.5t-21 14.5zM864.5 123.5q-6.5 12.5 5.5 26.5l361 399q15 15 31.5 8t13.5 -29l-74 -368h72q14 0 19.5 -12t0 -24.5t-19.5 -12.5h-82l-31 -170 q-3 -12 -15 -14.5t-23 4t-11 18.5l31 162h-252q-20 0 -26.5 12.5zM946 160h207l55 289z" />
<glyph unicode="&#xbf;" horiz-adv-x="575" d="M72 78q0 -53 19.5 -102t59.5 -85.5t94 -55.5t129 -10.5t158 48.5q16 7 16.5 22t-11.5 24.5t-27 2.5q-74 -35 -138 -43t-108.5 7t-76.5 45t-47 68.5t-15 78.5q0 61 25 114.5t64.5 96t87.5 86.5t96 95.5t87.5 111t64.5 145.5t25 188q0 17 -13.5 24t-27 0t-12.5 -24 q0 -97 -25 -179t-64.5 -139t-87.5 -107t-96 -94t-87.5 -89t-64.5 -103.5t-25 -125.5zM522 1237q0 29 20.5 49.5t49.5 20.5t49.5 -20.5t20.5 -49.5t-20.5 -50.5t-49.5 -21.5t-49.5 21.5t-20.5 50.5z" />
<glyph unicode="&#xc0;" d="M12 4q-9 13 0 29l803 1392q11 18 30.5 17t22.5 -17l262 -1400q3 -17 -9 -27t-26.5 -5.5t-17.5 21.5l-57 308h-780l-181 -316q-10 -15 -24 -15t-23 13zM270 375h740l-181 968zM645 1794q-8 15 1.5 27.5t23 12t22.5 -14.5l139 -269q8 -15 -1.5 -27t-23 -11.5t-22.5 14.5z " />
<glyph unicode="&#xc1;" d="M12 4q-9 13 0 29l803 1392q11 18 30.5 17t22.5 -17l262 -1400q3 -17 -9 -27t-26.5 -5.5t-17.5 21.5l-57 308h-780l-181 -316q-10 -15 -24 -15t-23 13zM270 375h740l-181 968zM857.5 1527q-3.5 13 6.5 27l217 242q19 20 38.5 1.5t2.5 -38.5l-219 -239q-12 -13 -27 -9.5 t-18.5 16.5z" />
<glyph unicode="&#xc2;" d="M12 4q-9 13 0 29l803 1392q11 18 30.5 17t22.5 -17l262 -1400q3 -17 -9 -27t-26.5 -5.5t-17.5 21.5l-57 308h-780l-181 -316q-10 -15 -24 -15t-23 13zM270 375h740l-181 968zM657 1487q0 9 9 18l237 262q14 17 25 17q12 0 20 -17l139 -266q5 -10 5 -14q0 -10 -9 -18.5 t-20 -8.5q-14 0 -23 15l-120 231l-215 -236q-10 -10 -19 -10q-11 0 -20 8.5t-9 18.5z" />
<glyph unicode="&#xc3;" d="M12 4q-9 13 0 29l803 1392q11 18 30.5 17t22.5 -17l262 -1400q3 -17 -9 -27t-26.5 -5.5t-17.5 21.5l-57 308h-780l-181 -316q-10 -15 -24 -15t-23 13zM270 375h740l-181 968zM534.5 1604q-2.5 14 8.5 26q50 45 104.5 60.5t103.5 6.5t98.5 -28t96.5 -41t89.5 -36t85 -8 t77.5 38q12 12 26.5 6t17 -20t-8.5 -27q-43 -40 -91 -52t-94 -1t-93.5 31.5t-95.5 41.5t-93.5 33t-94 2.5t-91.5 -47.5q-14 -11 -28.5 -5t-17 20z" />
<glyph unicode="&#xc4;" d="M12 33q-8 -16 0.5 -29t22.5 -13t24 15l181 316h780l57 -308q3 -17 17.5 -21.5t26.5 5.5t9 27l-262 1400q-3 16 -22.5 17t-30.5 -17zM270 375l559 968l181 -968h-740zM702 1589q0 17 12 29t29 12q15 0 27 -12t12 -29q0 -15 -12 -27t-27 -12q-17 0 -29 12t-12 27zM979 1589 q0 17 12 29t29 12q15 0 27 -12t12 -29q0 -15 -12 -27t-27 -12q-17 0 -29 12t-12 27z" />
<glyph unicode="&#xc5;" d="M12 4q-9 13 0 29l787 1366q-48 19 -77.5 62t-29.5 98q0 71 50 120.5t122 49.5q70 0 120 -49.5t50 -120.5q0 -69 -46 -118.5t-114 -54.5l256 -1361q3 -17 -9 -27t-26.5 -5.5t-17.5 21.5l-57 308h-780l-181 -316q-10 -15 -24 -15t-23 13zM270 375h740l-181 968zM735 1559 q0 -54 37.5 -91.5t91.5 -37.5q53 0 90 37.5t37 91.5q0 53 -37.5 90t-89.5 37q-54 0 -91.5 -37t-37.5 -90z" />
<glyph unicode="&#xc6;" horiz-adv-x="1656" d="M37 45l1100 1401q8 8 14 8q1 0 2 1t2 1h666q17 0 23.5 -14t0 -27.5t-23.5 -13.5h-641l-136 -694h631q17 0 23.5 -13.5t0 -27t-23.5 -13.5h-641l-116 -598h630q17 0 23.5 -13.5t0 -27.5t-23.5 -14h-663q-14 0 -22 10t-5 23l57 297h-585l-250 -320q-17 -20 -37.5 -3.5 t-5.5 38.5zM373 385h553l184 940z" />
<glyph unicode="&#xc7;" horiz-adv-x="1071" d="M188 721q-39 -197 2 -361t151 -262.5t269 -107.5q-2 -8 -5 -20.5t-5 -21t-4.5 -20t-3.5 -19t-1.5 -16.5t1.5 -15t4.5 -11t8 -7.5t13.5 -2.5q71 0 88 -59q15 -55 -23 -112q-44 -65 -120 -65q-47 0 -73 33t-17 80q3 17 -9 26t-26.5 5t-17.5 -21q-14 -71 28 -123.5 t115 -52.5q99 0 159 82q52 70 40 147q-12 80 -90 106q-10 3 -21 5l17 80q185 9 342 129q14 11 11 26.5t-16 20.5t-28 -4q-157 -119 -332 -119q-232 0 -342 182q-96 160 -71 404q24 241 153 442q138 215 339 286q87 31 179 31q176 0 281 -114q12 -12 27 -7t18.5 18t-6.5 26 q-122 131 -320 131q-167 0 -317 -94t-254 -258t-144 -367z" />
<glyph unicode="&#xc8;" horiz-adv-x="937" d="M182 299q0 96 47.5 186.5t126.5 151.5q-127 107 -127 278q0 109 47 208.5t122.5 168.5t171.5 109.5t192 40.5q101 0 197 -53.5t137 -143.5q10 -25 -14 -35t-35 13q-5 12 -15 26q-46 67 -116 103.5t-154 36.5q-115 0 -225.5 -62.5t-182 -173.5t-71.5 -238q0 -156 120 -245 q90 55 191 55q48 0 81.5 -21.5t33.5 -64.5t-35 -62.5t-84 -19.5q-107 0 -189 49q-75 -55 -120 -137.5t-45 -169.5q0 -107 70.5 -182.5t197.5 -75.5q78 0 159 46t136 112q9 14 24.5 11t21 -16t-2.5 -28q-64 -76 -155.5 -127t-182.5 -51q-103 0 -178 45.5t-109.5 114.5 t-34.5 151zM457 639q66 -29 133 -29q24 0 39.5 5.5t20.5 11.5t5 12q0 13 -14.5 23t-46.5 10q-66 0 -137 -33zM596 1794q-8 15 1.5 27.5t23 12t22.5 -14.5l139 -269q8 -15 -1.5 -27t-23 -11.5t-22.5 14.5z" />
<glyph unicode="&#xc9;" horiz-adv-x="937" d="M182 299q0 96 47.5 186.5t126.5 151.5q-127 107 -127 278q0 109 47 208.5t122.5 168.5t171.5 109.5t192 40.5q101 0 197 -53.5t137 -143.5q10 -25 -14 -35t-35 13q-5 12 -15 26q-46 67 -116 103.5t-154 36.5q-115 0 -225.5 -62.5t-182 -173.5t-71.5 -238q0 -156 120 -245 q90 55 191 55q48 0 81.5 -21.5t33.5 -64.5t-35 -62.5t-84 -19.5q-107 0 -189 49q-75 -55 -120 -137.5t-45 -169.5q0 -107 70.5 -182.5t197.5 -75.5q78 0 159 46t136 112q9 14 24.5 11t21 -16t-2.5 -28q-64 -76 -155.5 -127t-182.5 -51q-103 0 -178 45.5t-109.5 114.5 t-34.5 151zM457 639q66 -29 133 -29q24 0 39.5 5.5t20.5 11.5t5 12q0 13 -14.5 23t-46.5 10q-66 0 -137 -33zM771.5 1532q-3.5 13 6.5 27l238 266q19 20 38.5 1.5t2.5 -38.5l-240 -264q-12 -13 -27 -9t-18.5 17z" />
<glyph unicode="&#xca;" horiz-adv-x="937" d="M182 299q0 96 47.5 186.5t126.5 151.5q-127 107 -127 278q0 109 47 208.5t122.5 168.5t171.5 109.5t192 40.5q101 0 197 -53.5t137 -143.5q10 -25 -14 -35t-35 13q-5 12 -15 26q-46 67 -116 103.5t-154 36.5q-115 0 -225.5 -62.5t-182 -173.5t-71.5 -238q0 -156 120 -245 q90 55 191 55q48 0 81.5 -21.5t33.5 -64.5t-35 -62.5t-84 -19.5q-107 0 -189 49q-75 -55 -120 -137.5t-45 -169.5q0 -107 70.5 -182.5t197.5 -75.5q78 0 159 46t136 112q9 14 24.5 11t21 -16t-2.5 -28q-64 -76 -155.5 -127t-182.5 -51q-103 0 -178 45.5t-109.5 114.5 t-34.5 151zM457 639q66 -29 133 -29q24 0 39.5 5.5t20.5 11.5t5 12q0 13 -14.5 23t-46.5 10q-66 0 -137 -33zM567 1534q0 10 8 18l238 263q13 16 25 16t20 -16l139 -267q4 -8 4 -14q0 -10 -8.5 -18.5t-19.5 -8.5q-14 0 -23 15l-121 231l-215 -235q-11 -11 -18 -11 q-11 0 -20 8.5t-9 18.5z" />
<glyph unicode="&#xcb;" horiz-adv-x="937" d="M182 299q0 -82 34.5 -151t109.5 -114.5t178 -45.5q91 0 182.5 51t155.5 127q9 14 2 28t-20.5 15.5t-24.5 -10.5q-55 -66 -136 -112t-159 -46q-127 0 -197.5 75.5t-70.5 182.5q0 87 45 169.5t120 137.5q82 -49 189 -49q49 0 84 19.5t35 62.5t-33.5 64.5t-81.5 21.5 q-101 0 -191 -55q-120 89 -120 245q0 127 71.5 238t182 173.5t225.5 62.5q84 0 154 -36.5t116 -103.5l15 -26q11 -23 35 -13t14 35q-41 90 -137 143.5t-197 53.5q-96 0 -192 -40.5t-171.5 -109.5t-122.5 -168.5t-47 -208.5q0 -171 127 -278q-79 -61 -126.5 -151.5 t-47.5 -186.5zM457 639q71 33 137 33q32 0 46.5 -10t14.5 -23q0 -6 -5 -12t-20.5 -11.5t-39.5 -5.5q-67 0 -133 29zM602 1579q0 17 12 29t29 12q15 0 27 -12t12 -29q0 -15 -12 -27t-27 -12q-17 0 -29 12t-12 27zM879 1579q0 17 12 29t29 12q15 0 26.5 -12t11.5 -29 q0 -15 -11.5 -27t-26.5 -12q-17 0 -29 12t-12 27z" />
<glyph unicode="&#xcc;" horiz-adv-x="307" d="M129 25l270 1390q3 17 17.5 21t27 -5t9.5 -26l-271 -1391q-3 -22 -24 -22q-13 0 -22.5 9.5t-6.5 23.5zM272 1794q-8 15 1.5 27.5t23 12t22.5 -14.5l140 -269q8 -15 -1.5 -27t-23 -11.5t-22.5 14.5z" />
<glyph unicode="&#xcd;" horiz-adv-x="307" d="M129 25l270 1390q3 17 17.5 21t27 -5t9.5 -26l-271 -1391q-3 -22 -24 -22q-13 0 -22.5 9.5t-6.5 23.5zM444.5 1532q-3.5 13 6.5 27l237 266q19 20 38.5 1.5t2.5 -38.5l-240 -264q-12 -13 -26.5 -9t-18 17z" />
<glyph unicode="&#xce;" horiz-adv-x="307" d="M129 25l270 1390q3 17 17.5 21t27 -5t9.5 -26l-271 -1391q-3 -22 -24 -22q-13 0 -22.5 9.5t-6.5 23.5zM242 1542q0 11 8 19l237 262q13 16 25 16t20 -16l140 -267q4 -8 4 -14q0 -10 -9 -18t-20 -8q-14 0 -22 14l-121 231l-215 -235q-10 -10 -19 -10q-11 0 -19.5 8 t-8.5 18z" />
<glyph unicode="&#xcf;" horiz-adv-x="307" d="M129 25q-3 -14 6.5 -23.5t22.5 -9.5q21 0 24 22l271 1391q3 17 -9.5 26t-27 5t-17.5 -21zM285 1608q0 17 12 29t29 12q15 0 27 -12t12 -29q0 -15 -12 -27t-27 -12q-17 0 -29 12t-12 27zM561 1608q0 17 12 29t29 12q15 0 27 -12t12 -29q0 -15 -12 -27t-27 -12 q-17 0 -29 12t-12 27z" />
<glyph unicode="&#xd0;" horiz-adv-x="1089" d="M105.5 716q-6.5 14 0 28t23.5 14h137l129 659q1 7 10 14t17 7h182q155 0 271.5 -42.5t186 -118t103 -172.5t33.5 -214q0 -108 -23 -215t-66 -206.5t-109 -184.5t-148.5 -148.5t-189.5 -100t-226 -36.5h-282q-12 0 -19.5 8t-7.5 19v6l129 669h-127q-17 0 -23.5 14zM186 53 h250q131 0 246 48t198.5 130t144 189t90.5 228t30 245q0 108 -30.5 195t-94 154.5t-169.5 104.5t-247 37h-160l-122 -626h383q17 0 23.5 -14t0 -28t-23.5 -14h-394z" />
<glyph unicode="&#xd1;" horiz-adv-x="1175" d="M129 25l270 1386q3 16 13 22.5t21.5 2t17.5 -18.5l565 -1302l252 1300q3 17 17.5 21t26.5 -5t9 -26l-268 -1387q-6 -25 -24.5 -27t-27.5 21l-565 1303l-254 -1301q-2 -10 -8.5 -15.5t-14.5 -5.5t-15.5 3t-12 11t-2.5 18zM544.5 1588q-2.5 14 8.5 26q50 45 104.5 60.5 t103.5 6.5t98.5 -28t96.5 -41t89.5 -36t85 -8t77.5 38q12 12 26.5 6t17 -20t-8.5 -27q-43 -40 -91 -52t-94 -1t-93.5 31.5t-95.5 41.5t-93.5 33t-94 2.5t-91.5 -47.5q-14 -11 -28.5 -5t-17 20z" />
<glyph unicode="&#xd2;" horiz-adv-x="1255" d="M170 520q0 138 35.5 273.5t102.5 251.5t156 205.5t203 140.5t236 51q210 0 333 -144.5t128 -377.5q0 -180 -57.5 -350t-154.5 -298t-234 -206t-287 -78q-210 0 -334 148t-127 384zM223 522q3 -220 113.5 -350.5t294.5 -130.5q136 0 261.5 71.5t217 190.5t146.5 281.5 t55 335.5q-5 215 -114 342t-294 127q-110 0 -214.5 -47t-187.5 -130.5t-146 -191.5t-97.5 -237t-34.5 -261zM709 1794q-8 15 1.5 27.5t23 12t22.5 -14.5l139 -269q8 -15 -1.5 -27t-23 -11.5t-22.5 14.5z" />
<glyph unicode="&#xd3;" horiz-adv-x="1255" d="M170 520q0 138 35.5 273.5t102.5 251.5t156 205.5t203 140.5t236 51q210 0 333 -144.5t128 -377.5q0 -180 -57.5 -350t-154.5 -298t-234 -206t-287 -78q-210 0 -334 148t-127 384zM223 522q3 -220 113.5 -350.5t294.5 -130.5q136 0 261.5 71.5t217 190.5t146.5 281.5 t55 335.5q-5 215 -114 342t-294 127q-110 0 -214.5 -47t-187.5 -130.5t-146 -191.5t-97.5 -237t-34.5 -261zM956.5 1532q-3.5 13 6.5 27l237 266q19 20 38.5 1.5t2.5 -38.5l-240 -264q-12 -13 -26.5 -9t-18 17z" />
<glyph unicode="&#xd4;" horiz-adv-x="1255" d="M170 520q0 138 35.5 273.5t102.5 251.5t156 205.5t203 140.5t236 51q210 0 333 -144.5t128 -377.5q0 -180 -57.5 -350t-154.5 -298t-234 -206t-287 -78q-210 0 -334 148t-127 384zM223 522q3 -220 113.5 -350.5t294.5 -130.5q136 0 261.5 71.5t217 190.5t146.5 281.5 t55 335.5q-5 215 -114 342t-294 127q-110 0 -214.5 -47t-187.5 -130.5t-146 -191.5t-97.5 -237t-34.5 -261zM737 1538q0 10 8 18l238 263q13 16 25 16t20 -16l139 -267q4 -8 4 -14q0 -10 -8.5 -18.5t-19.5 -8.5q-14 0 -23 15l-121 231l-215 -235q-11 -11 -18 -11 q-11 0 -20 8.5t-9 18.5z" />
<glyph unicode="&#xd5;" horiz-adv-x="1255" d="M170 520q0 138 35.5 273.5t102.5 251.5t156 205.5t203 140.5t236 51q210 0 333 -144.5t128 -377.5q0 -180 -57.5 -350t-154.5 -298t-234 -206t-287 -78q-210 0 -334 148t-127 384zM223 522q3 -220 113.5 -350.5t294.5 -130.5q136 0 261.5 71.5t217 190.5t146.5 281.5 t55 335.5q-5 215 -114 342t-294 127q-110 0 -214.5 -47t-187.5 -130.5t-146 -191.5t-97.5 -237t-34.5 -261zM612 1588q-2 14 9 26q50 45 104.5 60.5t103.5 6.5t98.5 -28t96.5 -41t89.5 -36t85 -8t77.5 38q12 12 26.5 6t17 -20t-8.5 -27q-43 -40 -91.5 -52t-94 -1t-93.5 31.5 t-96 41.5t-93.5 33t-94 2.5t-91.5 -47.5q-14 -11 -28.5 -5t-16.5 20z" />
<glyph unicode="&#xd6;" horiz-adv-x="1255" d="M170 520q3 -236 127 -384t334 -148q150 0 287 78t234 206t154.5 298t57.5 350q-5 233 -128 377.5t-333 144.5q-122 0 -236 -51t-203 -140.5t-156 -205.5t-102.5 -251.5t-35.5 -273.5zM223 522q0 132 34.5 261t97.5 237t146 191.5t187.5 130.5t214.5 47q185 0 294 -127 t114 -342q0 -173 -55 -335.5t-146.5 -281.5t-217 -190.5t-261.5 -71.5q-184 0 -294.5 130.5t-113.5 350.5zM756 1593q0 17 12 29t29 12q15 0 27 -12t12 -29q0 -15 -12 -27t-27 -12q-17 0 -29 12t-12 27zM1032 1593q0 17 12 29t29 12q15 0 27 -12t12 -29q0 -15 -12 -27 t-27 -12q-17 0 -29 12t-12 27z" />
<glyph unicode="&#xd7;" horiz-adv-x="628" d="M93 82q-8 16 3 31l262 295l-153 307q-8 16 1 28t23.5 12t22.5 -16l143 -290l264 296q12 13 28 9t20 -17t-7 -28l-278 -314l147 -291q8 -16 -1.5 -28t-24 -11.5t-21.5 15.5l-137 274l-248 -278q-10 -10 -20 -10q-16 0 -24 16z" />
<glyph unicode="&#xd8;" horiz-adv-x="1255" d="M170 520q0 138 35.5 273.5t102.5 251.5t156 205.5t203 140.5t236 51q81 0 154 -25l20 49q7 16 22 17t24.5 -11t2.5 -28l-20 -47q122 -59 190 -184.5t68 -292.5q0 -180 -57.5 -350t-154.5 -298t-234 -206t-287 -78q-54 0 -119 14l-18 -45q-7 -16 -22 -16.5t-25 11.5t-3 28 l17 38q-137 54 -214 187.5t-77 314.5zM223 522q0 -170 68.5 -289t189.5 -165l553 1300q-68 21 -131 21q-110 0 -214.5 -47t-187.5 -130.5t-146 -191.5t-97.5 -237t-34.5 -261zM532 51q39 -10 99 -10q136 0 261.5 71.5t217 190.5t146.5 281.5t55 335.5q0 153 -60 264.5 t-166 163.5z" />
<glyph unicode="&#xd9;" horiz-adv-x="1138" d="M227 426l191 989q3 17 17.5 21t26.5 -5t9 -26l-190 -989q-31 -155 57.5 -264t243.5 -109q158 0 292.5 112.5t165.5 270.5l191 989q3 17 18 21t27 -5.5t8 -25.5l-190 -989q-34 -177 -184 -302.5t-328 -125.5q-181 0 -285.5 129t-69.5 309zM698 1794q-8 15 1.5 27.5t23 12 t22.5 -14.5l140 -269q8 -15 -1.5 -27t-23 -11.5t-22.5 14.5z" />
<glyph unicode="&#xda;" horiz-adv-x="1138" d="M227 426l191 989q3 17 17.5 21t26.5 -5t9 -26l-190 -989q-31 -155 57.5 -264t243.5 -109q158 0 292.5 112.5t165.5 270.5l191 989q3 17 18 21t27 -5.5t8 -25.5l-190 -989q-34 -177 -184 -302.5t-328 -125.5q-181 0 -285.5 129t-69.5 309zM874.5 1532q-3.5 13 6.5 27 l237 266q19 20 38.5 1.5t2.5 -38.5l-239 -264q-12 -13 -27 -9t-18.5 17z" />
<glyph unicode="&#xdb;" horiz-adv-x="1138" d="M227 426l191 989q3 17 17.5 21t26.5 -5t9 -26l-190 -989q-31 -155 57.5 -264t243.5 -109q158 0 292.5 112.5t165.5 270.5l191 989q3 17 18 21t27 -5.5t8 -25.5l-190 -989q-34 -177 -184 -302.5t-328 -125.5q-181 0 -285.5 129t-69.5 309zM664 1536q0 10 8 18l237 263 q13 16 25 16t20 -16l140 -267q4 -8 4 -14q0 -10 -9 -18.5t-20 -8.5q-13 0 -22 15l-121 231l-215 -235q-11 -11 -19 -11q-11 0 -19.5 8.5t-8.5 18.5z" />
<glyph unicode="&#xdc;" horiz-adv-x="1138" d="M227 426q-35 -180 69.5 -309t285.5 -129q178 0 328 125.5t184 302.5l190 989q4 16 -8 25.5t-27 5.5t-18 -21l-191 -989q-31 -158 -165.5 -270.5t-292.5 -112.5q-155 0 -243.5 109t-57.5 264l190 989q3 17 -9 26t-26.5 5t-17.5 -21zM709 1595q0 17 12 29t29 12 q15 0 26.5 -12t11.5 -29q0 -15 -11.5 -27t-26.5 -12q-17 0 -29 12t-12 27zM985 1595q0 17 12 29t29 12q15 0 27 -12t12 -29q0 -15 -12 -27t-27 -12q-17 0 -29 12t-12 27z" />
<glyph unicode="&#xdd;" horiz-adv-x="929" d="M217 1401q-7 16 3 27t25 10t21 -17l316 -753l616 759q11 14 26 11t19.5 -15.5t-4.5 -27.5l-639 -791l-115 -590q-3 -17 -17.5 -21.5t-26.5 5.5t-9 27l115 589zM736.5 1532q-3.5 13 6.5 27l238 266q19 20 38.5 1.5t2.5 -38.5l-240 -264q-12 -13 -27 -9t-18.5 17z" />
<glyph unicode="&#xde;" horiz-adv-x="1048" d="M84 25l305 1560q3 17 17.5 21.5t26.5 -5t9 -26.5l-57 -293h346q122 0 213.5 -36.5t147 -117.5t55.5 -200q0 -170 -76.5 -300t-209 -198t-300.5 -68h-356l-68 -348q-3 -17 -17.5 -21.5t-26.5 5.5t-9 27zM215 416h346q235 0 384 139t149 371q0 154 -97.5 228.5t-265.5 74.5 h-356z" />
<glyph unicode="&#xdf;" horiz-adv-x="1236" d="M-286 -463.5q6 14.5 20 16.5t26 -10q31 -37 76 -58t95 -19t97 27t85 86t55 151l219 1142h-164q-17 0 -23.5 14t0 28t23.5 14h174l70 354q15 78 53.5 139.5t87.5 96.5t100.5 53t100.5 18q158 0 241 -80.5t83 -220.5q0 -73 -22 -132.5t-57.5 -100t-78.5 -76t-86 -68 t-78.5 -67t-57.5 -82t-22 -105.5q0 -53 25 -93.5t64.5 -65.5t88 -46t96.5 -41.5t87.5 -44t64.5 -61.5t25 -88q0 -105 -85.5 -167t-211.5 -62q-81 0 -167.5 39t-144.5 100q-12 13 -6.5 27.5t19 17.5t26.5 -8q127 -123 273 -123q110 0 176.5 49.5t66.5 126.5q0 39 -25 69 t-64.5 50t-87.5 39t-96 42.5t-87.5 53t-64.5 77t-25 109.5q0 65 22 118t57.5 90t78 71t85.5 68t78.5 71.5t57.5 92t22 120.5q0 118 -67 183t-203 65q-40 0 -83 -15t-85 -45t-75 -83t-46 -121l-299 -1553q-20 -102 -65.5 -173t-102.5 -101t-119 -34t-118.5 22.5t-96.5 74.5 q-11 14 -5 28.5z" />
<glyph unicode="&#xe0;" horiz-adv-x="876" d="M102 178q0 62 26 112t69 82.5t102.5 56t120.5 35t129 16.5t123 4t106 -5l23 115q30 153 -22 224t-189 71q-85 0 -177.5 -35t-150.5 -94q-19 -19 -38.5 -1t-0.5 38q64 67 167.5 106t199.5 39q164 0 230 -91t32 -265l-64 -332q-6 -30 -6.5 -63t6.5 -68t29.5 -58t59.5 -24 q17 0 23.5 -13.5t0 -26.5t-23.5 -13q-78 0 -117.5 61t-32.5 139q-62 -88 -156 -144t-217 -56t-187.5 54t-64.5 136zM156 178q0 -57 46.5 -97t151.5 -40q81 0 156 34.5t126 86t84 108t40 105.5l8 53q-53 5 -111.5 4.5t-130.5 -5.5t-135.5 -22.5t-118 -45t-85.5 -74 t-31 -107.5zM367 1421q-8 15 1.5 27.5t23 12t22.5 -14.5l190 -367q8 -15 -1.5 -27t-23 -11.5t-22.5 14.5z" />
<glyph unicode="&#xe1;" horiz-adv-x="876" d="M102 178q0 62 26 112t69 82.5t102.5 56t120.5 35t129 16.5t123 4t106 -5l23 115q30 153 -22 224t-189 71q-85 0 -177.5 -35t-150.5 -94q-19 -19 -38.5 -1t-0.5 38q64 67 167.5 106t199.5 39q164 0 230 -91t32 -265l-64 -332q-6 -30 -6.5 -63t6.5 -68t29.5 -58t59.5 -24 q17 0 23.5 -13.5t0 -26.5t-23.5 -13q-78 0 -117.5 61t-32.5 139q-62 -88 -156 -144t-217 -56t-187.5 54t-64.5 136zM156 178q0 -57 46.5 -97t151.5 -40q81 0 156 34.5t126 86t84 108t40 105.5l8 53q-53 5 -111.5 4.5t-130.5 -5.5t-135.5 -22.5t-118 -45t-85.5 -74 t-31 -107.5zM585.5 1048q-3.5 13 6.5 27l332 367q19 20 38.5 1.5t2.5 -38.5l-334 -365q-12 -13 -27 -9t-18.5 17z" />
<glyph unicode="&#xe2;" horiz-adv-x="876" d="M102 178q0 62 26 112t69 82.5t102.5 56t120.5 35t129 16.5t123 4t106 -5l23 115q30 153 -22 224t-189 71q-85 0 -177.5 -35t-150.5 -94q-19 -19 -38.5 -1t-0.5 38q64 67 167.5 106t199.5 39q164 0 230 -91t32 -265l-64 -332q-6 -30 -6.5 -63t6.5 -68t29.5 -58t59.5 -24 q17 0 23.5 -13.5t0 -26.5t-23.5 -13q-78 0 -117.5 61t-32.5 139q-62 -88 -156 -144t-217 -56t-187.5 54t-64.5 136zM156 178q0 -57 46.5 -97t151.5 -40q81 0 156 34.5t126 86t84 108t40 105.5l8 53q-53 5 -111.5 4.5t-130.5 -5.5t-135.5 -22.5t-118 -45t-85.5 -74 t-31 -107.5zM395 1157q0 11 8 19l238 262q13 16 25 16t20 -16l139 -267q4 -8 4 -14q0 -10 -8.5 -18.5t-19.5 -8.5q-14 0 -23 15l-121 231l-215 -235q-11 -11 -18 -11q-11 0 -20 8.5t-9 18.5z" />
<glyph unicode="&#xe3;" horiz-adv-x="876" d="M102 178q0 62 26 112t69 82.5t102.5 56t120.5 35t129 16.5t123 4t106 -5l23 115q30 153 -22 224t-189 71q-85 0 -177.5 -35t-150.5 -94q-19 -19 -38.5 -1t-0.5 38q64 67 167.5 106t199.5 39q164 0 230 -91t32 -265l-64 -332q-6 -30 -6.5 -63t6.5 -68t29.5 -58t59.5 -24 q17 0 23.5 -13.5t0 -26.5t-23.5 -13q-78 0 -117.5 61t-32.5 139q-62 -88 -156 -144t-217 -56t-187.5 54t-64.5 136zM156 178q0 -57 46.5 -97t151.5 -40q81 0 156 34.5t126 86t84 108t40 105.5l8 53q-53 5 -111.5 4.5t-130.5 -5.5t-135.5 -22.5t-118 -45t-85.5 -74 t-31 -107.5zM263.5 1360.5q-2.5 13.5 8.5 25.5q50 45 104.5 60.5t103.5 6.5t99 -28t96.5 -41t89.5 -36t85.5 -8t77.5 38q12 12 26.5 6t17 -20t-8.5 -27q-43 -40 -91.5 -52t-94 -1t-93.5 31.5t-96 42t-93.5 33.5t-94 2.5t-91.5 -47.5q-14 -11 -28.5 -5t-17 19.5z" />
<glyph unicode="&#xe4;" horiz-adv-x="876" d="M102 178q0 -82 64.5 -136t187.5 -54t217 56t156 144q-7 -78 32.5 -139t117.5 -61q17 0 23.5 13t0 26.5t-23.5 13.5q-37 1 -59.5 24t-29.5 58t-6.5 68t6.5 63l64 332q34 174 -32 265t-230 91q-96 0 -199.5 -39t-167.5 -106q-19 -20 0.5 -38t38.5 1q58 59 150.5 94 t177.5 35q137 0 189 -71t22 -224l-23 -115q-51 4 -106 5t-123 -4t-129 -16.5t-120.5 -35t-102.5 -56t-69 -82.5t-26 -112zM156 178q0 61 31 107.5t85.5 74t118 45t135.5 22.5t130.5 5.5t111.5 -4.5l-8 -53q-7 -49 -40 -105.5t-84 -108t-126 -86t-156 -34.5q-105 0 -151.5 40 t-46.5 97zM446 1311q0 17 12 29t29 12q15 0 27 -12t12 -29q0 -15 -12 -27t-27 -12q-17 0 -29 12t-12 27zM723 1311q0 17 12 29t29 12q15 0 27 -12t12 -29q0 -15 -12 -27t-27 -12q-17 0 -29 12t-12 27z" />
<glyph unicode="&#xe5;" horiz-adv-x="876" d="M102 178q0 62 26 112t69 82.5t102.5 56t120.5 35t129 16.5t123 4t106 -5l23 115q30 153 -22 224t-189 71q-85 0 -177.5 -35t-150.5 -94q-19 -19 -38.5 -1t-0.5 38q64 67 167.5 106t199.5 39q164 0 230 -91t32 -265l-64 -332q-6 -30 -6.5 -63t6.5 -68t29.5 -58t59.5 -24 q17 0 23.5 -13.5t0 -26.5t-23.5 -13q-78 0 -117.5 61t-32.5 139q-62 -88 -156 -144t-217 -56t-187.5 54t-64.5 136zM156 178q0 -57 46.5 -97t151.5 -40q81 0 156 34.5t126 86t84 108t40 105.5l8 53q-53 5 -111.5 4.5t-130.5 -5.5t-135.5 -22.5t-118 -45t-85.5 -74 t-31 -107.5zM494 1432q0 71 50 120.5t122 49.5q70 0 120 -50t50 -120q0 -72 -49.5 -122t-120.5 -50q-72 0 -122 50t-50 122zM537 1432q0 -54 37.5 -91.5t91.5 -37.5q53 0 90 37.5t37 91.5q0 52 -37.5 89.5t-89.5 37.5q-54 0 -91.5 -37t-37.5 -90z" />
<glyph unicode="&#xe6;" horiz-adv-x="1380" d="M102 178q0 70 25.5 125.5t68.5 89t100 57.5t119.5 32t128 12.5t124.5 -2.5q28 160 127 286q-38 109 -207 109q-83 0 -176 -34t-150 -93q-12 -12 -26.5 -7.5t-17.5 17t7 25.5q65 65 168.5 106t194.5 41q186 0 246 -121q124 121 294 121q128 0 197.5 -65.5t69.5 -176.5 q0 -71 -42 -131t-120 -99.5t-188.5 -53t-247.5 9.5q-48 8 -84 10q-4 -54 -4 -80q0 -142 77.5 -227.5t223.5 -85.5q166 0 303 150q11 13 25.5 9.5t18 -16t-6.5 -26.5q-159 -172 -340 -172q-109 0 -188 44.5t-122 123.5q-129 -168 -348 -168q-121 0 -185.5 54.5t-64.5 135.5z M158 178q0 -57 45.5 -96t148.5 -39q110 0 192.5 45.5t133.5 120.5q-23 65 -23 147q0 26 4 84q-54 6 -112 2.5t-113.5 -10.5t-105.5 -27.5t-88 -49t-60 -74t-22 -103.5zM721 485q36 -2 84 -10q133 -20 233.5 -8.5t168 48.5t101 85t33.5 100q0 88 -52 137.5t-161 49.5 q-83 0 -154 -33.5t-120.5 -91t-83 -128t-49.5 -149.5z" />
<glyph unicode="&#xe7;" horiz-adv-x="839" d="M137 369q0 144 73.5 277t194 214.5t250.5 81.5q86 0 169 -42.5t116 -117.5q7 -16 -2 -27.5t-24 -10t-23 17.5q-32 62 -96 94.5t-140 32.5q-113 0 -221 -73.5t-176 -195.5t-68 -253q0 -141 82 -232.5t209 -91.5q77 0 157.5 31.5t127.5 87.5q11 13 26.5 8.5t20 -18 t-5.5 -27.5q-54 -62 -132 -96t-165 -39l-14 -72q87 -17 108 -96q20 -73 -27 -148q-51 -82 -141 -94l-28 -2q-73 0 -115.5 52.5t-28.5 123.5q3 17 17.5 21t26.5 -5t9 -26q-9 -47 17.5 -80t73.5 -33q77 0 121 67q38 57 21 111q-17 58 -87 58q-14 0 -21 8t-5.5 28t4 32t9.5 42 q2 9 3 13q-141 9 -228.5 116t-87.5 263z" />
<glyph unicode="&#xe8;" horiz-adv-x="868" d="M137 356q0 138 41.5 251.5t110.5 185t154 110.5t175 39q127 0 196 -64t69 -173q0 -84 -47 -154t-121 -114t-167 -74t-183.5 -41.5t-171.5 -8.5q11 -125 89 -198.5t214 -73.5q159 0 303 154q12 13 27 8.5t18.5 -18t-6.5 -27.5q-157 -170 -342 -170q-170 0 -264.5 103 t-94.5 265zM190 367q112 -5 225 16.5t205.5 63.5t150.5 110t58 148q0 85 -53 134.5t-158 49.5q-82 0 -152.5 -31t-119.5 -83t-84.5 -120t-53 -141t-18.5 -147zM354 1421q-8 15 1.5 27.5t23 12t22.5 -14.5l191 -367q8 -15 -1.5 -27t-23 -11.5t-22.5 14.5z" />
<glyph unicode="&#xe9;" horiz-adv-x="868" d="M137 356q0 138 41.5 251.5t110.5 185t154 110.5t175 39q127 0 196 -64t69 -173q0 -84 -47 -154t-121 -114t-167 -74t-183.5 -41.5t-171.5 -8.5q11 -125 89 -198.5t214 -73.5q159 0 303 154q12 13 27 8.5t18.5 -18t-6.5 -27.5q-157 -170 -342 -170q-170 0 -264.5 103 t-94.5 265zM190 367q112 -5 225 16.5t205.5 63.5t150.5 110t58 148q0 85 -53 134.5t-158 49.5q-82 0 -152.5 -31t-119.5 -83t-84.5 -120t-53 -141t-18.5 -147zM624.5 1048q-3.5 13 6.5 27l332 367q19 20 38.5 1.5t2.5 -38.5l-334 -365q-12 -13 -27 -9t-18.5 17z" />
<glyph unicode="&#xea;" horiz-adv-x="868" d="M137 356q0 138 41.5 251.5t110.5 185t154 110.5t175 39q127 0 196 -64t69 -173q0 -84 -47 -154t-121 -114t-167 -74t-183.5 -41.5t-171.5 -8.5q11 -125 89 -198.5t214 -73.5q159 0 303 154q12 13 27 8.5t18.5 -18t-6.5 -27.5q-157 -170 -342 -170q-170 0 -264.5 103 t-94.5 265zM190 367q112 -5 225 16.5t205.5 63.5t150.5 110t58 148q0 85 -53 134.5t-158 49.5q-82 0 -152.5 -31t-119.5 -83t-84.5 -120t-53 -141t-18.5 -147zM434 1157q0 11 8 19l238 262q13 16 25 16t20 -16l139 -267q4 -8 4 -14q0 -10 -8.5 -18.5t-19.5 -8.5 q-14 0 -23 15l-121 231l-215 -235q-11 -11 -18 -11q-11 0 -20 8.5t-9 18.5z" />
<glyph unicode="&#xeb;" horiz-adv-x="868" d="M137 356q0 -162 94.5 -265t264.5 -103q185 0 342 170q12 13 6.5 27.5t-19 17.5t-26.5 -8q-144 -154 -303 -154q-136 0 -214 73.5t-89 198.5q81 -3 171.5 8.5t183.5 41.5t167 74t121 114t47 154q0 109 -69 173t-196 64q-90 0 -175 -39t-154 -110.5t-110.5 -185 t-41.5 -251.5zM190 367q1 74 18.5 147t53 141t84.5 120t119.5 83t152.5 31q105 0 158 -49.5t53 -134.5q0 -80 -58 -148t-150.5 -110t-205.5 -63.5t-225 -16.5zM514 1311q0 17 12 29t29 12q15 0 27 -12t12 -29q0 -15 -12 -27t-27 -12q-17 0 -29 12t-12 27zM791 1311 q0 17 11.5 29t28.5 12q15 0 27 -12t12 -29q0 -15 -12 -27t-27 -12q-17 0 -28.5 12t-11.5 27z" />
<glyph unicode="&#xec;" horiz-adv-x="317" d="M111 1421q-8 15 1.5 27.5t23 12t22.5 -14.5l190 -367q8 -15 -1.5 -27t-23 -11.5t-22.5 14.5zM139 25l174 890q4 17 18.5 22t26.5 -4.5t9 -27.5l-174 -891q-2 -10 -8.5 -15.5t-15 -5.5t-16 3t-12 11t-2.5 18z" />
<glyph unicode="&#xed;" horiz-adv-x="317" d="M139 25l174 890q4 17 18.5 22t26.5 -4.5t9 -27.5l-174 -891q-2 -10 -8.5 -15.5t-15 -5.5t-16 3t-12 11t-2.5 18zM366.5 1048q-3.5 13 6.5 27l332 367q19 20 38 1.5t2 -38.5l-333 -365q-12 -13 -27 -9t-18.5 17z" />
<glyph unicode="&#xee;" horiz-adv-x="317" d="M139 25l174 890q4 17 18.5 22t26.5 -4.5t9 -27.5l-174 -891q-2 -10 -8.5 -15.5t-15 -5.5t-16 3t-12 11t-2.5 18zM186 1157q0 10 9 19l237 262q13 16 25 16t20 -16l139 -267q5 -10 5 -14q0 -10 -9 -18.5t-20 -8.5q-14 0 -23 15l-120 231l-216 -235q-11 -11 -18 -11 q-11 0 -20 8.5t-9 18.5z" />
<glyph unicode="&#xef;" horiz-adv-x="317" d="M139 25q-2 -10 2.5 -18t12 -11t16 -3t15 5.5t8.5 15.5l174 891q3 18 -9 27.5t-26.5 4.5t-18.5 -22zM236 1311q0 17 11.5 29t28.5 12q15 0 27 -12t12 -29q0 -15 -12 -27t-27 -12q-17 0 -28.5 12t-11.5 27zM512 1311q0 17 12 29t29 12q15 0 27 -12t12 -29q0 -15 -12 -27 t-27 -12q-17 0 -29 12t-12 27z" />
<glyph unicode="&#xf0;" horiz-adv-x="1024" d="M154 336q0 130 73.5 246.5t191.5 185t245 68.5q107 0 204 -53t140 -142q11 139 -22.5 274t-108.5 240l-162 -160q-12 -12 -27 -7t-18 18.5t8 27.5l164 164q-145 169 -375 191q-17 2 -23 16t2 26.5t25 10.5q255 -29 410 -205l192 193q20 19 39 0t0 -39l-197 -197 q148 -193 148 -483q0 -104 -22 -206t-67.5 -195.5t-110 -165t-156.5 -114t-199 -42.5q-155 0 -254.5 99.5t-99.5 248.5zM209 334q0 -127 83.5 -210t215.5 -83q87 0 165 34t133 87.5t95.5 118t60 125.5t19.5 110q0 115 -93.5 190.5t-223.5 75.5q-84 0 -167.5 -37 t-146.5 -97.5t-102 -143.5t-39 -170z" />
<glyph unicode="&#xf1;" horiz-adv-x="972" d="M137 25l172 888q3 17 17.5 22t26 -5t7.5 -27l-28 -143q85 78 184.5 130t188.5 52q151 0 218.5 -86.5t41.5 -218.5l-119 -623q-4 -17 -18.5 -21.5t-26.5 5.5t-8 27l120 622q21 108 -31.5 175t-176.5 67q-63 0 -134 -31t-125.5 -74t-87.5 -74t-45 -46l-125 -650 q-3 -17 -17 -21.5t-25.5 5.5t-8.5 27zM388.5 1360.5q-2.5 13.5 8.5 25.5q50 45 104.5 60.5t103.5 6.5t99 -28t96.5 -41t89.5 -36t85.5 -8t77.5 38q12 12 26 6t16.5 -20t-8.5 -27q-43 -40 -91 -52t-94 -1t-93.5 31.5t-95.5 42t-93.5 33.5t-94 2.5t-91.5 -47.5 q-14 -11 -28.5 -5t-17 19.5z" />
<glyph unicode="&#xf2;" horiz-adv-x="952" d="M137 369q0 144 73 277t193.5 214.5t251.5 81.5q153 0 247.5 -107.5t94.5 -269.5q0 -144 -73 -278t-193.5 -216.5t-251.5 -82.5q-151 0 -246.5 109.5t-95.5 271.5zM190 369q0 -142 81.5 -234t207.5 -92q86 0 171 43.5t149.5 114.5t104.5 167t40 195q0 143 -81 234.5 t-208 91.5q-114 0 -222 -73t-175.5 -194.5t-67.5 -252.5zM428 1421q-8 15 1.5 27.5t23 12t22.5 -14.5l191 -367q8 -15 -1.5 -27t-23.5 -11.5t-23 14.5z" />
<glyph unicode="&#xf3;" horiz-adv-x="952" d="M137 369q0 144 73 277t193.5 214.5t251.5 81.5q153 0 247.5 -107.5t94.5 -269.5q0 -144 -73 -278t-193.5 -216.5t-251.5 -82.5q-151 0 -246.5 109.5t-95.5 271.5zM190 369q0 -142 81.5 -234t207.5 -92q86 0 171 43.5t149.5 114.5t104.5 167t40 195q0 143 -81 234.5 t-208 91.5q-114 0 -222 -73t-175.5 -194.5t-67.5 -252.5zM661.5 1048q-3.5 13 6.5 27l331 367q19 20 38.5 1.5t2.5 -38.5l-333 -365q-12 -13 -27 -9t-18.5 17z" />
<glyph unicode="&#xf4;" horiz-adv-x="952" d="M137 369q0 144 73 277t193.5 214.5t251.5 81.5q153 0 247.5 -107.5t94.5 -269.5q0 -144 -73 -278t-193.5 -216.5t-251.5 -82.5q-151 0 -246.5 109.5t-95.5 271.5zM190 369q0 -142 81.5 -234t207.5 -92q86 0 171 43.5t149.5 114.5t104.5 167t40 195q0 143 -81 234.5 t-208 91.5q-114 0 -222 -73t-175.5 -194.5t-67.5 -252.5zM485 1157q0 10 9 19l237 262q13 16 25 16t20 -16l139 -267q5 -10 5 -14q0 -10 -9 -18.5t-20 -8.5q-14 0 -23 15l-120 231l-216 -235q-11 -11 -18 -11q-11 0 -20 8.5t-9 18.5z" />
<glyph unicode="&#xf5;" horiz-adv-x="952" d="M137 369q0 144 73 277t193.5 214.5t251.5 81.5q153 0 247.5 -107.5t94.5 -269.5q0 -144 -73 -278t-193.5 -216.5t-251.5 -82.5q-151 0 -246.5 109.5t-95.5 271.5zM190 369q0 -142 81.5 -234t207.5 -92q86 0 171 43.5t149.5 114.5t104.5 167t40 195q0 143 -81 234.5 t-208 91.5q-114 0 -222 -73t-175.5 -194.5t-67.5 -252.5zM392.5 1360.5q-2.5 13.5 8.5 25.5q50 45 104.5 60.5t103.5 6.5t99 -28t96.5 -41t89.5 -36t85.5 -8t77.5 38q12 12 26.5 6t17 -20t-8.5 -27q-43 -40 -91.5 -52t-94 -1t-93.5 31.5t-96 42t-93.5 33.5t-94 2.5 t-91.5 -47.5q-14 -11 -28.5 -5t-17 19.5z" />
<glyph unicode="&#xf6;" horiz-adv-x="952" d="M137 369q0 -162 95.5 -271.5t246.5 -109.5q131 0 251.5 82.5t193.5 216.5t73 278q0 162 -94.5 269.5t-247.5 107.5q-131 0 -251.5 -81.5t-193.5 -214.5t-73 -277zM190 369q0 131 67.5 252.5t175.5 194.5t222 73q127 0 208 -91.5t81 -234.5q0 -99 -40 -195t-104.5 -167 t-149.5 -114.5t-171 -43.5q-126 0 -207.5 92t-81.5 234zM524 1311q0 17 12 29t29 12q15 0 27 -12t12 -29q0 -15 -12 -27t-27 -12q-17 0 -29 12t-12 27zM801 1311q0 17 12 29t29 12q15 0 27 -12t12 -29q0 -15 -12 -27t-27 -12q-17 0 -29 12t-12 27z" />
<glyph unicode="&#xf7;" horiz-adv-x="636" d="M103.5 456q6.5 -14 23.5 -14h575q17 0 23.5 14t0 28t-23.5 14h-575q-17 0 -23.5 -14t0 -28zM289 176q0 34 24.5 58t59.5 24q30 0 53 -24.5t23 -57.5q0 -31 -23.5 -54.5t-52.5 -23.5q-35 0 -59.5 23.5t-24.5 54.5zM389 776q0 34 24.5 58t59.5 24q30 0 53 -24.5t23 -57.5 q0 -31 -23.5 -54.5t-52.5 -23.5q-35 0 -59.5 23.5t-24.5 54.5z" />
<glyph unicode="&#xf8;" horiz-adv-x="952" d="M137 369q0 144 73 277t193.5 214.5t251.5 81.5q39 0 84 -10l123 289q7 16 22 17t24.5 -11.5t2.5 -28.5l-120 -283q96 -41 151 -134.5t55 -215.5q0 -144 -73 -278t-193.5 -216.5t-251.5 -82.5q-47 0 -80 8l-120 -285q-7 -16 -22 -16.5t-25 11.5t-3 28l119 278 q-98 41 -154.5 137.5t-56.5 219.5zM190 369q0 -108 48.5 -190t130.5 -116l348 820q-27 6 -62 6q-114 0 -222 -73t-175.5 -194.5t-67.5 -252.5zM422 47q36 -4 57 -4q86 0 171 43.5t149.5 114.5t104.5 167t40 195q0 106 -47 186.5t-127 114.5z" />
<glyph unicode="&#xf9;" horiz-adv-x="989" d="M184 293l121 622q6 23 27 23q12 0 20.5 -9.5t5.5 -23.5l-120 -622q-21 -108 30 -175t178 -67q101 0 193.5 63.5t152 159t80.5 201.5l89 450q4 17 18.5 21.5t26 -5t8.5 -26.5l-172 -891q-3 -22 -25 -22q-13 0 -22.5 9.5t-6.5 23.5l39 198q-71 -109 -170.5 -172t-210.5 -63 q-151 0 -219.5 86.5t-42.5 218.5zM453 1421q-8 15 1.5 27.5t23 12t22.5 -14.5l190 -367q8 -15 -1.5 -27t-23 -11.5t-22.5 14.5z" />
<glyph unicode="&#xfa;" horiz-adv-x="989" d="M184 293l121 622q6 23 27 23q12 0 20.5 -9.5t5.5 -23.5l-120 -622q-21 -108 30 -175t178 -67q101 0 193.5 63.5t152 159t80.5 201.5l89 450q4 17 18.5 21.5t26 -5t8.5 -26.5l-172 -891q-3 -22 -25 -22q-13 0 -22.5 9.5t-6.5 23.5l39 198q-71 -109 -170.5 -172t-210.5 -63 q-151 0 -219.5 86.5t-42.5 218.5zM626.5 1048q-3.5 13 6.5 27l332 367q19 20 38.5 1.5t2.5 -38.5l-334 -365q-12 -13 -27 -9t-18.5 17z" />
<glyph unicode="&#xfb;" horiz-adv-x="989" d="M184 293l121 622q6 23 27 23q12 0 20.5 -9.5t5.5 -23.5l-120 -622q-21 -108 30 -175t178 -67q101 0 193.5 63.5t152 159t80.5 201.5l89 450q4 17 18.5 21.5t26 -5t8.5 -26.5l-172 -891q-3 -22 -25 -22q-13 0 -22.5 9.5t-6.5 23.5l39 198q-71 -109 -170.5 -172t-210.5 -63 q-151 0 -219.5 86.5t-42.5 218.5zM479 1157q0 11 8 19l238 262q13 16 25 16t20 -16l139 -267q4 -8 4 -14q0 -10 -8.5 -18.5t-19.5 -8.5q-14 0 -23 15l-121 231l-215 -235q-11 -11 -18 -11q-11 0 -20 8.5t-9 18.5z" />
<glyph unicode="&#xfc;" horiz-adv-x="989" d="M184 293q-26 -132 42.5 -218.5t219.5 -86.5q111 0 210.5 63t170.5 172l-39 -198q-3 -14 6.5 -23.5t22.5 -9.5q22 0 25 22l172 891q3 17 -8.5 26.5t-26 5t-18.5 -21.5l-89 -450q-21 -106 -80.5 -201.5t-152 -159t-193.5 -63.5q-127 0 -178 67t-30 175l120 622 q3 14 -5.5 23.5t-20.5 9.5q-21 0 -27 -23zM520 1311q0 17 12 29t29 12q15 0 27 -12t12 -29q0 -15 -12 -27t-27 -12q-17 0 -29 12t-12 27zM797 1311q0 17 12 29t29 12q15 0 27 -12t12 -29q0 -15 -12 -27t-27 -12q-17 0 -29 12t-12 27z" />
<glyph unicode="&#xfd;" horiz-adv-x="827" d="M-279.5 -572q-6.5 14 1 27.5t24.5 12.5q16 0 43 6q143 24 264.5 126t208.5 242l113 181l-207 882q-2 10 1.5 18t10.5 11.5t15 4t15 -5t9 -15.5l195 -834l524 840q8 15 23.5 14t22 -13t-0.5 -28l-676 -1083q-93 -150 -223.5 -258.5t-284.5 -135.5l-55 -6q-17 0 -23.5 14z M521.5 1048q-3.5 13 6.5 27l332 367q19 20 38.5 1.5t2.5 -38.5l-334 -365q-12 -13 -27 -9t-18.5 17z" />
<glyph unicode="&#xfe;" horiz-adv-x="1024" d="M35 -555l414 2134q3 17 17 21t25.5 -5t8.5 -26l-162 -832q53 98 135 151.5t186 53.5q142 0 235 -101t93 -274q0 -114 -41 -214.5t-113.5 -173.5t-172 -123t-216.5 -62t-247 10l-111 -569q-3 -17 -17.5 -21t-26 5.5t-7.5 25.5zM207 57q55 -16 121 -18.5t135.5 10t137 39 t128 71.5t106 102t72.5 136t27 170q0 153 -78 237.5t-197 84.5q-141 0 -238 -113t-130 -284z" />
<glyph unicode="&#xff;" horiz-adv-x="827" d="M-279.5 -572q6.5 -14 23.5 -14q20 0 55 6q154 27 284.5 135.5t223.5 258.5l676 1083q9 15 0.5 28t-22 13t-23.5 -14l-524 -840l-195 834q-2 10 -9 15.5t-15 5t-15 -4t-10.5 -11.5t-1.5 -18l207 -882l-113 -181q-87 -140 -208.5 -242t-264.5 -126l-43 -6 q-17 1 -24.5 -12.5t-1 -27.5zM485 1311q0 17 12 29t29 12q15 0 27 -12t12 -29q0 -15 -12 -27t-27 -12q-17 0 -29 12t-12 27zM762 1311q0 17 12 29t29 12q15 0 27 -12t12 -29q0 -15 -12 -27t-27 -12q-17 0 -29 12t-12 27z" />
<glyph unicode="&#x152;" horiz-adv-x="1894" d="M170 520q0 138 35.5 273.5t102.5 251.5t156 205.5t203 140.5t236 51t219.5 -101t126.5 -256q58 156 201.5 256.5t300.5 100.5q101 0 197 -53.5t137 -143.5q10 -25 -14 -35t-35 13q-5 12 -15 26q-46 67 -116 103.5t-154 36.5q-115 0 -225.5 -62.5t-182 -173.5t-71.5 -238 q0 -155 121 -245q90 55 190 55q48 0 81.5 -21.5t33.5 -64.5t-35 -62.5t-84 -19.5q-106 0 -188 49q-75 -55 -120.5 -138t-45.5 -169q0 -107 70.5 -182.5t197.5 -75.5q78 0 159 46t136 112q9 14 24.5 11t21 -16t-2.5 -28q-64 -76 -155.5 -127t-182.5 -51q-103 0 -178 45.5 t-109.5 114.5t-34.5 151v2q-103 -145 -243 -229t-297 -84q-210 0 -334 148t-127 384zM223 522q3 -220 113.5 -350.5t294.5 -130.5q178 0 333 118.5t248 313.5q49 100 134 164q-127 107 -127 278q2 122 -38 231t-114.5 176t-163.5 67q-110 0 -214.5 -47t-187.5 -130.5 t-146 -191.5t-97.5 -237t-34.5 -261zM1446 639q66 -29 133 -29q24 0 39.5 5.5t21 11.5t5.5 12q0 13 -15 23t-47 10q-66 0 -137 -33z" />
<glyph unicode="&#x153;" horiz-adv-x="1458" d="M137 369q0 144 73 277t193.5 214.5t251.5 81.5q161 0 256 -119q131 119 297 119q127 0 196 -64t69 -173q0 -84 -47 -154t-121 -114t-167.5 -74t-184 -41.5t-171.5 -8.5q11 -125 89 -198.5t214 -73.5q160 0 304 154q12 13 26.5 8.5t18 -18t-6.5 -27.5q-157 -170 -342 -170 q-195 0 -290 135q-67 -64 -149 -99.5t-167 -35.5q-151 0 -246.5 109.5t-95.5 271.5zM190 369q0 -142 81.5 -234t207.5 -92q156 0 287 125q-39 79 -39 188q0 266 147 430q-80 103 -219 103q-114 0 -222 -73t-175.5 -194.5t-67.5 -252.5zM780 367q112 -5 225 16.5t205.5 63.5 t150.5 110t58 148q0 85 -53 134.5t-158 49.5q-82 0 -152.5 -31t-119.5 -83t-84.5 -120t-53 -141t-18.5 -147z" />
<glyph unicode="&#x178;" horiz-adv-x="929" d="M217 1401l330 -787l-115 -589q-3 -17 9 -27t26.5 -5.5t17.5 21.5l115 590l639 791q11 14 5 28t-20 15.5t-26 -11.5l-616 -759l-316 753q-6 16 -21 17t-25 -10t-3 -27zM563 1593q0 17 12 29t29 12q15 0 27 -12t12 -29q0 -15 -12 -27t-27 -12q-17 0 -29 12t-12 27z M840 1593q0 17 12 29t29 12q15 0 27 -12t12 -29q0 -15 -12 -27t-27 -12q-17 0 -29 12t-12 27z" />
<glyph unicode="&#x2c6;" horiz-adv-x="540" d="M293 1157q0 11 8 19l238 262q13 16 24 16q13 0 21 -16l139 -267q4 -8 4 -14q0 -10 -9 -18.5t-20 -8.5q-13 0 -22 15l-121 231l-215 -235q-11 -11 -18 -11q-11 0 -20 8.5t-9 18.5z" />
<glyph unicode="&#x2dc;" horiz-adv-x="825" d="M61 1360.5q-2 13.5 9 25.5q50 45 104.5 60.5t103.5 6.5t98.5 -28t96.5 -41t89.5 -36t85 -8t77.5 38q12 12 26.5 6t17 -20t-8.5 -27q-43 -40 -91.5 -52t-94 -1t-93.5 31.5t-96 42t-93.5 33.5t-94 2.5t-91.5 -47.5q-14 -11 -28.5 -5t-16.5 19.5z" />
<glyph unicode="&#x2000;" horiz-adv-x="919" />
<glyph unicode="&#x2001;" horiz-adv-x="1839" />
<glyph unicode="&#x2002;" horiz-adv-x="919" />
<glyph unicode="&#x2003;" horiz-adv-x="1839" />
<glyph unicode="&#x2004;" horiz-adv-x="613" />
<glyph unicode="&#x2005;" horiz-adv-x="459" />
<glyph unicode="&#x2006;" horiz-adv-x="306" />
<glyph unicode="&#x2007;" horiz-adv-x="306" />
<glyph unicode="&#x2008;" horiz-adv-x="229" />
<glyph unicode="&#x2009;" horiz-adv-x="367" />
<glyph unicode="&#x200a;" horiz-adv-x="102" />
<glyph unicode="&#x2010;" horiz-adv-x="632" d="M89.5 456q-6.5 14 0 28t23.5 14h575q17 0 23.5 -14t0 -28t-23.5 -14h-575q-17 0 -23.5 14z" />
<glyph unicode="&#x2011;" horiz-adv-x="632" d="M89.5 456q-6.5 14 0 28t23.5 14h575q17 0 23.5 -14t0 -28t-23.5 -14h-575q-17 0 -23.5 14z" />
<glyph unicode="&#x2012;" horiz-adv-x="632" d="M89.5 456q-6.5 14 0 28t23.5 14h575q17 0 23.5 -14t0 -28t-23.5 -14h-575q-17 0 -23.5 14z" />
<glyph unicode="&#x2013;" horiz-adv-x="976" d="M64.5 456q-6.5 14 0 28t23.5 14h801q17 0 23.5 -14t0 -28t-23.5 -14h-801q-17 0 -23.5 14z" />
<glyph unicode="&#x2014;" horiz-adv-x="1216" d="M64.5 456q-6.5 14 0 28t23.5 14h1040q17 0 23.5 -14t0 -28t-23.5 -14h-1040q-17 0 -23.5 14z" />
<glyph unicode="&#x2018;" horiz-adv-x="167" d="M274 1165l82 414q3 17 17.5 21.5t26.5 -5t8 -26.5l-80 -414q-3 -17 -17.5 -21.5t-27 5t-9.5 26.5z" />
<glyph unicode="&#x2019;" horiz-adv-x="167" d="M274 1165l82 414q3 17 17.5 21.5t26.5 -5t8 -26.5l-80 -414q-3 -17 -17.5 -21.5t-27 5t-9.5 26.5z" />
<glyph unicode="&#x201a;" horiz-adv-x="186" d="M6 -319l82 413q3 17 17.5 21.5t26 -5t7.5 -26.5l-80 -414q-3 -17 -17.5 -21t-26.5 5.5t-9 26.5z" />
<glyph unicode="&#x201c;" horiz-adv-x="329" d="M307 1165l82 414q3 17 17.5 21.5t26 -5t7.5 -26.5l-80 -414q-3 -17 -17.5 -21.5t-26.5 5t-9 26.5zM485 1165l82 414q3 17 17.5 21.5t26 -5t7.5 -26.5l-79 -414q-3 -17 -17.5 -21.5t-27 5t-9.5 26.5z" />
<glyph unicode="&#x201d;" horiz-adv-x="401" d="M307 1165l82 414q3 17 17.5 21.5t26 -5t7.5 -26.5l-80 -414q-3 -17 -17.5 -21.5t-26.5 5t-9 26.5zM485 1165l82 414q3 17 17.5 21.5t26 -5t7.5 -26.5l-79 -414q-3 -17 -17.5 -21.5t-27 5t-9.5 26.5z" />
<glyph unicode="&#x201e;" horiz-adv-x="350" d="M18 -319l82 413q3 17 17.5 21.5t26.5 -5t8 -26.5l-80 -414q-3 -17 -17.5 -21t-27 5.5t-9.5 26.5zM170 -319l82 413q3 17 17.5 21.5t26 -5t7.5 -26.5l-80 -414q-3 -17 -17.5 -21t-26.5 5.5t-9 26.5z" />
<glyph unicode="&#x2022;" horiz-adv-x="442" d="M23 483q0 83 59 140t141 57q79 0 138 -57.5t59 -139.5q0 -81 -59 -140.5t-138 -59.5q-82 0 -141 59t-59 141zM78 483q0 -60 42.5 -102.5t102.5 -42.5q59 0 101.5 42.5t42.5 102.5q0 59 -42.5 101.5t-101.5 42.5q-60 0 -102.5 -42.5t-42.5 -101.5z" />
<glyph unicode="&#x2026;" horiz-adv-x="921" d="M109 61q0 34 24.5 58t59.5 24q30 0 52.5 -24.5t22.5 -57.5q0 -31 -23 -54t-52 -23q-35 0 -59.5 23t-24.5 54zM395 61q0 34 24.5 58t59.5 24q30 0 53 -24.5t23 -57.5q0 -31 -23.5 -54t-52.5 -23q-35 0 -59.5 23t-24.5 54zM688 61q0 34 24.5 58t59.5 24q30 0 53 -24.5 t23 -57.5q0 -31 -23 -54t-53 -23q-35 0 -59.5 23t-24.5 54z" />
<glyph unicode="&#x202f;" horiz-adv-x="367" />
<glyph unicode="&#x2039;" horiz-adv-x="421" d="M147 459q-8 16 5 33l346 358q20 19 39 0t0 -39l-332 -344l196 -340q9 -15 0 -28t-23 -13t-24 14z" />
<glyph unicode="&#x203a;" horiz-adv-x="380" d="M111 96q-19 19 0 39l331 344l-196 340q-8 15 0.5 28t22.5 13t24 -14l207 -359q8 -16 -4 -32l-346 -359q-20 -19 -39 0z" />
<glyph unicode="&#x205f;" horiz-adv-x="459" />
<glyph unicode="&#x20ac;" horiz-adv-x="897" d="M93.5 340q-6.5 14 0 27.5t23.5 13.5h78q3 108 43 201h-74q-17 0 -23.5 14t0 27.5t23.5 13.5h100q71 134 193.5 219.5t255.5 85.5q86 0 168.5 -42.5t115.5 -117.5q7 -16 -2 -27.5t-24 -10t-23 17.5q-33 62 -96.5 94.5t-138.5 32.5q-110 0 -215 -69.5t-172 -182.5h368 q17 0 23.5 -13.5t0 -27.5t-23.5 -14h-399q-44 -96 -47 -201h399q17 0 23.5 -13.5t0 -27.5t-23.5 -14h-397q12 -126 91.5 -204.5t197.5 -78.5q76 0 156.5 31.5t127.5 87.5q11 13 26.5 8.5t20 -18t-5.5 -27.5q-58 -67 -144.5 -102t-180.5 -35q-142 0 -236 95.5t-106 242.5h-80 q-17 0 -23.5 14z" />
<glyph unicode="&#x2122;" horiz-adv-x="1069" d="M371 1402.5q-5 9.5 0 19.5t18 10h344q13 0 18 -10t0 -19.5t-18 -9.5h-155l-89 -443q-1 -13 -10.5 -16.5t-18 3t-5.5 19.5l84 437h-150q-13 0 -18 9.5zM711 956l84 459q2 11 8.5 16.5t14.5 2t13 -14.5l119 -276l215 278q12 15 26 10t11 -22l-82 -459q-4 -20 -24 -17 q-17 2 -16 18l1 5l68 381l-191 -245q-17 -20 -34 6l-103 245l-71 -393q-2 -13 -12.5 -16.5t-19.5 3t-7 19.5z" />
<glyph unicode="&#x25fc;" horiz-adv-x="942" d="M0 0v942h942v-942h-942z" />
</font>
</defs>
</svg>
